<svg xmlns="http://www.w3.org/2000/svg" viewBox="0 0 700 500"><defs><clipPath id="clip-path"><rect class="cls-1" x="237.54" y="113.29" width="209.94" height="209.94" rx="9.75"/></clipPath><clipPath id="clip-path-2"><rect class="cls-3" x="430.66" y="121.3" width="11.57" height="11.57" rx="2.09"/></clipPath><clipPath id="clip-path-3"><rect class="cls-3" x="402.17" y="121.3" width="11.57" height="11.57" rx="2.09"/></clipPath><clipPath id="clip-path-4"><path class="cls-3" d="M502.67 389.51s-2.52-42.76-7.46-83.92c-3-24.69-7.92-49.15-9-67.43-1.49-23.91 27.71-17.27 53.13-18.33s50.11-4.36 51.87 17.86 4.19 150.41 4.19 150.41-48.21 12.9-92.73 1.41Z"/></clipPath><clipPath id="clip-path-5"><path class="cls-3" d="M567.17 219.09s24.76 1.47 24.62 9.08c0 0 12.4 5.28 13.06 11.24s52.95 62 43.89 78.26c-7.92 14.2-39.86 40.62-39.86 40.62s-3.06-6.86-6.51-14.87c0 0 14-30.57 20.43-33.71L589.16 267"/></clipPath><clipPath id="clip-path-6"><path class="cls-4" d="M496.88 221.7s-9.38-.4-15.35 16.46c0 0-7.06 4.12-21.43 35.48 0 0-2.47-3.31-7.78-12.38-4.64-7.92-11.72-18.15-17.56-33.12 0 0-4.71 5.79-14.78 5.46 0 0 21.83 73.75 37.12 73.75 16.86 0 35.42-39.2 35.42-39.2"/></clipPath><clipPath id="clip-path-7"><path class="cls-2" d="M543.91 192.83s2.57 25.48 8.25 28.55c0 0-.91 9.73-17.5 9.73s-16.6-13.72-16.6-13.72Z"/></clipPath><clipPath id="clip-path-8"><path d="M504.21 165.54s-15.11-1.45-11.79-13.64 15.93-13.52 15.93-13.52-2.55 8.75 12.42 7 31.14-3.18 31.8 11.93a31.86 31.86 0 0 1-4 28.49c-9.81 14-18.82 2.67-18.82 2.67l-7.75-16.7-14.4-3.05Z" style="stroke-miterlimit:10;stroke-width:.75px;stroke:#263238;fill:#263238"/></clipPath><clipPath id="clip-path-9"><path class="cls-1" d="M489 331.38s-8.33-5.29-20.22-1a260.47 260.47 0 0 0-30.78 3.48s1.35-3.57-3.48-2.76c0 0-1.8-37.2-7.93-49.76 0 0-.73 3.59-22.12 4.48 0 0-1.52 66.53 6.3 76.28s73.39 2.19 73.39 2.19 11.66-21.52 4.84-32.91Z"/></clipPath><clipPath id="clip-path-10"><path class="cls-1" d="M483.75 446.2s1.94-37.73 0-66.58-16.92-39.11 0-47.71 72.67-6.38 90.15 2.22 6.38 48.27 7.21 65.74S585 446.2 585 446.2Z"/></clipPath><clipPath id="clip-path-11"><path class="cls-2" d="M502.52 332.1s12.76 28.78 17.93 27.92 8.88-12.66 14.06-18.54 5.69-11.06 5.34-14.29l-1.46-14.69-11.65-1.3-16.64 12.21Z"/></clipPath><clipPath id="clip-path-12"><rect class="cls-3" x="266.31" y="235.27" width="126.36" height="18.14" rx="4.42"/></clipPath><clipPath id="clip-path-13"><path class="cls-1" d="M92.56 234.09S82.29 239.16 80 249.35c0 0-2.91-2.91-4.07 9.61 0 0-25.92 48.06-26.22 68.74s48.64 54.17 48.64 54.17 5.25-7 4.08-13.4c0 0-18.93-35.82-28.54-40.19 0 0 10.77-26.21 18.06-31.16s.61-63.03.61-63.03Z"/></clipPath><clipPath id="clip-path-14"><path class="cls-1" d="M96.57 389.44s-.59-21-3.5-53.59-19.22-97.85 3.5-103.68 68-9.49 83.29 5.24c16.9 16.31 4.08 107.18 3.5 122.91s2.33 33.78 2.33 33.78-60.29 13.11-89.12-4.66Z"/></clipPath><clipPath id="clip-path-15"><path class="cls-1" d="M158.86 228.58s21.5.09 29.7 6.79c0 0 0-3.49 6.45 0 0 0 19.51-2.33 28.54 0 0 0 11.07-27.38 17.77-34.66 0 0 9.61.59 12.23 4.95 1.25 2.08-1.7 13.5-4.44 25.13-3 12.84-6.07 25.94-8.67 27-4.95 2-57.08 6.7-57.08 6.7l-24.5-12.82Z"/></clipPath><clipPath id="clip-path-16"><rect class="cls-2" x="272.44" y="269.58" width="126.36" height="18.14" rx="4.42"/></clipPath><style>.cls-1,.cls-12{fill:#263238}.cls-1,.cls-19,.cls-2,.cls-3,.cls-9{stroke:#263238}.cls-1,.cls-13,.cls-19,.cls-2,.cls-3,.cls-9{stroke-linecap:round;stroke-linejoin:round}.cls-1,.cls-13,.cls-2,.cls-3,.cls-9{stroke-width:.75px}.cls-2,.cls-26,.cls-6{fill:#fff}.cls-3,.cls-4{fill:#4675ce}.cls-6{opacity:.7}.cls-19,.cls-7{fill:#858585}.cls-13,.cls-9{fill:none}.cls-11,.cls-21{opacity:.2}.cls-13{stroke:#7f7f7f}.cls-17{opacity:.3}</style></defs><g id="Background_Simple" data-name="Background Simple"><path class="cls-4" d="M532.56 446.19c33.09-63.68 103.22-209.5 73.26-257-29.15-46.29-72.84-17.21-127.33-45.51S454.56 20.41 358.75 19.05c-94.08-1.34-106.48 154.68-143.47 170.09S90.78 142.33 71.93 232c-14.67 69.74 59.6 172.18 93.3 214.23Z"/><path class="cls-6" d="M533.5 446.19c33.09-63.68 103.22-209.5 73.27-257-29.16-46.29-72.85-17.21-127.34-45.51S455.5 20.41 359.69 19.05c-94.08-1.34-106.48 154.68-143.47 170.09S91.72 142.33 72.87 232c-14.66 69.74 59.6 172.18 93.31 214.23Z"/></g><g id="Shadow"><path class="cls-7" d="M596.77 446.19H85.86c-6.53 2.93-11.91 6.6-7.15 9.53 9.47 5.84 72.42-3.9 58.14 19.46s142.74-5.19 159.61-4.54 29.2 13.75 55.15 13.75 28.08-16.78 44.86-16.78 136 20.34 186.7 0c22.37-8.97 21.53-16.17 13.6-21.42Z"/><path d="M596.77 446.19H85.86c-6.53 2.93-11.91 6.6-7.15 9.53 9.47 5.84 72.42-3.9 58.14 19.46s142.74-5.19 159.61-4.54 29.2 13.75 55.15 13.75 28.08-16.78 44.86-16.78 136 20.34 186.7 0c22.37-8.97 21.53-16.17 13.6-21.42Z" style="opacity:.6;fill:#fff"/></g><path class="cls-1" d="M71.96 446.19h528.51" id="Table"/><g id="Cloud"><path class="cls-9" d="M426.82 84.71h31.47m-37.2 0h2.81m-7.28-47.57a23.79 23.79 0 0 0 0 47.57m28.99-67.79A23.77 23.77 0 0 0 422 37.78m46 46.93a21 21 0 0 0 1.29-42c.06-.66.11-1.33.11-2a23.8 23.8 0 0 0-18-23.07m57.98 96.89a15.93 15.93 0 0 0 1.39-2.4l3.11.05a18.47 18.47 0 0 0 1-3.78l-2.72-1.51c0-.45.07-.92.07-1.38s0-.93-.07-1.39l2.72-1.51a18.47 18.47 0 0 0-1-3.78l-3.11.06a15.55 15.55 0 0 0-1.39-2.41l1.6-2.66a19 19 0 0 0-2.76-2.77l-2.67 1.6a15.45 15.45 0 0 0-2.4-1.39l.05-3.11a19 19 0 0 0-3.77-1l-1.51 2.72m-15.06 23.37c.25.45.52.87.81 1.29l-1.59 2.66a18.07 18.07 0 0 0 2.76 2.77l2.66-1.6a15.55 15.55 0 0 0 2.41 1.39l-.05 3.11a18.86 18.86 0 0 0 3.77 1l1.51-2.72c.46 0 .92.06 1.39.06s.93 0 1.39-.06l1.51 2.72a19 19 0 0 0 3.77-1l-.05-3.11a15.45 15.45 0 0 0 2.4-1.39l2.67 1.6a18.53 18.53 0 0 0 2.76-2.77M480.4 98.85h-1.22a18.49 18.49 0 0 0-1 3.78l2.72 1.51c0 .46-.06.92-.06 1.39s0 .93.06 1.38l-2.72 1.51a18.49 18.49 0 0 0 1 3.78l3.1-.05m12.86-22.29-1.51-2.72a18.86 18.86 0 0 0-3.77 1l.05 3.11a15.55 15.55 0 0 0-2.41 1.39l-2.66-1.6a18.53 18.53 0 0 0-2.76 2.77l1.59 2.66a16.4 16.4 0 0 0-1.39 2.41"/><path class="cls-9" d="M494.49 115.42a10.12 10.12 0 0 1 2-20m9.88 12.46a10.13 10.13 0 0 1-9.84 7.75m10.08-9.24c0 .24-.05.47-.09.71m-6.3-11.02a10.13 10.13 0 0 1 6.43 9.43m17.12-21.69a8.37 8.37 0 0 0 .77-1.33h1.72a9.76 9.76 0 0 0 .56-2.09l-1.5-.83v-1.54l1.5-.83a9.6 9.6 0 0 0-.56-2.09h-1.72a8.37 8.37 0 0 0-.77-1.33l.89-1.48a11.06 11.06 0 0 0-1.53-1.53l-1.48.89a8 8 0 0 0-1.33-.77v-1.72a9.6 9.6 0 0 0-2.09-.56l-.83 1.5m-8.3 13c.14.24.29.48.45.71l-.88 1.48a9.93 9.93 0 0 0 1.52 1.52l1.48-.88a9.21 9.21 0 0 0 1.33.77v1.72a9.76 9.76 0 0 0 2.09.56l.83-1.51a6.62 6.62 0 0 0 .77 0 6.51 6.51 0 0 0 .77 0l.83 1.51a9.6 9.6 0 0 0 2.09-.56v-1.72a8.7 8.7 0 0 0 1.33-.77l1.48.88a10.47 10.47 0 0 0 1.53-1.52m-16.98-10.15h-.68a9.6 9.6 0 0 0-.56 2.09l1.51.83a6.51 6.51 0 0 0 0 .77 6.62 6.62 0 0 0 0 .77l-1.51.83a9.76 9.76 0 0 0 .56 2.09h1.72m7.11-12.36-.83-1.5a9.76 9.76 0 0 0-2.09.56L513 71a8.37 8.37 0 0 0-1.33.77l-1.48-.89a10.47 10.47 0 0 0-1.52 1.53l.88 1.48a9.21 9.21 0 0 0-.77 1.33m-263 8.58h23.07m-27.27 0h2.06m-5.34-34.86a17.43 17.43 0 0 0 0 34.86m21.26-49.68a17.43 17.43 0 0 0-17.29 15.29M276 83.8a15.4 15.4 0 0 0 1-30.78c0-.49.08-1 .08-1.47a17.46 17.46 0 0 0-13.17-16.91m-46.51 80.47a15.49 15.49 0 0 0 1.48-2.56l3.31.06a19.84 19.84 0 0 0 1.08-4l-2.9-1.61a14.19 14.19 0 0 0 .07-1.47 14.52 14.52 0 0 0-.07-1.48l2.9-1.61a19.92 19.92 0 0 0-1.08-4h-3.31a15.91 15.91 0 0 0-1.48-2.56l1.7-2.83a20 20 0 0 0-2.94-2.95l-2.83 1.71a15.91 15.91 0 0 0-2.56-1.48v-3.31a19.92 19.92 0 0 0-4-1.08l-1.61 2.9m-15.99 24.9c.27.47.56.93.87 1.37l-1.7 2.84a19.46 19.46 0 0 0 2.94 2.94l2.84-1.7a17.05 17.05 0 0 0 2.56 1.48l-.06 3.31a19.19 19.19 0 0 0 4 1.07l1.6-2.89c.49 0 1 .07 1.48.07s1 0 1.48-.07l1.61 2.89a19.27 19.27 0 0 0 4-1.07v-3.31a17.56 17.56 0 0 0 2.56-1.48l2.83 1.7a19.46 19.46 0 0 0 2.92-2.89m-32.54-19.57h-1.31a19.27 19.27 0 0 0-1.07 4l2.89 1.61c0 .49-.07 1-.07 1.48s0 1 .07 1.47l-2.89 1.61a19.19 19.19 0 0 0 1.07 4l3.31-.06m13.68-23.68-1.6-2.9a19.84 19.84 0 0 0-4 1.08l.06 3.31a15.49 15.49 0 0 0-2.56 1.48l-2.84-1.71a20 20 0 0 0-2.94 2.95L190 95.9a17.56 17.56 0 0 0-1.48 2.56"/><path class="cls-9" d="M201.55 116.06a10.78 10.78 0 0 1 2.17-21.33M214.2 108a10.79 10.79 0 0 1-10.48 8.25m10.74-9.8c0 .25-.06.5-.1.75m-6.71-11.73a10.78 10.78 0 0 1 6.85 10m-38.31-.89a12.61 12.61 0 0 0 1.11-1.92h2.49a15.09 15.09 0 0 0 .81-3l-2.18-1.21c0-.36.05-.73.05-1.11s0-.74-.05-1.11L180.6 95a15.18 15.18 0 0 0-.81-3h-2.49a12.15 12.15 0 0 0-1.11-1.92l1.28-2.08a14.83 14.83 0 0 0-2.21-2.2l-2.13 1.27A13.61 13.61 0 0 0 171.2 86v-2.48a14.53 14.53 0 0 0-3-.81l-1.2 2.14m-12 18.7c.2.35.42.7.65 1l-1.28 2.13a15.39 15.39 0 0 0 2.21 2.21l2.13-1.28a12.27 12.27 0 0 0 1.92 1.11v2.49a14.62 14.62 0 0 0 3 .81l1.21-2.18a10.18 10.18 0 0 0 1.11.06 10.32 10.32 0 0 0 1.11-.06l1.21 2.18a14.53 14.53 0 0 0 3-.81v-2.49a11.92 11.92 0 0 0 1.93-1.11l2.13 1.28a15.39 15.39 0 0 0 2.21-2.21M153 92h-1a15.18 15.18 0 0 0-.81 3l2.18 1.21c0 .37-.05.74-.05 1.11s0 .75.05 1.11l-2.18 1.21a15.09 15.09 0 0 0 .81 3h2.49m10.31-17.79-1.21-2.17a14.62 14.62 0 0 0-3 .81v2.48a14.08 14.08 0 0 0-1.92 1.11l-2.13-1.27a14.83 14.83 0 0 0-2.21 2.2l1.28 2.14a11.42 11.42 0 0 0-1.11 1.92m10.3 10.71a5.53 5.53 0 0 1 1.11-10.94m5.37 6.82a5.53 5.53 0 0 1-5.37 4.23m2.02-10.67a5.51 5.51 0 0 1 3.5 5.14"/></g><g id="Plant"><path class="cls-4" d="M349.94 408.68s-32.77-18.95-28.4-24.22 19.39 9.47 19.39 9.47-28.95-36.32-23.76-40 19.93 20.34 19.93 20.34-17.75-40.06-10.92-41.19 17.75 34.63 17.75 34.63-4.64-25.39 0-25.94 7.92 40.23 7.92 40.23-.23-19.19 3.84-19.06 5.72 43.06-5.75 45.74Z"/><path d="M349.94 408.68s-32.77-18.95-28.4-24.22 19.39 9.47 19.39 9.47-28.95-36.32-23.76-40 19.93 20.34 19.93 20.34-17.75-40.06-10.92-41.19 17.75 34.63 17.75 34.63-4.64-25.39 0-25.94 7.92 40.23 7.92 40.23-.23-19.19 3.84-19.06 5.72 43.06-5.75 45.74Z" style="opacity:.4;fill:#fff"/><path class="cls-4" d="M355.07 407.08s26-15 22.5-19.18-15.36 7.51-15.36 7.51 22.93-28.77 18.82-31.69-15.79 16.11-15.79 16.11 14.06-31.72 8.65-32.62-14.06 27.43-14.06 27.43 3.68-20.11 0-20.54-6.27 31.9-6.27 31.9.18-15.19-3-15.09-4.56 34.01 4.51 36.17Z"/><path class="cls-11" d="M355.07 407.08s26-15 22.5-19.18-15.36 7.51-15.36 7.51 22.93-28.77 18.82-31.69-15.79 16.11-15.79 16.11 14.06-31.72 8.65-32.62-14.06 27.43-14.06 27.43 3.68-20.11 0-20.54-6.27 31.9-6.27 31.9.18-15.19-3-15.09-4.56 34.01 4.51 36.17Z"/><path class="cls-12" d="M327.09 402v2a3.91 3.91 0 0 0 2.78 3.73l3 31.49a8.07 8.07 0 0 0 8 7.32h21.94a8.08 8.08 0 0 0 8-7.32l3-31.49a3.9 3.9 0 0 0 2.79-3.73v-2Z"/><path class="cls-13" d="M330.37 413a3.27 3.27 0 0 0 2.78-.91l2.58-2.59a3.25 3.25 0 0 1 4.58 0l2.58 2.59a3.25 3.25 0 0 0 4.58 0l2.6-2.59a3.24 3.24 0 0 1 4.57 0l2.59 2.59a3.24 3.24 0 0 0 4.57 0l2.6-2.59a3.25 3.25 0 0 1 4.58 0l2.58 2.59a3.09 3.09 0 0 0 1.76.9"/></g><g id="Interface"><rect class="cls-12" x="237.54" y="113.29" width="209.94" height="209.94" rx="9.75"/><g style="clip-path:url(#clip-path)"><rect x="237.54" y="113.29" width="209.94" height="209.94" rx="9.75" style="opacity:.8;fill:#fff"/></g><rect class="cls-9" x="237.54" y="113.29" width="209.94" height="209.94" rx="9.75"/><rect class="cls-12" x="242.79" y="138.51" width="199.44" height="179.47" rx="9.75"/><rect class="cls-9" x="242.79" y="138.51" width="199.44" height="179.47" rx="9.75"/><rect class="cls-4" x="430.66" y="121.3" width="11.57" height="11.57" rx="2.09"/><rect class="cls-17" x="430.66" y="121.3" width="11.57" height="11.57" rx="2.09" style="clip-path:url(#clip-path-2)"/><rect class="cls-9" x="430.66" y="121.3" width="11.57" height="11.57" rx="2.09"/><rect class="cls-3" x="416.42" y="121.3" width="11.57" height="11.57" rx="2.09"/><rect class="cls-4" x="402.17" y="121.3" width="11.57" height="11.57" rx="2.09"/><rect class="cls-6" x="402.17" y="121.3" width="11.57" height="11.57" rx="2.09" style="clip-path:url(#clip-path-3)"/><rect class="cls-9" x="402.17" y="121.3" width="11.57" height="11.57" rx="2.09"/><path class="cls-12" d="M246.16 122.37h1l3.2 8.52h-1.5l-2.21-6.35-2.2 6.35H243Zm-1.69 5.56H249v1.34h-4.48Zm6.97-3.12h1.4v8.55h-1.4Zm1.91 5.9a1.63 1.63 0 0 1-.6-.78l.09-1.33a1.32 1.32 0 0 0 .12.59.83.83 0 0 0 .36.38 1.2 1.2 0 0 0 .57.12 1 1 0 0 0 .8-.32 1.34 1.34 0 0 0 .29-.94v-1.14a1.37 1.37 0 0 0-.29-1 1 1 0 0 0-.8-.34 1.09 1.09 0 0 0-.57.13.81.81 0 0 0-.36.37 1.35 1.35 0 0 0-.12.59l-.13-1.26a2.08 2.08 0 0 1 .69-.82 1.63 1.63 0 0 1 .94-.29 2 2 0 0 1 1.1.3 1.85 1.85 0 0 1 .7.87 3.66 3.66 0 0 1 .24 1.4v1.14a3.55 3.55 0 0 1-.24 1.38 1.87 1.87 0 0 1-.71.87 2.06 2.06 0 0 1-1.12.3 1.69 1.69 0 0 1-.96-.22Zm4.65-5.9h1.4v6.08H258Zm.64 2.36h2.67v1.34h-2.71Zm1.44.23 1.36-2.59H263l-2 3.64Zm0 .92 1.19-.61 2.06 3.18h-1.73Zm4.92 2.35a2 2 0 0 1-.88-.91 3.12 3.12 0 0 1-.3-1.43v-1a3.13 3.13 0 0 1 .3-1.42 2 2 0 0 1 .88-.91 2.81 2.81 0 0 1 1.38-.31 2.88 2.88 0 0 1 1.39.31 2 2 0 0 1 .88.89 3.13 3.13 0 0 1 .3 1.42v1a3.1 3.1 0 0 1-.3 1.42 2.12 2.12 0 0 1-.88.9 3 3 0 0 1-1.39.31 2.93 2.93 0 0 1-1.38-.27Zm2.25-1.37a1.39 1.39 0 0 0 .3-1v-1a1.34 1.34 0 0 0-.3-.94 1.27 1.27 0 0 0-1.73 0 1.34 1.34 0 0 0-.3.94v1a1.39 1.39 0 0 0 .3 1 1.11 1.11 0 0 0 .86.34 1.14 1.14 0 0 0 .84-.34Zm9.11-6.93H278v8.52h-1.31v-6.5l.06.38-1.87 5h-1.12l-1.87-4.94.06-.49v6.5h-1.31v-8.52h1.62l2.06 5.68Zm4.57 8.29a2.2 2.2 0 0 1-.93-.93 3.2 3.2 0 0 1-.32-1.48v-.68A3.44 3.44 0 0 1 280 126a2.17 2.17 0 0 1 .89-1 2.87 2.87 0 0 1 1.42-.33 2.25 2.25 0 0 1 1.33.39 2.4 2.4 0 0 1 .84 1.13 4.71 4.71 0 0 1 .29 1.78v.4h-4.13v-1h2.83v-.06a1.72 1.72 0 0 0-.36-1 1 1 0 0 0-.8-.35 1.24 1.24 0 0 0-1 .39 1.65 1.65 0 0 0-.35 1.12v.78a1.3 1.3 0 0 0 1.43 1.43 1.87 1.87 0 0 0 .69-.13 2.07 2.07 0 0 0 .6-.37l.92.86a3.49 3.49 0 0 1-1 .67 3.06 3.06 0 0 1-1.17.24 3.19 3.19 0 0 1-1.5-.29Zm5.36-5.25a3.14 3.14 0 0 1 .28-1.43 1.74 1.74 0 0 1 .87-.82 3.69 3.69 0 0 1 1.49-.29 1.58 1.58 0 0 0 .47-.06.51.51 0 0 0 .27-.16.43.43 0 0 0 .09-.28h1.37a1.84 1.84 0 0 1-.23 1 1.32 1.32 0 0 1-.69.55 3.29 3.29 0 0 1-1.18.18 1.82 1.82 0 0 0-.79.15.9.9 0 0 0-.46.44 1.66 1.66 0 0 0-.15.76v2.23h-1.34Zm1.18 5.26a2 2 0 0 1-.88-.91 3.12 3.12 0 0 1-.3-1.43v-.93l1-1.06a1.67 1.67 0 0 1 .58-1 1.87 1.87 0 0 1 1.2-.36 2.45 2.45 0 0 1 1.24.31 2 2 0 0 1 .79.9 3.35 3.35 0 0 1 .27 1.41v.78a3.1 3.1 0 0 1-.3 1.42 2.12 2.12 0 0 1-.88.9 3 3 0 0 1-1.39.31 2.93 2.93 0 0 1-1.33-.34Zm2.24-1.37a1.34 1.34 0 0 0 .31-1v-.78a1.32 1.32 0 0 0-.31-.94 1.11 1.11 0 0 0-.86-.33 1.12 1.12 0 0 0-.86.33 1.36 1.36 0 0 0-.3.94v.78a1.39 1.39 0 0 0 .3 1 1.26 1.26 0 0 0 1.72 0Zm4.37 1.36a2.09 2.09 0 0 1-.93-.93 3.08 3.08 0 0 1-.32-1.48v-.68a3.58 3.58 0 0 1 .3-1.54 2.25 2.25 0 0 1 .9-1 2.87 2.87 0 0 1 1.42-.33 2.25 2.25 0 0 1 1.33.39 2.4 2.4 0 0 1 .84 1.13 4.71 4.71 0 0 1 .29 1.78v.4h-4.13v-1h2.83v-.06a1.72 1.72 0 0 0-.36-1 1 1 0 0 0-.8-.35 1.23 1.23 0 0 0-1 .39 1.65 1.65 0 0 0-.35 1.12v.78a1.3 1.3 0 0 0 1.43 1.43 1.79 1.79 0 0 0 .68-.13 2 2 0 0 0 .61-.37l.91.86a3.26 3.26 0 0 1-1 .67 3 3 0 0 1-1.16.24 3.19 3.19 0 0 1-1.49-.32Zm4.65-1.06a.78.78 0 0 0 .67-.33 1.63 1.63 0 0 0 .24-1v-3.51H301v3.67a3.16 3.16 0 0 1-.25 1.33 1.77 1.77 0 0 1-.73.84 2.11 2.11 0 0 1-1.15.29h-.12Zm1.71-4.79h3.07v1.34h-3.07Zm2.29 0h1.4v6.08h-1.4Zm3.16 0h1.4v6.08h-1.4Zm.69 4.74h2.09a.67.67 0 0 0 .52-.21.77.77 0 0 0 .2-.55.87.87 0 0 0-.09-.4.72.72 0 0 0-.25-.27.8.8 0 0 0-.38-.1h-2.09v-1.25h2.1a2.33 2.33 0 0 1 1.11.26 1.86 1.86 0 0 1 .75.72 2.21 2.21 0 0 1 .26 1.08 2.11 2.11 0 0 1-.26 1.08 1.83 1.83 0 0 1-.74.72 2.37 2.37 0 0 1-1.12.26h-2.1Z"/></g><g id="Character_4" data-name="Character 4"><path class="cls-19" d="M503.26 383.26s1.67 11 1.27 14.65c-1.32 12.27-7.61 24.44-10.27 48.28h102.17s.93-43.48-3.08-62.93Z"/><path class="cls-4" d="M502.67 389.51s-2.52-42.76-7.46-83.92c-3-24.69-7.92-49.15-9-67.43-1.49-23.91 27.71-17.27 53.13-18.33s50.11-4.36 51.87 17.86 4.19 150.41 4.19 150.41-48.21 12.9-92.73 1.41Z"/><path d="M494.88 252.19a83.74 83.74 0 0 1-28.24 35.15l2.36 5.46c-2.76 2.32-7.82.19-8.08-3.41l-2.87 14.74-9.15-.29c4.48 4.55 12.35 3.86 17.63.27s8.62-9.32 11.91-14.79 7-11.09 12.54-14.17q10.08 47.36 20.17 94.7c1.08 5.09 2.24 10.35 5.3 14.57 6.35 8.74 18.62 10.33 29.42 10.23a189.72 189.72 0 0 0 47.46-6.48L592.16 272 623 310.3q-7.53 10.38-15 20.78a37.35 37.35 0 0 1 28.77-16.39 7.7 7.7 0 0 0-7.3-2l9.52-3-7.44-.65 4.15-6.72c-1 1.92-3.61 2.46-5.65 1.76s-3.61-2.31-5.09-3.87c-6.79-7.11-13.65-14.32-18.5-22.87S598.82 258.56 601 249l-3.47 8.64-5.29-14.77a13.77 13.77 0 0 1-4.14 13c-1.41 1.26-3.15 2.3-3.89 4.07a4.38 4.38 0 0 0-.19 2.51c13.28 71-29.9 71.41-45 67.5-13.57-3.5-26-20.59-26.51-34.42a2.26 2.26 0 0 1 3.36-2c25.51 14.09 47.39 17.69 39.8 11.86-13.51-2.89-49.48-17.64-55.48-49.79a4.32 4.32 0 0 0-5.26-3.41Z" class="cls-21" style="clip-path:url(#clip-path-4)"/><path class="cls-9" d="M502.67 389.51s-2.52-42.76-7.46-83.92c-3-24.69-7.92-49.15-9-67.43-1.49-23.91 27.71-17.27 53.13-18.33s50.11-4.36 51.87 17.86 4.19 150.41 4.19 150.41-48.21 12.9-92.73 1.41Zm41.55 56.68a47.31 47.31 0 0 0-3.32-6.73c-6.24-8.31-5.46-15.39-7.75-23.13-.7-2.37-5.49-8.23-5.49-8.23"/><path class="cls-2" d="m606.45 340.04-7.43 8.82 2.29 15.46 11.32-11.91-6.18-12.37z"/><path d="M600.38 349.5c-.31-1.5-.48-5.33-1.93-5.83-2.66-.92-7.78 3.92-9.4 6.22-.76 1.09-2.4 3.41-2.38 4.73 0 .68.6 2.29 1.26 2.4 1.17.18 2.49-2.52 3.39-3.28a46.15 46.15 0 0 1 5.35-3.05s-3.15 4.57-4.43 5.62c-1.92 1.57-9.88 6-4.82 8.64 0 0-1.95 2.87 1.1 3.62s7.92-3.46 7.92-3.46a18.62 18.62 0 0 1-3.1 3.35c-1.94 1.73-4.8 1.35-4.12 2.57 1 1.89 3.65 2.06 6.42 1.13a10.66 10.66 0 0 0 6.62-5.29c2.5-4.15-.99-13.09-1.88-17.37Z" style="stroke:#1a2e35;fill:#fff;stroke-width:.75px;stroke-linecap:round;stroke-linejoin:round"/><path d="M589.51 364.32a55.46 55.46 0 0 0 6.28-3.69 11.8 11.8 0 0 0 3.23-3.8" style="stroke:#1a2e35;fill:none;stroke-width:.75px;stroke-linecap:round;stroke-linejoin:round"/><path class="cls-4" d="M567.17 219.09s24.76 1.47 24.62 9.08c0 0 12.4 5.28 13.06 11.24s52.95 62 43.89 78.26c-7.92 14.2-39.86 40.62-39.86 40.62s-3.06-6.86-6.51-14.87c0 0 14-30.57 20.43-33.71L589.16 267"/><path d="M495.2 252.44a83.66 83.66 0 0 1-27.47 34.3.92.92 0 0 0-.3 1.11c.59 1.36 1.18 2.72 1.78 4.07a.93.93 0 0 1-.4 1.19 5.44 5.44 0 0 1-6.35-1.46.91.91 0 0 0-1.58.45l-2.16 11.09a.92.92 0 0 1-.93.75l-5.45-.17a.92.92 0 0 0-.49 1.72c4.54 2.43 10.78 1.46 15.2-1.54 5.28-3.59 8.61-9.33 11.91-14.79 3.06-5.09 6.43-10.3 11.39-13.49a.93.93 0 0 1 1.42.58q9.94 46.71 19.9 93.43c1.08 5.1 2.24 10.36 5.3 14.58 6.34 8.74 18.62 10.33 29.42 10.23a189.28 189.28 0 0 0 46.76-6.3.92.92 0 0 0 .69-.9q-.57-56.42-1.16-112.81a.92.92 0 0 1 1.64-.59L623 309.58a.92.92 0 0 1 0 1.12l-14.63 20.22a37.45 37.45 0 0 1 26.29-16.18.92.92 0 0 0 .34-1.74l-.53-.22a.92.92 0 0 1 .08-1.73l.52-.17a.92.92 0 0 0-.2-1.79l-1.37-.12a.93.93 0 0 1-.71-1.41q1.69-2.71 3.37-5.45c-1 1.92-3.61 2.47-5.65 1.77s-3.61-2.32-5.1-3.88c-6.78-7.11-13.64-14.31-18.49-22.86-3.74-6.6-6.21-14.15-6.15-21.66a.92.92 0 0 0-1.77-.36v.09a.93.93 0 0 1-1.73 0l-2.6-7.26a.93.93 0 0 0-1.78.11 13.62 13.62 0 0 1-4.24 7.71c-1.35 1.22-3 2.23-3.79 3.87-1.06 2.21-.22 4.81.49 7.16 4.39 14.66 2.31 31.48-6.88 43.71s-25.74 19-40.56 15.16c-14.42-3.72-25.74-18.08-24.86-32.89a.92.92 0 0 1 1.23-.79 170.92 170.92 0 0 0 35.46 8.56.93.93 0 0 0 .37-1.81c-9.89-2.76-19.47-6.49-27.9-12.28-11.6-8-20.82-20.44-22.06-34.42a.91.91 0 0 0-1.12-.82l-3.14.75a.88.88 0 0 0-.69.47Z" class="cls-21" style="clip-path:url(#clip-path-5)"/><path class="cls-9" d="M567.17 219.09s24.76 1.47 24.62 9.08c0 0 12.4 5.28 13.06 11.24s52.95 62 43.89 78.26c-7.92 14.2-39.86 40.62-39.86 40.62s-3.06-6.86-6.51-14.87c0 0 14-30.57 20.43-33.71L589.16 267"/><path class="cls-9" d="M639.77 308.53c-5.51-3.88-13.33.2-13.33-2.35s9.41-2.78 8.63-5.41m-38.48-45.06a44.18 44.18 0 0 0 2.61-15m-6.63-3.27c.29 5.81.58 14.07.32 20.37a1.35 1.35 0 0 0 2.57.62m-3.32-28.1s.09 1.24.22 3.27M479.15 247s-1.48 10.29 0 17.64"/><path class="cls-2" d="m435.89 236.7-5.67-16.32S428.45 209.21 427 207a33.34 33.34 0 0 0-5.29-5.29 38.85 38.85 0 0 0-4.68-5.44c-1.93-1.62-13.25-7.5-14.13-7.06s-2.28 3.09 5.07 7.2a18.8 18.8 0 0 0-7.28 1c-3.23 1.33-5.44 1.69-4 3.09s2.57 2.06 7.79.66a40.9 40.9 0 0 0 6.61.22l1.62 1.91a3.18 3.18 0 0 0-4 1.25c-1.47 2.35-3.16 5.29-2.42 7 0 0-5.66-2.94-7.21-.51s3.24 4.63 5.15 6.1 6.54 5.44 6.54 5.44 3.28 7.43 10.23 10.16c0 0 2.67 3.09 1.91 6Z"/><path class="cls-9" d="m411.55 198.41 2.43 1.98 2.71 4.71 1.84 6.17m1.55 0s-3.86 4.63-6.6 5.29a25.71 25.71 0 0 1-3.48-1.76c-.49-.43-1.23-1.26-2.72-2.45m8.53-1.45-.35-1.25a8.21 8.21 0 0 1-3.47 0l-.88 1.25a16.7 16.7 0 0 1 4.7 0Zm-3.89-5.22a6.32 6.32 0 0 1 .51 3.17"/><path class="cls-9" d="M409.64 209.65a7.39 7.39 0 0 1 2.54 6.33m2.01-11.47 1.62 1.76v1.99"/><path class="cls-4" d="M496.88 221.7s-9.38-.4-15.35 16.46c0 0-7.06 4.12-21.43 35.48 0 0-2.47-3.31-7.78-12.38-4.64-7.92-11.72-18.15-17.56-33.12 0 0-4.71 5.79-14.78 5.46 0 0 21.83 73.75 37.12 73.75 16.86 0 35.42-39.2 35.42-39.2"/><path d="M495.2 252.44a83.66 83.66 0 0 1-27.47 34.3.92.92 0 0 0-.3 1.11c.59 1.36 1.18 2.72 1.78 4.07a.93.93 0 0 1-.4 1.19 5.44 5.44 0 0 1-6.35-1.46.91.91 0 0 0-1.58.45l-2.16 11.09a.92.92 0 0 1-.93.75l-5.45-.17a.92.92 0 0 0-.49 1.72c4.54 2.43 10.78 1.46 15.2-1.54 5.28-3.59 9.69-9.16 13-14.63 3-5.08 5.49-10.43 10.3-13.63a.93.93 0 0 1 1.43.57q9.94 46.71 19.9 93.42c1.08 5.1 2.24 10.36 5.3 14.58 6.34 8.74 18.62 10.33 29.42 10.23a189.28 189.28 0 0 0 46.76-6.3.92.92 0 0 0 .69-.9q-.57-56.42-1.16-112.81a.92.92 0 0 1 1.64-.59L623 309.58a.92.92 0 0 1 0 1.12l-14.63 20.22a37.45 37.45 0 0 1 26.29-16.18.92.92 0 0 0 .34-1.74l-.53-.22a.92.92 0 0 1 .08-1.73l.52-.17a.92.92 0 0 0-.2-1.79l-1.37-.12a.93.93 0 0 1-.71-1.41q1.69-2.71 3.37-5.45c-1 1.92-3.61 2.47-5.65 1.77s-3.61-2.32-5.1-3.88c-6.78-7.11-13.64-14.31-18.49-22.86-3.74-6.6-6.21-14.15-6.15-21.66a.92.92 0 0 0-1.77-.36v.09a.93.93 0 0 1-1.73 0l-2.6-7.26a.93.93 0 0 0-1.78.11 13.62 13.62 0 0 1-4.24 7.71c-1.35 1.22-3 2.23-3.79 3.87-1.06 2.21-.22 4.81.49 7.16 4.39 14.66 2.31 31.48-6.88 43.71s-25.74 19-40.56 15.16c-14.42-3.72-25.74-18.08-24.86-32.89a.92.92 0 0 1 1.23-.79 170.92 170.92 0 0 0 35.46 8.56.93.93 0 0 0 .37-1.81c-9.89-2.76-19.47-6.49-27.9-12.28-11.6-8-20.82-20.44-22.06-34.42a.91.91 0 0 0-1.12-.82l-3.14.75a.88.88 0 0 0-.69.47Z" class="cls-21" style="clip-path:url(#clip-path-6)"/><path class="cls-9" d="M496.88 221.7s-9.38-.4-15.35 16.46c0 .05-7.74 5.57-21.43 35.48 0 0-2.47-3.31-7.78-12.38-4.64-7.92-11.72-18.15-17.56-33.12 0 0-4.71 5.79-14.78 5.46 0 0 21.83 73.75 37.12 73.75 16.86 0 35.42-39.2 35.42-39.2"/><path class="cls-9" d="M486.4 241.87c-.1-1.19-.18-2.43-.24-3.71m1.84 26.05c2.73-.3.35-5.91-1.1-17.22m-5.9-3.73s2.28 13.32 4.9 18.72"/><path class="cls-26" d="M543.91 192.83s2.57 25.48 8.25 28.55c0 0-.91 9.73-17.5 9.73s-16.6-13.72-16.6-13.72Z"/><path class="cls-1" d="M508.05 165.28s-2.69 16-2.25 19.37-.38 6.82.3 12.25 4.82 20.58 14.7 22.89c5.2 1.21 16.32-3.79 20.94-14.11.32-.69 2.17-8.6 2.17-8.6s4.58 3.09 6.05-1.92 3.95-9.58.77-12.57-7.47 3.49-8.07 5.88-2.95-.32-2.95-.32-1.46-11-4.91-14 3-8.59-.28-12.44-17.77-2.94-26.47 3.57Z" style="clip-path:url(#clip-path-7)"/><path class="cls-9" d="M543.91 192.83s2.57 25.48 8.25 28.55c0 0-.91 9.73-17.5 9.73s-16.6-13.72-16.6-13.72Z"/><path class="cls-12" d="M504.21 165.54s-15.11-1.45-11.79-13.64 15.93-13.52 15.93-13.52-2.55 8.75 12.42 7 31.14-3.18 31.8 11.93a31.86 31.86 0 0 1-4 28.49c-9.81 14-18.82 2.67-18.82 2.67l-7.75-16.7-14.4-3.05Z"/><g style="clip-path:url(#clip-path-8)"><path d="M526 157.37s17.88 2.07 26.62 0 11.13 21.6 11.13 21.6l-2.12 14.44-23.85 4.11-11-9.81-4.55-13.71Z" style="fill:#858585;stroke-miterlimit:10;stroke-width:.75px;stroke:#263238"/></g><path d="M504.21 165.54s-15.11-1.45-11.79-13.64 15.93-13.52 15.93-13.52-2.55 8.75 12.42 7 31.14-3.18 31.8 11.93a31.86 31.86 0 0 1-4 28.49c-9.81 14-18.82 2.67-18.82 2.67l-7.75-16.7-14.4-3.05Z" style="fill:none;stroke-miterlimit:10;stroke-width:.75px;stroke:#263238"/><path class="cls-2" d="M502 163.57s-3.45 16.15-3 19.43-.59 6.86.08 12.29 3 25.8 14.77 24.23c11.56-1.53 27.46-11 28.87-20.39.12-.76.81-3 .81-3a5.34 5.34 0 0 0 6.65-3.56c1.82-5.06 4.81-9.7 1.17-12.63-3.79-3.06-8.78 3.66-9.53 6.08s-3.42-.26-3.42-.26-1.46-11-5.41-13.89 3.66-8.69-.06-12.47-20.63-2.54-30.93 4.17Z"/><path class="cls-2" d="M508.07 182.8c0 3-5.6 8.16-4.94 10.81.36 1.45 4.13 2.16 4.91 3.44a2.81 2.81 0 0 1 .31 1.22"/><path class="cls-12" d="M502.72 184.56c-.08 1.16-.61 2.06-1.19 2s-1-1-.89-2.17.62-2.06 1.19-2 .97 1.01.89 2.17Zm13.05-1.9c-.09 1.21-.65 2.15-1.25 2.11s-1-1.06-.93-2.27.65-2.15 1.25-2.11 1.01 1.06.93 2.27Z"/><path class="cls-9" d="M509.86 177.31s5-4 11.62.25"/><path class="cls-2" d="M524.07 200.78s-11 9.76-15.73 1.26"/><path class="cls-9" d="M496.51 180.14s3.31-4.54 8.93-1.19"/><path class="cls-12" d="M505.71 161.36s-16.3 1.06-8.13 11.24c0 0-.18-7.33 8.13-11.24Z"/><path class="cls-9" d="M507.68 315.55c9.63 17.07 34.05 52.92 70.13 55m-74.74-63.9s.71 1.57 2.08 4.23"/><path d="M556.12 219.09c-1.6 0-3.22.1-4.86.17-.88 7.43-9.56 9.58-17.58 9.58-7.82 0-12.26-2.05-12.88-9.05h-4.85c.64 9.91 7.17 13.81 17.73 13.81 10.79-.05 21.78-4.12 22.44-14.51Z" style="stroke-miterlimit:10;fill:#4675ce;stroke:#263238"/><path class="cls-9" d="M459.31 292.56s-.44-12.35 1.32-12.94 1.76 6.76 6.47 6.47"/><rect class="cls-2" x="280.05" y="189.77" width="126.36" height="18.14" rx="4.42" transform="rotate(1.96 343.446 199.085)"/><path class="cls-9" d="M273.94 193.98h-2.86"/></g><g id="Character_3" data-name="Character 3"><path class="cls-2" d="m425 288.64-3.35-14.49-6.58-24.69-6.94-7.46-9.19-7s-10.16-4.29-10.5-2.08a2.56 2.56 0 0 0 1.53 2.89s-2.89-1-3.57.77 4 3.06 6.63 5.36a39.22 39.22 0 0 1 4.26 4.27s-3.69 4.6-3.21 7.09l.31 1.14s-7.36-4-8.06-.77 4.34 3.9 7.22 7a44.65 44.65 0 0 0 5.57 5.11s2.85 7.2 9 9.75l.38 15.82s9.5 1.99 16.5-2.71Z"/><path class="cls-2" d="M390.73 236.73a57.89 57.89 0 0 0 6.91 4.09l5.85 6.13a32.46 32.46 0 0 1 3.66 5.8"/><path class="cls-9" d="M398.3 247.28a48.7 48.7 0 0 0 3.41 5c1.36 1.61 1.21 2.54.26 3.65"/><path class="cls-9" d="M396.1 255.51a13.34 13.34 0 0 1 2.2 2c.94 1.1 3.34 1.87 4.74.89s5.13-3.65 4.62-4.65m-8.72-3.03s0 1.5-1 2 1.43-.58 2.4.34"/><path class="cls-12" d="M489 331.38s-8.33-5.29-20.22-1a260.47 260.47 0 0 0-30.78 3.48s1.35-3.57-3.48-2.76c0 0-1.8-37.2-7.93-49.76 0 0-.73 3.59-22.12 4.48 0 0-1.52 66.53 6.3 76.28s73.39 2.19 73.39 2.19 11.66-21.52 4.84-32.91Z"/><path class="cls-11" d="M404.32 348.83s9.66 15 26.35 13.27 54.64-17.37 56-3.25-16.76 11.45-16.76 11.45l-44.32 6.84s-4.65 8-18.81-4.17l-14.16-12.21Z" style="clip-path:url(#clip-path-9)"/><path class="cls-9" d="M489 331.38s-8.33-5.29-20.22-1a260.47 260.47 0 0 0-30.78 3.48s1.35-3.57-3.48-2.76c0 0-1.8-37.2-7.93-49.76 0 0-.73 3.59-22.12 4.48 0 0-1.52 66.53 6.3 76.28s73.39 2.19 73.39 2.19 11.66-21.52 4.84-32.91Z"/><path class="cls-13" d="M419.67 344.67s13-13.86 15.26-10.81-3.53 3.32-6.9 16.64"/><path class="cls-12" d="M483.75 446.2s1.94-37.73 0-66.58-16.92-39.11 0-47.71 72.67-6.38 90.15 2.22 6.38 48.27 7.21 65.74S585 446.2 585 446.2Z"/><path class="cls-11" d="M526.37 388.41s-11.59-8-17.94 1.94 28.05 59.78 34 60 34.27 0 34.27 0l15.27-33.66s-6.67-70.69-19.24-72.02-21.08 25.81-22.93 41.66-.13 22.24-.13 22.24Z" style="clip-path:url(#clip-path-10)"/><path class="cls-9" d="M483.75 446.2s1.94-37.73 0-66.58-16.92-39.11 0-47.71 72.67-6.38 90.15 2.22 6.38 48.27 7.21 65.74S585 446.2 585 446.2Z"/><path class="cls-7" d="M518.14 410.51a1.94 1.94 0 1 1-1.94-1.94 1.94 1.94 0 0 1 1.94 1.94Zm0 22.11a1.94 1.94 0 1 1-1.94-1.94 1.94 1.94 0 0 1 1.94 1.94Z"/><path class="cls-19" d="M519.34 362.1c3.36 0 5.74 6.84 8.92 6.8s11.24-22.16 14.74-28.37 1.93-13.86-3.35-15.27-36.24 0-36.24 0a13.12 13.12 0 0 0-.9 12.2c3 6.66 4.07 28.48 8.32 29.22s4.26-4.58 8.51-4.58Z"/><path class="cls-7" d="M412 296.55a1.94 1.94 0 1 1-1.16-2.49 1.94 1.94 0 0 1 1.16 2.49Zm0 8.67a1.94 1.94 0 1 1-1.16-2.49 2 2 0 0 1 1.16 2.49Z"/><path class="cls-26" d="M502.52 332.1s12.76 28.78 17.93 27.92 8.88-12.66 14.06-18.54 5.69-11.06 5.34-14.29l-1.46-14.69-11.65-1.3-16.64 12.21Z"/><path class="cls-1" d="M489.46 285.12s-1.28 16.9-.36 20.22.36 7.05 1.81 12.48 6.69 25.79 18.4 22.56c11.54-3.19 28.41-16.31 27.42-26l-.53-1.92a5.47 5.47 0 0 0 6.26-4.55c1.15-5.39 3.52-10.54-.58-13-4.29-2.58-8.41 5-8.83 7.51s-3.51.22-3.51.22-3-11-7.46-13.36 2.5-9.34-1.8-12.66-21.28.24-30.82 8.5Z" style="clip-path:url(#clip-path-11)"/><path class="cls-9" d="M502.52 332.1s12.76 28.78 17.93 27.92 8.88-12.66 14.06-18.54 5.69-11.06 5.34-14.29l-1.46-14.69-11.65-1.3-16.64 12.21Z"/><path class="cls-2" d="M496.72 275.33s-5.85 16.27-5.85 19.79-1.57 7-1.62 12.76-.42 27.18 12 27.18c12.21 0 32.36-8.32 34-18.12v-2a5.58 5.58 0 0 0 7.39-2.77c2.59-5 6.33-9.4 3-12.95s-9.61 2.59-10.72 5-3.52-.74-3.52-.74 0-11.65-3.69-15.17 5-8.5 1.66-12.94-21.07-5.59-32.65-.04Z"/><path class="cls-1" d="M542.83 303.32s7-9.87 2.22-21.52c0 0-3.88-19.6-27.74-21.63 0 0 6.1-4.63 2.22-6.48-5.88-2.8-16.22 6.66-16.22 6.66s4.85-7.33 2.49-7.45-19 18.55-9.08 25.21 24.51.92 24.51.92l7.18 24.29 1.11 3.08 10.42.74Z"/><path class="cls-13" d="M529.37 268.12c6.67 3.87 11 10.92 9.21 26.44m-28.83-27.85c4.34-.43 10.75-2.55 16.62-.07m-10.54-10.17s-13.29 6.47-10.25 9.43m-7.78 2.59c3.05 2.4 6.75-.19 13.22 0m-9.43-9.99s-3.27 3.63-4.28 6.66"/><path class="cls-2" d="M496.72 275.33s-5.85 16.27-5.85 19.79-1.57 7-1.62 12.76-.42 27.18 12 27.18c12.21 0 32.36-8.32 34-18.12v-2a5.58 5.58 0 0 0 7.39-2.77c2.59-5 6.33-9.4 3-12.95s-9.61 2.59-10.72 5-3.52-.74-3.52-.74 0-11.65-3.69-15.17 5-8.5 1.66-12.94-21.07-5.59-32.65-.04Z"/><path class="cls-2" d="M502.52 296.41s-6.8 6.59-6.48 9.43c.18 1.56 4 2.82 4.63 4.25a7.88 7.88 0 0 1 0 2.41"/><path class="cls-12" d="M497.5 296.93c-.44 1.31-1.49 2.14-2.36 1.85s-1.23-1.58-.8-2.89 1.49-2.14 2.37-1.85 1.22 1.58.79 2.89Zm16.76 0c-.43 1.31-1.49 2.14-2.36 1.85s-1.22-1.58-.79-2.89 1.49-2.14 2.36-1.85 1.23 1.58.79 2.89Z"/><path class="cls-2" d="M508.43 291.4s5.74-3.5 12 1.87M496.72 314s8.94 3.14 17.72.92c0-.02-13.73 9.23-17.72-.92Zm-3.63-21.66s4.06-4.25 9.43 0m25.77 44.31c-1.72 5.1-4.31 12-7.06 16.21m9.15-22.86s-.39 1.39-1.06 3.54m-4.08 40.09-5.79-7s-7-10.2-9.7-18.2-3.06-12.25-7.31-12.25-19.22-1-18.71 4.08a8.39 8.39 0 0 0 0 5.79 15.28 15.28 0 0 0 2.4 6.46c2 2.9 3.23 2.34 3.23 2.34s1.36 2.26 2.72 2.26c0 0 1.19 6.12 10.38 11.4l6.46 7 6.81 12.59 12.69-10.1Z"/><path class="cls-2" d="M504.14 343.13a31.14 31.14 0 0 1-4.72 1.66c-2.17.51-9.57 1.66-10.08 3.83s2.42 7.66 4 7.91 7 0 7.27-1.15a10.85 10.85 0 0 1 0 3.07c-.26 1.53-1.41 3.95.51 7.91m-17.41-20.29a5 5 0 0 1 3-2c1.91-.39 9.57-2.3 10.78-3.19m-13.76-.6a11.29 11.29 0 0 1 2.93-1c1.53-.26 9.38-2.49 12-2.2"/><path class="cls-2" d="M499.55 353.57s-1.85-1.46-2.84-1-1.33 1.53-2.61 2.22"/><path class="cls-2" d="M496.71 352.53a12.41 12.41 0 0 0 4.37-2.21"/><path class="cls-1" d="M577.5 335.8c-9.51-5.21-22.47 13.87-22.74 36.89s-.56 27.18-.56 27.18l-28.57-30.79s-1.94 8.05-15.53 14.43A170.85 170.85 0 0 0 527.85 419c11.65 17.48 23 33 30.24 33s20.61-16.93 25.51-39.11c10.55-47.69 13.65-66.27-6.1-77.09Z"/><path class="cls-13" d="M559.51 403.94a.61.61 0 0 1 .57-1.06c4.22 1.43 11.77 5.29 16.59 15.3m-6.38 3.88a35.26 35.26 0 0 0-8.29-15.81m17.36-1.52q1.08 1 2.16 2.31M559.28 399s8.51-3.63 17.93 3.81m-20.43-27.89c-.27 1.43-.48 2.9-.64 4.43m14.26-30.52a49.32 49.32 0 0 0-12.37 21"/><path class="cls-7" d="M520.08 390.35a1.94 1.94 0 1 1-1.94-1.94 1.94 1.94 0 0 1 1.94 1.94Zm3.92 7.81a1.95 1.95 0 1 1-1.94-2 1.94 1.94 0 0 1 1.94 2Z"/><path class="cls-13" d="m549.67 394.99-24.04-25.91m39.13-28.35c-5.48 6.76-9.84 18.71-10 32-.28 23-.56 27.18-.56 27.18m16.8-64.29a14 14 0 0 0-3.84 2.55M569 444.41c4.78-5.75 9.6-14.37 12.79-24.54m-71.69-36.36A170.85 170.85 0 0 0 527.85 419c6.74 10.11 13.39 19.57 19.19 25.75"/><path d="M481.91 447.12h44.46v4.07h0-44.82a1.32 1.32 0 0 1-1.32-1.32v-1.07a1.68 1.68 0 0 1 1.68-1.68Z" transform="rotate(180 503.3 449.15)" style="fill:#4675ce;stroke-linecap:round;stroke-linejoin:round;stroke:#263238"/><path class="cls-1" d="M458.63 379.8h5.63a4 4 0 0 1 3.82 2.88l18.43 63.41a4 4 0 0 1-3.82 5.09h-4.89Z"/><path class="cls-3" d="M399 451.18h81.73a4 4 0 0 0 3.82-5.09l-18.43-63.41a4 4 0 0 0-3.82-2.88h-81.71a4 4 0 0 0-3.82 5.1l18.42 63.41a4 4 0 0 0 3.81 2.87Z"/><rect class="cls-4" x="266.31" y="235.27" width="126.36" height="18.14" rx="4.42"/><g style="clip-path:url(#clip-path-12)"><rect x="266.31" y="235.27" width="126.36" height="18.14" rx="4.42" style="opacity:.5;fill:#fff"/></g><rect class="cls-9" x="266.31" y="235.27" width="126.36" height="18.14" rx="4.42"/></g><g id="Character_1" data-name="Character 1"><rect class="cls-3" x="260.28" y="159.39" width="126.36" height="18.14" rx="4.42" transform="rotate(-8.65 323.63 168.494)"/><path class="cls-12" d="M92.56 234.09S82.29 239.16 80 249.35c0 0-2.91-2.91-4.07 9.61 0 0-25.92 48.06-26.22 68.74s48.64 54.17 48.64 54.17 5.25-7 4.08-13.4c0 0-18.93-35.82-28.54-40.19 0 0 10.77-26.21 18.06-31.16s.61-63.03.61-63.03Z"/><path class="cls-11" d="M91.53 306.1s-11.4-32.77-15.41-25.52-14.37 44.42-8.46 49.88-3.69 5.76.74 13 33.29 34.36 36.25 33.56-10.71-46.56-10.71-46.56Z" style="clip-path:url(#clip-path-13)"/><path class="cls-9" d="M92.56 234.09S82.29 239.16 80 249.35c0 0-2.91-2.91-4.07 9.61 0 0-25.92 48.06-26.22 68.74s48.64 54.17 48.64 54.17 5.25-7 4.08-13.4c0 0-18.93-35.82-28.54-40.19 0 0 10.77-26.21 18.06-31.16s.61-63.03.61-63.03Z"/><path class="cls-13" d="M79.08 260.89s1 15 4.45 23.56m-11.6 46.79s-5.46 5.86-13 5.07m34.45 21.4.56 17.75"/><path class="cls-3" d="M180.74 388.86s12.26 38.36 14.56 57.33H95.69s-.87-45 2.91-59.37Z"/><path class="cls-9" d="M138.85 436c2.24 2 6.6 10.15 6.6 10.15m-27.62-36.03A170.8 170.8 0 0 0 134.76 432"/><path class="cls-1" d="M144.91 158.19s7.58-6.79 5.83-11.07c-2.28-5.57-8.16 2.72-8.16 2.72s2.33-8.54-2.65-10.68c-5.33-2.28-9.77 7.77-9.77 7.77s-1.38-8.63-8.94-6.8c-6.4 1.56-1.16 8.74-6.4 11.07s-22.53 8.35-19.23 20c0 0-4.66-9.13-6.4-5.44s4.27 8.74 6.6 9.32c0 0-3.69 7.77-.78 9.91s2.33-5.63 2.33-5.63 1.9 21.4 22.53 32.62 20.06-26 20.06-26l5.18-16.7Z"/><path class="cls-13" d="M118.64 156.64c-8.68 2.72-21.74 6-16.08 23.3m19.83-36.31s3.24 6.75-.15 10.76m-9.75 36.23c.46 1.1 1 2.24 1.55 3.42"/><path class="cls-13" d="M135.53 150.64a17.4 17.4 0 0 1-7.51 6.58c-9 4.32-23.17 9.29-17.2 28.81m27.1-43.18a13.7 13.7 0 0 1-.65 3.91"/><path class="cls-13" d="M122.3 166.54c-4.6 3.54 2 8.23 4.75 14.17M148 149.07s-8.54 11.65-21 15.33"/><path class="cls-12" d="M96.57 389.44s-.59-21-3.5-53.59-19.22-97.85 3.5-103.68 68-9.49 83.29 5.24c16.9 16.31 4.08 107.18 3.5 122.91s2.33 33.78 2.33 33.78-60.29 13.11-89.12-4.66Z"/><path class="cls-11" d="M88.11 326.06S79.38 269.22 109.4 266s69.58-1.89 73.74 23.19 13.32 85.09 13.32 85.09l6.21 27.14L154 410.6l-65.1-7Z" style="clip-path:url(#clip-path-14)"/><path class="cls-9" d="M96.57 389.44s-.59-21-3.5-53.59-19.22-97.85 3.5-103.68 68-9.49 83.29 5.24c16.9 16.31 4.08 107.18 3.5 122.91s2.33 33.78 2.33 33.78-60.29 13.11-89.12-4.66Z"/><path class="cls-2" d="M143.94 223.43v-6.6s11.28 1.75 12.83-1.17-1-14.95-1-14.95 5.43.2 5.43-2.33-6.4-13.2-6.4-13.2.77-8.54 0-11.26-8.74-18.06-8.74-18.06-11.65 6.4-11.26 9.9 3.69 6.8 1 9.71-6.41 10.77-5.25 14.51l-1.74 1.22s-1-7-4.86-8.16-7 6.61-4.27 12 5.83 4.47 5.83 4.47-1.56 9.32-5.63 12.43l-1.23 9.7Z"/><ellipse class="cls-12" cx="151.42" cy="183.04" rx="1.26" ry="2.33"/><path class="cls-9" d="M142.78 199s.91 2.52 8.22 2.91m.42-25.46a5 5 0 0 0-5.34 3.49"/><path class="cls-1" d="M110.93 232.61s-7.76-10.54 0-11.7 39.61-3.89 44.66 0-7.76 2.72-8.54 9.32-36.12 2.38-36.12 2.38Z"/><path class="cls-9" d="M158.86 185c0 3.75-1.09 6.78-2.44 6.78s-2.44-3-2.44-6.78 1.09-6.78 2.44-6.78 2.44 3 2.44 6.78Z"/><path d="m158.32 180.71-26.84 2a9.59 9.59 0 0 0-5.23 2" style="fill:none;stroke-linecap:round;stroke-linejoin:round;stroke:#263238"/><path class="cls-2" d="m239.3 206.49 6.34-14.12s3.7-15.31 6.63-18.64 7.69-9.35 9.2-7.68c1.1 1.2-.26 5.3-2.68 8.45-2.62 3.42-.49 6.63.47 8s6.67 4.18 11.13 4.76 13.35-5.06 16.41-3.08-3.18 4.16-3.18 4.16 4.81-.64 5.82 2.06c.59 1.6-4.35 1.57-6.76 1.81s-7.3 1-7.3 1 8.78 1.12 8.67 3.52-6.59.15-11.51.34c0 0 7.06 1.82 6.67 4.13s-4.12-.12-10-1.14l-13.66-1.73-4.31 15.94Z"/><path class="cls-9" d="M280.05 189.14a13.36 13.36 0 0 1-10.26 1.31s.58 1.89 0 2.69-.51 2.4-2 3.42a21.65 21.65 0 0 1-2.33 1.46"/><path class="cls-12" d="M158.86 228.58s21.5.09 29.7 6.79c0 0 0-3.49 6.45 0 0 0 19.51-2.33 28.54 0 0 0 11.07-27.38 17.77-34.66 0 0 9.61.59 12.23 4.95 1.25 2.08-1.7 13.5-4.44 25.13-3 12.84-6.07 25.94-8.67 27-4.95 2-57.08 6.7-57.08 6.7l-24.5-12.82Z"/><path class="cls-11" d="M188.56 266.85s-4.87-17.41 2.95-15.78 38.88 4.82 44.61-.11 9.4-46.65 16.82-44.64 2.27 38.5 2.27 38.5 4.64 10.1-9.9 17.87l-14.55 7.76-25.69 2.22Z" style="clip-path:url(#clip-path-15)"/><path class="cls-9" d="M158.86 228.58s21.5.09 29.7 6.79c0 0 0-3.49 6.45 0 0 0 19.51-2.33 28.54 0 0 0 11.07-27.38 17.77-34.66 0 0 9.61.59 12.23 4.95 1.25 2.08-1.7 13.5-4.44 25.13-3 12.84-6.07 25.94-8.67 27-4.95 2-57.08 6.7-57.08 6.7l-24.5-12.82Z"/><path class="cls-13" d="M226.17 236.54s4.37.87 9.61 7.86m-44.85-3.93a45.54 45.54 0 0 1 0 20.24m-18.34-28.1s14 7.38 15 28.1M173.47 367a16.53 16.53 0 0 0 2.32-4m-69.13 15.18s46.18 6.08 63.71-8.07"/><path class="cls-26" d="m294 166.92 6-.92.2 1.33-6.06.92Zm2.44.34 1.38-.21 1.18 7.73-1.38.21Zm3.56 1.2 1.35-.2 2.72 4.93-.63 1.41Zm5.44-.82-1.44 7.82a2 2 0 0 1-.27.7 1.23 1.23 0 0 1-.5.43 2.62 2.62 0 0 1-.8.23l-.29.05-.21-1.34.3-.05a.85.85 0 0 0 .46-.19.87.87 0 0 0 .23-.46l1.21-7Zm.95-.14 1.39-.21 1.28 8.45-1.38.21Zm2.78 5.54a1.61 1.61 0 0 1-.7-.67l-.12-1.33a1.13 1.13 0 0 0 .21.56.81.81 0 0 0 .41.32 1.21 1.21 0 0 0 .58 0 1 1 0 0 0 .75-.45 1.39 1.39 0 0 0 .14-1l-.17-1.13a1.37 1.37 0 0 0-.43-.9 1 1 0 0 0-.85-.21 1.1 1.1 0 0 0-.54.21.91.91 0 0 0-.3.42 1.48 1.48 0 0 0 0 .6l-.31-1.22a2.06 2.06 0 0 1 .55-.92 1.66 1.66 0 0 1 .89-.43 2 2 0 0 1 1.13.13 1.89 1.89 0 0 1 .83.76 3.77 3.77 0 0 1 .44 1.34l.18 1.14a3.35 3.35 0 0 1 0 1.39 1.83 1.83 0 0 1-.57 1 2 2 0 0 1-1.06.46 1.65 1.65 0 0 1-1.06-.11Zm5.62-.9a2.17 2.17 0 0 1-1.06-.78 3.2 3.2 0 0 1-.54-1.41l-.1-.68a3.51 3.51 0 0 1 .07-1.57 2.16 2.16 0 0 1 .74-1.1 2.75 2.75 0 0 1 1.35-.54 2.23 2.23 0 0 1 1.37.18 2.52 2.52 0 0 1 1 1 4.9 4.9 0 0 1 .55 1.72l.06.39-4.08.62-.16-1 2.8-.42v-.07a1.74 1.74 0 0 0-.51-.92 1 1 0 0 0-.84-.23 1.21 1.21 0 0 0-.91.54 1.6 1.6 0 0 0-.17 1.16l.11.77a1.46 1.46 0 0 0 .53 1 1.42 1.42 0 0 0 1.1.21 2 2 0 0 0 .66-.23 2.19 2.19 0 0 0 .54-.46l1 .71a3.42 3.42 0 0 1-.92.82 3 3 0 0 1-1.12.41 3.09 3.09 0 0 1-1.47-.12Zm6.86-.85a4.45 4.45 0 0 1-1.1-.19 4.11 4.11 0 0 1-1-.43l.57-1.22a3.52 3.52 0 0 0 1.18.45 3.89 3.89 0 0 0 1.32 0 2.45 2.45 0 0 0 1.26-.5.94.94 0 0 0 .34-.92.88.88 0 0 0-.3-.58 1.18 1.18 0 0 0-.6-.26 6.56 6.56 0 0 0-.89-.07h-.18a9 9 0 0 1-1.44-.12 2 2 0 0 1-1-.54 2.3 2.3 0 0 1-.6-1.34 2.59 2.59 0 0 1 .15-1.43 2.36 2.36 0 0 1 .92-1 4.13 4.13 0 0 1 1.6-.54 4 4 0 0 1 .92 0 4.51 4.51 0 0 1 .94.16 5 5 0 0 1 .92.35l-.5 1.25a3.93 3.93 0 0 0-1.07-.38 2.88 2.88 0 0 0-1 0 2.26 2.26 0 0 0-1.2.48 1 1 0 0 0-.31.89.85.85 0 0 0 .33.6 1.39 1.39 0 0 0 .61.25 7.26 7.26 0 0 0 1 .08h.22a7.75 7.75 0 0 1 1.37.18 2.08 2.08 0 0 1 1 .57 2.27 2.27 0 0 1 .56 1.28 2.33 2.33 0 0 1-.17 1.4 2.25 2.25 0 0 1-.94 1 4.45 4.45 0 0 1-1.66.55 4.8 4.8 0 0 1-1.25.03Zm6.79-1.23a2.15 2.15 0 0 1-1.05-.78 3.3 3.3 0 0 1-.54-1.42l-.12-.82a3 3 0 0 1 .09-1.49 2.19 2.19 0 0 1 .77-1.05 3 3 0 0 1 1.41-.5 3.65 3.65 0 0 1 .93 0 3 3 0 0 1 .81.22 1.9 1.9 0 0 1 .64.43l-.8 1a1.54 1.54 0 0 0-.62-.29 1.73 1.73 0 0 0-.68 0 1.38 1.38 0 0 0-.94.51 1.37 1.37 0 0 0-.21 1l.13.82a1.4 1.4 0 0 0 .5 1 1.35 1.35 0 0 0 1.06.21 1.72 1.72 0 0 0 .65-.25 1.6 1.6 0 0 0 .48-.49l1.09.79a2.05 2.05 0 0 1-.5.6 2.66 2.66 0 0 1-.71.44 3.66 3.66 0 0 1-.89.25 3.11 3.11 0 0 1-1.5-.18Zm3.98-6.52 1.44-.22.92 6-1.45.22Zm3.21.86a1.15 1.15 0 0 0-.49 0 1.08 1.08 0 0 0-.76.43 1.23 1.23 0 0 0-.15.91l-.33-1.35a2.19 2.19 0 0 1 .55-.94 1.57 1.57 0 0 1 .88-.44 2.22 2.22 0 0 1 .73 0 1.61 1.61 0 0 1 .61.27l-.67 1.29a1 1 0 0 0-.37-.17Zm1.44-4.04 1.38-.21.21 1.39-1.38.21Zm.37 2.41 1.38-.21.91 6-1.37.21Zm3.02-.46 1.38-.21 1.29 8.46-1.38.21Zm2.78 5.54a1.63 1.63 0 0 1-.71-.67l-.12-1.33a1.47 1.47 0 0 0 .21.57.88.88 0 0 0 .41.31 1.15 1.15 0 0 0 .59 0 1 1 0 0 0 .75-.44 1.43 1.43 0 0 0 .14-1l-.17-1.13a1.42 1.42 0 0 0-.43-.89 1 1 0 0 0-.85-.22 1.33 1.33 0 0 0-.54.21.89.89 0 0 0-.3.43 1.18 1.18 0 0 0 0 .6l-.31-1.23a2 2 0 0 1 .55-.91 1.56 1.56 0 0 1 .88-.43 2 2 0 0 1 1.14.13 1.81 1.81 0 0 1 .82.76 3.47 3.47 0 0 1 .45 1.34l.17 1.13a3.6 3.6 0 0 1 0 1.4 1.87 1.87 0 0 1-.57 1 2.14 2.14 0 0 1-1.06.46 1.71 1.71 0 0 1-1.05-.09Zm3.21-6.45 2.82-.43.19 1.21-2.83.43Zm1.83 5.49a1.75 1.75 0 0 1-.53-1.14l-.95-6.19 1.39-.21.91 6a.56.56 0 0 0 .14.33.29.29 0 0 0 .27.08l.48-.08.2 1.33-.74.11a1.42 1.42 0 0 1-1.17-.23Z"/><path class="cls-12" d="m326.85 220.84 6.06-.92.2 1.32-6.06.92Zm2.44.33 1.38-.21 1.18 7.73-1.38.21Zm3.64 1.21 1.35-.21 2.72 4.93-.64 1.41Zm5.44-.83-1.49 7.82a2.11 2.11 0 0 1-.27.71 1.4 1.4 0 0 1-.5.43 3 3 0 0 1-.8.22l-.29.05-.21-1.34h.3a.85.85 0 0 0 .46-.2.8.8 0 0 0 .23-.46l1.22-7Zm.92-.14 1.39-.21 1.28 8.46-1.38.21Zm2.78 5.54a1.56 1.56 0 0 1-.7-.67l-.12-1.33a1.21 1.21 0 0 0 .21.57.85.85 0 0 0 .41.31 1.1 1.1 0 0 0 .58 0 1 1 0 0 0 .75-.44 1.43 1.43 0 0 0 .14-1l-.17-1.13a1.42 1.42 0 0 0-.43-.9 1 1 0 0 0-.85-.21 1.33 1.33 0 0 0-.54.21.91.91 0 0 0-.3.42 1.52 1.52 0 0 0 0 .61l-.31-1.23a2.12 2.12 0 0 1 .55-.92 1.64 1.64 0 0 1 .89-.42 1.83 1.83 0 0 1 2 .89 3.64 3.64 0 0 1 .44 1.34l.18 1.13a3.4 3.4 0 0 1 0 1.4 1.8 1.8 0 0 1-.57 1 2 2 0 0 1-1.06.47 1.73 1.73 0 0 1-1.1-.05Zm5.62-.9a2.11 2.11 0 0 1-1.06-.78 3.2 3.2 0 0 1-.54-1.41l-.1-.68a3.52 3.52 0 0 1 .07-1.57 2.1 2.1 0 0 1 .74-1.09 2.86 2.86 0 0 1 1.35-.55 2.23 2.23 0 0 1 1.37.19 2.4 2.4 0 0 1 1 1 4.85 4.85 0 0 1 .55 1.71l.06.4-4.08.62-.16-1 2.8-.42v-.06a1.79 1.79 0 0 0-.5-.93 1 1 0 0 0-.85-.23 1.27 1.27 0 0 0-.91.54 1.66 1.66 0 0 0-.17 1.16l.11.77a1.3 1.3 0 0 0 1.63 1.2 1.8 1.8 0 0 0 .66-.23 2 2 0 0 0 .54-.45l1 .7a3.43 3.43 0 0 1-.93.82 3 3 0 0 1-1.12.41 3.09 3.09 0 0 1-1.46-.12Zm6.86-.84a5.62 5.62 0 0 1-1.1-.19 4.81 4.81 0 0 1-1-.44l.57-1.22a3.54 3.54 0 0 0 1.18.46 3.9 3.9 0 0 0 1.32 0 2.4 2.4 0 0 0 1.27-.5 1 1 0 0 0 .33-.92.88.88 0 0 0-.3-.58 1.27 1.27 0 0 0-.6-.26 6.79 6.79 0 0 0-.89-.06h-.18a8.11 8.11 0 0 1-1.44-.11 2.12 2.12 0 0 1-1-.55 2.26 2.26 0 0 1-.59-1.34 2.38 2.38 0 0 1 .15-1.42 2.25 2.25 0 0 1 .91-1 4.3 4.3 0 0 1 1.6-.54 4 4 0 0 1 .92 0 5.13 5.13 0 0 1 .94.16 5.48 5.48 0 0 1 .92.36l-.5 1.24a4.3 4.3 0 0 0-1.07-.38 3.45 3.45 0 0 0-1 0 2.27 2.27 0 0 0-1.19.49.93.93 0 0 0-.32.89.89.89 0 0 0 .33.6 1.28 1.28 0 0 0 .61.25 9 9 0 0 0 1 .09h.23a7 7 0 0 1 1.36.17 2.1 2.1 0 0 1 1 .58 2.24 2.24 0 0 1 .56 1.27 2.43 2.43 0 0 1-.16 1.41 2.38 2.38 0 0 1-1 1 4.63 4.63 0 0 1-1.66.55 6 6 0 0 1-1.2-.01Zm6.79-1.21a2.15 2.15 0 0 1-1-.78 3.2 3.2 0 0 1-.54-1.42l-.12-.81a3.21 3.21 0 0 1 .09-1.5 2.19 2.19 0 0 1 .77-1.05 3.16 3.16 0 0 1 1.39-.53 3.64 3.64 0 0 1 .93 0 2.68 2.68 0 0 1 .81.21 2.06 2.06 0 0 1 .64.43l-.8 1a1.58 1.58 0 0 0-.61-.3 1.61 1.61 0 0 0-.69 0 1.34 1.34 0 0 0-.94.5 1.38 1.38 0 0 0-.21 1.05l.13.81a1.45 1.45 0 0 0 .5 1 1.35 1.35 0 0 0 1.06.2 1.72 1.72 0 0 0 .65-.25 1.6 1.6 0 0 0 .48-.49l1.09.79a2.05 2.05 0 0 1-.5.6 2.43 2.43 0 0 1-.71.44 3.53 3.53 0 0 1-.89.25 3.11 3.11 0 0 1-1.53-.15Zm3.98-6.55 1.44-.22.92 6-1.45.22Zm3.21.86a1.33 1.33 0 0 0-.49 0 1.08 1.08 0 0 0-.76.43 1.23 1.23 0 0 0-.15.91l-.33-1.34a2.23 2.23 0 0 1 .55-1 1.59 1.59 0 0 1 .88-.43 2 2 0 0 1 .73 0 1.45 1.45 0 0 1 .61.26l-.67 1.3a.85.85 0 0 0-.37-.13Zm1.47-4.04 1.38-.21.21 1.39-1.37.21Zm.37 2.41 1.38-.21.92 6-1.38.21Zm2.99-.46 1.38-.21 1.29 8.46-1.38.21Zm2.78 5.55a1.66 1.66 0 0 1-.71-.68l-.11-1.32a1.17 1.17 0 0 0 .21.56.87.87 0 0 0 .41.32 1.21 1.21 0 0 0 .58 0 1 1 0 0 0 .75-.45 1.4 1.4 0 0 0 .14-1l-.17-1.13a1.42 1.42 0 0 0-.43-.9 1 1 0 0 0-.81-.17 1.1 1.1 0 0 0-.54.21.82.82 0 0 0-.3.42 1.18 1.18 0 0 0 0 .6l-.31-1.22a2 2 0 0 1 .55-.92 1.63 1.63 0 0 1 .88-.43 2 2 0 0 1 1.14.13 1.81 1.81 0 0 1 .82.76 3.53 3.53 0 0 1 .45 1.34l.17 1.14a3.36 3.36 0 0 1 0 1.39 1.87 1.87 0 0 1-.57 1 2 2 0 0 1-1.06.46 1.64 1.64 0 0 1-1.09-.11Zm3.21-6.46 2.83-.43.18 1.21-2.83.43Zm1.83 5.49a1.75 1.75 0 0 1-.53-1.13l-.95-6.2 1.39-.21.91 6a.56.56 0 0 0 .14.32.29.29 0 0 0 .27.08l.48-.07.21 1.32-.75.12a1.42 1.42 0 0 1-1.17-.23Zm-77.74-28.61 1.4.05-.3 8.52h-1.4Zm.45 3.68 2.93.1a.89.89 0 0 0 .89-.52 1.41 1.41 0 0 0 .15-.61 1.48 1.48 0 0 0-.1-.61 1 1 0 0 0-.34-.42 1 1 0 0 0-.52-.16l-2.93-.1v-1.34l3 .1a2.51 2.51 0 0 1 1.25.35 2.19 2.19 0 0 1 .82.91 3 3 0 0 1-.09 2.63 2.18 2.18 0 0 1-.88.85 2.63 2.63 0 0 1-1.27.27l-3-.11Zm2 1.15 1.46-.22 2.1 4.13-1.68-.06Zm5.81 3.75a2.09 2.09 0 0 1-.9-1 3.13 3.13 0 0 1-.28-1.49v-.68a3.52 3.52 0 0 1 .36-1.53 2.17 2.17 0 0 1 .93-.94 2.78 2.78 0 0 1 1.42-.29 2.22 2.22 0 0 1 1.32.44 2.41 2.41 0 0 1 .81 1.15 5.12 5.12 0 0 1 .23 1.79v.4l-4.13-.14v-1l2.83.1v-.06a1.7 1.7 0 0 0-.32-1 1 1 0 0 0-.79-.38 1.2 1.2 0 0 0-1 .36 1.65 1.65 0 0 0-.39 1.11v.77a1.29 1.29 0 0 0 1.38 1.48 1.76 1.76 0 0 0 .68-.1 2 2 0 0 0 .62-.35l.89.89a3.28 3.28 0 0 1-1.06.63 3.25 3.25 0 0 1-2.63-.17Zm6.12.23a1.9 1.9 0 0 1-.68-.9 3.63 3.63 0 0 1-.19-1.38v-1.17a3.51 3.51 0 0 1 .29-1.37 1.83 1.83 0 0 1 .73-.86 2 2 0 0 1 1.11-.26 1.66 1.66 0 0 1 .93.32 2 2 0 0 1 .65.83l-.16 1.29a1.4 1.4 0 0 0-.11-.6.81.81 0 0 0-.34-.39 1.19 1.19 0 0 0-.56-.15 1 1 0 0 0-.82.32 1.39 1.39 0 0 0-.32.93v1.15a1.38 1.38 0 0 0 .25.95 1.08 1.08 0 0 0 .8.36 1.14 1.14 0 0 0 .6-.07.86.86 0 0 0 .37-.36 1.32 1.32 0 0 0 .15-.59v1.34a1.61 1.61 0 0 1-1.59 1 2.11 2.11 0 0 1-1.11-.39Zm2.88-8.23 1.4.05-.29 8.52h-1.4Zm4.3 6.3a1.12 1.12 0 0 0 .25.84 1.27 1.27 0 0 0 1.61.08 1 1 0 0 0 .31-.79v1.3a1.85 1.85 0 0 1-.61.78 1.56 1.56 0 0 1-1 .28 1.88 1.88 0 0 1-1.51-.69 2.65 2.65 0 0 1-.48-1.82l.12-3.72h1.4Zm2.3-3.62 1.39.05-.2 6.08-1.4-.05Zm4.63 2.88.72 1.13-1.55 2.21-1.51-.06Zm.14.73-2.18-3.52 1.55.05 1.51 2.64 2.23 3.58-1.54-.06Zm.37-1.28 1.3-2.11 1.55.05-2.17 3.21Zm5.22-4.41 6.13.21-.05 1.34-6.12-.21Zm2.35.77 1.39.05-.27 7.82h-1.39Zm4.56 7.76a2.07 2.07 0 0 1-.85-.93 3.07 3.07 0 0 1-.25-1.44v-1a3.19 3.19 0 0 1 .35-1.41 2.1 2.1 0 0 1 .91-.86 2.92 2.92 0 0 1 1.4-.26 2.89 2.89 0 0 1 1.37.35 2.07 2.07 0 0 1 .85.93 3 3 0 0 1 .25 1.42v1a3.19 3.19 0 0 1-.35 1.41 2.07 2.07 0 0 1-.91.87 2.92 2.92 0 0 1-1.4.26 2.89 2.89 0 0 1-1.37-.34Zm2.29-1.29a1.39 1.39 0 0 0 .34-.94v-1a1.36 1.36 0 0 0-.27-1 1.1 1.1 0 0 0-.85-.36 1.13 1.13 0 0 0-.87.3 1.41 1.41 0 0 0-.34.94v1a1.35 1.35 0 0 0 .27 1 1.07 1.07 0 0 0 .85.36 1.1 1.1 0 0 0 .87-.3Zm4.24 1.52a2 2 0 0 1-.84-.94 3.07 3.07 0 0 1-.26-1.44v-1a3 3 0 0 1 .35-1.4 2 2 0 0 1 .91-.87 2.88 2.88 0 0 1 1.39-.26 2.93 2.93 0 0 1 1.38.36 2 2 0 0 1 .84.92 3.05 3.05 0 0 1 .26 1.43v1a3 3 0 0 1-.35 1.41 2 2 0 0 1-.91.87 2.88 2.88 0 0 1-1.39.27 2.93 2.93 0 0 1-1.38-.35Zm2.3-1.29a1.35 1.35 0 0 0 .33-.94v-1a1.38 1.38 0 0 0-.27-.95 1.15 1.15 0 0 0-.85-.37 1.11 1.11 0 0 0-.88.31 1.31 1.31 0 0 0-.33.93v1a1.41 1.41 0 0 0 .27 1 1.27 1.27 0 0 0 1.73.06Zm4.69-.04a.47.47 0 0 0 .1.35.43.43 0 0 0 .31.13h.41v1.34h-.76a1.43 1.43 0 0 1-1.08-.46 1.67 1.67 0 0 1-.35-1.2l.24-6.93h1.4Zm2.3-6.66 1.4.05-.29 8.52-1.4-.05Zm.42 6.29 3.11-3.73 1.55.06-4.65 5.24Zm1.46-1 1.07-.76 2.22 4.21-1.57-.06Zm4.34-2.63H368l-.21 6.08h-1.39Zm.08-2.44h1.39v1.4l-1.4-.05Zm2.5 2.52 2.86.1v1.23l-2.86-.1Zm.79 5.74a1.83 1.83 0 0 1-.32-1.22l.22-6.26 1.4.05-.21 6.07a.49.49 0 0 0 .08.34.27.27 0 0 0 .25.13h.49l-.05 1.34h-.75a1.4 1.4 0 0 1-1.09-.45Zm-79.44 45.32a2.33 2.33 0 0 1-.94-.82l1.15-.82a1.36 1.36 0 0 0 .49.43 1.47 1.47 0 0 0 .67.15 1.11 1.11 0 0 0 .9-.38 1.63 1.63 0 0 0 .31-1.07v-5.81h1.43v5.82a3.33 3.33 0 0 1-.31 1.51 2.12 2.12 0 0 1-.92 1 3 3 0 0 1-1.45.33 2.92 2.92 0 0 1-1.33-.34Zm6.97-.02a2.14 2.14 0 0 1-.93-.93 3.08 3.08 0 0 1-.33-1.48v-.69a3.61 3.61 0 0 1 .31-1.54 2.17 2.17 0 0 1 .9-1 2.83 2.83 0 0 1 1.41-.34 2.28 2.28 0 0 1 1.34.39 2.4 2.4 0 0 1 .84 1.13 5 5 0 0 1 .29 1.78v.4h-4.13v-1H300v-.07a1.77 1.77 0 0 0-.35-1 1 1 0 0 0-.81-.35 1.22 1.22 0 0 0-1 .4 1.63 1.63 0 0 0-.34 1.12v.77a1.41 1.41 0 0 0 .37 1.06 1.45 1.45 0 0 0 1.13.43 1.8 1.8 0 0 0 .68-.14 2 2 0 0 0 .61-.36l.91.85a3.2 3.2 0 0 1-1 .67 3 3 0 0 1-1.16.24 3.13 3.13 0 0 1-1.53-.34Zm6.55.21a4.72 4.72 0 0 1-.92-.3 3.74 3.74 0 0 1-.77-.49l.84-1.05a3.74 3.74 0 0 0 1 .49 2.67 2.67 0 0 0 .94.17 2.08 2.08 0 0 0 1-.17.54.54 0 0 0 .33-.5.45.45 0 0 0-.16-.38 1 1 0 0 0-.41-.17l-.71-.09h-.46a6.42 6.42 0 0 1-1-.2 1.28 1.28 0 0 1-.69-.48 1.62 1.62 0 0 1-.28-1 1.88 1.88 0 0 1 .28-1.06 1.77 1.77 0 0 1 .81-.65 3.7 3.7 0 0 1 1.33-.22 4.53 4.53 0 0 1 .91.09 5.05 5.05 0 0 1 .86.27 4.18 4.18 0 0 1 .77.43l-.84 1a3.94 3.94 0 0 0-.87-.39 2.84 2.84 0 0 0-.84-.14 1.71 1.71 0 0 0-.84.16.51.51 0 0 0-.29.47.35.35 0 0 0 .16.3 1.11 1.11 0 0 0 .4.15l.68.08h.27a6.45 6.45 0 0 1 1.12.19 1.51 1.51 0 0 1 .76.52 1.69 1.69 0 0 1 .31 1.11 2 2 0 0 1-.29 1.09 1.86 1.86 0 0 1-.87.67 4 4 0 0 1-1.42.22 5 5 0 0 1-1.11-.12Zm4.56-6.07h2.86v1.23h-2.86Zm1 5.71a1.8 1.8 0 0 1-.36-1.21v-6.27h1.4v6.08a.55.55 0 0 0 .09.34.31.31 0 0 0 .26.12h.49v1.34h-.75a1.43 1.43 0 0 1-1.15-.4Zm10.19-4.21v1.31h-4.88v-1.31Zm-1.75 3h-1.37v-4.76h1.37Zm5.5-6.94H325v8.52h-1.4Zm.58 0h5V241h-5Zm0 3.63h4.36v1.33h-4.36Zm0 3.55h5v1.34h-5Zm6.47-4.74H332v6.08h-1.4Zm3.61 2.4a1.16 1.16 0 0 0-.3-.85 1.33 1.33 0 0 0-1.63 0 1.1 1.1 0 0 0-.28.79l-.12-1.26a2.21 2.21 0 0 1 .69-.85 1.66 1.66 0 0 1 1-.3 1.86 1.86 0 0 1 1.51.65 2.77 2.77 0 0 1 .54 1.83v3.69h-1.4Zm7.41-1.21-2.81 3.61h3v1.28h-4.65v-1.2l2.88-3.59h-2.8v-1.29h4.41Zm.8-1.19h1.37l1.95 5.29-.83 1.29Zm5.5 0-2.64 7.51a2 2 0 0 1-.38.66 1.25 1.25 0 0 1-.56.35 2.74 2.74 0 0 1-.82.1h-.3v-1.35h.3a.83.83 0 0 0 .49-.13.9.9 0 0 0 .3-.41l2.25-6.73Zm.94 0h1.4v6.08h-1.4Zm3.59 2.49a1.26 1.26 0 0 0-.29-.91 1 1 0 0 0-.82-.32 1.12 1.12 0 0 0-.8.27 1.1 1.1 0 0 0-.28.79l-.12-1.26a2.21 2.21 0 0 1 .7-.85 1.67 1.67 0 0 1 1-.3 2 2 0 0 1 1.1.3 1.87 1.87 0 0 1 .69.88 3.6 3.6 0 0 1 .24 1.39v3.6h-1.4Zm3.59 0a1.31 1.31 0 0 0-.29-.91 1.07 1.07 0 0 0-.84-.32 1 1 0 0 0-.78.3 1.26 1.26 0 0 0-.28.88l-.27-1.29a2.27 2.27 0 0 1 .75-.91 1.76 1.76 0 0 1 1-.33 2 2 0 0 1 1.12.3 1.91 1.91 0 0 1 .71.88 3.6 3.6 0 0 1 .24 1.39v3.6h-1.4Zm4.18 3.37a2.22 2.22 0 0 1-.94-.93 3.2 3.2 0 0 1-.32-1.48v-.69a3.61 3.61 0 0 1 .31-1.54 2.12 2.12 0 0 1 .9-1 2.83 2.83 0 0 1 1.41-.34 2.23 2.23 0 0 1 1.33.39 2.41 2.41 0 0 1 .85 1.13 5 5 0 0 1 .29 1.78v.4h-4.13v-1h2.83v-.07a1.77 1.77 0 0 0-.36-1 1 1 0 0 0-.8-.35 1.22 1.22 0 0 0-1 .4 1.63 1.63 0 0 0-.34 1.12v.77a1.41 1.41 0 0 0 .37 1.06 1.43 1.43 0 0 0 1.06.38 1.8 1.8 0 0 0 .68-.14 2.09 2.09 0 0 0 .61-.36l.91.85a3.2 3.2 0 0 1-1 .67 3 3 0 0 1-1.16.24 3.13 3.13 0 0 1-1.5-.29Z"/></g><g id="Character_2" data-name="Character 2"><path class="cls-19" d="M159.63 447.12h44.83v4.07h0H160a1.68 1.68 0 0 1-1.68-1.68v-1.07a1.32 1.32 0 0 1 1.31-1.32Z"/><path class="cls-1" d="M226.06 379.8h-5.63a4 4 0 0 0-3.83 2.88l-18.43 63.41a4 4 0 0 0 3.83 5.09h4.88Z"/><path class="cls-19" d="M297.87 451.18h-93.93a4 4 0 0 1-3.82-5.09l18.42-63.41a4 4 0 0 1 3.83-2.88h93.93a4 4 0 0 1 3.83 5.1l-18.43 63.41a4 4 0 0 1-3.83 2.87Z"/><rect class="cls-26" x="272.44" y="269.58" width="126.36" height="18.14" rx="4.42"/><rect class="cls-17" x="272.44" y="269.58" width="126.36" height="18.14" rx="4.42" style="clip-path:url(#clip-path-16)"/><rect class="cls-9" x="272.44" y="269.58" width="126.36" height="18.14" rx="4.42"/><path class="cls-12" d="M311.42 274.15H313v8.52h-1.32v-6.5l.06.37-1.86 5.06h-1.13l-1.86-4.94.06-.49v6.5h-1.31v-8.52h1.61l2.07 5.68Zm3.72 8.14a1.81 1.81 0 0 1-.52-1.42 1.65 1.65 0 0 1 .53-1.35 2.38 2.38 0 0 1 1.58-.45h1.63l.08 1.09h-1.71a1 1 0 0 0-.62.17.67.67 0 0 0-.21.54.65.65 0 0 0 .27.57 1.49 1.49 0 0 0 .82.18 2.74 2.74 0 0 0 1-.14.47.47 0 0 0 .32-.46l.13.87a1 1 0 0 1-.35.48 1.86 1.86 0 0 1-.6.29 3.13 3.13 0 0 1-.77.09 2.3 2.3 0 0 1-1.58-.46Zm3.16-3.48a1 1 0 0 0-.3-.79 1.18 1.18 0 0 0-.85-.28 2.22 2.22 0 0 0-1.3.42l-.93-.79a2.38 2.38 0 0 1 .94-.64 3.28 3.28 0 0 1 1.28-.23 3 3 0 0 1 1.33.26 1.87 1.87 0 0 1 .84.78 2.42 2.42 0 0 1 .29 1.22v3.91h-1.3Zm2.53-2.23h2.86v1.23h-2.86Zm1 5.71a1.84 1.84 0 0 1-.35-1.21v-6.27h1.4v6.08a.55.55 0 0 0 .09.34.28.28 0 0 0 .25.12h.49v1.34h-.75a1.44 1.44 0 0 1-1.15-.4Zm4.46.15a2.09 2.09 0 0 1-.93-.93A3.08 3.08 0 0 1 325 280v-.69a3.62 3.62 0 0 1 .3-1.54 2.23 2.23 0 0 1 .9-1 2.87 2.87 0 0 1 1.42-.33 2.24 2.24 0 0 1 1.33.38 2.4 2.4 0 0 1 .84 1.13 4.74 4.74 0 0 1 .29 1.78v.4H326v-1h2.83v-.07a1.77 1.77 0 0 0-.36-1 1 1 0 0 0-.8-.35 1.2 1.2 0 0 0-1 .4 1.63 1.63 0 0 0-.35 1.12v.77a1.31 1.31 0 0 0 1.43 1.44 2 2 0 0 0 1.29-.5l.91.85a3.29 3.29 0 0 1-1 .68 3.15 3.15 0 0 1-1.16.23 3.19 3.19 0 0 1-1.5-.26Zm5.36-5.86h1.46v6.09h-1.46Zm3 1.34a1.21 1.21 0 0 0-.48-.08 1 1 0 0 0-.81.31 1.21 1.21 0 0 0-.29.87l-.13-1.38a2.23 2.23 0 0 1 .69-.84 1.59 1.59 0 0 1 .94-.3 2.09 2.09 0 0 1 .72.12 1.56 1.56 0 0 1 .56.35l-.86 1.18a.89.89 0 0 0-.3-.23Zm2.08-3.77h1.39v1.4h-1.39Zm0 2.43h1.39v6.09h-1.39Zm3.27 5.71a1.81 1.81 0 0 1-.52-1.42 1.68 1.68 0 0 1 .52-1.35 2.41 2.41 0 0 1 1.59-.45h1.62l.09 1.09h-1.7a1 1 0 0 0-.62.17.67.67 0 0 0-.21.54.65.65 0 0 0 .27.57 1.47 1.47 0 0 0 .81.18 2.76 2.76 0 0 0 1-.14.49.49 0 0 0 .32-.46l.12.87a1 1 0 0 1-.34.48 1.86 1.86 0 0 1-.6.29 3.13 3.13 0 0 1-.77.09 2.3 2.3 0 0 1-1.58-.46Zm3.16-3.48a1 1 0 0 0-.3-.79 1.19 1.19 0 0 0-.85-.28 2 2 0 0 0-.69.11 2.06 2.06 0 0 0-.61.31l-.93-.79a2.34 2.34 0 0 1 .93-.64 3.37 3.37 0 0 1 1.29-.23 3 3 0 0 1 1.33.26 2 2 0 0 1 .84.78 2.42 2.42 0 0 1 .29 1.22v3.91h-1.3Zm4.41 2.07a.45.45 0 0 0 .11.34.4.4 0 0 0 .31.12h.42v1.34h-.76a1.41 1.41 0 0 1-1.09-.42 1.69 1.69 0 0 1-.39-1.19v-6.92h1.4Zm5.52 1.5a2.47 2.47 0 0 1-1-1.08 3.8 3.8 0 0 1-.36-1.72v-5.43h1.4v5.47a1.82 1.82 0 0 0 .43 1.29 1.85 1.85 0 0 0 2.44 0 1.78 1.78 0 0 0 .44-1.29v-5.47h1.4v5.43a3.8 3.8 0 0 1-.36 1.72 2.49 2.49 0 0 1-1.05 1.08 3.86 3.86 0 0 1-3.3 0Zm7.91.29h-1.43v-8.52H361Z"/></g></svg>