<svg id="Слой_1" data-name="Слой 1" xmlns="http://www.w3.org/2000/svg" viewBox="0 0 712.4 371.5"><defs><style>.cls-1{opacity:.3}.cls-3{fill:none;stroke:#000}.cls-10,.cls-9{stroke-linejoin:round}.cls-12,.cls-3,.cls-7,.cls-8{stroke-miterlimit:10}.cls-5,.cls-8{fill:#4675ce}.cls-12,.cls-9{fill:#fff}.cls-10,.cls-7,.cls-8,.cls-9{stroke:#263238}.cls-10,.cls-7{fill:#263238}.cls-10,.cls-9{stroke-linecap:round}.cls-12{stroke:#b2b2b2}</style></defs><path d="M493.5 5.1h40l13.4 58.1h-17.2m-4.7 0h-52.6l13.3-58.1h3.7m23.5 124.5v234.1m0-244.8v5.3M506.4 298V63.2h6.5v51.3m-6.5 249.2v-59.3m-27.7 59.3h59.4v6.82h-59.4z" style="stroke-linejoin:round;stroke:#000;fill:none" class="cls-1" id="Lamp_2" data-name="Lamp 2"/><g class="cls-1" id="Lamp_1" data-name="Lamp 1"><path class="cls-3" d="M29.5 132.4h41.4v52.8H29.5zm15.8 76.9v-24.1m9.7 24.1v-24.1m-17.7 24.1h25.8v6.76H37.3z"/></g><g class="cls-1" id="Furniture_2" data-name="Furniture 2"><path class="cls-3" d="M149.2 16.3h285.5v354.21H149.2z"/><path class="cls-3" d="M363.4 270H219.5V99.9h143.9ZM208.7 99.9h-50.9v75.6h50.9ZM374.2 91h52V23.9h-52Zm-10.8-67.1h-66.6V91h66.6ZM219.5 91H286V23.9h-66.5Zm-10.8 93.4h-50.9V270h50.9Zm217.5-84.5h-52V175h52Zm-52 85.1v85h52v-85ZM208.7 91V23.9h-50.9V91Z"/><path class="cls-3" d="M307.6 23.9h55.8v67.05h-55.8zm-77.3 0h55.8v67.05h-55.8zm154.7 0h41.2v67.05H385zm-216.4 76h40.1v75.6h-40.1zm216.4 0h41.2v75.04H385zm0 85.1h41.2v85.03H385zM168.6 23.9h40.1v67.05h-40.1zm61.7 76h133.1v170.07H230.3zm-61.7 84.5h40.1v85.59h-40.1zm-10.2 101.4h55.8v71.34h-55.8z"/><path class="cls-3" d="M165.5 294.9h41.6v53.16h-41.6zm202.3-9.1h55.8v71.34h-55.8z"/><path class="cls-3" d="M374.9 294.9h41.6v53.16h-41.6zm-153.2-9.1H287v32.51h-65.3z"/><path class="cls-3" d="M230.3 292h48.2v19.97h-48.2zm-8.6 33.9H287v32.51h-65.3z"/><path class="cls-3" d="M230.3 332.2h48.2v19.97h-48.2zm64.7-46.4h65.3v32.51H295z"/><path class="cls-3" d="M303.6 292h48.2v19.97h-48.2zm-8.6 33.9h65.3v32.51H295z"/><path class="cls-3" d="M303.6 332.2h48.2v19.97h-48.2zM257.7 302a3.3 3.3 0 1 0-3.3 3.3 3.3 3.3 0 0 0 3.3-3.3Zm73.1 0a3.3 3.3 0 1 0-3.3 3.3 3.3 3.3 0 0 0 3.3-3.3Zm-73.1 40.2a3.3 3.3 0 1 0-3.3 3.3 3.3 3.3 0 0 0 3.3-3.3Z"/><circle class="cls-3" cx="202.9" cy="320.7" r="3.3"/><circle class="cls-3" cx="381.2" cy="320.7" r="3.3"/><circle class="cls-3" cx="327.5" cy="342.2" r="3.3"/><path class="cls-3" d="M434.7 16.3h27.7v354.51h-27.7z"/><circle class="cls-3" cx="256.1" cy="63.2" r="19.6"/><path class="cls-3" d="m237.1 91.3 8.6-11.6m29.4 11.6-8.6-11.6m-89.8 65.4h20.5v30.29h-20.5zm1.9 0-3.3-13.4 3.5 4.2-1.1-16 4.7 14.1v-20.8l3.9 21.4 3.6-13.3 1.2 14.2 3.3-11.6-1.8 15.6 6.8-12.2-3.6 17.6"/></g><g class="cls-1" id="Furniture_1" data-name="Furniture 1"><path class="cls-3" d="M15.5 223.2h127.6v147.36H15.5zm-7.9-7h143.5v6.91H7.6z"/><path class="cls-3" d="M21.7 228.6h113.7v39.94H21.7z"/><path class="cls-3" d="M67 243.2h20.7v4.61H67zM21.7 277h113.7v39.94H21.7z"/><path class="cls-3" d="M67 291.6h20.7v4.61H67zm-45.3 33.8h113.7v39.94H21.7z"/><path class="cls-3" d="M67 340h20.7v4.61H67z"/></g><g class="cls-1" id="Picture"><path class="cls-3" d="M599.5 26.6v143.7h103.6V26.6Zm99.1 137.5H604V32.8h94.6Z"/><path class="cls-3" d="M624.8 154.1a41.1 41.1 0 0 1-9.5 10h83.3V32.8h-15.4l-2 .6c-15 4.8-30.5 18.5-39.3 43.3"/><path class="cls-3" d="M640.5 81.1a145.6 145.6 0 0 0-5.8 36.5c-.5 14.9-3.7 25.5-7.9 33.2m62.5-84.7c-13.7 8.1-29.7 21.5-35.7 42.1-3.2 11-.2 20.9 5.7 29.4m3.3 4.1c8.2 9.7 20 17.3 29.5 22.4h6.5V61.3a65.4 65.4 0 0 0-5.9 3m-73 2.7c7.3-14.7 8.1-26.4 7.2-34.2H604v60.1c3.4-4.8 7.5-11.3 12.5-19.9l.9-1.5m11.3 52.4c-1.1 7.3-4.5 12.5-8.4 12.5s-8.8-8-8.8-17.9 3.9-17.9 8.8-17.9 8.8 8.1 8.8 17.9m3.8-36.7c0 3.8-1.7 6.9-3.8 6.9s-3.8-3.1-3.8-6.9 1.7-6.9 3.8-6.9 3.8 3.1 3.8 6.9Z"/><path class="cls-3" d="M680.8 111c3.7 1.7 6.1 4.7 6.1 8.2 0 5.4-5.9 9.7-13.2 9.7s-13.2-4.3-13.2-9.7 5.9-9.8 13.2-9.8a19.7 19.7 0 0 1 3.4.4"/><path class="cls-3" d="M679.2 119.2c0 2.2-2.5 4.1-5.5 4.1s-5.6-1.9-5.6-4.1 2.5-4.1 5.6-4.1 5.5 1.8 5.5 4.1Z"/><ellipse class="cls-3" cx="681.2" cy="94.4" rx="6.9" ry="5.7"/><ellipse class="cls-3" cx="638.2" cy="51.3" rx="4.7" ry="11.6"/><path class="cls-3" d="M651.1 151.2a6.6 6.6 0 1 1-6.6-6.6 6.8 6.8 0 0 1 6.6 6.6Zm30.7-98a4.1 4.1 0 1 1-4.2-4h.2a4 4 0 0 1 4 4Zm-25.7 28.9a2.2 2.2 0 1 1-2.2-2.2 2.2 2.2 0 0 1 2.2 2.2Z"/><path class="cls-3" d="M604 32.8h94.6v131.28H604z"/></g><g id="Plant"><path d="M623.6 279.5V169.1m-13.7 112.6V129.3M641 282.4v-53.5" style="stroke:#5e5e5e;stroke-width:4px;stroke-miterlimit:10;fill:none"/><path class="cls-5" d="M604.6 144.3s-2.8-5-12-16-47.2-40.9-47.2-40.9 21.5 11.5 28.4 17.4 16.1 13.4 16.1 13.4-25.7-28-28.5-29.9 26.2 22.1 26.2 22.1-11-22.1-16.5-29.4S555 56.2 555 56.2s29.8 39.9 31.2 42.2l7.4 12.4L583 83.3l12.9 22.5-19.3-40c-.9-1.8 12.8 17.9 12.8 17.9l-11.9-35.8 27.5 56.5-1.8-22.1 5.1 23 1.3-56.5 3.2 56s5.1-35.8 6-43.1 1.4-15.2 1.4-15.2-.9 48.7-.9 50.1-.9 12.4-.9 12.4 6.8-20.7 8.7-26.2 3.7-24.3 4.6-27.1-4.6 42.3-5.1 44.1a45.4 45.4 0 0 1-3.2 8.7c-1.4 2.8 10.1-16.5 14.2-24.8s12-23.9 12-23.9-6.9 23-8.7 27.1-13.8 26.2-13.8 26.2S645 92 652.8 86.5s22-16.1 22-16.1-22.9 24.8-27.5 29.4-17.9 20.7-17.9 20.7 22.9-14.7 24.3-16.1 17.9-12 17.9-12-33.3 26.4-34.9 28.1c-13.3 14.2-17.9 21.1-20.6 23.8s-7.4 4.2-11.5 0Z"/><path class="cls-5" d="M620.4 184.6s-1.9-3.6-8.4-11.4-33.5-28.9-33.5-28.9 15.3 8.1 20.2 12.3l11.3 9.5s-18.2-19.8-20.1-21.1 18.5 15.5 18.5 15.5-7.8-15.5-11.7-20.7-11.3-17.6-11.3-17.6 21.1 28.3 22 29.9l5.2 8.8-7.4-19.5 9.1 15.9s-13-27-13.7-28.3 9.1 12.7 9.1 12.7l-8.4-25.3 19.5 39.9-1.3-15.6L623 157l1-40 2.3 39.6s3.5-25.3 4.2-30.5 1-10.7 1-10.7-.7 34.4-.7 35.4-.6 8.8-.6 8.8l6.1-18.5c1.3-3.9 2.6-17.3 3.3-19.2s-3.3 29.9-3.6 31.2a31.9 31.9 0 0 1-2.3 6.1c-.9 2 7.2-11.6 10.1-17.5l8.5-16.9s-4.9 16.3-6.2 19.2-9.8 18.5-9.8 18.5 12.7-14.9 18.2-18.8 15.6-11.4 15.6-11.4-16.2 17.5-19.5 20.8-12.6 14.6-12.6 14.6 16.2-10.4 17.2-11.4 12.6-8.4 12.6-8.4-23.5 18.6-24.6 19.8c-9.5 10.1-12.7 14.9-14.7 16.9a5.4 5.4 0 0 1-7.6.5Z"/><path class="cls-5" d="M637 230.9s-2-3.5-8.5-11.3-33.4-28.9-33.4-28.9 15.2 8.1 20.1 12.3 11.4 9.4 11.4 9.4-18.2-19.8-20.2-21.1 18.5 15.6 18.5 15.6-7.8-15.6-11.7-20.8-11.3-17.5-11.3-17.5 21.1 28.2 22.1 29.9l5.2 8.7-7.5-19.4 9.1 15.9s-13-27-13.7-28.3 9.1 12.7 9.1 12.7l-8.4-25.4 19.5 40-1.3-15.6 3.6 16.2.9-39.9 2.3 39.6s3.6-25.3 4.2-30.5 1-10.7 1-10.7-.7 34.4-.7 35.4-.6 8.7-.6 8.7l6.2-18.5c1.3-3.9 2.6-17.2 3.2-19.1s-3.2 29.8-3.6 31.1a45.7 45.7 0 0 1-2.2 6.2c-1 2 7.1-11.7 10-17.5l8.5-16.9s-4.9 16.2-6.2 19.2-9.7 18.5-9.7 18.5 12.6-15 18.2-18.9 15.5-11.3 15.5-11.3-16.2 17.5-19.4 20.7-12.7 14.7-12.7 14.7 16.2-10.4 17.2-11.4 12.7-8.4 12.7-8.4-23.6 18.6-24.7 19.8c-9.4 10-12.7 14.9-14.6 16.8s-5.2 3-8.1 0Z"/><path d="M657.5 318.1c0 21.7-5.7 40.9-14.4 52.4h-38.6c-8.8-11.5-14.5-30.7-14.5-52.4 0-1.8.1-3.7.2-5.6a108.9 108.9 0 0 1 1.5-14l.9-5c.3-1.3.7-2.7 1-4a76 76 0 0 1 6.4-16.6h47.6a71 71 0 0 1 6.3 16.6c.4 1.3.7 2.7 1 4s.7 3.3 1 5a108.9 108.9 0 0 1 1.5 14c.1 1.9.1 3.8.1 5.6Z" style="stroke:#263238;fill:#fff;stroke-miterlimit:10"/><path class="cls-7" d="M653.9 289.5h-60.3c-.3 1.3-.7 2.7-1 4h62.3c-.3-1.3-.6-2.7-1-4Zm2 9h-64.2a108.9 108.9 0 0 0-1.5 14h67.2a108.9 108.9 0 0 0-1.5-14Z"/></g><g id="Couch"><rect class="cls-8" x="235.7" y="195.9" width="148.2" height="121.45" rx="11.7"/><path class="cls-7" d="m247.1 248.3 7.2 54h-9.6l2.4-54z"/><rect class="cls-8" x="405.3" y="195.9" width="148.2" height="121.45" rx="11.7"/><rect class="cls-8" x="383.9" y="195.9" width="148.2" height="121.45" rx="11.7"/><path class="cls-9" d="M523.2 240.1s-24.6-8.3-41.2-10.9-21.4-5.7-21.4-5.7a35.1 35.1 0 0 0-.9 6.5c0 2.2-3.5 14.1-5.7 26.3s-4.4 25-4.4 25-2.9 9.3-3.2 12.4c-.1 1-3.4 4.6.1 7.2s9.2-1.7 9.2-1.7 16.7 3.5 30.7 3.5a196.2 196.2 0 0 0 27.6-2.2s4.8 3.1 6.5-.4l1.8-3.5c.4-11.4 4.4-28.5 5.2-50.8.2-4.4 4.9-5.7-4.3-5.7Z"/><rect class="cls-8" x="211.3" y="242.9" width="35.9" height="127.67" rx="7"/><rect class="cls-8" x="192.9" y="242.9" width="35.9" height="127.67" rx="7"/><path class="cls-8" d="m229 313.5 1 53.4a3.6 3.6 0 0 0 3.6 3.6h303.2l-1-57Z"/><path class="cls-7" d="M229 319.5v8.2c17.8-.2 98.5-1 118.3-1 23.3 0 66.4 1.5 77.1 1.5l105 .7.2-6.7Z"/><path class="cls-8" d="M379.5 300.4c-4.7 0-124.7-.2-128.5-.7s-16.8-.2-22-.1v24.5c20.3.2 210.5 2.4 220.8 2.4s79.3-1.3 79.3-1.3v-22.5Z"/><rect class="cls-8" x="521" y="242.9" width="35.9" height="127.67" rx="7"/><rect class="cls-8" x="498.7" y="242.9" width="35.9" height="127.67" rx="7"/></g><g id="Table"><path class="cls-9" d="M297.8 268.5a39.4 39.4 0 0 0 70.5 0Z"/><path class="cls-10" d="M423.5 288.4h-97.2v82.1h97.3v-81.9c0-.1 0-.1-.1-.2Zm-3.2 76.6h-90.7v-71.1h90.6c.1 0 .1.1.1.2Z"/><path class="cls-10" d="M356 288.4h-97.2v82.1h97.3v-81.9c0-.1 0-.2-.1-.2Zm-3.2 76.6h-90.7v-71.1h90.6c.1 0 .1.1.1.2Z"/><path class="cls-9" d="M256.4 288.4h170a.2.2 0 0 1 .2.2h0v7.1H256.4v-7.3Z"/><path class="cls-10" d="M352.7 288.4h73.7a.2.2 0 0 1 .2.2h0v7.1h-73.9v-7.3Z"/></g><g id="Price_Tags" data-name="Price Tags"><path class="cls-9" d="M262.5 195.8h42.3v30.88h-42.3z"/><path class="cls-5" d="M265.2 207.7h35.5v15.11h-35.5zm3.6-6.1h28.3v2.92h-28.3z"/><path class="cls-9" d="M368.5 288.6h42.3v30.88h-42.3z"/><path class="cls-5" d="M371.1 300.5h35.5v15.11h-35.5zm3.7-6.1h28.3v2.92h-28.3z"/><path style="stroke:#b2b2b2;stroke-miterlimit:10;fill:none" d="M489.5 5.2h42.3v30.88h-42.3z"/><path class="cls-5" d="M492.1 17.1h35.5v15.11h-35.5zm3.6-6.1H524v2.92h-28.3z"/><path class="cls-12" d="M308.5 91.5h42.3v30.88h-42.3z"/><path class="cls-5" d="M311.2 103.4h35.5v15.11h-35.5zm3.6-6.1h28.3v2.92h-28.3z"/><path class="cls-12" d="M24.5 216.3h42.3v30.88H24.5z"/><path class="cls-5" d="M27.1 228.2h35.5v15.11H27.1zm3.6-6.1H59v2.92H30.7z"/></g><g id="Floor"><path style="stroke-linecap:round;stroke:#263238;stroke-linejoin:round;fill:none" d="M-14.8 370.5h722.4"/><path d="m501.1 24.6.3.2a.8.8 0 0 1-.4.4h-.6a1.7 1.7 0 0 1-1-.3 1.6 1.6 0 0 1-.6-.8 2 2 0 0 1-.3-1.1 2.7 2.7 0 0 1 .3-1.2 1.8 1.8 0 0 1 .7-.8l1.2-.2a2 2 0 0 1 1.1.3 1.8 1.8 0 0 1 .8.7 5 5 0 0 1 .2 1.2 2.2 2.2 0 0 1-.1.8l-.3 1h-.1l-1.3 3.5h-1.5Zm.1-.9c.2-.1.2-.3.2-.6a.8.8 0 0 0-.2-.7l-.5-.2-.6.2a1.9 1.9 0 0 0-.2.7 1.4 1.4 0 0 0 .2.6.7.7 0 0 0 .6.3.5.5 0 0 0 .5-.3Zm5.1 4.1a2 2 0 0 1-.6-1.5v-3.4a2 2 0 0 1 .6-1.5 2.7 2.7 0 0 1 3.2 0 2 2 0 0 1 .6 1.5v3.4a2 2 0 0 1-.6 1.5 1.8 1.8 0 0 1-1.6.5 2.4 2.4 0 0 1-1.6-.5Zm2.2-1.1a1.9 1.9 0 0 0 .2-.8v-2.6a1.9 1.9 0 0 0-.2-.8.8.8 0 0 0-1.1-.1h-.1a1.9 1.9 0 0 0-.2.8v2.6a1.9 1.9 0 0 0 .2.8.8.8 0 0 0 1 .2Zm3.4 1.1a2.7 2.7 0 0 1-.5-1.5v-3.4a2.7 2.7 0 0 1 .5-1.5 3.4 3.4 0 0 1 1.7-.5 3 3 0 0 1 1.6.5 2 2 0 0 1 .6 1.5v3.4a2 2 0 0 1-.6 1.5 1.8 1.8 0 0 1-1.6.5 3.4 3.4 0 0 1-1.7-.5Zm2.3-1.1a1.9 1.9 0 0 0 .2-.8v-2.6a1.9 1.9 0 0 0-.2-.8l-.6-.3a.7.7 0 0 0-.6.3c-.2.2-.2.4-.2.8v2.6c0 .4 0 .6.2.8a.7.7 0 0 0 .6.3Zm3.4 1.1a2.1 2.1 0 0 1-.5-1.5v-3.4a2.1 2.1 0 0 1 .5-1.5 3 3 0 0 1 1.6-.5 2.6 2.6 0 0 1 1.7.5 2.7 2.7 0 0 1 .5 1.5v3.4a2.7 2.7 0 0 1-.5 1.5 2.2 2.2 0 0 1-1.7.5 3 3 0 0 1-1.6-.5Zm2.3-1.1a2.2 2.2 0 0 0 .1-.8v-2.6a2.2 2.2 0 0 0-.1-.8.9.9 0 0 0-.7-.3.9.9 0 0 0-.6.3 1.9 1.9 0 0 0-.2.8v2.6a1.9 1.9 0 0 0 .2.8.9.9 0 0 0 .6.3.9.9 0 0 0 .7-.3Zm-202.3 84.5h.2a.3.3 0 0 1-.3.3h-.5c-.4 0-.7 0-.9-.2a1.3 1.3 0 0 1-.6-.7 1.8 1.8 0 0 1-.2-1 1.4 1.4 0 0 1 .2-1.1 1.2 1.2 0 0 1 .7-.7 1.7 1.7 0 0 1 1-.3 2 2 0 0 1 1.1.3 1.1 1.1 0 0 1 .6.7 2 2 0 0 1 .3 1.1c0 .2-.1.5-.1.7l-.3.9h-.1l-1.2 2.9h-1.3Zm.1-.8a1.9 1.9 0 0 0 .2-.7.8.8 0 0 0-.2-.5c-.1-.2-.3-.2-.5-.2s-.4 0-.5.2a.8.8 0 0 0-.2.5 1.4 1.4 0 0 0 .2.6l.5.2Zm3.5 3.9a2.3 2.3 0 0 1-.7-.7 2 2 0 0 1-.3-1.1h1.3a1.4 1.4 0 0 0 .2.6c.1.2.3.2.5.2s.4 0 .5-.2a1.4 1.4 0 0 0 .2-.6v-.6a1.4 1.4 0 0 0-.2-.6l-.4-.2-.5.2c-.1 0-.2.2-.3.3h-1.1v-3.8h3.5v1.2h-2.3v1.2l.4-.2h.5l.9.2a1.8 1.8 0 0 1 .5.7 2 2 0 0 1 .2 1.1v.6a2 2 0 0 1-.2 1.1 2 2 0 0 1-2.7.7Zm6.2-.3a2.1 2.1 0 0 1-.5-1.3v-3.1a2.4 2.4 0 0 1 .5-1.4 2.7 2.7 0 0 1 1.5-.5 2.1 2.1 0 0 1 1.5.5 1.6 1.6 0 0 1 .5 1.4v3.1a1.3 1.3 0 0 1-.5 1.3 1.7 1.7 0 0 1-1.5.5 2.1 2.1 0 0 1-1.5-.5Zm2.1-.9a1.9 1.9 0 0 0 .2-.8v-2.4a1.9 1.9 0 0 0-.2-.7.7.7 0 0 0-.6-.3.5.5 0 0 0-.5.3.8.8 0 0 0-.2.7v2.4c0 .4 0 .6.2.8l.5.2Zm3.1.9a2.1 2.1 0 0 1-.5-1.3v-3.1a2.4 2.4 0 0 1 .5-1.4 2.7 2.7 0 0 1 1.5-.5 2.1 2.1 0 0 1 1.5.5 2.4 2.4 0 0 1 .5 1.4v3.1a2.1 2.1 0 0 1-.5 1.3 1.7 1.7 0 0 1-1.5.5 2.1 2.1 0 0 1-1.5-.5Zm2.1-.9a2.2 2.2 0 0 0 .1-.8v-2.4a1.7 1.7 0 0 0-.1-.7.7.7 0 0 0-.6-.3.9.9 0 0 0-.6.3 1.7 1.7 0 0 0-.1.7v2.4a2.2 2.2 0 0 0 .1.8l.6.2Zm3.1.9a2.1 2.1 0 0 1-.5-1.3v-3.1a2.4 2.4 0 0 1 .5-1.4 2.1 2.1 0 0 1 1.5-.5 2.7 2.7 0 0 1 1.5.5 2.4 2.4 0 0 1 .5 1.4v3.1a1.7 1.7 0 0 1-2 1.8 1.7 1.7 0 0 1-1.5-.5Zm2-.9c.2-.2.2-.4.2-.8v-2.4a.8.8 0 0 0-.2-.7.5.5 0 0 0-.5-.3.7.7 0 0 0-.6.3 1.9 1.9 0 0 0-.2.7v2.4a1.9 1.9 0 0 0 .2.8l.6.2Zm-70.3 105.5h-1.3v-5.2l-.8.3v-1.3l1-.4h1.1Zm1.2-1.1 2.3-3 .2-.4a.6.6 0 0 0 .1-.4c0-.2 0-.4-.2-.5h-.5l-.5.2a1.4 1.4 0 0 0-.2.6h-1.3a2 2 0 0 1 .3-1.1l.7-.7 1-.2 1.1.2a1.1 1.1 0 0 1 .7.6 1.5 1.5 0 0 1 .2.9 1.5 1.5 0 0 1-.2.9 1.2 1.2 0 0 1-.4.8l-1.7 2.1h2.3v1.2h-3.9Zm5.4.7a2.4 2.4 0 0 1-.5-1.4v-3a1.9 1.9 0 0 1 1.7-1.9h.3a1.8 1.8 0 0 1 2 1.9v3a1.6 1.6 0 0 1-.5 1.4 2 2 0 0 1-1.5.5 3 3 0 0 1-1.5-.5Zm2.1-1a1 1 0 0 0 .2-.7v-2.4a1.1 1.1 0 0 0-.2-.8l-.6-.2-.5.2a1.9 1.9 0 0 0-.2.8v2.4a1.4 1.4 0 0 0 .2.7.5.5 0 0 0 .5.3.6.6 0 0 0 .6-.3Zm4.7 1a2.4 2.4 0 0 1-.5-1.4v-3a1.9 1.9 0 0 1 1.7-1.9h.3a1.8 1.8 0 0 1 2 1.9v3a1.6 1.6 0 0 1-.5 1.4 2 2 0 0 1-1.5.5 3 3 0 0 1-1.5-.5Zm2.1-1a1 1 0 0 0 .2-.7v-2.4a1.1 1.1 0 0 0-.2-.8l-.6-.2-.5.2a1.9 1.9 0 0 0-.2.8v2.4a1.4 1.4 0 0 0 .2.7.5.5 0 0 0 .5.3.6.6 0 0 0 .6-.3Zm3.1 1a2.4 2.4 0 0 1-.5-1.4v-3a2.4 2.4 0 0 1 .5-1.4 1.7 1.7 0 0 1 1.5-.5 1.8 1.8 0 0 1 2 1.6.2.2 0 0 1 0 .3v3a1.6 1.6 0 0 1-.5 1.4 2.5 2.5 0 0 1-1.5.5 2.3 2.3 0 0 1-1.5-.5Zm2.1-1a.9.9 0 0 0 .1-.7v-2.4a1.1 1.1 0 0 0-.1-.8l-.6-.2-.6.2c0 .3-.1.5-.1.8v2.4c0 .2.1.5.1.7a.9.9 0 0 0 .6.3.6.6 0 0 0 .6-.3Zm3.1 1a2.4 2.4 0 0 1-.5-1.4v-3a2.4 2.4 0 0 1 .5-1.4 1.7 1.7 0 0 1 1.5-.5 1.8 1.8 0 0 1 2 1.6.2.2 0 0 1 0 .3v3a1.6 1.6 0 0 1-.5 1.4 2.5 2.5 0 0 1-1.5.5 2.3 2.3 0 0 1-1.5-.5Zm2-1a.6.6 0 0 0 .2-.7v-2.4a.8.8 0 0 0-.2-.8l-.5-.2-.6.2c-.1.2-.1.5-.2.8v2.4c.1.2.1.5.2.7a.9.9 0 0 0 .6.3c.3 0 .5-.1.5-.3Zm-263 20.9 2.3-3c.1-.2.2-.3.2-.4a.6.6 0 0 0 .1-.4l-.2-.4h-.5l-.5.2a1.4 1.4 0 0 0-.2.6h-1.3a2 2 0 0 1 .3-1.1l.7-.7 1-.2a2 2 0 0 1 1.1.2 1.3 1.3 0 0 1 .7.6 2.9 2.9 0 0 1 .2.9 2.9 2.9 0 0 1-.2.9 2 2 0 0 1-.4.8L34 238h2.2v1.2h-3.9Zm7.2-2.2.2.2-.4.3h-.5a1.6 1.6 0 0 1-.9-.3c-.2-.2-.5-.4-.6-.7a3.6 3.6 0 0 1-.2-1 4.3 4.3 0 0 1 .2-1.1l.7-.7 1.1-.2 1 .2a2.3 2.3 0 0 1 .7.7 4.3 4.3 0 0 1 .2 1.1 2.2 2.2 0 0 1-.1.8l-.3.8v.2l-1.3 2.8H38Zm.1-.8a1.4 1.4 0 0 0 .2-.6 1.4 1.4 0 0 0-.2-.6l-.5-.2-.6.2c-.1.1-.1.3-.1.6a1.3 1.3 0 0 0 .1.6l.6.2Zm4.6 3.7a1.6 1.6 0 0 1-.5-1.4v-3a1.6 1.6 0 0 1 .5-1.4 1.7 1.7 0 0 1 1.5-.5 1.6 1.6 0 0 1 1.4.5 1.8 1.8 0 0 1 .6 1.4v3a2 2 0 0 1-.6 1.4 2.4 2.4 0 0 1-1.4.5 2.1 2.1 0 0 1-1.5-.5Zm2-1a1.9 1.9 0 0 0 .2-.7v-2.4a1.9 1.9 0 0 0-.2-.8l-.5-.2-.6.2a1.9 1.9 0 0 0-.2.8v2.4a1.9 1.9 0 0 0 .2.7.7.7 0 0 0 .6.3.5.5 0 0 0 .5-.3Zm3.2 1a2 2 0 0 1-.6-1.4v-3a1.8 1.8 0 0 1 .6-1.4 1.6 1.6 0 0 1 1.4-.5 1.7 1.7 0 0 1 1.5.5 1.6 1.6 0 0 1 .5 1.4v3a1.6 1.6 0 0 1-.5 1.4 2.1 2.1 0 0 1-1.5.5 2.4 2.4 0 0 1-1.4-.5Zm2-1a1.9 1.9 0 0 0 .2-.7v-2.4a1.9 1.9 0 0 0-.2-.8l-.6-.2-.5.2a1.9 1.9 0 0 0-.2.8v2.4a1.9 1.9 0 0 0 .2.7.5.5 0 0 0 .5.3.7.7 0 0 0 .6-.3Zm3.1 1a2.4 2.4 0 0 1-.5-1.4v-3a1.8 1.8 0 0 1 1.7-1.9h.3a1.7 1.7 0 0 1 1.5.5 2.4 2.4 0 0 1 .5 1.4v3a2.4 2.4 0 0 1-.5 1.4 2.1 2.1 0 0 1-1.5.5 2.7 2.7 0 0 1-1.5-.5Zm2.1-1a1.9 1.9 0 0 0 .2-.7v-2.4a1.9 1.9 0 0 0-.2-.8l-.6-.2-.5.2c-.2.2-.2.4-.2.8v2.4a.8.8 0 0 0 .2.7.5.5 0 0 0 .5.3.7.7 0 0 0 .6-.3Zm322.9 73.7h-1.2v-5.2l-.8.3v-1.3l1-.5h1Zm2.1-.1-.7-.7a1.7 1.7 0 0 1-.3-1h1.3c0 .1.1.3.1.4l.2.2h.4l.5-.2c.2-.2.3-.4.2-.6v-.2a.4.4 0 0 0-.1-.5c0-.2-.2-.3-.5-.3h-.5v-1.2h.9c.1-.2.2-.3.1-.5v-.2c0-.2 0-.3-.1-.4l-.4-.2h-.3l-.3.2v.4h-1.3a1.7 1.7 0 0 1 .3-1 4.6 4.6 0 0 1 .7-.7l1-.2a2.3 2.3 0 0 1 1.4.4 1.4 1.4 0 0 1 .5 1.3v.2a.7.7 0 0 1-.3.8 1 1 0 0 1-.6.5 1.3 1.3 0 0 1 .7.5 1 1 0 0 1 .3 1v.2a1 1 0 0 1-.3 1 1.3 1.3 0 0 1-.6.7l-1.1.2Zm6.8-.1a1.9 1.9 0 0 1-.7-.6l-.3-1.1h1.3c.1.2.1.4.2.6l.5.2c.3 0 .5-.1.5-.3s.3-.4.2-.6v-.5c.1-.2 0-.4-.2-.6s-.2-.2-.4-.2h-.5l-.3.4h-1.1v-3.9h3.6v1.3h-2.4v1.1l.4-.2h.5a1.2 1.2 0 0 1 .9.3 1.3 1.3 0 0 1 .6.7 2.1 2.1 0 0 1 .1 1.1v.5a1.4 1.4 0 0 1-.2 1.1 1 1 0 0 1-.7.7 1.8 1.8 0 0 1-2 0Zm4.6-.2a2.4 2.4 0 0 1-.5-1.4v-3a1.9 1.9 0 0 1 1.7-1.9h.3a1.8 1.8 0 0 1 2 1.9v3a1.6 1.6 0 0 1-.5 1.4 2 2 0 0 1-1.5.5 3 3 0 0 1-1.5-.5Zm2.1-1a1 1 0 0 0 .2-.7V307a1.1 1.1 0 0 0-.2-.8.8.8 0 0 0-.6-.2l-.5.2c-.1.2-.1.5-.2.8v2.4c.1.2.1.5.2.7a.5.5 0 0 0 .5.3.6.6 0 0 0 .6-.3Zm3.1 1a2.4 2.4 0 0 1-.5-1.4v-3a1.9 1.9 0 0 1 1.7-1.9h.3a1.8 1.8 0 0 1 2 1.9v3a1.6 1.6 0 0 1-.5 1.4 2 2 0 0 1-1.5.5 3 3 0 0 1-1.5-.5Zm2.1-1a1 1 0 0 0 .2-.7V307a1.1 1.1 0 0 0-.2-.8.8.8 0 0 0-.6-.2l-.5.2a1.9 1.9 0 0 0-.2.8v2.4a1.4 1.4 0 0 0 .2.7.5.5 0 0 0 .5.3.6.6 0 0 0 .6-.3Z" style="fill:#e8e8e8"/></g></svg>