<svg width="239" height="44" fill="none" xmlns="http://www.w3.org/2000/svg"><path d="M12.93 1.273h23.178a7.343 7.343 0 0 1 7.359 7.359v12.032a7.343 7.343 0 0 1-7.36 7.359H12.93a7.343 7.343 0 0 1-7.36-7.359V8.632a7.343 7.343 0 0 1 7.36-7.359Z" fill="#DCAF86"/><path d="M1.112 42.355h7.803V18.95H1.112v23.406Zm39.01 0h7.803V18.95h-7.802v23.406Z" fill="#DCAF86"/><path d="M42.073 39.012V31.21H6.964v7.802h35.11Z" fill="#B79371"/><path d="M7.81 30.476v-4.282a2.23 2.23 0 0 1 2.229-2.229h28.979a2.23 2.23 0 0 1 2.23 2.23c-.002 1.47 0 4.414 0 4.414L7.81 30.476Z" fill="#DCAF86"/><path d="M40.125 17.833a1.115 1.115 0 0 0-1.115 1.115v5.573h2.23v-4.459h5.572V41.24H41.24v-3.343h-2.23v4.458a1.114 1.114 0 0 0 1.115 1.115h7.802a1.115 1.115 0 0 0 1.115-1.115V18.948a1.114 1.114 0 0 0-1.115-1.115h-7.802Z" fill="#484848"/><path d="M10.031 22.849a3.361 3.361 0 0 0-3.344 3.344v2.229h2.23v-2.23c0-.628.485-1.114 1.114-1.114h28.98c.628 0 1.114.486 1.114 1.115v2.229h2.23v-2.23a3.36 3.36 0 0 0-3.345-3.343H10.031Zm-3.065 7.245a1.115 1.115 0 0 0-1.114 1.114v7.802a1.115 1.115 0 0 0 1.114 1.115h18.669v-2.23H8.081v-5.572h32.88v5.573h-8.777v2.229h9.891a1.115 1.115 0 0 0 1.115-1.115v-7.802a1.114 1.114 0 0 0-1.114-1.114H6.965ZM12.26 0C7.964 0 4.454 3.505 4.454 7.802v10.589h2.234V7.802a5.553 5.553 0 0 1 5.572-5.568h24.521a5.55 5.55 0 0 1 5.569 5.568v7.802h2.233V7.802C44.583 3.505 41.078 0 36.781 0h-24.52Z" fill="#484848"/><path fill-rule="evenodd" clip-rule="evenodd" d="M23.393 9.487a1.116 1.116 0 0 0-.775 1.911l2.203 2.208a1.113 1.113 0 0 0 1.835-.351 1.113 1.113 0 0 0-.259-1.225l-2.203-2.207a1.115 1.115 0 0 0-.801-.336Z" fill="#484848"/><path fill-rule="evenodd" clip-rule="evenodd" d="M25.587 9.487a1.115 1.115 0 0 0-.766.336l-2.203 2.207a1.117 1.117 0 0 0-.015 1.591 1.115 1.115 0 0 0 1.591-.015l2.203-2.208a1.114 1.114 0 0 0-.81-1.911Zm7.824 0a1.117 1.117 0 0 0-1.086 1.342c.045.217.153.415.311.57l2.208 2.207a1.111 1.111 0 0 0 1.224.258 1.116 1.116 0 0 0 .352-1.834l-2.208-2.207a1.116 1.116 0 0 0-.8-.336Z" fill="#484848"/><path fill-rule="evenodd" clip-rule="evenodd" d="M35.61 9.487c-.29.008-.564.129-.767.336l-2.207 2.207a1.117 1.117 0 0 0-.262 1.226 1.119 1.119 0 0 0 1.476.602c.136-.06.26-.145.362-.252l2.207-2.208a1.114 1.114 0 0 0-.81-1.911Zm-22.261 0a1.116 1.116 0 0 0-1.087 1.342c.045.217.154.415.311.57l2.208 2.207a1.111 1.111 0 0 0 1.591.015 1.117 1.117 0 0 0-.015-1.591L14.15 9.823a1.116 1.116 0 0 0-.802-.336Z" fill="#484848"/><path fill-rule="evenodd" clip-rule="evenodd" d="M15.548 9.487c-.29.008-.565.129-.767.336l-2.207 2.207a1.117 1.117 0 0 0-.262 1.226 1.117 1.117 0 0 0 1.838.35l2.207-2.208a1.114 1.114 0 0 0-.81-1.911Z" fill="#484848"/><path d="M1.115 17.833A1.115 1.115 0 0 0 0 18.948v23.406a1.114 1.114 0 0 0 1.115 1.115h7.802a1.115 1.115 0 0 0 1.114-1.115v-4.458H7.802v3.344H2.23V20.061h5.573v4.459h2.23v-5.573a1.114 1.114 0 0 0-1.115-1.115H1.115ZM27.86 37.896v2.229h2.23v-2.23h-2.23Z" fill="#484848"/><path d="M61.21 33.636h-3.053c-.35 0-.495-.182-.373-.53l6.462-18.472h-4.098c-.31 0-.468-.145-.468-.436V11.83c0-.311.157-.467.468-.467h16.91c.312 0 .467.156.467.467v2.367c0 .29-.156.436-.467.436h-4.092l6.463 18.472c.103.354-.021.53-.374.53h-3.053c-.29 0-.468-.124-.53-.373l-1.526-4.704h-10.68l-1.526 4.704c-.08.248-.261.373-.53.373Zm20.71-15.383c1.91-.748 4.007-1.121 6.29-1.121 2.16 0 3.893.57 5.2 1.712 1.309 1.142 1.963 2.844 1.963 5.107v3.426c0 2.014-.644 3.623-1.931 4.827-1.287 1.203-2.937 1.806-4.951 1.806a8.252 8.252 0 0 1-3.301-.685v5.76c0 .312-.156.468-.467.468h-2.678c-.311 0-.467-.156-.467-.467V18.75c0-.25.114-.415.342-.498Zm6.26 12.58c2.345 0 3.518-1.142 3.518-3.425v-3.487c0-1.288-.3-2.212-.902-2.772-.602-.56-1.495-.841-2.679-.841-1.246 0-2.221.145-2.927.436v9.218c.851.58 1.847.872 2.99.872Zm23.915 2.803h-3.145c-.27 0-.457-.094-.561-.28l-4.857-6.384-1.277 1.37v4.827c0 .311-.156.467-.468.467h-2.584c-.312 0-.467-.156-.467-.467V17.973c0-.312.155-.468.467-.468h2.584c.312 0 .468.156.468.468v6.01l5.574-6.229c.124-.166.311-.249.56-.249h3.146c.207 0 .337.052.389.156.052.104.016.239-.109.404l-5.886 6.385 6.477 8.626c.229.373.125.56-.311.56Zm15.352-5.917c0 1.931-.643 3.462-1.93 4.593-1.288 1.132-3.011 1.698-5.169 1.698-2.16 0-3.883-.566-5.17-1.698-1.287-1.13-1.931-2.662-1.931-4.593v-4.172c0-1.952.644-3.509 1.931-4.672 1.287-1.162 3.01-1.743 5.17-1.743 2.158 0 3.881.581 5.169 1.743 1.287 1.163 1.93 2.72 1.93 4.672v4.172Zm-10.556 0c0 2.035 1.152 3.052 3.457 3.052 1.121 0 1.977-.26 2.568-.779.592-.518.888-1.277.888-2.273v-4.172c0-1.018-.301-1.802-.903-2.352-.602-.55-1.454-.825-2.553-.825-1.122 0-1.978.27-2.57.81-.591.54-.887 1.329-.887 2.367v4.172Zm17.811 5.917h-2.834c-.29 0-.436-.156-.436-.467V11.838c0-.312.146-.467.436-.467h3.395c.249 0 .415.114.498.342l3.799 7.07c.789 1.473 1.671 3.3 2.647 5.48h.124c.976-2.18 1.859-4.007 2.647-5.48l3.768-7.07c.125-.228.301-.342.53-.342h3.363c.311 0 .467.155.467.466V33.17c0 .311-.156.467-.467.467h-2.834c-.291 0-.436-.156-.436-.467v-6.26c0-2.449.083-5.708.249-9.777l-.093-.032c-.623 1.35-1.557 3.27-2.803 5.761l-2.74 5.325a.54.54 0 0 1-.53.343h-2.366a.54.54 0 0 1-.53-.343l-2.74-5.325c-1.245-2.49-2.179-4.411-2.803-5.76l-.093.03c.166 4.07.249 7.33.249 9.779v6.259c0 .311-.156.467-.467.467Zm35.998-10.12v3.145c0 .29-.156.436-.467.436h-9.467v.871c0 .935.296 1.645.888 2.134.592.488 1.396.732 2.413.732 1.516 0 2.979-.478 4.391-1.433.249-.166.457-.135.623.093l1.277 1.713c.207.229.176.446-.094.654-1.806 1.432-3.913 2.149-6.322 2.149-1.909 0-3.523-.525-4.842-1.573-1.318-1.048-1.977-2.548-1.977-4.5v-4.421c0-2.14.665-3.737 1.993-4.796 1.328-1.059 2.948-1.588 4.858-1.588 1.889 0 3.483.53 4.78 1.588 1.298 1.059 1.946 2.657 1.946 4.796Zm-3.518-.031c0-1.08-.302-1.88-.904-2.398-.602-.52-1.37-.78-2.304-.78-2.138 0-3.208 1.06-3.208 3.178v.809h6.416v-.81Zm10.244-4.423c1.08-.519 2.284-.778 3.612-.778 1.973 0 3.571.555 4.796 1.666 1.225 1.11 1.837 2.683 1.837 4.717v2.772c0 2.18-.67 3.82-2.008 4.92-1.339 1.1-3.005 1.65-4.998 1.65-1.931 0-3.556-.555-4.874-1.665-1.318-1.111-1.977-2.756-1.977-4.936v-9.404c0-1.91.628-3.416 1.884-4.516 1.256-1.1 2.745-1.816 4.469-2.148 2.47-.437 4.037-.82 4.702-1.153.29-.125.498-.072.622.156l1.153 1.962c.125.29.072.498-.156.623-.726.415-2.409.923-5.045 1.525-.581.146-1.069.291-1.464.436a7.004 7.004 0 0 0-1.245.623c-.436.27-.763.623-.981 1.06-.218.435-.327.954-.327 1.556v.934Zm3.207 11.71c.976 0 1.78-.271 2.414-.81.633-.54.95-1.37.95-2.492v-2.74c0-2.242-1.1-3.364-3.301-3.364-1.225 0-2.315.25-3.27.748v5.325c0 1.142.301 1.983.903 2.523.602.539 1.37.81 2.304.81Zm23.48-7.256v3.145c0 .29-.156.436-.467.436h-9.467v.871c0 .935.296 1.645.888 2.134.592.488 1.396.732 2.413.732 1.516 0 2.979-.478 4.391-1.433.249-.166.457-.135.622.093l1.277 1.713c.208.229.177.446-.093.654-1.806 1.432-3.913 2.149-6.322 2.149-1.909 0-3.524-.525-4.842-1.573-1.318-1.048-1.977-2.548-1.977-4.5v-4.421c0-2.14.664-3.737 1.993-4.796 1.328-1.059 2.948-1.588 4.858-1.588 1.889 0 3.482.53 4.78 1.588 1.298 1.059 1.946 2.657 1.946 4.796Zm-3.519-.031c0-1.08-.301-1.88-.903-2.398-.602-.52-1.37-.78-2.304-.78-2.139 0-3.208 1.06-3.208 3.178v.809h6.415v-.81Zm11.335 4.857c-.395 1.973-.996 3.358-1.806 4.157-.81.8-2.097 1.23-3.861 1.293-.291 0-.436-.156-.436-.467V31.05c0-.27.145-.435.436-.498.602-.041 1.074-.29 1.416-.747.343-.457.628-1.277.856-2.46.353-2.056.613-5.19.779-9.405.042-.29.197-.436.467-.436h10.588c.311 0 .467.146.467.436v15.23c0 .311-.156.467-.467.467h-2.678c-.312 0-.467-.156-.467-.467V20.682h-4.547c-.103 2.968-.353 5.522-.747 7.66Zm19.743 5.294h-6.447c-.311 0-.467-.156-.467-.467V17.94c0-.29.156-.436.467-.436h2.679c.311 0 .467.146.467.436v4.796h3.301c1.909 0 3.451.488 4.624 1.464 1.173.975 1.759 2.325 1.759 4.048 0 1.847-.566 3.207-1.697 4.08-1.131.87-2.694 1.307-4.686 1.307Zm-3.301-7.94v4.95h2.677c2.243 0 3.364-.82 3.364-2.46.021-.85-.249-1.48-.809-1.883-.561-.405-1.412-.608-2.555-.608h-2.677ZM67.746 14.633l-3.42 10.529h8.56l-3.42-10.529h-1.72Z" fill="#000"/></svg>