<svg xmlns="http://www.w3.org/2000/svg" viewBox="0 0 500 500"><defs><style>.cls-1,.cls-4,.cls-9{fill:#4675ce}.cls-10,.cls-5,.cls-7{fill:#fff}.cls-3{opacity:.3}.cls-12,.cls-16,.cls-4,.cls-5,.cls-6,.cls-7,.cls-8,.cls-9{stroke:#263238}.cls-12,.cls-4,.cls-7{stroke-miterlimit:10}.cls-16,.cls-5,.cls-6,.cls-8,.cls-9{stroke-linecap:round;stroke-linejoin:round}.cls-11,.cls-6{fill:#263238}.cls-8{fill:#dbdbdb}.cls-12,.cls-16{fill:none}.cls-13,.cls-14{fill:#e5e5e5}.cls-14{fill-rule:evenodd}</style></defs><g id="Floor"><path class="cls-1" d="M322 35.4s-136.2-6.6-247.1 68.9-53.2 298.4-8 346.8c26.8 28.8 174.8 55.5 287.2 6.4s149.3-227.1 133.1-278.2S439.6 49.9 322 35.4Z"/><path d="M321.8 35.4s-136.2-6.6-247 68.9-71.9 281.4-7.9 346.8c28.9 29.6 174.7 55.5 287.1 6.4s149.2-227.1 133-278.2S439.4 49.9 321.8 35.4Z" style="opacity:.7;fill:#fff"/><g class="cls-3"><path d="M100.2 325.4c-.7-4.1-5.9-11.7-5.9-11.7l-4.2 5.3c-2.4 4-4.8 13.1-1.4 17.1a6.2 6.2 0 0 0 9.3-.1c2.5-2.6 2.8-7.2 2.2-10.6Z"/><path d="M120.8 308.2c-1.6-3.6-8.1-9.2-8.6-9.6a115.3 115.3 0 0 0 8.8-11.7c1.6-2.4 3.1-4.8 4.6-7.3l-1 2.5c-1.3 4.5-1.2 13.9 3.2 16.9a6.2 6.2 0 0 0 8.9-2.5c1.7-3.3.7-7.7-.7-10.9s-6.9-8.1-8.4-9.4l1.7-2.8c2.7-4.6 5.4-9.2 8.1-13.6l3-4.5-.9 2.1c-1.3 4.5-1.2 14 3.2 16.9s7.1.7 8.9-2.5.7-7.7-.7-10.9-6.4-7.6-8.1-9.1c1-1.5 2.1-3 3.2-4.4s1.5-2 2.3-2.9l2.4-2.7 4.8-5 3.2-3.2c-.9 1.6-2.8 4.6-2.9 4.9-2 4.2-3.3 13.6.6 17.1a6.1 6.1 0 0 0 9.1-1.1c2.3-2.9 2-7.5 1-10.8s-6.4-10-7-10.8l5.2-5 3.6-3.2-1.8-2.8-4 3.8-5.6 5.6c-.6-.3-3.6-2.5-6.7-4.1.9-3.9 0-11.5-.1-12.5l7.1-1.2 3.4-.6-1.8-2.9-2.2.4-7.8 1.6c-.3-.9-3.4-8.6-6.1-11.3s-6.4-4.9-10.1-4.3a6.2 6.2 0 0 0-5.3 7.5c1.3 5.1 10.2 8.4 14.9 8.7l5.1-.3-3.3.8-6.8 1.7-3.5 1c-1.2.3-2.4.8-3.6 1.2s-5.5 2.1-8.2 3.3c-.4-2-2.1-8.9-4.3-11.8s-5.5-5.7-9.2-5.7-6.8 2.9-6.4 6.6 8.8 9.8 13.3 10.8l5.5.6-4.9 2.2-14.1 7.2-4.3 2.2c-.2-.7-2-9-4.4-12.1s-5.5-5.8-9.2-5.8a6.3 6.3 0 0 0-6.5 6.6c.6 5.3 8.8 9.8 13.4 10.8.4.1 5.2.6 6.4.6-3.1 1.7-6.3 3.2-9.5 4.7a119.9 119.9 0 0 1-13.3 5c0-.4-1.9-9-4.4-12.3s-5.5-5.7-9.2-5.7-6.8 2.9-6.4 6.6 8.7 9.8 13.3 10.8l6.5.6-.8.3a70.2 70.2 0 0 1-13.9 2.5c-2.6.3-5.1.4-7.6.5-.2-1.7-1.1-9.2-3-12.4s-4.9-6.3-8.5-6.7a6.2 6.2 0 0 0-7.1 5.9c-.1 5.2 7.6 10.7 12.1 12.2l4.6 1h-3.3c-4 0-7.6-.3-10.8-.6l-5-.6c-1-1.5-5.3-7.6-8.3-9.5s-7.3-3.3-10.7-2a6.2 6.2 0 0 0-3.6 8.5c2.4 4.7 11.7 6 16.3 5.2a65.9 65.9 0 0 0 6.5-1.8l4.8.6a106.9 106.9 0 0 0 10.8.9 111 111 0 0 0 12.8-.2 83.3 83.3 0 0 0 14.3-2.3h.1l-5.1 3.3c-3.6 3-8.7 11-6.7 15.8a6.3 6.3 0 0 0 8.8 2.9c3.3-1.8 4.9-6.1 5.4-9.5s-1.7-12.1-1.8-12.8a94.9 94.9 0 0 0 13.8-4.9l7.8-3.5-2.2 1.5c-3.6 3.1-8.7 11-6.7 15.9a6.3 6.3 0 0 0 8.8 2.8c3.3-1.8 4.9-6 5.5-9.5s-1.3-10.5-1.8-12.4l2.9-1.5 14.3-6.8 4.9-2.2-1.9 1.4c-3.5 3-8.7 10.9-6.6 15.8a6.1 6.1 0 0 0 8.7 2.8c3.3-1.7 4.9-6 5.5-9.4s-1.1-9.9-1.7-12.1a52.7 52.7 0 0 1 5.1-1.9l3.5-1.1 3.5-1 6.7-1.5 4.5-.9-5.1 2.4a25 25 0 0 0-8.1 9.1 4.8 4.8 0 0 0-1.1.9 6.2 6.2 0 0 0-.3 9.2c3.9 3.5 13.1 1.4 17.2-1l4.1-3.1-2.3 2.5c-1.6 1.6-3.1 3.3-4.8 5.2l-2.3 2.7-2.4 3c-1.7 2.3-3.4 4.8-5 7.3-1.4-1.4-6.7-6.3-10-7.4s-7.8-1.8-10.9.3a6.1 6.1 0 0 0-1.7 9c3.3 4.1 12.7 3.4 17.1 1.7l4.9-2.6-2.9 4.6q-3.9 6.8-7.8 13.8l-2.4 4.2c-.5-.5-6.6-6.4-10.3-7.7s-7.8-1.8-10.9.3-4.1 6.1-1.7 9 12.7 3.4 17.1 1.7c.3-.2 4.6-2.4 5.7-3.1-1.8 3.1-3.5 6.2-5.4 9.2a140.5 140.5 0 0 1-8.3 11.5c-.3-.3-6.6-6.5-10.4-7.8s-7.8-1.8-10.9.3a6.2 6.2 0 0 0-1.7 9.1c3.3 4 12.7 3.3 17.1 1.6l5.8-3.1-.5.7a94 94 0 0 1-10.3 9.8c-2 1.6-4.1 3.1-6.1 4.5-1-1.3-6-7-9.3-8.6s-7.5-2.6-10.8-.9a6.1 6.1 0 0 0-2.7 8.8c2.8 4.4 12.3 4.7 16.8 3.5l4.4-1.7-2.7 1.8c-3.3 2.2-6.5 3.9-9.3 5.5l-4.5 2.3c-1.7-.7-8.6-3.5-12.2-3.4s-7.9 1.2-10.1 4.2a6.3 6.3 0 0 0 1.7 9.1c4.6 2.6 13.1-1.5 16.6-4.6.3-.3 4.5-5.1 4.4-5.2h-.1l4.3-2.1c2.9-1.5 6.1-3.2 9.5-5.3a117.2 117.2 0 0 0 10.6-7.2 80.5 80.5 0 0 0 10.6-9.8.1.1 0 0 0 .1-.1c-.6 1.4-2.3 5.4-2.3 5.7-1.4 4.5-1.2 13.9 3.1 16.9a6.2 6.2 0 0 0 8.9-2.5c1.8-3.3.8-7.7-.7-10.9Z"/><path d="m51.2 246.2-6.4 2.1c-4.2 2-11.3 8.3-10.6 13.5a6.2 6.2 0 0 0 7.7 5c3.6-.8 6.3-4.5 7.8-7.7s1.5-12.9 1.5-12.9Z"/></g><g class="cls-3"><path d="M314.8 34.7c2.5 3.3 10.7 7.5 10.7 7.5s1.1-6.3 1.2-6.7c.2-4.7-2.1-13.8-7-15.7a6.2 6.2 0 0 0-8.1 4.5c-.9 3.6 1 7.7 3.2 10.4Z"/><path d="M304.9 59.7c3.2 2.4 11.6 4.2 12.2 4.3a112.5 112.5 0 0 0-2.1 14.5c-.3 2.8-.4 5.7-.6 8.6a18.4 18.4 0 0 0-.3-2.7c-1-4.6-5.6-12.8-10.9-13.3a6.3 6.3 0 0 0-6.6 6.5c.1 3.7 3.1 7.1 5.9 9.2s9.9 3.8 11.8 4.2c0 1.1-.1 2.2-.1 3.3-.2 5.3-.3 10.6-.6 15.8-.1 1.8-.3 3.6-.4 5.4-.1-1.2-.3-2.2-.3-2.3-1-4.6-5.7-12.8-10.9-13.3a6.3 6.3 0 0 0-6.6 6.5c.1 3.7 3 7.1 5.9 9.2s9.2 3.6 11.4 4.1c-.2 1.9-.4 3.7-.7 5.5l-.6 3.5c-.3 1.2-.6 2.4-.8 3.6s-1.2 4.5-1.9 6.7-.8 2.9-1.3 4.3c.2-1.8.3-5.4.3-5.7-.3-4.6-3.7-13.5-8.7-14.7a6.1 6.1 0 0 0-7.5 5.3c-.6 3.7 1.9 7.6 4.3 10s10.4 5.7 11.3 6.1c-.7 2.4-1.4 4.7-2.1 6.8s-1.1 3.2-1.6 4.6l2.9 1.6c.5-1.7 1.1-3.4 1.6-5.2s1.5-5 2.3-7.7a68.3 68.3 0 0 0 7.9.5c1 3.8 5.4 10.1 6 10.9l-5.6 4.5-2.8 2.1 3.1 1.6 1.6-1.3c2-1.6 4-3.4 6.1-5.2.8.7 7.1 5.9 10.8 7s8 1.2 10.9-1.1a6.2 6.2 0 0 0 1.1-9.1c-3.6-3.9-13-2.5-17.2-.5l-4.4 2.7 2.5-2.2 5.2-4.8c.9-.8 1.7-1.7 2.6-2.6a32 32 0 0 0 2.5-2.7c2-2.2 3.8-4.5 5.7-6.8 1.3 1.5 6.1 6.7 9.3 8.2s7.7 2.4 10.9.6a6.2 6.2 0 0 0 2.5-8.9c-3-4.3-12.4-4.4-16.9-3.1l-5.1 2.2c1.1-1.4 2.2-2.8 3.2-4.3 3-4.3 6-8.7 8.9-13.1.9-1.4 1.9-2.7 2.8-4 .4.5 6 6.9 9.6 8.5s7.7 2.4 10.9.7 4.6-5.8 2.5-8.9-12.5-4.4-16.9-3.1l-6 2.5c2-2.9 4.1-5.8 6.2-8.6a121.5 121.5 0 0 1 9.2-10.8c.2.3 6.1 7 9.7 8.7s7.7 2.4 10.9.6a6.2 6.2 0 0 0 2.5-8.9c-3-4.3-12.4-4.4-16.9-3.1l-6 2.6.5-.6a69.9 69.9 0 0 1 11.1-8.9 74.7 74.7 0 0 1 6.4-4c.9 1.3 5.4 7.5 8.5 9.4s7.4 3.2 10.8 1.8 5.2-5.3 3.4-8.6-11.9-5.8-16.5-4.9l-4.5 1.3 2.8-1.6c3.5-1.8 6.9-3.3 9.8-4.6a42.1 42.1 0 0 1 4.7-1.9c1.6.8 8.2 4.1 11.8 4.3s8-.5 10.4-3.3 2.2-7.1-.9-9.2-13.2.4-16.9 3.2c-.3.3-4.9 4.7-4.8 4.8h.1l-4.5 1.8c-3 1.2-6.4 2.6-9.9 4.4a93.2 93.2 0 0 0-11.2 6.4 81.2 81.2 0 0 0-11.4 8.8.1.1 0 0 0-.1.1c.7-1.4 2.7-5.2 2.8-5.5 1.7-4.4 2.4-13.8-1.7-17.1a6.3 6.3 0 0 0-9.1 1.8c-2 3.1-1.4 7.6-.2 10.9s7.3 9.8 7.8 10.3a114.8 114.8 0 0 0-9.8 10.9c-1.8 2.2-3.5 4.5-5.2 6.8l1.2-2.3c1.7-4.4 2.4-13.8-1.7-17.1a6.2 6.2 0 0 0-9.1 1.7c-2 3.1-1.4 7.6-.2 10.9s6.2 8.7 7.5 10.1l-1.9 2.7c-3 4.3-6.1 8.6-9.2 12.8-1 1.5-2.2 2.9-3.3 4.3l1-2.1c1.7-4.4 2.4-13.8-1.7-17.1s-7.1-1.3-9.1 1.7-1.4 7.7-.2 11 5.7 8.1 7.3 9.7l-3.6 4.2c-.9.9-1.6 1.8-2.5 2.6l-2.6 2.5-5.2 4.6-3.5 2.9c1.1-1.5 3.2-4.3 3.3-4.6a22.9 22.9 0 0 0 2.7-11.8 3.8 3.8 0 0 0 .6-1.3 6.2 6.2 0 0 0-4.2-8.2c-5.1-1.2-12.1 5.1-14.5 9.1a37.6 37.6 0 0 0-2.2 4.7l.9-3.3c.6-2.2 1.1-4.5 1.7-6.9s.4-2.3.7-3.5.4-2.5.6-3.7c.4-2.9.7-5.9.9-8.8 2 .5 8.9 2.2 12.4 1.7s7.7-2.3 9.4-5.5a6.2 6.2 0 0 0-2.9-8.8c-4.8-2-12.8 3.2-15.8 6.8l-3 4.6.3-5.4c.2-5.2.2-10.5.2-15.8 0-1.7.1-3.3.1-4.9.7.2 8.9 2.4 12.8 1.8s7.7-2.2 9.4-5.5a6.1 6.1 0 0 0-2.9-8.7c-4.8-2-12.8 3.1-15.8 6.7-.2.3-2.9 4.3-3.5 5.4 0-3.5.1-7.1.4-10.6a105 105 0 0 1 1.7-14c.4 0 8.9 2.4 12.9 1.8s7.7-2.2 9.4-5.5a6.2 6.2 0 0 0-2.9-8.8c-4.8-2-12.7 3.2-15.8 6.8-.2.3-3.1 4.6-3.5 5.5a2.8 2.8 0 0 1 .1-.9 78.9 78.9 0 0 1 4.3-13.5c1-2.4 2-4.7 3.1-6.9 1.6.6 8.7 3.3 12.3 3.1s7.9-1.3 10-4.4a6.2 6.2 0 0 0-1.9-9c-4.6-2.5-13 1.7-16.4 5a44.8 44.8 0 0 0-3.1 3.6l1.5-2.9c1.9-3.5 3.9-6.6 5.6-9.3l2.8-4.2c1.9-.2 9.2-1 12.3-2.8s6.4-4.9 6.8-8.6a6 6 0 0 0-5.8-7.1c-5.2-.1-10.8 7.6-12.3 12-.1.4-1.5 6.6-1.4 6.6h.1l-2.8 3.9c-1.8 2.7-3.8 5.7-5.8 9.2s-4 7.3-5.8 11.5a77.6 77.6 0 0 0-4.6 13.6c-.1 0-.1.1-.1.2-.1-1.6-.5-5.9-.6-6.2-1-4.5-5.7-12.8-10.9-13.3a6.3 6.3 0 0 0-6.6 6.5c0 3.7 3 7.1 5.8 9.2Z"/><path d="m395.8 80.7 4.6-4.9c2.7-3.8 5.9-12.7 2.8-17a6.2 6.2 0 0 0-9.2-.7c-2.8 2.5-3.4 7-3.1 10.5s4.9 12.1 4.9 12.1Z"/></g><path class="cls-4" d="m326.1 372-82.3-41.5 83.7-167 82.4 41.6L326.1 372z"/><path class="cls-5" d="M391.6 221.4a11 11 0 0 1-4.9-14.9 7.5 7.5 0 0 1 .7-1.2l-47.3-23.9c-.2.4-.3.9-.5 1.3a11.1 11.1 0 0 1-15 4.9l-.6-.3-63.2 126.2.6.3a11.1 11.1 0 0 1 4.9 14.9 3.5 3.5 0 0 1-.7 1.2l47.3 23.9a13.9 13.9 0 0 1 .6-1.3 11.1 11.1 0 0 1 14.9-4.9l1.2.7L392.9 222Zm-73.8 62.7a18.3 18.3 0 1 1 24.5-8 18.1 18.1 0 0 1-24.5 8Z"/><path class="cls-4" d="m325 372.4-77.4-50.3 101.3-156.9 77.4 50.3L325 372.4z"/><path class="cls-5" d="M406.4 229.8a11.1 11.1 0 0 1-3.3-15.4 10.5 10.5 0 0 1 .8-1.1l-44.4-28.9a7.5 7.5 0 0 1-.7 1.2 11.1 11.1 0 0 1-15.4 3.3l-.5-.4-76.5 118.6.6.4a11.1 11.1 0 0 1 3.2 15.4 7.6 7.6 0 0 1-.8 1.1l44.4 28.8a7.5 7.5 0 0 1 .7-1.2 11.1 11.1 0 0 1 15.4-3.2l1.1.8 76.6-118.8Zm-80.2 54.3a18.3 18.3 0 1 1 25.3-5.4 18.2 18.2 0 0 1-25.3 5.4Z"/><path class="cls-4" d="m323.4 372.7-69.6-60.5 122.1-141.4 69.6 60.5-122.1 141.4z"/><path class="cls-5" d="M423.8 242.7a11.2 11.2 0 0 1-1.1-15.7l1-1-40-34.7-.9 1.1a11.2 11.2 0 0 1-15.7 1.1l-.5-.5-92.2 106.9.6.5a11.2 11.2 0 0 1 1.1 15.7l-1 .9 40 34.8.9-1.1a11 11 0 0 1 15.7-1.1l.9.9 92.3-107Zm-86.9 42.7a18.3 18.3 0 1 1 25.8-1.8 18.2 18.2 0 0 1-25.8 1.8Z"/><path class="cls-4" d="M323.2 377.2 262.3 308l139.9-123.8 60.9 69.2-139.9 123.8z"/><path class="cls-5" d="M440.1 261.8a11.1 11.1 0 0 1 1-15.7l1.1-.8-35-39.8a9.4 9.4 0 0 1-1 1 11.2 11.2 0 0 1-15.7-1 2.1 2.1 0 0 1-.4-.6l-105.7 93.7c.2.1.3.3.5.5a11.2 11.2 0 0 1-1 15.7l-1.1.8 35 39.8a4.7 4.7 0 0 1 1-1 11.1 11.1 0 0 1 15.7 1 7.6 7.6 0 0 1 .8 1.1l105.8-93.7a4.7 4.7 0 0 1-1-1Zm-91.8 30.7a18.2 18.2 0 1 1 25.7 1.7 18.2 18.2 0 0 1-25.7-1.7Z"/><path class="cls-6" d="M189.5 288.8 17.9 217.1a6 6 0 0 1-3.3-7.8L57.4 107a6 6 0 0 1 7.8-3.2l171.6 71.7a6 6 0 0 1 3.2 7.8l-42.7 102.3a5.9 5.9 0 0 1-7.8 3.2Z"/><rect class="cls-7" x="198.7" y="180.1" width="21.2" height="21.23" rx="5" transform="rotate(-23.4 209.294 190.643)"/><path class="cls-7" transform="rotate(22.7 44.438 204.604)" d="M33.9 200.4h20.9v8.67H33.9z"/><path class="cls-7" transform="rotate(22.7 69.907 215.298)" d="M59.5 211.1h20.9v8.67H59.5z"/><path class="cls-7" transform="rotate(22.7 95.624 225.943)" d="M85.2 221.8h20.9v8.67H85.2z"/><path class="cls-7" transform="rotate(22.7 121.342 236.588)" d="M110.9 232.5h20.9v8.67h-20.9z"/><path class="cls-7" transform="rotate(22.7 146.81 247.282)" d="M136.5 243.3h20.9v8.67h-20.9z"/><path class="cls-7" transform="rotate(22.7 172.578 258.176)" d="M162.2 254h20.9v8.67h-20.9z"/><rect class="cls-7" x="49" y="154.1" width="45.5" height="33.95" rx="3.3" transform="rotate(22.7 71.62 170.902)"/><path class="cls-7" transform="rotate(22.7 113.005 142.124)" d="M63.3 139.7H163v5.06H63.3z"/><path class="cls-5" d="M319 64.5V376a15.4 15.4 0 0 1-15.5 15.5H168.9a15.4 15.4 0 0 1-15.4-15.5V64.5a15.4 15.4 0 0 1 15.4-15.4h57.9c1.4 5.2 4.7 8.6 8.4 8.6h2.1c3.7 0 7-3.4 8.4-8.6h57.8A15.4 15.4 0 0 1 319 64.5Z"/><path class="cls-4" d="M319 113.7V60c0-6-6.9-10.9-15.5-10.9h-57.8a9 9 0 0 1-8.4 6h-2.1a9 9 0 0 1-8.4-6h-57.9c-8.5 0-15.4 4.9-15.4 10.9v53.7Z"/><rect class="cls-4" x="177.2" y="241" width="117.1" height="49.65" rx="9.6"/><path class="cls-8" d="M319 79V64.5a15.4 15.4 0 0 0-15.5-15.4h-57.8c-1.4 5.2-4.7 8.6-8.4 8.6h-2.1c-3.7 0-7-3.4-8.4-8.6h-57.9a15.4 15.4 0 0 0-15.4 15.4V79ZM153.5 373.6v2.4a15.4 15.4 0 0 0 15.4 15.5h134.6A15.4 15.4 0 0 0 319 376v-2.4Z"/><path class="cls-9" d="M329.5 138.9v-31.1h-2.8V68a24.6 24.6 0 0 0-24.5-24.6H170.3A24.6 24.6 0 0 0 145.7 68v316.5a24.6 24.6 0 0 0 24.6 24.5h131.9a24.5 24.5 0 0 0 24.5-24.5V165.4h2.8v-18.3h-2.8v-8.2ZM319 367a24.5 24.5 0 0 1-24.5 24.5H178a24.5 24.5 0 0 1-24.5-24.5V73.6A24.5 24.5 0 0 1 178 49.1h48.8c1.4 5.2 4.7 8.6 8.4 8.6h2.1c3.7 0 7-3.4 8.4-8.6h48.8A24.5 24.5 0 0 1 319 73.6Z"/><path class="cls-6" d="M300.2 46.8H172.3a23.7 23.7 0 0 0-23.7 23.7V382a23.7 23.7 0 0 0 23.7 23.7h127.9a23.7 23.7 0 0 0 23.7-23.7V70.5a23.7 23.7 0 0 0-23.7-23.7Zm18.8 321a23.7 23.7 0 0 1-23.7 23.7H177.1a23.7 23.7 0 0 1-23.6-23.7V72.7a23.6 23.6 0 0 1 23.6-23.6h49.7c1.4 5.2 4.7 8.6 8.4 8.6h2.1c3.7 0 7-3.4 8.4-8.6h49.6A23.7 23.7 0 0 1 319 72.7Z"/><path class="cls-10" d="M238 50.2a2.3 2.3 0 0 0-2.3-2.3 2.4 2.4 0 0 0-2.3 2.3 2.3 2.3 0 0 0 2.3 2.3 2.3 2.3 0 0 0 2.3-2.3Z"/><path class="cls-11" d="M168.2 59.1c0 2.3-2.6 3.1-2.7 4.9h2.6v.8h-3.4v-.6c0-2.5 2.6-3 2.6-5.2s-.2-1.2-.9-1.2-.9.4-.9 1.1v.7h-.8V59c0-1.2.5-2 1.7-2s1.8.9 1.8 2.1Zm4.2-.1v.2a1.5 1.5 0 0 1-.9 1.6 1.7 1.7 0 0 1 .9 1.6v.6c0 1.2-.5 2-1.7 2s-1.8-.8-1.8-2v-.5h.8v.6c0 .7.3 1.1.9 1.1s.9-.4.9-1.2v-.6c0-.7-.3-1.1-.9-1.1h-.5v-.8h.5c.6 0 .9-.4.9-1.1v-.3c0-.8-.2-1.2-.9-1.2s-.9.4-.9 1.1v.4h-.8V59a1.7 1.7 0 0 1 1.8-1.9c1.2 0 1.7.8 1.7 1.9Zm1.7.6v1.1h-.8v-1.1Zm0 4.2v1.1h-.8v-1.1Zm1.7-3.5a1.4 1.4 0 0 1 1.2-.6c1 0 1.4.7 1.4 1.8V63c0 1.2-.5 2-1.7 2s-1.8-.8-1.8-2v-.5h.8v.6c0 .7.3 1.1.9 1.1s1-.4 1-1.1v-1.5c0-.7-.3-1.1-1-1.1s-.7.2-.8.8v.2h-.8l.2-4.3h3v.8h-2.3Zm6.9-1.3v.2h-.8V59c0-.7-.3-1.1-.9-1.1s-.9.4-.9 1.2v1.8a1.2 1.2 0 0 1 1.2-.9c1 0 1.4.7 1.4 1.9V63c0 1.2-.6 2-1.7 2s-1.8-.8-1.8-2v-3.9c0-1.2.5-2 1.8-2s1.7.8 1.7 1.9Zm-2.6 2.9v1.2c0 .7.2 1.1.9 1.1s.9-.4.9-1.1v-1.2c0-.7-.3-1.1-.9-1.1s-.9.4-.9 1.1Zm84.9-2.5h2.2v5.46H265zm2.9-1.1h2.2v6.55h-2.2zm2.9-.8h2.2v7.33h-2.2zm2.9-1.3h2.2v8.68h-2.2zm29.2 8.5h-13.1v-8h13.1Zm-12.3-.7h11.6v-6.6h-11.6Z"/><path class="cls-11" d="M291.6 58.2h6.9v4.97h-6.9zm10.9 1.5h1.6v1.89h-1.6zM285 62.9h-.2c-2.7-1.6-4.5-.1-4.5-.1a.5.5 0 0 1-.7-.7c.1-.1 2.4-2 5.7-.1a.5.5 0 0 1 .1.7c0 .2-.2.2-.4.2Z"/><path class="cls-11" d="M286 61.3h-.2c-3.9-2.3-6.5 0-6.5 0a.5.5 0 0 1-.7-.1.5.5 0 0 1 0-.7c.1 0 3.2-2.7 7.7 0a.5.5 0 0 1 .1.7Z"/><path class="cls-11" d="M286.9 59.4c-.1 0-.2 0-.2-.1-4.9-2.9-8.2-.1-8.3 0a.6.6 0 0 1-.7-.1.5.5 0 0 1 0-.7c.1 0 3.9-3.3 9.5 0a.5.5 0 0 1 .1.7.5.5 0 0 1-.4.2Zm-3.4 4.4a1.2 1.2 0 1 1-2.4 0 1.2 1.2 0 1 1 2.4 0Z"/><circle class="cls-7" cx="113.4" cy="433.7" r="49.7" transform="rotate(-45 113.413 433.623)"/><circle class="cls-7" cx="113.4" cy="433.7" r="41.7" transform="rotate(-13.2 112.855 432.588)"/><circle class="cls-7" cx="351.9" cy="433.7" r="49.7" transform="rotate(-65 352.146 433.763)"/><circle class="cls-7" cx="351.9" cy="433.7" r="41.7" transform="rotate(-13.7 352.708 434.621)"/><path class="cls-12" d="M477.5 362.8v-2.7"/><path class="cls-7" d="M396.3 356.9h83.5v6.1h-83.5z"/><path class="cls-12" d="M400 363.6v-3.8m2.6-2.6v3.8m71.8-3.5v3.6m-3.9-3.6v3.5m-9.7-3.6v4.3m-52-3.9v2m1.5 2.6v-3.5m10.8-1.5v4.3m18.9-3.9v3m43.5 8v-2.7"/><path class="cls-7" d="M402.4 362.9h83.5v6.1h-83.5z"/><path class="cls-12" d="M406.1 369.6v-3.8m2.5-2.6v3.8m71.9-3.5v3.6m-4-3.6v3.5m-9.7-3.6v4.3m-51.9-3.9v2m1.5 2.6v-3.5m10.7-1.5v4.3m19-3.9v3m35.3 8v-2.7"/><path class="cls-7" d="M400.3 368.9h83.5v6.1h-83.5z"/><path class="cls-12" d="M404 375.6v-3.8m2.5-2.6v3.8m71.9-3.5v3.6m-4-3.6v3.5m-9.7-3.7v4.4m-52-3.9v2m1.6 2.5v-3.4m10.7-1.6v4.4m19-3.9v3m39.5 8v-2.7"/><path class="cls-7" d="M402.4 374.9h83.5v6.1h-83.5z"/><path class="cls-12" d="M406.1 381.6v-3.8m2.6-2.6v3.8m71.8-3.5v3.6m-3.9-3.6v3.5m-9.7-3.7v4.4m-52-3.9v2m1.5 2.5v-3.4m10.7-1.6v4.4m19-3.9v3m31.4 8v-2.7"/><path class="cls-7" d="M396.3 380.9h83.5v6.1h-83.5z"/><path class="cls-12" d="M400 387.6v-3.8m2.6-2.6v3.8m71.8-3.5v3.6m-3.9-3.6v3.5m-9.7-3.7v4.4m-52-3.9v2m1.5 2.5v-3.4m10.8-1.6v4.4m18.9-3.9v3m37.5 8v-2.7"/><path class="cls-7" d="M396.3 386.9h83.5v6.1h-83.5z"/><path class="cls-12" d="M400 393.6v-3.8m2.6-2.6v3.8m71.8-3.5v3.6m-3.9-3.6v3.5m-9.7-3.7v4.4m-52-3.9v2m1.5 2.5v-3.4m10.8-1.6v4.4m18.9-3.9v3m37.5 8v-2.7"/><path class="cls-7" d="M396.3 392.9h83.5v6.1h-83.5z"/><path class="cls-12" d="M400 399.5v-3.7m2.6-2.6v3.8m71.8-3.5v3.6m-3.9-3.6v3.5m-9.7-3.7v4.4m-52-3.9v2m1.5 2.5v-3.5m10.8-1.5v4.4m18.9-3.9v3m44 8v-2.7"/><path class="cls-7" d="M402.9 398.9h83.5v6.1h-83.5z"/><path class="cls-12" d="M406.6 405.5v-3.7m2.5-2.6v3.8m71.9-3.5v3.6m-4-3.6v3.5m-9.7-3.7v4.4m-51.9-3.9v2m1.5 2.5v-3.5m10.7-1.5v4.4m19-3.9v3m39.7 8v-2.7"/><path class="cls-7" d="M405.2 404.9h83.5v6.1h-83.5z"/><path class="cls-12" d="M408.9 411.5v-3.7m2.5-2.6v3.8m71.9-3.5v3.6m-4-3.6v3.5m-9.7-3.7v4.4m-52-3.9v2m1.6 2.5v-3.5m10.7-1.5v4.4m19-3.9v3m34.6 8v-2.7"/><path class="cls-7" d="M402.4 410.9h83.5v6.1h-83.5z"/><path class="cls-12" d="M406.1 417.5v-3.8m2.6-2.5v3.8m71.8-3.5v3.6m-3.9-3.6v3.5m-9.7-3.7v4.4m-52-3.9v1.9m1.5 2.6v-3.5m10.8-1.5v4.4m18.9-3.9v3m31.4 8V420"/><path class="cls-7" d="M396.3 416.9h83.5v6.1h-83.5z"/><path class="cls-12" d="M400 423.5v-3.8m2.6-2.5v3.8m71.8-3.5v3.6m-3.9-3.6v3.5m-9.7-3.7v4.4m-52-3.9v1.9m1.5 2.6v-3.5m10.8-1.5v4.4m18.9-3.9v3m35.5 8V426"/><path class="cls-7" d="M394.3 422.9h83.5v6.1h-83.5z"/><path class="cls-12" d="M398 429.5v-3.8m2.6-2.5v3.8m71.8-3.5v3.6m-3.9-3.6v3.5m-9.7-3.7v4.4m-52-3.9v1.9m1.5 2.6v-3.5m10.8-1.5v4.4m18.9-3.9v3m37.1 8V432"/><path class="cls-7" d="M393.9 428.9h83.5v6.1h-83.5z"/><path class="cls-12" d="M397.6 435.5v-3.8m2.6-2.5v3.8m71.8-3.5v3.6m-3.9-3.6v3.5m-9.7-3.7v4.4m-52-3.9v1.9m1.5 2.6v-3.5m10.8-1.5v4.4m18.9-3.9v3m37.7 8V438"/><path class="cls-7" d="M394.1 434.9h83.5v6.1h-83.5z"/><path class="cls-12" d="M397.8 441.5v-3.8m2.6-2.5v3.7m71.8-3.4v3.6m-3.9-3.6v3.4m-9.7-3.6v4.4m-52-3.9v1.9m1.5 2.6v-3.5m10.8-1.5v4.4m18.9-3.9v3m36.2 8V444"/><path class="cls-7" d="M392.9 440.9h83.5v6.1h-83.5z"/><path class="cls-12" d="M396.6 447.5v-3.8m2.6-2.5v3.7m71.8-3.4v3.6m-3.9-3.6v3.4m-9.7-3.6v4.4m-52-3.9v1.9m1.5 2.6v-3.5m10.8-1.5v4.4m18.9-3.9v3m37.7 8V450"/><path class="cls-7" d="M393.1 446.9h83.5v6.1h-83.5z"/><path class="cls-12" d="M396.8 453.5v-3.8m2.6-2.5v3.7m71.8-3.4v3.6m-3.9-3.6v3.4m-9.7-3.6v4.4m-52-3.9v1.9m1.5 2.6v-3.5m10.8-1.5v4.4m18.9-3.9v3m38.3 8V456"/><path class="cls-7" d="M393.9 452.9h83.5v6.1h-83.5z"/><path class="cls-12" d="M397.6 459.5v-3.8m2.6-2.6v3.8m71.8-3.4v3.6m-3.9-3.6v3.4m-9.7-3.6v4.4m-52-3.9v1.9m1.5 2.6v-3.5m10.8-1.5v4.4m18.9-3.9v3m37.7 8V462"/><path class="cls-7" d="M394.1 458.9h83.5v6.1h-83.5z"/><path class="cls-12" d="M397.8 465.5v-3.8m2.6-2.6v3.8m71.8-3.5v3.7m-3.9-3.7v3.5m-9.7-3.6v4.4m-52-3.9v1.9m1.5 2.6v-3.5m10.8-1.5v4.4m18.9-3.9v3m39.7 7.9V468"/><path class="cls-7" d="M396.3 464.9h83.5v6.1h-83.5z"/><path class="cls-12" d="M400 471.5v-3.8m2.6-2.6v3.8m71.8-3.5v3.7m-3.9-3.7v3.5m-9.7-3.6v4.4m-52-4v2m1.5 2.6v-3.5m10.8-1.5v4.4m18.9-4v3.1m37.5 7.9V474"/><path class="cls-7" d="M396.3 470.9h83.5v6.09h-83.5z"/><path class="cls-12" d="M400 477.5v-3.8m2.6-2.6v3.8m71.8-3.5v3.7m-3.9-3.7v3.5m-9.7-3.6v4.4m-52-4v2m1.5 2.6v-3.5m10.8-1.5v4.4m18.9-4v3.1m37.5 7.9V480"/><path class="cls-7" d="M396.3 476.9h83.5v6.09h-83.5z"/><path class="cls-12" d="M400 483.5v-3.8m2.6-2.6v3.8m71.8-3.5v3.7m-3.9-3.7v3.5m-9.7-3.6v4.4m-52-4v2m1.5 2.6v-3.5m10.8-1.5v4.4m18.9-4v3.1"/><path class="cls-13" d="M187 94.4h-.4a.8.8 0 0 0-.2.4v2.8h1.1v-2.1h2.9v10.7h-2.9v-1.7h-1.1v2.3a.8.8 0 0 0 .2.4h4.7a.8.8 0 0 0 .2-.4V94.9a.8.8 0 0 0-.2-.4H187Z"/><path class="cls-13" d="M171.7 96.9a1.8 1.8 0 0 0-1.7 1.7v1.1h1.1v-1.1a.6.6 0 0 1 .6-.6h14.7a.6.6 0 0 1 .6.6v1.1h1.1v-1.1a1.8 1.8 0 0 0-1.7-1.7Zm-1.5 3.7h-.4a.4.4 0 0 0-.2.4v4a.4.4 0 0 0 .2.4h9.8v-1.1h-8.9v-2.8h16.7v2.8h-4.5v1.1h5.5a.6.6 0 0 0 .1-.4v-4a.6.6 0 0 0-.1-.4h-18.2Zm2.6-15.3a4 4 0 0 0-3.9 4v5.3h1.1v-5.3a2.8 2.8 0 0 1 2.8-2.8h12.5a2.8 2.8 0 0 1 2.8 2.8v3.9h1.1v-3.9a4 4 0 0 0-3.9-4Z"/><path class="cls-14" d="M178.5 90.1h-.3l-.2.3a.4.4 0 0 0-.1.3l.2.3 1.1 1.1h.6l.2-.2c.1 0 .1-.1.1-.2s.1-.1.1-.2v-.4l-1.1-1.1h-.4Z"/><path class="cls-14" d="m179.6 90.1-.4.2-1.1 1.1v.4c0 .1 0 .2.1.2s0 .2.1.2l.2.2h.6l1.1-1.1.2-.3a.4.4 0 0 0-.1-.3l-.2-.3Zm4 0h-.4l-.2.3v.3c0 .1.1.2.2.3l1.1 1.1h.2c0 .1.1.1.2.1h.2l.2-.2a.3.3 0 0 0 .1-.2.3.3 0 0 1-.1-.2v-.2l-1.1-1.1h-.4Z"/><path class="cls-14" d="m184.7 90.1-.4.2-1.1 1.1-.2.2v.4c.1.1.1.2.2.2s.1.1.1.2h.5l.2-.2 1.1-1.1a.4.4 0 0 0 .1-.3.2.2 0 0 0 0-.3l-.2-.3Zm-11.3 0h-.3l-.2.3a.4.4 0 0 0-.1.3l.2.3 1.1 1.1h.6l.2-.2c.1 0 .1-.1.1-.2s.1-.1.1-.2v-.4L174 90h-.4Z"/><path class="cls-14" d="m174.5 90.1-.4.2-1.1 1.1v.4c0 .1 0 .2.1.2s0 .2.1.2l.2.2h.4l.2-.2 1.1-1.1.2-.3a.4.4 0 0 0-.1-.3l-.2-.3Z"/><path class="cls-13" d="M167.2 94.4h-.4a.8.8 0 0 0-.2.4v11.9a.8.8 0 0 0 .2.4h4.7a.8.8 0 0 0 .2-.4v-2.3h-1.1v1.7h-2.9V95.5h2.9v2.2h1.1v-2.8a.8.8 0 0 0-.2-.4h-4.3Zm13.5 10.1v1.1h1.2v-1.1Zm21.5-1.1h-1.8c-.2 0-.3-.1-.2-.3l3.8-10.7h-2.4a.3.3 0 0 1-.3-.3v-1.3a.3.3 0 0 1 .3-.3h9.8a.3.3 0 0 1 .3.3v1.3a.3.3 0 0 1-.3.3H209l3.8 10.7c0 .2 0 .3-.2.3h-1.8c-.2 0-.3-.1-.3-.2l-.9-2.7h-6.2l-.9 2.7c0 .1-.1.2-.3.2Zm12-8.9a10.6 10.6 0 0 1 3.7-.7 4.9 4.9 0 0 1 3 1 4.1 4.1 0 0 1 1.1 3v2a3.4 3.4 0 0 1-1.1 2.8 3.9 3.9 0 0 1-2.9 1 4.3 4.3 0 0 1-1.9-.4v3.4a.3.3 0 0 1-.3.3h-1.5a.3.3 0 0 1-.3-.3V94.8c0-.2.1-.3.2-.3Zm3.7 7.3a1.8 1.8 0 0 0 2-2v-2a2.2 2.2 0 0 0-.5-1.6 2.1 2.1 0 0 0-1.6-.5l-1.7.2v5.4a3.5 3.5 0 0 0 1.8.5Zm13.8 1.6h-1.8c-.1 0-.3 0-.3-.1l-2.8-3.7-.8.7v2.8c0 .2-.1.3-.2.3h-1.5a.3.3 0 0 1-.3-.3v-8.8c0-.2.1-.2.3-.2h1.5c.1 0 .2 0 .2.2v3.5l3.3-3.6c0-.1.1-.1.3-.1h2c.1.1 0 .2 0 .3l-3.4 3.7 3.7 5c.1.2.1.3-.2.3Zm8.9-3.4a3.3 3.3 0 0 1-1.1 2.7 4.5 4.5 0 0 1-3 .9 4.9 4.9 0 0 1-3-.9 3.7 3.7 0 0 1-1.1-2.7v-2.4a3.4 3.4 0 0 1 1.1-2.7 4.4 4.4 0 0 1 3-1.1 4.1 4.1 0 0 1 3 1.1 3.1 3.1 0 0 1 1.1 2.7Zm-6.1 0c0 1.2.7 1.8 2 1.8a2.1 2.1 0 0 0 1.5-.5 1.4 1.4 0 0 0 .5-1.3v-2.4a1.6 1.6 0 0 0-.5-1.4 2.1 2.1 0 0 0-1.5-.5 2.5 2.5 0 0 0-1.5.5 2 2 0 0 0-.5 1.4Zm10.4 3.4h-1.7c-.2 0-.2-.1-.2-.3V90.8c0-.2 0-.3.2-.3h2l.3.2 2.2 4.1 1.5 3.2h.1l1.5-3.2 2.2-4.1.3-.2h2c.1 0 .2.1.2.3v12.3c0 .2-.1.3-.2.3h-1.7c-.1 0-.2-.1-.2-.3v-3.6c0-1.4 0-3.3.1-5.7l-1.7 3.4-1.6 3.1c0 .1-.1.2-.3.2h-1.3c-.2 0-.3-.1-.3-.2l-1.6-3.1-1.7-3.4c.1 2.4.1 4.3.1 5.7v3.6c0 .2-.1.3-.2.3Zm20.9-5.9v1.9c0 .1-.1.2-.3.2H260v.5a1.7 1.7 0 0 0 .5 1.3 2 2 0 0 0 1.4.4 5.2 5.2 0 0 0 2.6-.8h.3l.8 1a.2.2 0 0 1-.1.4 5.9 5.9 0 0 1-3.7 1.2 4.5 4.5 0 0 1-2.8-.9 3.3 3.3 0 0 1-1.1-2.6v-2.6a3.4 3.4 0 0 1 1.1-2.7 4 4 0 0 1 2.8-1 3.9 3.9 0 0 1 2.8 1 3.2 3.2 0 0 1 1.2 2.7Zm-2.1 0a2 2 0 0 0-.5-1.4 2.1 2.1 0 0 0-1.4-.4 1.6 1.6 0 0 0-1.8 1.8v.5h3.7Zm6-2.5a4.6 4.6 0 0 1 2.1-.5 3.6 3.6 0 0 1 2.7 1 3.4 3.4 0 0 1 1.1 2.7v1.6a3.6 3.6 0 0 1-1.2 2.9 4.4 4.4 0 0 1-2.9.9 4.5 4.5 0 0 1-2.8-.9 3.5 3.5 0 0 1-1.1-2.9v-5.5a3.1 3.1 0 0 1 1.1-2.6 5.3 5.3 0 0 1 2.5-1.2 15.1 15.1 0 0 0 2.8-.7.2.2 0 0 1 .3.1l.7 1.1c.1.2 0 .3-.1.4l-2.9.9-.9.2-.7.4-.6.6a2.8 2.8 0 0 0-.1.9Zm1.8 6.8a2 2 0 0 0 1.4-.5 1.8 1.8 0 0 0 .6-1.5v-1.6a1.7 1.7 0 0 0-1.9-1.9 3.6 3.6 0 0 0-1.9.4v3.1a1.7 1.7 0 0 0 .5 1.5 1.9 1.9 0 0 0 1.3.5Zm13.6-4.3v1.9c0 .1 0 .2-.2.2h-5.5v.5a1.7 1.7 0 0 0 .5 1.3 2 2 0 0 0 1.4.4 4.6 4.6 0 0 0 2.5-.8h.4l.7 1a.2.2 0 0 1 0 .4 6.1 6.1 0 0 1-3.7 1.2 4.5 4.5 0 0 1-2.8-.9 3 3 0 0 1-1.1-2.6v-2.6a3.4 3.4 0 0 1 1.1-2.7 4 4 0 0 1 2.8-1 3.9 3.9 0 0 1 2.8 1 3.1 3.1 0 0 1 1.1 2.7Zm-2 0a2 2 0 0 0-.5-1.4 2.1 2.1 0 0 0-1.4-.4 1.6 1.6 0 0 0-1.8 1.8v.5h3.7Zm6.6 2.8a4.5 4.5 0 0 1-1.1 2.5 3.2 3.2 0 0 1-2.2.7.3.3 0 0 1-.3-.3v-1.3q0-.2.3-.3a.9.9 0 0 0 .8-.4 3.2 3.2 0 0 0 .5-1.4 45.4 45.4 0 0 0 .5-5.5c0-.2.1-.2.2-.2h6.2c.2 0 .3 0 .3.2v8.8a.3.3 0 0 1-.3.3H293c-.2 0-.2-.1-.2-.3v-7.2h-2.7a26.5 26.5 0 0 1-.4 4.4Zm11.4 3.1h-3.7a.3.3 0 0 1-.3-.3v-8.8c0-.2.1-.2.3-.2h1.6c.1 0 .2 0 .2.2v2.8h1.9a4.3 4.3 0 0 1 2.7.8 3.5 3.5 0 0 1 .1 4.8 4.7 4.7 0 0 1-2.8.7Zm-1.9-4.6v2.9h1.6c1.3 0 1.9-.5 1.9-1.4a1.2 1.2 0 0 0-.4-1.1 2.4 2.4 0 0 0-1.5-.4ZM206 92.4l-2 6.1h5l-2-6.1Z"/><path class="cls-10" d="M194.4 257.4h2.7l3.9 9.5-1.6 2.3Zm7.1 10.6a8 8 0 0 1-.8 1.6 3.1 3.1 0 0 1-1.1.9 3.2 3.2 0 0 1-1.4.3h-1.6v-2.3h1l.8-.2.6-.5.4-.9 3.4-9.5h2.6Zm6.1 2.3a3.6 3.6 0 0 1-1.5-1.5 5.2 5.2 0 0 1-.5-2.3v-1.1a5.2 5.2 0 0 1 .5-2.3 4.3 4.3 0 0 1 1.5-1.5 5.2 5.2 0 0 1 2.3-.5l1.5.2 1.2.5a2.4 2.4 0 0 1 .9.8l-1.6 1.6-.8-.5-1-.2a2 2 0 0 0-1.4.5 1.8 1.8 0 0 0-.6 1.4v1.1a1.7 1.7 0 0 0 .6 1.4 1.6 1.6 0 0 0 1.4.5 1.6 1.6 0 0 0 1-.2l.8-.5 1.6 1.7a3.6 3.6 0 0 1-.9.8l-1.2.5h-1.5a4.1 4.1 0 0 1-2.3-.4Zm7.6-9.1h2.5v9.5h-2.5Zm1.4 0h5.8v2.4h-5.8Zm4.3 0h2.5v9.5h-2.5Zm6.8 9.1a4 4 0 0 1-1.5-1.4 5.2 5.2 0 0 1-.5-2.3v-1.1a6 6 0 0 1 .5-2.4 4 4 0 0 1 1.4-1.5 5.6 5.6 0 0 1 2.3-.5 3.7 3.7 0 0 1 2.1.6 4.4 4.4 0 0 1 1.4 1.8 8.5 8.5 0 0 1 .4 2.9v.6h-6.5v-1.7h4.2v-.2a2.2 2.2 0 0 0-.5-1.3 1.5 1.5 0 0 0-1.1-.4 2 2 0 0 0-1.4.5 2.5 2.5 0 0 0-.5 1.5v1.2a2.1 2.1 0 0 0 .5 1.5 2 2 0 0 0 1.5.6l1-.2a1.9 1.9 0 0 0 .9-.5l1.7 1.4a6.2 6.2 0 0 1-1.7 1.1 5.8 5.8 0 0 1-1.9.3 4.3 4.3 0 0 1-2.3-.5Zm8.3-9.1h2.5v9.5H236Zm1.3 7.1h9.5v2.4h-9.5Zm3.4-7.1h2.5v9.5h-2.5Zm4.6 0h2.5v9.5h-2.5Zm5.1 0h2.5v9.5h-2.5Zm1.3 3.7h5.8v2.3h-5.8Zm4.4-3.7h2.5v9.5h-2.5Zm6.7 9.2a3.2 3.2 0 0 1-1.4-1.4 4.3 4.3 0 0 1-.5-2.3v-1.5a3.8 3.8 0 0 1 .5-2.2 2.7 2.7 0 0 1 1.4-1.4 4.8 4.8 0 0 1 2.2-.5 5.1 5.1 0 0 1 2.2.5 3.2 3.2 0 0 1 1.4 1.4 4.8 4.8 0 0 1 .5 2.2v1.6a5.1 5.1 0 0 1-.5 2.2 3.8 3.8 0 0 1-1.4 1.4 5.1 5.1 0 0 1-2.2.4 4.8 4.8 0 0 1-2.2-.4Zm3.3-2.4a1.7 1.7 0 0 0 .5-1.2v-1.6a1.9 1.9 0 0 0-.5-1.3 1.6 1.6 0 0 0-1.1-.4 2.1 2.1 0 0 0-1.2.4 1.8 1.8 0 0 0-.4 1.3v1.6a1.4 1.4 0 0 0 1.6 1.6 1.2 1.2 0 0 0 1.1-.4Zm4.8-10.6h2.5v9.4h-2.5Zm0 10.8h2.5v2.5h-2.5Z"/><path d="M374.6 415.5a14.2 14.2 0 0 0-5.9-6 17.5 17.5 0 0 0-8.7-2.1h-21a.6.6 0 0 0-.6.6v38.2a.5.5 0 0 1-.5.5h-9.3a.6.6 0 0 0-.6.6v5.6a.6.6 0 0 0 .6.5h9.3a.6.6 0 0 1 .5.6v8.5a.6.6 0 0 0 .6.5h5.5a.6.6 0 0 0 .6-.5V454a.6.6 0 0 1 .6-.6h9.3a.5.5 0 0 0 .5-.5v-5.6a.6.6 0 0 0-.5-.6h-9.3c-.4 0-.6-.2-.6-.5V442a.6.6 0 0 1 .6-.6H360a17.5 17.5 0 0 0 8.7-2.1 14.2 14.2 0 0 0 5.9-6 17.9 17.9 0 0 0 2.1-8.8 18.7 18.7 0 0 0-2.1-9Zm-5.8 14.6a8.9 8.9 0 0 1-3.5 3.7 9.3 9.3 0 0 1-5.1 1.4h-14.5a.6.6 0 0 1-.6-.6v-20.4c0-.3.2-.5.6-.5h14.5a9.2 9.2 0 0 1 8.6 5.1 12.6 12.6 0 0 1 1.2 5.7 12.8 12.8 0 0 1-1.2 5.6Zm-248.4-24a13.9 13.9 0 0 0-8.2-1.7 17.8 17.8 0 0 0-8.5 3l-12.4 8.3-2.1 1.4-2.9 1.9a.6.6 0 0 0-.2.8l21.2 31.8c.1.3.1.7-.2.8l-7.8 5.2a.6.6 0 0 0-.1.8l3.1 4.6a.6.6 0 0 0 .8.2l7.7-5.2a.5.5 0 0 1 .8.2l4.7 7c.1.3.5.3.8.2l4.6-3.1a.6.6 0 0 0 .1-.8l-4.7-7a.6.6 0 0 1 .2-.8l7.8-5.1a.6.6 0 0 0 .1-.8l-3.1-4.7a.6.6 0 0 0-.8-.1l-7.7 5.1a.6.6 0 0 1-.8-.1l-2.3-3.5a.5.5 0 0 1 .2-.8l11.9-7.9a18.2 18.2 0 0 0 6.1-6.6 14.6 14.6 0 0 0 1.6-8.2 18.2 18.2 0 0 0-3.2-8.6 19.1 19.1 0 0 0-6.7-6.3Zm3.2 15.4a8.7 8.7 0 0 1-.8 5 9.9 9.9 0 0 1-3.5 3.9l-12.1 8.1a.5.5 0 0 1-.8-.2l-11.3-16.9a.6.6 0 0 1 .2-.8l12.1-8.1a10 10 0 0 1 5-1.7 9.1 9.1 0 0 1 5 1.3 12.9 12.9 0 0 1 4.1 4 12.2 12.2 0 0 1 2.1 5.4Z" style="opacity:.6;fill:#263238"/><path class="cls-6" d="M184.8 307.7h32.8v84.82h-32.8z"/><path class="cls-8" d="M294.2 321.1v-1a12.4 12.4 0 0 0-12.4-12.4h-97a12.4 12.4 0 0 1 10.8 12.3v21.6h.2v126.6a15 15 0 0 0 15 14.9h83.4v-162Z"/><path class="cls-6" d="M228.5 460.9v9.8a12.4 12.4 0 0 1-9.5 12.1v.3h42.9v-22.2Z"/><path class="cls-8" d="M235.2 449.1v21.6a12.4 12.4 0 0 1-10.8 12.3h85.9a12.3 12.3 0 0 0 12.4-12.4v-21.5Z"/><path class="cls-12" d="M214.9 324.6h64.7m-64.7 11.7h64.7m-64.7 10h64.7M214.9 416h64.7m-64.7 17.1h64.7m-64.7-76.4h38.6m-38.6 9.3h38.6m-38.6 9.3h38.6m-38.6 9.2h38.6m-38.6 9.3h38.6m-38.6 9.3h38.6M20.8 483.4h461.8"/><path class="cls-16" d="M161.6 218.6H315"/><path class="cls-9" d="M192.8 200.4s.4-13.2 1.9-13.5 5.5.9 18.3.5 19.5-.2 20 .2 2.1 20.1 1.4 20.3-15.3-1.3-21.4-1.1-18.4 1.1-19.4.9-.8-7.3-.8-7.3Z"/><path class="cls-9" d="M274.2 200.4s-.5-13.2-2-13.5-5.5.9-18.3.5-19.5-.2-20 .2-.2 20.1.5 20.3 13.5-1.3 19.5-1.1 18.4 1.1 19.5.9.8-7.3.8-7.3Zm-81.3 20.5h83.5v5.38h-83.5z"/><path class="cls-9" d="M192.9 206.6H235v9.28h-42.1z"/><path class="cls-9" d="M234.9 206.6h41.2v9.28h-41.2z"/><path class="cls-9" d="M192.9 211.9H235v9.28h-42.1z"/><path class="cls-9" d="M234.9 211.9h41.2v9.28h-41.2z"/><path class="cls-6" d="M206.2 189.5s-3.9 3.2-7.7 3.3-5.3-.8-7.6.4 4 14.4 6.1 15.1 13.3-1.9 14.6-2.4-2.9-12-3.5-13.9-.6-3.1-1.9-2.5Z"/><path class="cls-5" d="M212.4 193.7s-4.1-1.3-4.7-1 .8 7.3 1.2 9.2-.4 4.5.3 4.9a140.7 140.7 0 0 0 16.4.5c1.9-.2-2-10.4-2.3-13.3s-.1-2.6-1.5-2.1a37.2 37.2 0 0 1-9.4 1.8Z"/><path class="cls-6" d="M260.8 189.5s4 3.2 7.7 3.3 5.4-.8 7.6.4-4 14.4-6.1 15.1-13.3-1.9-14.6-2.4 2.9-12 3.5-13.9.6-3.1 1.9-2.5Z"/><path class="cls-5" d="M254.7 193.7s4-1.3 4.6-1-.8 7.3-1.1 9.2.3 4.5-.4 4.9a140.7 140.7 0 0 1-16.4.5c-1.8-.2 2-10.4 2.4-13.3s.1-2.6 1.5-2.1a36.3 36.3 0 0 0 9.4 1.8Z"/><path class="cls-9" d="M190 198.8h2.5a1.6 1.6 0 0 1 1.6 1.6v28.1a1.4 1.4 0 0 1-1.4 1.4h-3a1.4 1.4 0 0 1-1.4-1.4v-28.1a1.6 1.6 0 0 1 1.7-1.6Zm85.3 0h2.5a1.6 1.6 0 0 1 1.6 1.6v28.1a1.4 1.4 0 0 1-1.4 1.4h-3a1.4 1.4 0 0 1-1.4-1.4v-28.1a1.6 1.6 0 0 1 1.7-1.6Z"/><path class="cls-5" d="M307.4 213.4c-.1-.8-3.5-2-3.5-2l-4.6.3-4.6-.3s-3.4 1.2-3.5 2-2 13.9-2 13.9a30.9 30.9 0 0 0 8.5 1.3h3.2a30.9 30.9 0 0 0 8.5-1.3s-1.9-13-2-13.9Z"/><ellipse class="cls-5" cx="299.3" cy="210.5" rx="5.8" ry="2.2"/><path class="cls-5" d="m288.3 206.1 2 2.8c0 1.4 4 2.5 9 2.5s9-1.1 9-2.5l2-2.8Z"/><ellipse class="cls-5" cx="299.3" cy="206.1" rx="11" ry="2.4"/><path class="cls-16" d="m299.3 205.6 1.5-16.6-13.3-11.8"/><path class="cls-5" d="M287.7 177.3a1.8 1.8 0 0 0 .8-1.4 1.5 1.5 0 0 0-1-1.9c-.7-.1-1.4.6-1.6 1.6a2.3 2.3 0 0 0 .5 1.5c-1.4.4-2.6 2.2-2.9 4.5a3.4 3.4 0 0 0-.1 1l5.8.8c.1-.3.1-.7.2-1 .3-2.4-.5-4.4-1.7-5.1Zm7.9 26.6h7.4v1.61h-7.4z"/><path class="cls-11" d="M175.7 187.5h-.1a33.6 33.6 0 0 0-1.4 4.5 35.5 35.5 0 0 0-.8 4.7v1.2c0 .2-.1.4-.1.6v.6a3.7 3.7 0 0 1-.1 1.1v2.4c0 .4.1.8.1 1.2l.3 2.4h.1a4.9 4.9 0 0 1-.1-1.2v-6.5a1.3 1.3 0 0 1 .1-.6v-1.2c.2-1.5.4-3.1.7-4.7a25.4 25.4 0 0 1 1.3-4.5Zm.1 6.2a24.5 24.5 0 0 0-.8 2.9 18.1 18.1 0 0 0-.5 3.1c-.1 1.1-.3 2.1-.3 3.1s0 2.1.1 3.1h.1a30.3 30.3 0 0 0 .2-3.1c.1-1 .1-2 .2-3a29.1 29.1 0 0 1 .4-3.1c.1-1 .4-2 .6-3Zm3.5 2.1h-.1l-2.3 2-.9 1.3v.3l-.2.4v.3c0 .2-.1.3-.1.4a15.7 15.7 0 0 0-.5 3c0 1 0 2.1.1 3.1h.1l.2-3c.1-1 .2-2 .4-3s.1-.3.1-.4v-.7l.2-.3a5 5 0 0 1 .8-1.2 7.3 7.3 0 0 1 2.2-2.1Z"/><path class="cls-11" d="M177.6 199.7a2.8 2.8 0 0 0-1 1.2 5.2 5.2 0 0 0-.6 1.6c-.1.1-.1.2-.1.4v.4a1.9 1.9 0 0 0-.1.8v.8a1.9 1.9 0 0 0 .1.8c.1-.2.1-.5.2-.8s.1-.5.1-.8.1-.5.1-.8a1.7 1.7 0 0 1 .1-.7 4.3 4.3 0 0 1 .5-1.6 4.6 4.6 0 0 1 .8-1.3Zm-4.8 3c-.1-1.3-.3-2.6-.5-4s-.5-2.6-.7-3.9-.5-2.6-.8-3.9h-.1c.3 1.3.5 2.6.7 3.9s.4 2.7.5 4 .3 2.6.5 4l.5 3.9v-2a13.4 13.4 0 0 0-.1-2Zm-.8 0-.3-1.6-.2-.8c0-.2-.1-.5-.1-.7a28.3 28.3 0 0 0-1.1-3.1v-.3l-.2-.4-.4-.7-.9-1.3h-.1a4.2 4.2 0 0 1 .9 1.4l.3.7.2.3v.4a17.1 17.1 0 0 1 .9 3 11 11 0 0 1 .3 1.6l.2.8c0 .2.1.5.1.8l.3 1.5a4.5 4.5 0 0 0 .3 1.6v-1.6c-.1-.5-.1-1.1-.2-1.6Zm-1.1.1a18 18 0 0 0-.8-2.1l-1.1-1.9.9 2c.2.7.5 1.4.7 2.1s.3 1.4.5 2.1l.6 2.1a5.5 5.5 0 0 0-.2-2.2 16.6 16.6 0 0 0-.6-2.1Zm0 2.3-.6-1.2-.9-1.1-.5-.4-.6-.3h-.1l1.1.8.7 1.1.5 1.2a1.4 1.4 0 0 0 .2.6l.3.7v-.6c0-.4-.1-.6-.1-.8Z"/><path class="cls-1" d="M170.9 192.8a3.9 3.9 0 0 1-2.7-2.9c-.5-2.4 1.2-1.3-.3-5s-1.1-4.6-.6-5.7.8-.7 1.2.7 2.1 3.6 2.7 7.7-.3 5.2-.3 5.2Zm4.4-4s-1.5-.5-1.6-3.3 1.1-2.2 1.3-5.6.4-5.8 1-5.9 2.2 1.7 2.8 5.5-.7 6.4-1.9 7.5a16.2 16.2 0 0 0-1.6 1.8Zm-5.1 7.3a10.1 10.1 0 0 0-1.1-3c-.6-1-2.1-1.8-3-3.6s-2.1-2.8-2-.2a5.3 5.3 0 0 0 2.7 4.9c1.4.9 3.4 1.9 3.4 1.9Zm-.7 3.4a19 19 0 0 0-3.3-4.4c-1.9-1.9-3.5-2.9-2.9-1.9s1.2.9 2.1 2.5.7 3 2.1 3.9 2-.1 2-.1Zm-.1 3.4a3.5 3.5 0 0 0-2.1-2.5c-1.9-1-3.7-.6-3.4-.1a5.8 5.8 0 0 0 2.6 1.9 11.9 11.9 0 0 0 2.9.7Zm5.7-6.7a4.2 4.2 0 0 1-.3-3.3c.4-2.3 1.4-1.7 2.5-2.9s.9-1.3 2.1-2.6 2.1-1.9 2.5-1.4-.2 2.1-.9 3-1.7 1.4-2.2 2.5-.3 2.9-1.6 3.7a5.4 5.4 0 0 1-2.1 1Zm2.8.6 3.5-4c1.5-1.7 2-3 2.1-1.8s.5 2-.7 3.4-4.9 2.4-4.9 2.4Zm-1 3.7s-.1-.9 3.1-3 4.6-2.4 4.2-1.6-1.7 1.7-3.2 3.2a6.2 6.2 0 0 1-4.1 1.4Z"/><path class="cls-16" d="M171.1 192.5s-.8-4-1.6-6.9-1.3-4.6-1.3-4.6m6.9 7.8a56.3 56.3 0 0 0 1.8-7 14.7 14.7 0 0 0-.2-5.8m-6.7 20a30.8 30.8 0 0 0-2.1-3c-1.2-1.4-2.2-2.2-2.7-3.6m9.9 6.8a11.6 11.6 0 0 1 1.6-4.1c1-1.4 3.2-3.6 4-5m-11.5 15.7-3.2-1.9"/><path class="cls-6" d="M180 214.1c-.1-3.4-3.9-5.7-3.9-5.7h-5.8s-3.7 2.3-3.9 5.7 4.3 15.9 4.3 15.9h5.1s4.4-12.5 4.2-15.9Zm-3.1-9h-7.4l.8 3.3h5.7l.9-3.3z"/><path d="M363.6 269.7a6.1 6.1 0 0 0-3-.1 7.7 7.7 0 0 0-2.7 1.6l-3.7 3.7-.7.6-.8.9c-.1 0-.1.2-.1.3l9.4 9.6c.1 0 .1.2 0 .2l-2.3 2.3a.2.2 0 0 0 0 .3l1.3 1.4a.2.2 0 0 0 .3 0l2.4-2.3h.2l2.1 2.1h.3l1.4-1.3a.2.2 0 0 0 0-.3l-2.1-2.1a.2.2 0 0 1 0-.3l2.4-2.3v-.3l-1.4-1.4h-.3l-2.3 2.3h-.3l-1-1a.2.2 0 0 1 0-.3l3.6-3.5a6.5 6.5 0 0 0 1.7-2.7 7.1 7.1 0 0 0 0-2.9 7.5 7.5 0 0 0-1.7-2.8 6.5 6.5 0 0 0-2.7-1.7Zm2.1 5.1a3.7 3.7 0 0 1 .1 1.8 3.6 3.6 0 0 1-1 1.5l-3.7 3.6c0 .1-.2.1-.2 0l-5-5.1a.2.2 0 0 1 0-.3l3.6-3.6a6.5 6.5 0 0 1 1.6-.9 3.7 3.7 0 0 1 1.8.1 4.8 4.8 0 0 1 1.7 1.2 4.5 4.5 0 0 1 1.1 1.7Z" style="opacity:.4"/></g></svg>