<svg xmlns="http://www.w3.org/2000/svg" viewBox="0 0 491.5 490.6"><defs><style>.cls-1{opacity:0.3;}.cls-10,.cls-2,.cls-5{fill:none;}.cls-2{stroke:#000;}.cls-10,.cls-11,.cls-2,.cls-7,.cls-8,.cls-9{stroke-miterlimit:10;}.cls-3,.cls-6,.cls-8{fill:#263238;}.cls-11,.cls-4{fill:#4675ce;}.cls-10,.cls-11,.cls-5,.cls-6,.cls-7,.cls-8,.cls-9{stroke:#263238;}.cls-5,.cls-6{stroke-linecap:round;stroke-linejoin:round;}.cls-7{fill:#969696;}.cls-9{fill:#fff;}</style></defs><g id="Entrance"><g class="cls-1"><path class="cls-2" d="M261.9,462.1V172.7c0-47.4-37.9-86.5-86.6-91.8"/><path class="cls-2" d="M284.7,462.1V172.6c0-51-43.8-92.3-98-92.3h0c-54.1,0-98,41.3-98,92.3V462.1"/></g></g><g id="Picture"><g class="cls-1"><rect class="cls-2" x="322.6" y="93.4" width="145.9" height="192.79"/><rect class="cls-2" x="328.8" y="101.6" width="133.5" height="176.46"/><rect class="cls-2" x="332.9" y="107" width="125.4" height="165.66"/><path class="cls-2" d="M458.2,136c-12.5,8.6-30.5,14.4-49.5,25.7-28.3,16.7-34.5,53-47,83.4-9.4,23.2-21.2,27-26.3,27.5a8.1,8.1,0,0,1-2.5,0"/><path class="cls-2" d="M364.5,107c-1.1,10.1-.2,19.9,5.7,25.4,15.3,14.3,27.7,10.2,57.1-13.7A124.1,124.1,0,0,1,444.8,107"/><path class="cls-2" d="M332.9,153.9c7.6,4.2,14.9,10.9,16.4,21.5s-6.7,21.1-16.4,27.8"/><path class="cls-2" d="M433.2,272.6c-12.8-13.8-28.1-35.1-24-54.9,4.6-21.9,31.6-31.9,49-36"/><ellipse class="cls-2" cx="365.7" cy="158.7" rx="14.7" ry="15.5"/><ellipse class="cls-2" cx="394.2" cy="218" rx="6.5" ry="6.9"/><path class="cls-2" d="M441.5,207a5.1,5.1,0,1,1-5.1-5.4A5.2,5.2,0,0,1,441.5,207Z"/><ellipse class="cls-2" cx="347.3" cy="229.9" rx="3.7" ry="3.9"/><path class="cls-2" d="M409.2,117.5a3.5,3.5,0,0,1-3.4,3.6,3.6,3.6,0,0,1,0-7.2A3.5,3.5,0,0,1,409.2,117.5Z"/><line class="cls-2" x1="322.6" y1="93.4" x2="332.9" y2="107"/><line class="cls-2" x1="468.5" y1="93.4" x2="458.2" y2="107"/><line class="cls-2" x1="458.2" y1="272.6" x2="468.5" y2="286.2"/><line class="cls-2" x1="322.6" y1="286.2" x2="332.9" y2="272.6"/></g></g><g id="Plant"><path class="cls-3" d="M411.3,304.3h-.1a100.7,100.7,0,0,0-5.4,16.9,143.5,143.5,0,0,0-2.9,17.4l-.5,4.4a15,15,0,0,1-.2,2.2v2.2c0,1.5-.1,3-.2,4.5v6.6c0,.8.1,1.5.1,2.2s.3,3,.4,4.4c.3,3,.7,5.9,1.2,8.8h.1c0-1.5-.1-3-.1-4.4s-.2-3-.1-4.4-.1-3-.1-4.4v-8.8l.2-4.4v-2.2c0-.7.1-1.4.1-2.2l.3-4.4a148.8,148.8,0,0,1,2.5-17.4A101,101,0,0,1,411.3,304.3Z"/><path class="cls-3" d="M412,327.3a.1.1,0,0,0-.1-.1h-.1a88.6,88.6,0,0,0-3.1,11.2,108.4,108.4,0,0,0-1.9,11.4,113,113,0,0,0-.8,11.6,90.6,90.6,0,0,0,.4,11.6h.1c.5-3.9.8-7.7,1-11.6s.3-7.6.6-11.5a110.5,110.5,0,0,1,1.3-11.4A107,107,0,0,1,412,327.3Z"/><path class="cls-3" d="M424.7,335.3h-.1a40,40,0,0,0-8.5,7.4,31.2,31.2,0,0,0-3.4,4.7l-.6,1.3-.6,1.3a5.7,5.7,0,0,0-.4,1.4c-.2.4-.3.9-.5,1.3a54.2,54.2,0,0,0-1.7,11.3,61.4,61.4,0,0,0,.4,11.3h.2l.9-11.2a102,102,0,0,1,1.4-11.1l.4-1.3a5,5,0,0,1,.4-1.3l.4-1.3.6-1.2a29.4,29.4,0,0,1,3.1-4.7,34.5,34.5,0,0,1,8-7.7h0Z"/><path class="cls-3" d="M418.5,349.7a11.7,11.7,0,0,0-3.8,4.7,23.2,23.2,0,0,0-2.2,5.7,8.3,8.3,0,0,0-.4,1.5l-.3,1.4a16.5,16.5,0,0,0-.4,3.1c0,1-.1,2,0,3s.2,2,.4,3h.2c.2-1,.4-2,.5-2.9s.3-2,.4-3a28.9,28.9,0,0,0,.4-2.9,25.4,25.4,0,0,1,.4-2.9,22.1,22.1,0,0,1,1.7-5.7,11.3,11.3,0,0,1,3.2-4.8h0s.1,0,0-.1Z"/><path class="cls-3" d="M400.7,360.9c-.4-4.9-1.3-9.9-2-14.8s-1.7-9.8-2.6-14.7-1.9-9.8-2.9-14.6a.1.1,0,0,0-.2,0c.9,4.9,1.6,9.8,2.4,14.7s1.4,9.9,2,14.8,1.1,9.9,1.7,14.8l1.8,14.8a.1.1,0,0,1,.1.1.1.1,0,0,0,.1-.1c.1-1.3.1-2.5.1-3.8s-.1-2.4-.1-3.7S400.9,363.4,400.7,360.9Z"/><path class="cls-3" d="M397.7,360.9c-.3-2-.6-4-1-5.9l-.7-2.9c-.2-1-.5-1.9-.7-2.9a88.2,88.2,0,0,0-3.8-11.3l-.6-1.4-.7-1.3a21.5,21.5,0,0,0-1.4-2.6,20.8,20.8,0,0,0-3.6-4.8h-.1a20.1,20.1,0,0,1,3.3,4.9,22.1,22.1,0,0,1,1.2,2.7l.6,1.3.5,1.4a86.6,86.6,0,0,1,3.4,11.3c.4,1.9.7,3.9,1.1,5.8l.4,2.9.6,2.9c.3,1.9.6,3.9,1,5.8s.6,3.9,1,5.9h.2c0-2,0-4-.1-6Z"/><path class="cls-3" d="M393.6,361.1a71.9,71.9,0,0,0-3.2-7.6,63.7,63.7,0,0,0-3.9-7.3h-.1c-.1,0-.1,0-.1.1a63.6,63.6,0,0,1,3.4,7.5c1,2.5,1.9,5.1,2.7,7.7s1.3,5.3,2,7.9,1.4,5.3,2.2,8h.1a32.6,32.6,0,0,0-.8-8.2A43.2,43.2,0,0,0,393.6,361.1Z"/><path class="cls-3" d="M393.4,369.8a19.5,19.5,0,0,0-2.2-4.6,17.1,17.1,0,0,0-3.2-3.9,15.6,15.6,0,0,0-2-1.6,9.4,9.4,0,0,0-2.3-1h-.1c0,.1,0,.1.1.1h0a12.3,12.3,0,0,1,3.8,3,17.2,17.2,0,0,1,2.6,4,42.2,42.2,0,0,1,1.8,4.5,22.9,22.9,0,0,0,1,2.3,14.6,14.6,0,0,0,1,2.3h.1a20.9,20.9,0,0,0-.1-2.5A22.1,22.1,0,0,0,393.4,369.8Z"/><path class="cls-4" d="M393.7,323.9a14.2,14.2,0,0,1-10-10.6c-1.9-8.8,4.2-5.1-1.3-18.8s-4.1-16.9-2.3-20.9,3-2.7,4.6,2.5,7.8,13.4,10.1,28.6S393.7,323.9,393.7,323.9Z"/><path class="cls-4" d="M409.8,309.1s-5.4-1.9-5.6-12.1,3.9-8.2,4.6-20.9,1.4-21.7,3.7-21.9,8.4,6.2,10.4,20.4-2.7,23.6-6.8,27.8S409.8,309.1,409.8,309.1Z"/><path class="cls-4" d="M390.8,336.2s-1.3-7.5-3.8-11-7.9-6.7-11.4-13.6-7.6-10.2-7.4-.4,4.6,14.8,10.1,18.1S390.8,336.2,390.8,336.2Z"/><path class="cls-4" d="M388.5,349.2a75.1,75.1,0,0,0-12.3-16.7c-7.3-7.1-13.2-10.7-11.1-7.1s4.6,3.3,8.2,9.6,2.5,10.8,7.5,14.4S388.5,349.2,388.5,349.2Z"/><path class="cls-4" d="M387.9,361.5c-.2-.6-.4-5.2-7.5-9s-13.8-2.3-13-.4,5.2,5,9.6,6.9S387.9,361.5,387.9,361.5Z"/><path class="cls-4" d="M409.4,336.6s-3.2-3.9-1.5-12.3,5.4-6.2,9.6-10.6,3.4-5,7.5-9.6,8-7.1,9.6-5.3-.8,7.8-3.3,11.1-6.5,5-8.4,9.2-1,10.9-5.8,14S409.4,336.6,409.4,336.6Z"/><path class="cls-4" d="M419.8,338.9l13-14.8c5.4-6.3,7.5-11.1,7.7-6.9s1.9,7.5-2.5,13S419.8,338.9,419.8,338.9Z"/><path class="cls-4" d="M415.9,352.7s-.3-3.3,11.6-11.1,17-9.1,15.7-6-6.5,6.3-12.1,11.9S415.9,352.7,415.9,352.7Z"/><path class="cls-5" d="M394.2,323s-2.8-15-5.7-25.6-4.8-17.1-4.8-17.1"/><path class="cls-5" d="M409.3,309.2s5.1-16.2,6.8-26-.2-17.1-1.1-21.5"/><path class="cls-5" d="M390.1,335.9a82.4,82.4,0,0,0-7.7-11c-4.5-5.4-8.1-8.3-10.2-13.5"/><path class="cls-5" d="M409.4,336.6s1.6-10,5.6-15.2,11.9-13.4,15-18.6"/><path class="cls-5" d="M387.4,361.3s-7-4.6-12.1-7.1"/><path class="cls-6" d="M427.6,403.3c-.5-12.6-14.5-21.1-14.5-21.1H391.5s-14.1,8.5-14.6,21.1,16,59.2,16,59.2h18.8S428.1,416,427.6,403.3Z"/><polygon class="cls-6" points="415.8 369.8 388.3 369.8 391.5 382.2 412.7 382.2 415.8 369.8"/></g><g id="Character"><path class="cls-7" d="M175.4,299.4a35.4,35.4,0,0,0-3,4.3c-2.6,4.2-3.8,5.3-3.7,7.1s0,3.7.8,4a30.9,30.9,0,0,0,8.8,1.1c4-.2,5.2-.5,6-1.2a8.2,8.2,0,0,0,2.3-4.8c.3-2.5.6-10.2.6-10.2Z"/><path class="cls-7" d="M216.1,299.6s7.8,5.7,10.1,6.1,6.5,1.9,6.8,3.6.6,3.8-.3,4.6-7.1,1.1-11.2,1.1a17,17,0,0,1-7-1.4l-2.1-.8-.3,1.6-2.7-.2-5.3-.9s-.7-7.7.9-12.2S216.1,299.6,216.1,299.6Z"/><path class="cls-8" d="M174,192.4l.5,57.5.7,47-1.2,2.3-.5,2.7s8.1,1.3,10,1.3a19.4,19.4,0,0,1,3.7.4s1.4-8.9,1.9-11.7.8-6.7,1.9-13.5,7.9-57.8,7.9-57.8l2.8-2.4.4,24.4s-1.4,28-.2,36,1.9,18.9,1.9,18.9a5.7,5.7,0,0,0,0,2.7c.3,1.1.7,3.7.7,3.7a73,73,0,0,0,7.4-1.3l6.6-1.5s1.6-3,1.4-3.5a23.9,23.9,0,0,1-1.4-5.2c0-1.2,2.6-46.5,2.6-46.5s1.7-28.2,2.2-38.1,1.3-18.8,1.3-18.8l-15.4-2.8Z"/><path class="cls-8" d="M235.3,133.6s5-2.9,6.4-11.8-6.5-8.9-8.7-7S232.6,127.3,235.3,133.6Z"/><path class="cls-7" d="M216.3,110.8a34.3,34.3,0,0,1,7.5,1,51.9,51.9,0,0,0,5.7,1.2l5.2-.5s-.6,11.5-.2,14.3.8,6.8.8,6.8l-9-2.4s-.7,1.2-3.7-6.5S216.3,110.8,216.3,110.8Z"/><path class="cls-9" d="M234.7,112.5s1.5-36.9,1.5-37.4-.9-5.5-.5-6.5,1.7-4.8,2.1-6.5,3.4.9,2.9,2.5a44.7,44.7,0,0,0-.9,5.5l2.5,1.5a32,32,0,0,1,5.3-2.6c1.7-.5.1-6.4,2-6s2,9.4,2,11-9.7,8.4-9.7,8.4,5.4,30.9,5.7,34.7.4,4.7-.3,5.8-12.8,3.9-12.8,3.9Z"/><path class="cls-9" d="M240.2,42.9c0-1.4,1.9-2.5,4.2-2.5s4.2,1.1,4.2,2.5-1.9,2.4-4.2,2.4S240.2,44.2,240.2,42.9Z"/><path class="cls-9" d="M237.3,58.8a7.1,7.1,0,0,0,8.5,6.9,6.8,6.8,0,0,0,5.5-5.5,7.4,7.4,0,0,0-.7-4.7,15.3,15.3,0,0,1-2-7.2v-.6h-8.4v.6a13.1,13.1,0,0,1-1.9,6.9A7.5,7.5,0,0,0,237.3,58.8Z"/><rect class="cls-9" x="240.2" y="45.5" width="8.4" height="2.22" transform="translate(488.8 93.1) rotate(180)"/><rect class="cls-9" x="240.2" y="43.1" width="8.4" height="2.22" transform="translate(488.8 88.4) rotate(180)"/><path class="cls-9" d="M247.1,67.3s-1.3-5.5.3-5.4,3.3,9.9,3.3,11.2-2.8,2.5-2.8,2.5Z"/><path class="cls-9" d="M239.7,81.8s-1.8-2.4,0-4.5,6.4-2.9,6.4-2.9-2.5-8.9-.4-8.5,3.4,9.2,3.1,10.1a2.9,2.9,0,0,1-1,1.5"/><path class="cls-10" d="M229.5,113s-1.8,1.3-2.3,6.1"/><path class="cls-8" d="M184.9,104a4.1,4.1,0,0,0,2.1,1.8,7.9,7.9,0,0,0,3.3.6s4.6.1,6.8-3.4-1.8-12.2-.8-17.2,3.7-7.5,2.6-8.8-4.1-2.3-11,5.2S179.3,98.3,184.9,104Z"/><path class="cls-11" d="M185.7,112.6s-15.8,7.4-16.5,8.8,3.3,72.8,3.3,72.8.2,2.7,10.7,5.8,20.2-.1,21.7-.2,3.3-4.6,3.3-4.6l1.2,4s1.6,1.3,8.6-1.4,10-5.4,10-5.4l-.7-59.1s-3.6-14.6-5.4-16.8-1.3-4.3-5.6-5.7-13.9-1.8-18.8-1.8S185.7,112.6,185.7,112.6Z"/><path class="cls-9" d="M170.1,148.7l.3,6.1a75.7,75.7,0,0,0,9.2.5c11.4,0,28.3-2.2,47.8-11.5v-6.6l-4.8,2.3c-.4-13.7-3.7-23.2-6.4-28.7a39.6,39.6,0,0,0-7.5-1.3c1.8,2.8,7.8,13.6,7.9,32.5a110.5,110.5,0,0,1-23.6,6.2c-3.9-19.5-8.5-29.1-11.4-33.6l-5.4,2.7c2.2,3.2,6.8,11.8,10.8,31.6A88.1,88.1,0,0,1,170.1,148.7Z"/><path class="cls-9" d="M227.8,176.1v-6.9c-25.5,15.2-46.9,11.3-56.1,8.4.1,2.2.2,4.4.3,6.3a69.1,69.1,0,0,0,17.9,2.4C200.4,186.3,213.5,183.9,227.8,176.1Z"/><path class="cls-10" d="M205.7,141.7s4.6,24.8,3.2,50"/><path class="cls-7" d="M194.8,121.1a29.4,29.4,0,0,0,3.8,7.1c3,4.2,6.7,10.1,6.7,10.1s4.3-10,4.7-14.3a28.5,28.5,0,0,0-.1-7.6l-8.7-5Z"/><path class="cls-7" d="M190.3,106.4l-6,6.9,7.5,12.2,11-6.5,12.1,4.3s-3.3-11.1-6.2-13.3a34.5,34.5,0,0,0-6.3-3.8C201.8,105.9,199.8,103.4,190.3,106.4Z"/><path class="cls-9" d="M208.2,101.5l-1.3,11-.7,3.2-2,10s-6.5-8.4-9.6-11.3a26.4,26.4,0,0,1-4.4-5.4,44.1,44.1,0,0,0,.7-7.4,28.3,28.3,0,0,0-.3-5.1l-.4-2.4a50.8,50.8,0,0,0,6.6,3.8l.9.4A66,66,0,0,0,208.2,101.5Z"/><path class="cls-8" d="M208.2,101.5l-1.3,11-.7,3.2c-4.5-4.1-14.4-18.1-14.4-18.1l5,.3.9.4A66,66,0,0,0,208.2,101.5Z"/><path class="cls-9" d="M210.6,80.6s2.8,6.2,2.8,8.5-.7,8.1-.6,9.7-1.9,3.7-3.7,4.4-3.4,1.2-8.2,0-9.1-5.6-9.1-5.6-3.9-1-5.1-3.1-1.3-4.3,1.2-4.4,2.8,1.8,3.2,1.1-.7-3.8,1-5.4a9.2,9.2,0,0,0,2.4-4.2c.4-1.1,6.1-2.9,9.7-3.9S210.6,80.6,210.6,80.6Z"/><path class="cls-10" d="M207.5,81.2s-.5,1,0,1.5,3.5,3.1,3.2,3.9S208,89,206.9,89"/><path class="cls-10" d="M209.8,91.1a6.1,6.1,0,0,1-7-.5"/><path class="cls-3" d="M202.4,83.2c.1.6-.1,1.3-.7,1.4s-1-.3-1.2-.9.1-1.4.6-1.5A1.2,1.2,0,0,1,202.4,83.2Z"/><path class="cls-3" d="M211.1,82.5a1,1,0,1,1-1.3-1A1.3,1.3,0,0,1,211.1,82.5Z"/><path class="cls-10" d="M198.9,82.2a2.9,2.9,0,0,1,3.2-2"/><path class="cls-9" d="M193.5,82.2A57.3,57.3,0,0,0,184.3,93c-3.4,5.7.6,11,.6,11s-4.2-1.8-5-5.3-3.6-4-3.1-11.1,4.3-13.6,9.8-16.3,13-1.8,14.4-1.1a13.7,13.7,0,0,1,3.6,2.2,54.5,54.5,0,0,0,4.6,3.1Z"/><path class="cls-9" d="M193.5,82.2s4.5-5.6,6.3-6.7,8-3.4,11.6-1.5,2.8,2,1.8,3.7l-1.9,3.5s-1.4-1.1-6.7-1.4S193.5,82.2,193.5,82.2Z"/><path class="cls-9" d="M157.4,156l-1.7,16,5.1,32.5s-.5,7,0,7.9l1.6,2.9v7.4c0,.4.4,1.3.9,1.1s1.3.9,2.1.6l.9-.3s1.6.3,2.3-.3a8.5,8.5,0,0,0,1.3-1.2,9.3,9.3,0,0,0,.7-2,47.6,47.6,0,0,0,.4-6.6,42.6,42.6,0,0,0-2-8.9l-.4-1-.7-33.4,2.9-10.1Z"/><path class="cls-10" d="M163.3,223.8s1-4.6,1.3-7"/><path class="cls-10" d="M166.3,224.1s1.5-6.3,1.4-7.9"/><path class="cls-10" d="M168.6,223.8a78.4,78.4,0,0,0,1.2-7.8"/><path class="cls-7" d="M173.9,121.8s-1.2-3.1-4.7-.4-16.1,33.5-16.1,33.5,2.9,4.1,10,6.1,11.1,1.4,11.1,1.4,1.7-21.4,1.4-29.5S173.9,121.8,173.9,121.8Z"/></g><g id="Scaffold"><polygon class="cls-11" points="237.4 409.9 59.5 232.8 63.3 229.6 241.3 406.7 237.4 409.9"/><rect class="cls-11" x="239.7" y="207" width="5" height="237.44"/><path class="cls-11" d="M247.8,439.2H237.6a2.5,2.5,0,0,1-2.5-2.5,2.5,2.5,0,0,1,2.5-2.5h10.2a2.5,2.5,0,0,1,2.5,2.5A2.6,2.6,0,0,1,247.8,439.2Z"/><circle class="cls-11" cx="242.2" cy="454.5" r="7.9" transform="translate(-69.7 44.7) rotate(-9.2)"/><path class="cls-9" d="M246.8,454.5a4.6,4.6,0,0,0-4.6-4.5,4.5,4.5,0,0,0-4.5,4.5,4.6,4.6,0,0,0,4.5,4.6A4.7,4.7,0,0,0,246.8,454.5Z"/><path class="cls-9" d="M237.4,445.6l3.5,9.3a1.5,1.5,0,0,0,1.4,1.1h0a1.6,1.6,0,0,0,1.5-1.2l2.7-9.2Z"/><rect class="cls-9" x="235.5" y="442.5" width="13.1" height="3.39"/><path class="cls-11" d="M331,277.9H245.5a2.5,2.5,0,0,1-2.5-2.5h0a2.5,2.5,0,0,1,2.5-2.5H331Z"/><path class="cls-11" d="M331,322.4H245.5a2.5,2.5,0,0,1-2.5-2.5h0a2.5,2.5,0,0,1,2.5-2.5H331Z"/><path class="cls-11" d="M331,366.8H245.5a2.5,2.5,0,0,1-2.5-2.5h0a2.5,2.5,0,0,1,2.5-2.5H331Z"/><rect class="cls-11" x="150.4" y="406.2" width="180.6" height="5"/><rect class="cls-11" x="328.9" y="207" width="5" height="237.44"/><path class="cls-11" d="M337.1,439.2H326.9a2.5,2.5,0,0,1-2.5-2.5,2.5,2.5,0,0,1,2.5-2.5h10.2a2.5,2.5,0,0,1,2.5,2.5A2.5,2.5,0,0,1,337.1,439.2Z"/><circle class="cls-11" cx="332.1" cy="454.5" r="7.9" transform="translate(-68.4 58.9) rotate(-9.2)"/><path class="cls-9" d="M336.6,454.5a4.5,4.5,0,0,0-9,0,4.5,4.5,0,1,0,9,0Z"/><path class="cls-9" d="M327.3,445.6l3.5,9.3a1.5,1.5,0,0,0,1.4,1.1h0a1.6,1.6,0,0,0,1.5-1.2l2.7-9.2Z"/><rect class="cls-9" x="325.4" y="442.5" width="13.1" height="3.39"/><rect class="cls-11" x="74.4" y="313.4" width="246" height="3.87"/><rect class="cls-11" x="74.4" y="313.4" width="65.8" height="3.87"/><polygon class="cls-11" points="148.7 409.9 144.8 406.7 325.6 229.6 329.5 232.8 148.7 409.9"/><path class="cls-11" d="M328.5,233.5H150.4v-5H328.5A2.5,2.5,0,0,1,331,231h0A2.5,2.5,0,0,1,328.5,233.5Z"/><rect class="cls-11" x="59" y="207" width="5" height="237.44"/><path class="cls-11" d="M66.9,439.2H56.7a2.5,2.5,0,0,1-2.5-2.5,2.5,2.5,0,0,1,2.5-2.5H66.9a2.5,2.5,0,0,1,2.5,2.5A2.5,2.5,0,0,1,66.9,439.2Z"/><circle class="cls-11" cx="61.3" cy="454.5" r="7.9" transform="translate(-72 15.7) rotate(-9.2)"/><path class="cls-9" d="M65.9,454.5a4.6,4.6,0,0,0-4.6-4.5,4.5,4.5,0,0,0-4.5,4.5,4.6,4.6,0,0,0,4.5,4.6A4.7,4.7,0,0,0,65.9,454.5Z"/><path class="cls-9" d="M56.5,445.6l3.5,9.3a1.5,1.5,0,0,0,1.5,1.1h0a1.6,1.6,0,0,0,1.4-1.2l2.8-9.2Z"/><rect class="cls-9" x="54.6" y="442.5" width="13.1" height="3.39"/><path class="cls-11" d="M150.4,233.5H64.8a2.5,2.5,0,0,1-2.5-2.5h0a2.5,2.5,0,0,1,2.5-2.5h85.6Z"/><path class="cls-11" d="M150.4,277.9H64.8a2.5,2.5,0,0,1-2.5-2.5h0a2.6,2.6,0,0,1,2.5-2.5h85.6Z"/><path class="cls-11" d="M150.4,322.4H64.8a2.6,2.6,0,0,1-2.5-2.5h0a2.5,2.5,0,0,1,2.5-2.5h85.6Z"/><path class="cls-11" d="M150.4,366.8H64.8a2.5,2.5,0,0,1-2.5-2.5h0a2.5,2.5,0,0,1,2.5-2.5h85.6Z"/><path class="cls-11" d="M150.4,411.2H64.8a2.5,2.5,0,0,1-2.5-2.5h0a2.5,2.5,0,0,1,2.5-2.5h85.6Z"/><rect class="cls-11" x="148.3" y="207" width="5" height="237.44"/><path class="cls-11" d="M156,439.2H145.8a2.5,2.5,0,0,1-2.5-2.5,2.5,2.5,0,0,1,2.5-2.5H156a2.5,2.5,0,0,1,2.5,2.5A2.6,2.6,0,0,1,156,439.2Z"/><circle class="cls-11" cx="151" cy="454.5" r="7.9" transform="translate(-70.7 30) rotate(-9.2)"/><path class="cls-9" d="M155.5,454.5a4.5,4.5,0,0,0-9,0,4.5,4.5,0,1,0,9,0Z"/><path class="cls-9" d="M146.2,445.6l3.5,9.3a1.5,1.5,0,0,0,1.4,1.1h0a1.6,1.6,0,0,0,1.5-1.2l2.7-9.2Z"/><rect class="cls-9" x="144.3" y="442.5" width="13.1" height="3.39"/></g><g id="Ceiling"><line class="cls-10" x1="26.8" y1="30" x2="471.3" y2="30"/><rect class="cls-9" x="239.1" y="32.5" width="10.5" height="6.08"/><rect class="cls-9" x="227.1" y="30" width="34.5" height="3.22"/></g><g id="Floor"><line class="cls-10" x1="22.9" y1="462.5" x2="469" y2="462.5"/></g></svg>