<svg width="372" height="145" viewBox="0 0 372 145" fill="none" xmlns="http://www.w3.org/2000/svg">
<g clip-path="url(#clip0_1347_1228)">
<g opacity="0.3">
<path d="M309.732 8.69922V65.5604H350.619V8.69922H309.732ZM348.843 63.0693H311.508V11.1508H348.843V63.0693Z" stroke="white" stroke-miterlimit="10"/>
<path d="M319.717 59.1151C318.573 60.8549 317.27 62.1203 315.968 63.0693H348.803V11.1508H342.765C342.489 11.2299 342.252 11.309 341.976 11.3881C336.056 13.2465 329.939 18.6638 326.466 28.5097" stroke="white" stroke-miterlimit="10"/>
<path d="M325.913 30.2495C324.65 34.3223 323.861 39.1464 323.664 44.6823C323.466 50.5345 322.203 54.7655 320.546 57.8102" stroke="white" stroke-miterlimit="10"/>
<path d="M345.173 24.3182C339.766 27.4816 333.412 32.7802 331.083 40.9258C329.82 45.2754 331.004 49.1901 333.372 52.5511" stroke="white" stroke-miterlimit="10"/>
<path d="M334.635 54.2119C337.911 58.0474 342.528 61.0526 346.278 63.0693H348.843V22.4202C348.093 22.7761 347.343 23.1715 346.515 23.6065" stroke="white" stroke-miterlimit="10"/>
<path d="M317.704 24.6741C320.546 18.8219 320.862 14.1955 320.546 11.1508H311.508V34.9155C312.85 33.0175 314.468 30.4868 316.441 27.0466C316.56 26.8489 316.678 26.6512 316.797 26.414" stroke="white" stroke-miterlimit="10"/>
<path d="M321.256 47.1735C320.822 50.06 319.48 52.1162 317.941 52.1162C316.007 52.1162 314.468 48.9528 314.468 45.0382C314.468 41.1236 316.007 37.9602 317.941 37.9602C319.875 37.9602 321.414 41.1236 321.414 45.0382" stroke="white" stroke-miterlimit="10"/>
<path d="M322.914 30.5263C322.914 32.0289 322.243 33.2547 321.414 33.2547C320.585 33.2547 319.914 32.0289 319.914 30.5263C319.914 29.0237 320.585 27.7979 321.414 27.7979C322.243 27.7979 322.914 29.0237 322.914 30.5263Z" stroke="white" stroke-miterlimit="10"/>
<path d="M341.818 42.0726C343.239 42.7448 344.186 43.931 344.186 45.315C344.186 47.4503 341.857 49.1506 338.976 49.1506C336.095 49.1506 333.767 47.4107 333.767 45.315C333.767 43.1797 336.095 41.4794 338.976 41.4794C339.45 41.4794 339.924 41.519 340.358 41.5981" stroke="white" stroke-miterlimit="10"/>
<path d="M341.187 45.315C341.187 46.2245 340.2 46.9362 339.016 46.9362C337.832 46.9362 336.845 46.2245 336.845 45.315C336.845 44.4055 337.832 43.6938 339.016 43.6938C340.2 43.6938 341.187 44.4055 341.187 45.315Z" stroke="white" stroke-miterlimit="10"/>
<path d="M341.976 37.7625C343.48 37.7625 344.699 36.7534 344.699 35.5086C344.699 34.2638 343.48 33.2547 341.976 33.2547C340.472 33.2547 339.253 34.2638 339.253 35.5086C339.253 36.7534 340.472 37.7625 341.976 37.7625Z" stroke="white" stroke-miterlimit="10"/>
<path d="M325.006 23.0529C326.03 23.0529 326.86 20.9993 326.86 18.4661C326.86 15.9328 326.03 13.8792 325.006 13.8792C323.981 13.8792 323.151 15.9328 323.151 18.4661C323.151 20.9993 323.981 23.0529 325.006 23.0529Z" stroke="white" stroke-miterlimit="10"/>
<path d="M330.097 57.9684C330.097 59.3919 328.913 60.5782 327.492 60.5782C326.071 60.5782 324.887 59.3919 324.887 57.9684C324.887 56.5449 326.071 55.3586 327.492 55.3586C328.913 55.3586 330.097 56.5054 330.097 57.9684Z" stroke="white" stroke-miterlimit="10"/>
<path d="M342.213 19.2173C342.213 20.1268 341.502 20.8386 340.595 20.8386C339.687 20.8386 338.976 20.1268 338.976 19.2173C338.976 18.3079 339.687 17.5961 340.595 17.5961C341.502 17.5961 342.213 18.3474 342.213 19.2173Z" stroke="white" stroke-miterlimit="10"/>
<path d="M332.07 30.6449C332.07 31.1194 331.675 31.5149 331.202 31.5149C330.728 31.5149 330.333 31.1194 330.333 30.6449C330.333 30.1704 330.728 29.775 331.202 29.775C331.675 29.775 332.07 30.1704 332.07 30.6449Z" stroke="white" stroke-miterlimit="10"/>
<path d="M348.843 11.1508H311.508V63.0693H348.843V11.1508Z" stroke="white" stroke-miterlimit="10"/>
</g>
<path d="M287.114 126.899H239.34C236.89 126.899 234.861 124.82 234.861 122.221V83.035C234.861 80.4759 236.852 78.3566 239.34 78.3566H287.153C289.603 78.3566 291.631 80.4359 291.631 83.035V122.261C291.593 124.82 289.603 126.899 287.114 126.899Z" fill="#4675CE" stroke="white" stroke-opacity="0.4" stroke-miterlimit="10"/>
<path d="M347.307 126.899H300.917C298.538 126.899 296.568 124.855 296.568 122.3V83.7784C296.568 81.2627 298.501 79.1794 300.917 79.1794H347.344C349.723 79.1794 351.693 81.2234 351.693 83.7784V122.34C351.656 124.855 349.723 126.899 347.307 126.899Z" stroke="white" stroke-opacity="0.4" stroke-miterlimit="10"/>
<path d="M354.663 126.899H298.535C295.659 126.899 293.277 124.82 293.277 122.221V83.035C293.277 80.4759 295.614 78.3566 298.535 78.3566H354.663C357.539 78.3566 359.92 80.4359 359.92 83.035V122.261C359.92 124.82 357.584 126.899 354.663 126.899Z" fill="#4675CE" stroke="white" stroke-opacity="0.4" stroke-miterlimit="10"/>
<path d="M236.211 148.219H227.568C226.029 148.219 224.806 146.994 224.806 145.452V100.492C224.806 98.9503 226.029 97.7245 227.568 97.7245H236.211C237.75 97.7245 238.974 98.9503 238.974 100.492V145.452C238.974 146.994 237.75 148.219 236.211 148.219Z" fill="#4675CE" stroke="white" stroke-opacity="0.4" stroke-miterlimit="10"/>
<path d="M228.989 148.219H220.346C218.807 148.219 217.583 146.994 217.583 145.452V100.492C217.583 98.9503 218.807 97.7245 220.346 97.7245H228.989C230.528 97.7245 231.752 98.9503 231.752 100.492V145.452C231.752 146.994 230.489 148.219 228.989 148.219Z" fill="#4675CE" stroke="white" stroke-opacity="0.4" stroke-miterlimit="10"/>
<path d="M231.83 125.681L232.225 146.796C232.225 147.587 232.857 148.219 233.646 148.219H353.307L352.912 125.681H231.83Z" fill="#4675CE" stroke="white" stroke-opacity="0.4" stroke-miterlimit="10"/>
<path d="M231.83 131.335V128.053L350.465 129.081L350.426 131.77" stroke="white" stroke-opacity="0.4" stroke-miterlimit="10"/>
<path d="M291.227 120.501C289.332 120.501 242.013 120.422 240.513 120.224C239.29 120.066 233.883 120.184 231.83 120.224V129.912C239.842 130.03 314.906 130.861 318.971 130.861C323.313 130.861 350.268 130.347 350.268 130.347V121.45C350.268 121.41 293.121 120.501 291.227 120.501Z" fill="#4675CE" stroke="white" stroke-opacity="0.4" stroke-miterlimit="10"/>
<path d="M358.477 148.219H349.834C348.295 148.219 347.071 146.994 347.071 145.452V100.492C347.071 98.9503 348.295 97.7245 349.834 97.7245H358.477C360.016 97.7245 361.239 98.9503 361.239 100.492V145.452C361.239 146.994 359.977 148.219 358.477 148.219Z" fill="#4675CE" stroke="white" stroke-opacity="0.4" stroke-miterlimit="10"/>
<path d="M349.676 148.219H341.033C339.494 148.219 338.27 146.994 338.27 145.452V100.492C338.27 98.9503 339.494 97.7245 341.033 97.7245H349.676C351.215 97.7245 352.439 98.9503 352.439 100.492V145.452C352.439 146.994 351.215 148.219 349.676 148.219Z" fill="#4675CE" stroke="white" stroke-opacity="0.4" stroke-miterlimit="10"/>
</g>
<g opacity="0.3">
<path d="M390.898 30.7803H371.439L376.359 9.245H377.728" stroke="white" stroke-miterlimit="10" stroke-linejoin="round"/>
</g>
<g opacity="0.3">
<path d="M26.18 50.5345H9.84106V71.4126H26.18V50.5345Z" stroke="white" stroke-miterlimit="10"/>
<path d="M16.0767 80.9422V71.4126" stroke="white" stroke-miterlimit="10"/>
<path d="M19.9049 80.9422V71.4126" stroke="white" stroke-miterlimit="10"/>
<path d="M23.1017 80.9422H12.9194V83.631H23.1017V80.9422Z" stroke="white" stroke-miterlimit="10"/>
</g>
<g opacity="0.3">
<path d="M183.808 4.6264H71.1324V144.684H183.808V4.6264Z" stroke="white" stroke-miterlimit="10"/>
<path d="M155.669 104.944H98.877V37.6834H155.669V104.944V104.944ZM94.6147 37.6834H74.5265V67.5771H94.6147V37.6834ZM159.931 34.1246H180.453V7.63159H159.931V34.1246ZM155.669 7.63159H129.424V34.1246H155.669V7.63159ZM98.877 34.1246H125.122V7.63159H98.877V34.1246ZM94.6147 71.0963H74.5265V104.944H94.6147V71.0963ZM180.453 37.6834H159.931V67.3398H180.453V37.6834ZM159.931 71.3335V104.944H180.453V71.3335H159.931V71.3335ZM94.6147 34.1246V7.63159H74.5265V34.1246H94.6147Z" stroke="white" stroke-miterlimit="10"/>
<path d="M155.669 7.63159H133.647V34.1246H155.669V7.63159Z" stroke="white" stroke-miterlimit="10"/>
<path d="M125.161 7.63159H103.139V34.1246H125.161V7.63159Z" stroke="white" stroke-miterlimit="10"/>
<path d="M180.453 7.63159H164.193V34.1246H180.453V7.63159Z" stroke="white" stroke-miterlimit="10"/>
<path d="M94.6147 37.6834H78.7889V67.5771H94.6147V37.6834Z" stroke="white" stroke-miterlimit="10"/>
<path d="M180.453 37.6834H164.193V67.3398H180.453V37.6834Z" stroke="white" stroke-miterlimit="10"/>
<path d="M180.453 71.3336H164.193V104.944H180.453V71.3336Z" stroke="white" stroke-miterlimit="10"/>
<path d="M94.6147 7.63159H78.7889V34.1246H94.6147V7.63159Z" stroke="white" stroke-miterlimit="10"/>
<path d="M155.669 37.6834H103.139V104.944H155.669V37.6834Z" stroke="white" stroke-miterlimit="10"/>
<path d="M94.6147 71.0963H78.7889V104.944H94.6147V71.0963Z" stroke="white" stroke-miterlimit="10"/>
<path d="M96.7853 111.192H74.7633V139.385H96.7853V111.192Z" stroke="white" stroke-miterlimit="10"/>
<path d="M93.9832 114.75H77.5654V135.787H93.9832V114.75Z" stroke="white" stroke-miterlimit="10"/>
<path d="M179.427 111.192H157.405V139.385H179.427V111.192Z" stroke="white" stroke-miterlimit="10"/>
<path d="M176.625 114.75H160.207V135.787H176.625V114.75Z" stroke="white" stroke-miterlimit="10"/>
<path d="M125.517 111.192H99.7453V124.043H125.517V111.192Z" stroke="white" stroke-miterlimit="10"/>
<path d="M122.162 113.643H103.139V121.552H122.162V113.643Z" stroke="white" stroke-miterlimit="10"/>
<path d="M125.517 127.048H99.7453V139.899H125.517V127.048Z" stroke="white" stroke-miterlimit="10"/>
<path d="M122.162 129.539H103.139V137.447H122.162V129.539Z" stroke="white" stroke-miterlimit="10"/>
<path d="M154.445 111.192H128.674V124.043H154.445V111.192Z" stroke="white" stroke-miterlimit="10"/>
<path d="M151.091 113.643H132.068V121.552H151.091V113.643Z" stroke="white" stroke-miterlimit="10"/>
<path d="M154.445 127.048H128.674V139.899H154.445V127.048Z" stroke="white" stroke-miterlimit="10"/>
<path d="M151.091 129.539H132.068V137.447H151.091V129.539Z" stroke="white" stroke-miterlimit="10"/>
<path d="M113.953 117.597C113.953 116.886 113.361 116.293 112.651 116.293C111.94 116.293 111.348 116.886 111.348 117.597C111.348 118.309 111.94 118.902 112.651 118.902C113.361 118.902 113.953 118.309 113.953 117.597Z" stroke="white" stroke-miterlimit="10"/>
<path d="M142.803 117.597C142.803 116.886 142.211 116.293 141.5 116.293C140.79 116.293 140.198 116.886 140.198 117.597C140.198 118.309 140.79 118.902 141.5 118.902C142.211 118.902 142.803 118.309 142.803 117.597Z" stroke="white" stroke-miterlimit="10"/>
<path d="M113.953 133.454C113.953 132.742 113.361 132.149 112.651 132.149C111.94 132.149 111.348 132.742 111.348 133.454C111.348 134.166 111.94 134.759 112.651 134.759C113.361 134.759 113.953 134.205 113.953 133.454Z" stroke="white" stroke-miterlimit="10"/>
<path d="M92.3257 126.297C93.045 126.297 93.6281 125.713 93.6281 124.992C93.6281 124.271 93.045 123.687 92.3257 123.687C91.6064 123.687 91.0233 124.271 91.0233 124.992C91.0233 125.713 91.6064 126.297 92.3257 126.297Z" stroke="white" stroke-miterlimit="10"/>
<path d="M162.693 126.297C163.413 126.297 163.996 125.713 163.996 124.992C163.996 124.271 163.413 123.687 162.693 123.687C161.974 123.687 161.391 124.271 161.391 124.992C161.391 125.713 161.974 126.297 162.693 126.297Z" stroke="white" stroke-miterlimit="10"/>
<path d="M141.5 134.759C142.22 134.759 142.803 134.174 142.803 133.454C142.803 132.733 142.22 132.149 141.5 132.149C140.781 132.149 140.198 132.733 140.198 133.454C140.198 134.174 140.781 134.759 141.5 134.759Z" stroke="white" stroke-miterlimit="10"/>
<path d="M194.74 4.6264H183.808V144.802H194.74V4.6264Z" stroke="white" stroke-miterlimit="10"/>
<path d="M113.322 30.9217C117.594 30.9217 121.057 27.4518 121.057 23.1715C121.057 18.8912 117.594 15.4213 113.322 15.4213C109.049 15.4213 105.586 18.8912 105.586 23.1715C105.586 27.4518 109.049 30.9217 113.322 30.9217Z" stroke="white" stroke-miterlimit="10"/>
<path d="M105.823 34.2828L109.217 29.6564" stroke="white" stroke-miterlimit="10"/>
<path d="M120.82 34.2828L117.426 29.6564" stroke="white" stroke-miterlimit="10"/>
<path d="M90.0762 55.5563H81.9857V67.5375H90.0762V55.5563Z" stroke="white" stroke-miterlimit="10"/>
<path d="M82.7355 55.5564L81.4331 50.2182L82.8144 51.9185L82.3803 45.5523L84.2352 51.1672V42.9425L85.7744 51.4045L87.1951 46.1454L87.6687 51.7603L88.9711 47.1735L88.2607 53.342L90.9444 48.5179L89.5236 55.4773" stroke="white" stroke-miterlimit="10"/>
</g>
<g opacity="0.3">
<path d="M54.6744 86.399H4.31586V144.684H54.6744V86.399Z" stroke="white" stroke-miterlimit="10"/>
<path d="M57.8317 83.6706H1.198V86.399H57.8317V83.6706Z" stroke="white" stroke-miterlimit="10"/>
<path d="M51.6355 88.5738H6.7627V104.351H51.6355V88.5738Z" stroke="white" stroke-miterlimit="10"/>
<path d="M32.8103 94.3469H24.6408V96.1658H32.8103V94.3469Z" stroke="white" stroke-miterlimit="10"/>
<path d="M51.6355 107.712H6.7627V123.489H51.6355V107.712Z" stroke="white" stroke-miterlimit="10"/>
<path d="M32.8103 113.485H24.6408V115.304H32.8103V113.485Z" stroke="white" stroke-miterlimit="10"/>
<path d="M51.6355 126.85H6.7627V142.628H51.6355V126.85Z" stroke="white" stroke-miterlimit="10"/>
<path d="M32.8103 132.623H24.6408V134.442H32.8103V132.623Z" stroke="white" stroke-miterlimit="10"/>
</g>
<defs>
<clipPath id="clip0_1347_1228">
<rect width="285.497" height="145" fill="white" transform="translate(97.4607)"/>
</clipPath>
</defs>
</svg>
