<svg id="Слой_1" data-name="Слой 1" xmlns="http://www.w3.org/2000/svg" viewBox="0 0 712.4 371.5"><defs><style>.cls-1{opacity:0.3;}.cls-11,.cls-13,.cls-2,.cls-3,.cls-4{fill:none;}.cls-2,.cls-3{stroke:#000;}.cls-10,.cls-13,.cls-2,.cls-9{stroke-linejoin:round;}.cls-11,.cls-12,.cls-3,.cls-4,.cls-6,.cls-7,.cls-8{stroke-miterlimit:10;}.cls-4{stroke:#5e5e5e;stroke-width:4px;}.cls-5,.cls-8{fill:#4675ce;}.cls-12,.cls-6,.cls-9{fill:#fff;}.cls-10,.cls-13,.cls-6,.cls-7,.cls-8,.cls-9{stroke:#263238;}.cls-10,.cls-7{fill:#263238;}.cls-10,.cls-13,.cls-9{stroke-linecap:round;}.cls-11,.cls-12{stroke:#b2b2b2;}.cls-14{fill:#e8e8e8;}</style></defs><g id="Lamp_2" data-name="Lamp 2"><g class="cls-1"><polyline class="cls-2" points="493.5 5.1 533.5 5.1 546.9 63.2 529.7 63.2"/><polyline class="cls-2" points="525 63.2 472.4 63.2 485.7 5.1 489.4 5.1"/><line class="cls-2" x1="512.9" y1="129.6" x2="512.9" y2="363.7"/><line class="cls-2" x1="512.9" y1="118.9" x2="512.9" y2="124.2"/><polyline class="cls-2" points="506.4 298 506.4 63.2 512.9 63.2 512.9 114.5"/><line class="cls-2" x1="506.4" y1="363.7" x2="506.4" y2="304.4"/><rect class="cls-2" x="478.7" y="363.7" width="59.4" height="6.82"/></g></g><g id="Lamp_1" data-name="Lamp 1"><g class="cls-1"><rect class="cls-3" x="29.5" y="132.4" width="41.4" height="52.8"/><line class="cls-3" x1="45.3" y1="209.3" x2="45.3" y2="185.2"/><line class="cls-3" x1="55" y1="209.3" x2="55" y2="185.2"/><rect class="cls-3" x="37.3" y="209.3" width="25.8" height="6.76"/></g></g><g id="Furniture_2" data-name="Furniture 2"><g class="cls-1"><rect class="cls-3" x="149.2" y="16.3" width="285.5" height="354.21"/><path class="cls-3" d="M363.4,270H219.5V99.9H363.4ZM208.7,99.9H157.8v75.6h50.9ZM374.2,91h52V23.9h-52ZM363.4,23.9H296.8V91h66.6ZM219.5,91H286V23.9H219.5Zm-10.8,93.4H157.8V270h50.9ZM426.2,99.9h-52V175h52Zm-52,85.1v85h52V185ZM208.7,91V23.9H157.8V91Z"/><rect class="cls-3" x="307.6" y="23.9" width="55.8" height="67.05"/><rect class="cls-3" x="230.3" y="23.9" width="55.8" height="67.05"/><rect class="cls-3" x="385" y="23.9" width="41.2" height="67.05"/><rect class="cls-3" x="168.6" y="99.9" width="40.1" height="75.6"/><rect class="cls-3" x="385" y="99.9" width="41.2" height="75.04"/><rect class="cls-3" x="385" y="185" width="41.2" height="85.03"/><rect class="cls-3" x="168.6" y="23.9" width="40.1" height="67.05"/><rect class="cls-3" x="230.3" y="99.9" width="133.1" height="170.07"/><rect class="cls-3" x="168.6" y="184.4" width="40.1" height="85.59"/><rect class="cls-3" x="158.4" y="285.8" width="55.8" height="71.34"/><rect class="cls-3" x="165.5" y="294.9" width="41.6" height="53.16"/><rect class="cls-3" x="367.8" y="285.8" width="55.8" height="71.34"/><rect class="cls-3" x="374.9" y="294.9" width="41.6" height="53.16"/><rect class="cls-3" x="221.7" y="285.8" width="65.3" height="32.51"/><rect class="cls-3" x="230.3" y="292" width="48.2" height="19.97"/><rect class="cls-3" x="221.7" y="325.9" width="65.3" height="32.51"/><rect class="cls-3" x="230.3" y="332.2" width="48.2" height="19.97"/><rect class="cls-3" x="295" y="285.8" width="65.3" height="32.51"/><rect class="cls-3" x="303.6" y="292" width="48.2" height="19.97"/><rect class="cls-3" x="295" y="325.9" width="65.3" height="32.51"/><rect class="cls-3" x="303.6" y="332.2" width="48.2" height="19.97"/><path class="cls-3" d="M257.7,302a3.3,3.3,0,1,0-3.3,3.3h0A3.3,3.3,0,0,0,257.7,302Z"/><path class="cls-3" d="M330.8,302a3.3,3.3,0,1,0-3.3,3.3h0a3.3,3.3,0,0,0,3.3-3.3Z"/><path class="cls-3" d="M257.7,342.2a3.3,3.3,0,1,0-3.3,3.3,3.3,3.3,0,0,0,3.3-3.3Z"/><circle class="cls-3" cx="202.9" cy="320.7" r="3.3"/><circle class="cls-3" cx="381.2" cy="320.7" r="3.3"/><circle class="cls-3" cx="327.5" cy="342.2" r="3.3"/><rect class="cls-3" x="434.7" y="16.3" width="27.7" height="354.51"/><circle class="cls-3" cx="256.1" cy="63.2" r="19.6"/><line class="cls-3" x1="237.1" y1="91.3" x2="245.7" y2="79.7"/><line class="cls-3" x1="275.1" y1="91.3" x2="266.5" y2="79.7"/><rect class="cls-3" x="176.7" y="145.1" width="20.5" height="30.29"/><polyline class="cls-3" points="178.6 145.1 175.3 131.7 178.8 135.9 177.7 119.9 182.4 134 182.4 113.2 186.3 134.6 189.9 121.3 191.1 135.5 194.4 123.9 192.6 139.5 199.4 127.3 195.8 144.9"/></g></g><g id="Furniture_1" data-name="Furniture 1"><g class="cls-1"><rect class="cls-3" x="15.5" y="223.2" width="127.6" height="147.36"/><rect class="cls-3" x="7.6" y="216.2" width="143.5" height="6.91"/><rect class="cls-3" x="21.7" y="228.6" width="113.7" height="39.94"/><rect class="cls-3" x="67" y="243.2" width="20.7" height="4.61"/><rect class="cls-3" x="21.7" y="277" width="113.7" height="39.94"/><rect class="cls-3" x="67" y="291.6" width="20.7" height="4.61"/><rect class="cls-3" x="21.7" y="325.4" width="113.7" height="39.94"/><rect class="cls-3" x="67" y="340" width="20.7" height="4.61"/></g></g><g id="Picture"><g class="cls-1"><path class="cls-3" d="M599.5,26.6V170.3H703.1V26.6Zm99.1,137.5H604V32.8h94.6Z"/><path class="cls-3" d="M624.8,154.1a41.1,41.1,0,0,1-9.5,10h83.3V32.8H683.2l-2,.6c-15,4.8-30.5,18.5-39.3,43.3"/><path class="cls-3" d="M640.5,81.1a145.6,145.6,0,0,0-5.8,36.5c-.5,14.9-3.7,25.5-7.9,33.2"/><path class="cls-3" d="M689.3,66.1c-13.7,8.1-29.7,21.5-35.7,42.1-3.2,11-.2,20.9,5.7,29.4"/><path class="cls-3" d="M662.6,141.7c8.2,9.7,20,17.3,29.5,22.4h6.5V61.3a65.4,65.4,0,0,0-5.9,3"/><path class="cls-3" d="M619.7,67c7.3-14.7,8.1-26.4,7.2-34.2H604V92.9c3.4-4.8,7.5-11.3,12.5-19.9l.9-1.5"/><path class="cls-3" d="M628.7,123.9c-1.1,7.3-4.5,12.5-8.4,12.5s-8.8-8-8.8-17.9,3.9-17.9,8.8-17.9,8.8,8.1,8.8,17.9"/><path class="cls-3" d="M632.9,81.8c0,3.8-1.7,6.9-3.8,6.9s-3.8-3.1-3.8-6.9,1.7-6.9,3.8-6.9S632.9,78,632.9,81.8Z"/><path class="cls-3" d="M680.8,111c3.7,1.7,6.1,4.7,6.1,8.2,0,5.4-5.9,9.7-13.2,9.7s-13.2-4.3-13.2-9.7,5.9-9.8,13.2-9.8a19.7,19.7,0,0,1,3.4.4"/><path class="cls-3" d="M679.2,119.2c0,2.2-2.5,4.1-5.5,4.1s-5.6-1.9-5.6-4.1,2.5-4.1,5.6-4.1S679.2,116.9,679.2,119.2Z"/><ellipse class="cls-3" cx="681.2" cy="94.4" rx="6.9" ry="5.7"/><ellipse class="cls-3" cx="638.2" cy="51.3" rx="4.7" ry="11.6"/><path class="cls-3" d="M651.1,151.2a6.6,6.6,0,1,1-6.6-6.6h0A6.8,6.8,0,0,1,651.1,151.2Z"/><path class="cls-3" d="M681.8,53.2a4.1,4.1,0,1,1-4.2-4h.2A4,4,0,0,1,681.8,53.2Z"/><path class="cls-3" d="M656.1,82.1a2.2,2.2,0,1,1-2.2-2.2,2.2,2.2,0,0,1,2.2,2.2Z"/><rect class="cls-3" x="604" y="32.8" width="94.6" height="131.28"/></g></g><g id="Plant"><line class="cls-4" x1="623.6" y1="279.5" x2="623.6" y2="169.1"/><line class="cls-4" x1="609.9" y1="281.7" x2="609.9" y2="129.3"/><line class="cls-4" x1="641" y1="282.4" x2="641" y2="228.9"/><path class="cls-5" d="M604.6,144.3s-2.8-5-12-16-47.2-40.9-47.2-40.9,21.5,11.5,28.4,17.4,16.1,13.4,16.1,13.4-25.7-28-28.5-29.9,26.2,22.1,26.2,22.1-11-22.1-16.5-29.4S555,56.2,555,56.2s29.8,39.9,31.2,42.2l7.4,12.4L583,83.3l12.9,22.5-19.3-40c-.9-1.8,12.8,17.9,12.8,17.9L577.5,47.9,605,104.4l-1.8-22.1,5.1,23,1.3-56.5,3.2,56s5.1-35.8,6-43.1,1.4-15.2,1.4-15.2-.9,48.7-.9,50.1-.9,12.4-.9,12.4,6.8-20.7,8.7-26.2,3.7-24.3,4.6-27.1-4.6,42.3-5.1,44.1a45.4,45.4,0,0,1-3.2,8.7c-1.4,2.8,10.1-16.5,14.2-24.8s12-23.9,12-23.9-6.9,23-8.7,27.1-13.8,26.2-13.8,26.2S645,92,652.8,86.5s22-16.1,22-16.1-22.9,24.8-27.5,29.4-17.9,20.7-17.9,20.7,22.9-14.7,24.3-16.1,17.9-12,17.9-12-33.3,26.4-34.9,28.1c-13.3,14.2-17.9,21.1-20.6,23.8S608.7,148.5,604.6,144.3Z"/><path class="cls-5" d="M620.4,184.6s-1.9-3.6-8.4-11.4-33.5-28.9-33.5-28.9,15.3,8.1,20.2,12.3l11.3,9.5s-18.2-19.8-20.1-21.1,18.5,15.5,18.5,15.5-7.8-15.5-11.7-20.7-11.3-17.6-11.3-17.6,21.1,28.3,22,29.9l5.2,8.8-7.4-19.5,9.1,15.9s-13-27-13.7-28.3,9.1,12.7,9.1,12.7l-8.4-25.3,19.5,39.9-1.3-15.6L623,157l1-40,2.3,39.6s3.5-25.3,4.2-30.5,1-10.7,1-10.7-.7,34.4-.7,35.4-.6,8.8-.6,8.8l6.1-18.5c1.3-3.9,2.6-17.3,3.3-19.2s-3.3,29.9-3.6,31.2a31.9,31.9,0,0,1-2.3,6.1c-.9,2,7.2-11.6,10.1-17.5l8.5-16.9s-4.9,16.3-6.2,19.2-9.8,18.5-9.8,18.5,12.7-14.9,18.2-18.8,15.6-11.4,15.6-11.4-16.2,17.5-19.5,20.8S638,167.7,638,167.7s16.2-10.4,17.2-11.4,12.6-8.4,12.6-8.4-23.5,18.6-24.6,19.8c-9.5,10.1-12.7,14.9-14.7,16.9a5.4,5.4,0,0,1-7.6.5Z"/><path class="cls-5" d="M637,230.9s-2-3.5-8.5-11.3-33.4-28.9-33.4-28.9,15.2,8.1,20.1,12.3,11.4,9.4,11.4,9.4-18.2-19.8-20.2-21.1,18.5,15.6,18.5,15.6-7.8-15.6-11.7-20.8-11.3-17.5-11.3-17.5S623,196.8,624,198.5l5.2,8.7-7.5-19.4,9.1,15.9s-13-27-13.7-28.3,9.1,12.7,9.1,12.7l-8.4-25.4,19.5,40L636,187.1l3.6,16.2.9-39.9,2.3,39.6s3.6-25.3,4.2-30.5,1-10.7,1-10.7-.7,34.4-.7,35.4-.6,8.7-.6,8.7l6.2-18.5c1.3-3.9,2.6-17.2,3.2-19.1s-3.2,29.8-3.6,31.1a45.7,45.7,0,0,1-2.2,6.2c-1,2,7.1-11.7,10-17.5l8.5-16.9s-4.9,16.2-6.2,19.2-9.7,18.5-9.7,18.5,12.6-15,18.2-18.9,15.5-11.3,15.5-11.3-16.2,17.5-19.4,20.7-12.7,14.7-12.7,14.7,16.2-10.4,17.2-11.4,12.7-8.4,12.7-8.4-23.6,18.6-24.7,19.8c-9.4,10-12.7,14.9-14.6,16.8S639.9,233.9,637,230.9Z"/><path class="cls-6" d="M657.5,318.1c0,21.7-5.7,40.9-14.4,52.4H604.5C595.7,359,590,339.8,590,318.1c0-1.8.1-3.7.2-5.6a108.9,108.9,0,0,1,1.5-14l.9-5c.3-1.3.7-2.7,1-4a76,76,0,0,1,6.4-16.6h47.6a71,71,0,0,1,6.3,16.6c.4,1.3.7,2.7,1,4s.7,3.3,1,5a108.9,108.9,0,0,1,1.5,14C657.5,314.4,657.5,316.3,657.5,318.1Z"/><path class="cls-7" d="M653.9,289.5H593.6c-.3,1.3-.7,2.7-1,4h62.3C654.6,292.2,654.3,290.8,653.9,289.5Zm2,9H591.7a108.9,108.9,0,0,0-1.5,14h67.2A108.9,108.9,0,0,0,655.9,298.5Z"/></g><g id="Couch"><rect class="cls-8" x="235.7" y="195.9" width="148.2" height="121.45" rx="11.7"/><polygon class="cls-7" points="247.1 248.3 254.3 302.3 244.7 302.3 247.1 248.3"/><rect class="cls-8" x="405.3" y="195.9" width="148.2" height="121.45" rx="11.7"/><rect class="cls-8" x="383.9" y="195.9" width="148.2" height="121.45" rx="11.7"/><path class="cls-9" d="M523.2,240.1s-24.6-8.3-41.2-10.9-21.4-5.7-21.4-5.7a35.1,35.1,0,0,0-.9,6.5c0,2.2-3.5,14.1-5.7,26.3s-4.4,25-4.4,25-2.9,9.3-3.2,12.4c-.1,1-3.4,4.6.1,7.2s9.2-1.7,9.2-1.7,16.7,3.5,30.7,3.5a196.2,196.2,0,0,0,27.6-2.2s4.8,3.1,6.5-.4l1.8-3.5c.4-11.4,4.4-28.5,5.2-50.8C527.7,241.4,532.4,240.1,523.2,240.1Z"/><rect class="cls-8" x="211.3" y="242.9" width="35.9" height="127.67" rx="7"/><rect class="cls-8" x="192.9" y="242.9" width="35.9" height="127.67" rx="7"/><path class="cls-8" d="M229,313.5l1,53.4a3.6,3.6,0,0,0,3.6,3.6H536.8l-1-57Z"/><path class="cls-7" d="M229,319.5v8.2c17.8-.2,98.5-1,118.3-1,23.3,0,66.4,1.5,77.1,1.5l105,.7.2-6.7Z"/><path class="cls-8" d="M379.5,300.4c-4.7,0-124.7-.2-128.5-.7s-16.8-.2-22-.1v24.5c20.3.2,210.5,2.4,220.8,2.4s79.3-1.3,79.3-1.3V302.7Z"/><rect class="cls-8" x="521" y="242.9" width="35.9" height="127.67" rx="7"/><rect class="cls-8" x="498.7" y="242.9" width="35.9" height="127.67" rx="7"/></g><g id="Table"><path class="cls-9" d="M297.8,268.5a39.4,39.4,0,0,0,70.5,0Z"/><path class="cls-10" d="M423.5,288.4H326.3v82.1h97.3V288.6C423.6,288.5,423.6,288.5,423.5,288.4ZM420.3,365H329.6V293.9h90.6c.1,0,.1.1.1.2Z"/><path class="cls-10" d="M356,288.4H258.8v82.1h97.3V288.6C356.1,288.5,356.1,288.4,356,288.4ZM352.8,365H262.1V293.9h90.6c.1,0,.1.1.1.2Z"/><path class="cls-9" d="M256.4,288.4h170a.2.2,0,0,1,.2.2h0v7.1H256.4v-7.3Z"/><path class="cls-10" d="M352.7,288.4h73.7a.2.2,0,0,1,.2.2h0v7.1H352.7v-7.3Z"/></g><g id="Price_Tags" data-name="Price Tags"><rect class="cls-9" x="262.5" y="195.8" width="42.3" height="30.88"/><rect class="cls-5" x="265.2" y="207.7" width="35.5" height="15.11"/><rect class="cls-5" x="268.8" y="201.6" width="28.3" height="2.92"/><rect class="cls-9" x="368.5" y="288.6" width="42.3" height="30.88"/><rect class="cls-5" x="371.1" y="300.5" width="35.5" height="15.11"/><rect class="cls-5" x="374.8" y="294.4" width="28.3" height="2.92"/><rect class="cls-11" x="489.5" y="5.2" width="42.3" height="30.88"/><rect class="cls-5" x="492.1" y="17.1" width="35.5" height="15.11"/><rect class="cls-5" x="495.7" y="11" width="28.3" height="2.92"/><rect class="cls-12" x="308.5" y="91.5" width="42.3" height="30.88"/><rect class="cls-5" x="311.2" y="103.4" width="35.5" height="15.11"/><rect class="cls-5" x="314.8" y="97.3" width="28.3" height="2.92"/><rect class="cls-12" x="24.5" y="216.3" width="42.3" height="30.88"/><rect class="cls-5" x="27.1" y="228.2" width="35.5" height="15.11"/><rect class="cls-5" x="30.7" y="222.1" width="28.3" height="2.92"/></g><g id="Floor"><line class="cls-13" x1="-14.8" y1="370.5" x2="707.6" y2="370.5"/><path class="cls-14" d="M501.1,24.6l.3.2a.8.8,0,0,1-.4.4h-.6a1.7,1.7,0,0,1-1-.3,1.6,1.6,0,0,1-.6-.8,2,2,0,0,1-.3-1.1h0a2.7,2.7,0,0,1,.3-1.2,1.8,1.8,0,0,1,.7-.8l1.2-.2a2,2,0,0,1,1.1.3,1.8,1.8,0,0,1,.8.7,5,5,0,0,1,.2,1.2h0a2.2,2.2,0,0,1-.1.8l-.3,1h-.1L501,28.3h-1.5Zm.1-.9c.2-.1.2-.3.2-.6h0a.8.8,0,0,0-.2-.7l-.5-.2-.6.2a1.9,1.9,0,0,0-.2.7h0a1.4,1.4,0,0,0,.2.6.7.7,0,0,0,.6.3A.5.5,0,0,0,501.2,23.7Z"/><path class="cls-14" d="M506.3,27.8a2,2,0,0,1-.6-1.5V22.9a2,2,0,0,1,.6-1.5,2.7,2.7,0,0,1,3.2,0,2,2,0,0,1,.6,1.5v3.4a2,2,0,0,1-.6,1.5,1.8,1.8,0,0,1-1.6.5A2.4,2.4,0,0,1,506.3,27.8Zm2.2-1.1a1.9,1.9,0,0,0,.2-.8V23.3a1.9,1.9,0,0,0-.2-.8.8.8,0,0,0-1.1-.1h-.1a1.9,1.9,0,0,0-.2.8v2.6a1.9,1.9,0,0,0,.2.8.8.8,0,0,0,1,.2Z"/><path class="cls-14" d="M511.9,27.8a2.7,2.7,0,0,1-.5-1.5V22.9a2.7,2.7,0,0,1,.5-1.5,3.4,3.4,0,0,1,1.7-.5,3,3,0,0,1,1.6.5,2,2,0,0,1,.6,1.5v3.4a2,2,0,0,1-.6,1.5,1.8,1.8,0,0,1-1.6.5A3.4,3.4,0,0,1,511.9,27.8Zm2.3-1.1a1.9,1.9,0,0,0,.2-.8V23.3a1.9,1.9,0,0,0-.2-.8l-.6-.3a.7.7,0,0,0-.6.3c-.2.2-.2.4-.2.8v2.6c0,.4,0,.6.2.8a.7.7,0,0,0,.6.3Z"/><path class="cls-14" d="M517.6,27.8a2.1,2.1,0,0,1-.5-1.5V22.9a2.1,2.1,0,0,1,.5-1.5,3,3,0,0,1,1.6-.5,2.6,2.6,0,0,1,1.7.5,2.7,2.7,0,0,1,.5,1.5v3.4a2.7,2.7,0,0,1-.5,1.5,2.2,2.2,0,0,1-1.7.5A3,3,0,0,1,517.6,27.8Zm2.3-1.1a2.2,2.2,0,0,0,.1-.8V23.3a2.2,2.2,0,0,0-.1-.8.9.9,0,0,0-.7-.3.9.9,0,0,0-.6.3,1.9,1.9,0,0,0-.2.8v2.6a1.9,1.9,0,0,0,.2.8.9.9,0,0,0,.6.3.9.9,0,0,0,.7-.3Z"/><path class="cls-14" d="M317.6,111.2h.2a.3.3,0,0,1-.3.3H317c-.4,0-.7,0-.9-.2a1.3,1.3,0,0,1-.6-.7,1.8,1.8,0,0,1-.2-1h0a1.4,1.4,0,0,1,.2-1.1,1.2,1.2,0,0,1,.7-.7,1.7,1.7,0,0,1,1-.3,2,2,0,0,1,1.1.3,1.1,1.1,0,0,1,.6.7,2,2,0,0,1,.3,1.1h0c0,.2-.1.5-.1.7l-.3.9h-.1l-1.2,2.9h-1.3Zm.1-.8a1.9,1.9,0,0,0,.2-.7h0a.8.8,0,0,0-.2-.5c-.1-.2-.3-.2-.5-.2s-.4,0-.5.2a.8.8,0,0,0-.2.5h0a1.4,1.4,0,0,0,.2.6l.5.2Z"/><path class="cls-14" d="M321.2,114.3a2.3,2.3,0,0,1-.7-.7,2,2,0,0,1-.3-1.1h1.3a1.4,1.4,0,0,0,.2.6c.1.2.3.2.5.2s.4,0,.5-.2a1.4,1.4,0,0,0,.2-.6v-.6a1.4,1.4,0,0,0-.2-.6l-.4-.2-.5.2c-.1,0-.2.2-.3.3h-1.1v-3.8h3.5V109h-2.3v1.2l.4-.2h.5l.9.2a1.8,1.8,0,0,1,.5.7,2,2,0,0,1,.2,1.1v.6a2,2,0,0,1-.2,1.1,2,2,0,0,1-2.7.7Z"/><path class="cls-14" d="M327.4,114a2.1,2.1,0,0,1-.5-1.3v-3.1a2.4,2.4,0,0,1,.5-1.4,2.7,2.7,0,0,1,1.5-.5,2.1,2.1,0,0,1,1.5.5,1.6,1.6,0,0,1,.5,1.4v3.1a1.3,1.3,0,0,1-.5,1.3,1.7,1.7,0,0,1-1.5.5A2.1,2.1,0,0,1,327.4,114Zm2.1-.9a1.9,1.9,0,0,0,.2-.8v-2.4a1.9,1.9,0,0,0-.2-.7.7.7,0,0,0-.6-.3.5.5,0,0,0-.5.3.8.8,0,0,0-.2.7v2.4c0,.4,0,.6.2.8l.5.2Z"/><path class="cls-14" d="M332.6,114a2.1,2.1,0,0,1-.5-1.3v-3.1a2.4,2.4,0,0,1,.5-1.4,2.7,2.7,0,0,1,1.5-.5,2.1,2.1,0,0,1,1.5.5,2.4,2.4,0,0,1,.5,1.4v3.1a2.1,2.1,0,0,1-.5,1.3,1.7,1.7,0,0,1-1.5.5A2.1,2.1,0,0,1,332.6,114Zm2.1-.9a2.2,2.2,0,0,0,.1-.8v-2.4a1.7,1.7,0,0,0-.1-.7.7.7,0,0,0-.6-.3.9.9,0,0,0-.6.3,1.7,1.7,0,0,0-.1.7v2.4a2.2,2.2,0,0,0,.1.8l.6.2Z"/><path class="cls-14" d="M337.8,114a2.1,2.1,0,0,1-.5-1.3v-3.1a2.4,2.4,0,0,1,.5-1.4,2.1,2.1,0,0,1,1.5-.5,2.7,2.7,0,0,1,1.5.5,2.4,2.4,0,0,1,.5,1.4v3.1a1.7,1.7,0,0,1-2,1.8A1.7,1.7,0,0,1,337.8,114Zm2-.9c.2-.2.2-.4.2-.8v-2.4a.8.8,0,0,0-.2-.7.5.5,0,0,0-.5-.3.7.7,0,0,0-.6.3,1.9,1.9,0,0,0-.2.7v2.4a1.9,1.9,0,0,0,.2.8l.6.2Z"/><path class="cls-14" d="M269.5,218.6h-1.3v-5.2l-.8.3v-1.3l1-.4h1.1Z"/><path class="cls-14" d="M270.7,217.5l2.3-3,.2-.4a.6.6,0,0,0,.1-.4h0c0-.2,0-.4-.2-.5h-.5l-.5.2a1.4,1.4,0,0,0-.2.6h-1.3a2,2,0,0,1,.3-1.1l.7-.7,1-.2,1.1.2a1.1,1.1,0,0,1,.7.6,1.5,1.5,0,0,1,.2.9h0a1.5,1.5,0,0,1-.2.9,1.2,1.2,0,0,1-.4.8l-1.7,2.1h2.3v1.2h-3.9Z"/><path class="cls-14" d="M276.1,218.2a2.4,2.4,0,0,1-.5-1.4v-3a1.9,1.9,0,0,1,1.7-1.9h.3a1.8,1.8,0,0,1,2,1.9v3a1.6,1.6,0,0,1-.5,1.4,2,2,0,0,1-1.5.5A3,3,0,0,1,276.1,218.2Zm2.1-1a1,1,0,0,0,.2-.7v-2.4a1.1,1.1,0,0,0-.2-.8l-.6-.2-.5.2a1.9,1.9,0,0,0-.2.8v2.4a1.4,1.4,0,0,0,.2.7.5.5,0,0,0,.5.3A.6.6,0,0,0,278.2,217.2Z"/><path class="cls-14" d="M282.9,218.2a2.4,2.4,0,0,1-.5-1.4v-3a1.9,1.9,0,0,1,1.7-1.9h.3a1.8,1.8,0,0,1,2,1.9v3a1.6,1.6,0,0,1-.5,1.4,2,2,0,0,1-1.5.5A3,3,0,0,1,282.9,218.2Zm2.1-1a1,1,0,0,0,.2-.7v-2.4a1.1,1.1,0,0,0-.2-.8l-.6-.2-.5.2a1.9,1.9,0,0,0-.2.8v2.4a1.4,1.4,0,0,0,.2.7.5.5,0,0,0,.5.3.6.6,0,0,0,.6-.3Z"/><path class="cls-14" d="M288.1,218.2a2.4,2.4,0,0,1-.5-1.4v-3a2.4,2.4,0,0,1,.5-1.4,1.7,1.7,0,0,1,1.5-.5,1.8,1.8,0,0,1,2,1.6.2.2,0,0,1,0,.3v3a1.6,1.6,0,0,1-.5,1.4,2.5,2.5,0,0,1-1.5.5A2.3,2.3,0,0,1,288.1,218.2Zm2.1-1a.9.9,0,0,0,.1-.7v-2.4a1.1,1.1,0,0,0-.1-.8l-.6-.2-.6.2c0,.3-.1.5-.1.8v2.4c0,.2.1.5.1.7a.9.9,0,0,0,.6.3A.6.6,0,0,0,290.2,217.2Z"/><path class="cls-14" d="M293.3,218.2a2.4,2.4,0,0,1-.5-1.4v-3a2.4,2.4,0,0,1,.5-1.4,1.7,1.7,0,0,1,1.5-.5,1.8,1.8,0,0,1,2,1.6.2.2,0,0,1,0,.3v3a1.6,1.6,0,0,1-.5,1.4,2.5,2.5,0,0,1-1.5.5A2.3,2.3,0,0,1,293.3,218.2Zm2-1a.6.6,0,0,0,.2-.7v-2.4a.8.8,0,0,0-.2-.8l-.5-.2-.6.2c-.1.2-.1.5-.2.8v2.4c.1.2.1.5.2.7a.9.9,0,0,0,.6.3C295.1,217.5,295.3,217.4,295.3,217.2Z"/><path class="cls-14" d="M32.3,238.1l2.3-3c.1-.2.2-.3.2-.4a.6.6,0,0,0,.1-.4h0l-.2-.4h-.5l-.5.2a1.4,1.4,0,0,0-.2.6H32.2a2,2,0,0,1,.3-1.1l.7-.7,1-.2a2,2,0,0,1,1.1.2,1.3,1.3,0,0,1,.7.6,2.9,2.9,0,0,1,.2.9h0a2.9,2.9,0,0,1-.2.9,2,2,0,0,1-.4.8L34,238h2.2v1.2H32.3Z"/><path class="cls-14" d="M39.5,235.9l.2.2-.4.3h-.5a1.6,1.6,0,0,1-.9-.3c-.2-.2-.5-.4-.6-.7a3.6,3.6,0,0,1-.2-1h0a4.3,4.3,0,0,1,.2-1.1l.7-.7,1.1-.2,1,.2a2.3,2.3,0,0,1,.7.7,4.3,4.3,0,0,1,.2,1.1h0a2.2,2.2,0,0,1-.1.8l-.3.8h0v.2L39.3,239H38Zm.1-.8a1.4,1.4,0,0,0,.2-.6h0a1.4,1.4,0,0,0-.2-.6l-.5-.2-.6.2c-.1.1-.1.3-.1.6h0a1.3,1.3,0,0,0,.1.6l.6.2Z"/><path class="cls-14" d="M44.2,238.8a1.6,1.6,0,0,1-.5-1.4v-3a1.6,1.6,0,0,1,.5-1.4,1.7,1.7,0,0,1,1.5-.5,1.6,1.6,0,0,1,1.4.5,1.8,1.8,0,0,1,.6,1.4v3a2,2,0,0,1-.6,1.4,2.4,2.4,0,0,1-1.4.5A2.1,2.1,0,0,1,44.2,238.8Zm2-1a1.9,1.9,0,0,0,.2-.7v-2.4a1.9,1.9,0,0,0-.2-.8l-.5-.2-.6.2a1.9,1.9,0,0,0-.2.8v2.4a1.9,1.9,0,0,0,.2.7.7.7,0,0,0,.6.3A.5.5,0,0,0,46.2,237.8Z"/><path class="cls-14" d="M49.4,238.8a2,2,0,0,1-.6-1.4v-3a1.8,1.8,0,0,1,.6-1.4,1.6,1.6,0,0,1,1.4-.5,1.7,1.7,0,0,1,1.5.5,1.6,1.6,0,0,1,.5,1.4v3a1.6,1.6,0,0,1-.5,1.4,2.1,2.1,0,0,1-1.5.5A2.4,2.4,0,0,1,49.4,238.8Zm2-1a1.9,1.9,0,0,0,.2-.7v-2.4a1.9,1.9,0,0,0-.2-.8l-.6-.2-.5.2a1.9,1.9,0,0,0-.2.8v2.4a1.9,1.9,0,0,0,.2.7.5.5,0,0,0,.5.3A.7.7,0,0,0,51.4,237.8Z"/><path class="cls-14" d="M54.5,238.8a2.4,2.4,0,0,1-.5-1.4v-3a1.8,1.8,0,0,1,1.7-1.9H56a1.7,1.7,0,0,1,1.5.5,2.4,2.4,0,0,1,.5,1.4v3a2.4,2.4,0,0,1-.5,1.4,2.1,2.1,0,0,1-1.5.5A2.7,2.7,0,0,1,54.5,238.8Zm2.1-1a1.9,1.9,0,0,0,.2-.7v-2.4a1.9,1.9,0,0,0-.2-.8l-.6-.2-.5.2c-.2.2-.2.4-.2.8v2.4a.8.8,0,0,0,.2.7.5.5,0,0,0,.5.3A.7.7,0,0,0,56.6,237.8Z"/><path class="cls-14" d="M379.5,311.5h-1.2v-5.2l-.8.3v-1.3l1-.5h1Z"/><path class="cls-14" d="M381.6,311.4l-.7-.7a1.7,1.7,0,0,1-.3-1h1.3c0,.1.1.3.1.4l.2.2h.4l.5-.2c.2-.2.3-.4.2-.6v-.2a.4.4,0,0,0-.1-.5c0-.2-.2-.3-.5-.3h-.5v-1.2h.9c.1-.2.2-.3.1-.5v-.2c0-.2,0-.3-.1-.4l-.4-.2h-.3l-.3.2v.4h-1.3a1.7,1.7,0,0,1,.3-1,4.6,4.6,0,0,1,.7-.7l1-.2a2.3,2.3,0,0,1,1.4.4,1.4,1.4,0,0,1,.5,1.3v.2a.7.7,0,0,1-.3.8,1,1,0,0,1-.6.5,1.3,1.3,0,0,1,.7.5,1,1,0,0,1,.3,1v.2a1,1,0,0,1-.3,1,1.3,1.3,0,0,1-.6.7l-1.1.2Z"/><path class="cls-14" d="M388.4,311.3a1.9,1.9,0,0,1-.7-.6l-.3-1.1h1.3c.1.2.1.4.2.6l.5.2c.3,0,.5-.1.5-.3s.3-.4.2-.6V309c.1-.2,0-.4-.2-.6s-.2-.2-.4-.2H389l-.3.4h-1.1v-3.9h3.6V306h-2.4v1.1l.4-.2h.5a1.2,1.2,0,0,1,.9.3,1.3,1.3,0,0,1,.6.7,2.1,2.1,0,0,1,.1,1.1v.5a1.4,1.4,0,0,1-.2,1.1,1,1,0,0,1-.7.7A1.8,1.8,0,0,1,388.4,311.3Z"/><path class="cls-14" d="M393,311.1a2.4,2.4,0,0,1-.5-1.4v-3a1.9,1.9,0,0,1,1.7-1.9h.3a1.8,1.8,0,0,1,2,1.9v3a1.6,1.6,0,0,1-.5,1.4,2,2,0,0,1-1.5.5A3,3,0,0,1,393,311.1Zm2.1-1a1,1,0,0,0,.2-.7V307a1.1,1.1,0,0,0-.2-.8.8.8,0,0,0-.6-.2l-.5.2c-.1.2-.1.5-.2.8v2.4c.1.2.1.5.2.7a.5.5,0,0,0,.5.3.6.6,0,0,0,.6-.3Z"/><path class="cls-14" d="M398.2,311.1a2.4,2.4,0,0,1-.5-1.4v-3a1.9,1.9,0,0,1,1.7-1.9h.3a1.8,1.8,0,0,1,2,1.9v3a1.6,1.6,0,0,1-.5,1.4,2,2,0,0,1-1.5.5A3,3,0,0,1,398.2,311.1Zm2.1-1a1,1,0,0,0,.2-.7V307a1.1,1.1,0,0,0-.2-.8.8.8,0,0,0-.6-.2l-.5.2a1.9,1.9,0,0,0-.2.8v2.4a1.4,1.4,0,0,0,.2.7.5.5,0,0,0,.5.3A.6.6,0,0,0,400.3,310.1Z"/></g></svg>