<svg xmlns="http://www.w3.org/2000/svg" viewBox="0 0 500 500"><defs><style>.cls-1,.cls-4,.cls-9{fill:#4675ce;}.cls-10,.cls-2,.cls-5,.cls-7{fill:#fff;}.cls-2{opacity:0.7;}.cls-3{opacity:0.3;}.cls-12,.cls-16,.cls-4,.cls-5,.cls-6,.cls-7,.cls-8,.cls-9{stroke:#263238;}.cls-12,.cls-4,.cls-7{stroke-miterlimit:10;}.cls-16,.cls-5,.cls-6,.cls-8,.cls-9{stroke-linecap:round;stroke-linejoin:round;}.cls-11,.cls-15,.cls-6{fill:#263238;}.cls-8{fill:#dbdbdb;}.cls-12,.cls-16{fill:none;}.cls-13,.cls-14{fill:#e5e5e5;}.cls-14{fill-rule:evenodd;}.cls-15{opacity:0.6;}.cls-17{opacity:0.4;}</style></defs><g id="Floor"><path class="cls-1" d="M322,35.4S185.8,28.8,74.9,104.3s-53.2,298.4-8,346.8c26.8,28.8,174.8,55.5,287.2,6.4S503.4,230.4,487.2,179.3,439.6,49.9,322,35.4Z"/><path class="cls-2" d="M321.8,35.4s-136.2-6.6-247,68.9S2.9,385.7,66.9,451.1c28.9,29.6,174.7,55.5,287.1,6.4S503.2,230.4,487,179.3,439.4,49.9,321.8,35.4Z"/><g class="cls-3"><path d="M100.2,325.4c-.7-4.1-5.9-11.7-5.9-11.7L90.1,319c-2.4,4-4.8,13.1-1.4,17.1A6.2,6.2,0,0,0,98,336C100.5,333.4,100.8,328.8,100.2,325.4Z"/><path d="M120.8,308.2c-1.6-3.6-8.1-9.2-8.6-9.6a115.3,115.3,0,0,0,8.8-11.7c1.6-2.4,3.1-4.8,4.6-7.3l-1,2.5c-1.3,4.5-1.2,13.9,3.2,16.9a6.2,6.2,0,0,0,8.9-2.5c1.7-3.3.7-7.7-.7-10.9s-6.9-8.1-8.4-9.4l1.7-2.8c2.7-4.6,5.4-9.2,8.1-13.6l3-4.5-.9,2.1c-1.3,4.5-1.2,14,3.2,16.9s7.1.7,8.9-2.5.7-7.7-.7-10.9-6.4-7.6-8.1-9.1c1-1.5,2.1-3,3.2-4.4s1.5-2,2.3-2.9l2.4-2.7,4.8-5,3.2-3.2c-.9,1.6-2.8,4.6-2.9,4.9-2,4.2-3.3,13.6.6,17.1a6.1,6.1,0,0,0,9.1-1.1c2.3-2.9,2-7.5,1-10.8s-6.4-10-7-10.8l5.2-5,3.6-3.2-1.8-2.8-4,3.8-5.6,5.6c-.6-.3-3.6-2.5-6.7-4.1.9-3.9,0-11.5-.1-12.5l7.1-1.2,3.4-.6-1.8-2.9-2.2.4-7.8,1.6c-.3-.9-3.4-8.6-6.1-11.3s-6.4-4.9-10.1-4.3a6.2,6.2,0,0,0-5.3,7.5c1.3,5.1,10.2,8.4,14.9,8.7l5.1-.3-3.3.8-6.8,1.7-3.5,1c-1.2.3-2.4.8-3.6,1.2s-5.5,2.1-8.2,3.3c-.4-2-2.1-8.9-4.3-11.8s-5.5-5.7-9.2-5.7-6.8,2.9-6.4,6.6,8.8,9.8,13.3,10.8l5.5.6-4.9,2.2-14.1,7.2-4.3,2.2c-.2-.7-2-9-4.4-12.1s-5.5-5.8-9.2-5.8a6.3,6.3,0,0,0-6.5,6.6c.6,5.3,8.8,9.8,13.4,10.8.4.1,5.2.6,6.4.6-3.1,1.7-6.3,3.2-9.5,4.7a119.9,119.9,0,0,1-13.3,5c0-.4-1.9-9-4.4-12.3s-5.5-5.7-9.2-5.7-6.8,2.9-6.4,6.6,8.7,9.8,13.3,10.8l6.5.6-.8.3A70.2,70.2,0,0,1,59.5,245c-2.6.3-5.1.4-7.6.5-.2-1.7-1.1-9.2-3-12.4s-4.9-6.3-8.5-6.7a6.2,6.2,0,0,0-7.1,5.9c-.1,5.2,7.6,10.7,12.1,12.2l4.6,1H46.7c-4,0-7.6-.3-10.8-.6l-5-.6c-1-1.5-5.3-7.6-8.3-9.5s-7.3-3.3-10.7-2a6.2,6.2,0,0,0-3.6,8.5c2.4,4.7,11.7,6,16.3,5.2a65.9,65.9,0,0,0,6.5-1.8h0l4.8.6a106.9,106.9,0,0,0,10.8.9,111,111,0,0,0,12.8-.2,83.3,83.3,0,0,0,14.3-2.3h.1L68.8,247c-3.6,3-8.7,11-6.7,15.8a6.3,6.3,0,0,0,8.8,2.9c3.3-1.8,4.9-6.1,5.4-9.5s-1.7-12.1-1.8-12.8a94.9,94.9,0,0,0,13.8-4.9l7.8-3.5-2.2,1.5c-3.6,3.1-8.7,11-6.7,15.9a6.3,6.3,0,0,0,8.8,2.8c3.3-1.8,4.9-6,5.5-9.5s-1.3-10.5-1.8-12.4l2.9-1.5,14.3-6.8,4.9-2.2-1.9,1.4c-3.5,3-8.7,10.9-6.6,15.8a6.1,6.1,0,0,0,8.7,2.8c3.3-1.7,4.9-6,5.5-9.4s-1.1-9.9-1.7-12.1a52.7,52.7,0,0,1,5.1-1.9l3.5-1.1,3.5-1,6.7-1.5,4.5-.9-5.1,2.4a25,25,0,0,0-8.1,9.1,4.8,4.8,0,0,0-1.1.9,6.2,6.2,0,0,0-.3,9.2c3.9,3.5,13.1,1.4,17.2-1l4.1-3.1-2.3,2.5c-1.6,1.6-3.1,3.3-4.8,5.2l-2.3,2.7-2.4,3c-1.7,2.3-3.4,4.8-5,7.3-1.4-1.4-6.7-6.3-10-7.4s-7.8-1.8-10.9.3a6.1,6.1,0,0,0-1.7,9c3.3,4.1,12.7,3.4,17.1,1.7l4.9-2.6-2.9,4.6q-3.9,6.8-7.8,13.8l-2.4,4.2c-.5-.5-6.6-6.4-10.3-7.7s-7.8-1.8-10.9.3-4.1,6.1-1.7,9,12.7,3.4,17.1,1.7c.3-.2,4.6-2.4,5.7-3.1-1.8,3.1-3.5,6.2-5.4,9.2a140.5,140.5,0,0,1-8.3,11.5c-.3-.3-6.6-6.5-10.4-7.8s-7.8-1.8-10.9.3a6.2,6.2,0,0,0-1.7,9.1c3.3,4,12.7,3.3,17.1,1.6l5.8-3.1-.5.7a94,94,0,0,1-10.3,9.8c-2,1.6-4.1,3.1-6.1,4.5-1-1.3-6-7-9.3-8.6s-7.5-2.6-10.8-.9a6.1,6.1,0,0,0-2.7,8.8c2.8,4.4,12.3,4.7,16.8,3.5l4.4-1.7-2.7,1.8c-3.3,2.2-6.5,3.9-9.3,5.5l-4.5,2.3c-1.7-.7-8.6-3.5-12.2-3.4s-7.9,1.2-10.1,4.2a6.3,6.3,0,0,0,1.7,9.1c4.6,2.6,13.1-1.5,16.6-4.6.3-.3,4.5-5.1,4.4-5.2h-.1l4.3-2.1c2.9-1.5,6.1-3.2,9.5-5.3a117.2,117.2,0,0,0,10.6-7.2,80.5,80.5,0,0,0,10.6-9.8.1.1,0,0,0,.1-.1c-.6,1.4-2.3,5.4-2.3,5.7-1.4,4.5-1.2,13.9,3.1,16.9a6.2,6.2,0,0,0,8.9-2.5C123.3,315.8,122.3,311.4,120.8,308.2Z"/><path d="M51.2,246.2l-6.4,2.1c-4.2,2-11.3,8.3-10.6,13.5a6.2,6.2,0,0,0,7.7,5c3.6-.8,6.3-4.5,7.8-7.7S51.2,246.2,51.2,246.2Z"/></g><g class="cls-3"><path d="M314.8,34.7c2.5,3.3,10.7,7.5,10.7,7.5s1.1-6.3,1.2-6.7c.2-4.7-2.1-13.8-7-15.7a6.2,6.2,0,0,0-8.1,4.5C310.7,27.9,312.6,32,314.8,34.7Z"/><path d="M304.9,59.7c3.2,2.4,11.6,4.2,12.2,4.3A112.5,112.5,0,0,0,315,78.5c-.3,2.8-.4,5.7-.6,8.6a18.4,18.4,0,0,0-.3-2.7c-1-4.6-5.6-12.8-10.9-13.3a6.3,6.3,0,0,0-6.6,6.5c.1,3.7,3.1,7.1,5.9,9.2s9.9,3.8,11.8,4.2c0,1.1-.1,2.2-.1,3.3-.2,5.3-.3,10.6-.6,15.8-.1,1.8-.3,3.6-.4,5.4-.1-1.2-.3-2.2-.3-2.3-1-4.6-5.7-12.8-10.9-13.3a6.3,6.3,0,0,0-6.6,6.5c.1,3.7,3,7.1,5.9,9.2s9.2,3.6,11.4,4.1c-.2,1.9-.4,3.7-.7,5.5l-.6,3.5c-.3,1.2-.6,2.4-.8,3.6s-1.2,4.5-1.9,6.7-.8,2.9-1.3,4.3c.2-1.8.3-5.4.3-5.7-.3-4.6-3.7-13.5-8.7-14.7a6.1,6.1,0,0,0-7.5,5.3c-.6,3.7,1.9,7.6,4.3,10s10.4,5.7,11.3,6.1c-.7,2.4-1.4,4.7-2.1,6.8s-1.1,3.2-1.6,4.6l2.9,1.6c.5-1.7,1.1-3.4,1.6-5.2s1.5-5,2.3-7.7a68.3,68.3,0,0,0,7.9.5c1,3.8,5.4,10.1,6,10.9l-5.6,4.5-2.8,2.1,3.1,1.6,1.6-1.3c2-1.6,4-3.4,6.1-5.2.8.7,7.1,5.9,10.8,7s8,1.2,10.9-1.1a6.2,6.2,0,0,0,1.1-9.1c-3.6-3.9-13-2.5-17.2-.5l-4.4,2.7,2.5-2.2,5.2-4.8c.9-.8,1.7-1.7,2.6-2.6a32,32,0,0,0,2.5-2.7c2-2.2,3.8-4.5,5.7-6.8,1.3,1.5,6.1,6.7,9.3,8.2s7.7,2.4,10.9.6a6.2,6.2,0,0,0,2.5-8.9c-3-4.3-12.4-4.4-16.9-3.1l-5.1,2.2c1.1-1.4,2.2-2.8,3.2-4.3,3-4.3,6-8.7,8.9-13.1.9-1.4,1.9-2.7,2.8-4,.4.5,6,6.9,9.6,8.5s7.7,2.4,10.9.7,4.6-5.8,2.5-8.9-12.5-4.4-16.9-3.1l-6,2.5c2-2.9,4.1-5.8,6.2-8.6a121.5,121.5,0,0,1,9.2-10.8c.2.3,6.1,7,9.7,8.7s7.7,2.4,10.9.6a6.2,6.2,0,0,0,2.5-8.9c-3-4.3-12.4-4.4-16.9-3.1l-6,2.6.5-.6a69.9,69.9,0,0,1,11.1-8.9,74.7,74.7,0,0,1,6.4-4c.9,1.3,5.4,7.5,8.5,9.4s7.4,3.2,10.8,1.8,5.2-5.3,3.4-8.6-11.9-5.8-16.5-4.9l-4.5,1.3,2.8-1.6c3.5-1.8,6.9-3.3,9.8-4.6a42.1,42.1,0,0,1,4.7-1.9c1.6.8,8.2,4.1,11.8,4.3s8-.5,10.4-3.3,2.2-7.1-.9-9.2-13.2.4-16.9,3.2c-.3.3-4.9,4.7-4.8,4.8h.1l-4.5,1.8c-3,1.2-6.4,2.6-9.9,4.4A93.2,93.2,0,0,0,388.6,85a81.2,81.2,0,0,0-11.4,8.8.1.1,0,0,0-.1.1c.7-1.4,2.7-5.2,2.8-5.5,1.7-4.4,2.4-13.8-1.7-17.1a6.3,6.3,0,0,0-9.1,1.8c-2,3.1-1.4,7.6-.2,10.9s7.3,9.8,7.8,10.3a114.8,114.8,0,0,0-9.8,10.9c-1.8,2.2-3.5,4.5-5.2,6.8l1.2-2.3c1.7-4.4,2.4-13.8-1.7-17.1a6.2,6.2,0,0,0-9.1,1.7c-2,3.1-1.4,7.6-.2,10.9s6.2,8.7,7.5,10.1l-1.9,2.7c-3,4.3-6.1,8.6-9.2,12.8-1,1.5-2.2,2.9-3.3,4.3l1-2.1c1.7-4.4,2.4-13.8-1.7-17.1s-7.1-1.3-9.1,1.7-1.4,7.7-.2,11,5.7,8.1,7.3,9.7l-3.6,4.2c-.9.9-1.6,1.8-2.5,2.6l-2.6,2.5-5.2,4.6-3.5,2.9c1.1-1.5,3.2-4.3,3.3-4.6a22.9,22.9,0,0,0,2.7-11.8,3.8,3.8,0,0,0,.6-1.3,6.2,6.2,0,0,0-4.2-8.2c-5.1-1.2-12.1,5.1-14.5,9.1a37.6,37.6,0,0,0-2.2,4.7l.9-3.3c.6-2.2,1.1-4.5,1.7-6.9s.4-2.3.7-3.5.4-2.5.6-3.7c.4-2.9.7-5.9.9-8.8,2,.5,8.9,2.2,12.4,1.7s7.7-2.3,9.4-5.5a6.2,6.2,0,0,0-2.9-8.8c-4.8-2-12.8,3.2-15.8,6.8l-3,4.6.3-5.4c.2-5.2.2-10.5.2-15.8,0-1.7.1-3.3.1-4.9.7.2,8.9,2.4,12.8,1.8s7.7-2.2,9.4-5.5a6.1,6.1,0,0,0-2.9-8.7c-4.8-2-12.8,3.1-15.8,6.7-.2.3-2.9,4.3-3.5,5.4,0-3.5.1-7.1.4-10.6a105,105,0,0,1,1.7-14c.4,0,8.9,2.4,12.9,1.8s7.7-2.2,9.4-5.5a6.2,6.2,0,0,0-2.9-8.8c-4.8-2-12.7,3.2-15.8,6.8-.2.3-3.1,4.6-3.5,5.5a2.8,2.8,0,0,1,.1-.9A78.9,78.9,0,0,1,322.7,50c1-2.4,2-4.7,3.1-6.9,1.6.6,8.7,3.3,12.3,3.1s7.9-1.3,10-4.4a6.2,6.2,0,0,0-1.9-9c-4.6-2.5-13,1.7-16.4,5a44.8,44.8,0,0,0-3.1,3.6l1.5-2.9c1.9-3.5,3.9-6.6,5.6-9.3l2.8-4.2c1.9-.2,9.2-1,12.3-2.8s6.4-4.9,6.8-8.6a6,6,0,0,0-5.8-7.1c-5.2-.1-10.8,7.6-12.3,12-.1.4-1.5,6.6-1.4,6.6h.1L333.5,29c-1.8,2.7-3.8,5.7-5.8,9.2s-4,7.3-5.8,11.5a77.6,77.6,0,0,0-4.6,13.6c-.1,0-.1.1-.1.2-.1-1.6-.5-5.9-.6-6.2-1-4.5-5.7-12.8-10.9-13.3a6.3,6.3,0,0,0-6.6,6.5C299.1,54.2,302.1,57.6,304.9,59.7Z"/><path d="M395.8,80.7l4.6-4.9c2.7-3.8,5.9-12.7,2.8-17a6.2,6.2,0,0,0-9.2-.7c-2.8,2.5-3.4,7-3.1,10.5S395.8,80.7,395.8,80.7Z"/></g><polygon class="cls-4" points="326.1 372 243.8 330.5 327.5 163.5 409.9 205.1 326.1 372"/><path class="cls-5" d="M391.6,221.4a11,11,0,0,1-4.9-14.9,7.5,7.5,0,0,1,.7-1.2l-47.3-23.9c-.2.4-.3.9-.5,1.3a11.1,11.1,0,0,1-15,4.9l-.6-.3L260.8,313.5l.6.3a11.1,11.1,0,0,1,4.9,14.9,3.5,3.5,0,0,1-.7,1.2l47.3,23.9a13.9,13.9,0,0,1,.6-1.3,11.1,11.1,0,0,1,14.9-4.9l1.2.7L392.9,222Zm-73.8,62.7a18.3,18.3,0,1,1,24.5-8A18.1,18.1,0,0,1,317.8,284.1Z"/><polygon class="cls-4" points="325 372.4 247.6 322.1 348.9 165.2 426.3 215.5 325 372.4"/><path class="cls-5" d="M406.4,229.8a11.1,11.1,0,0,1-3.3-15.4,10.5,10.5,0,0,1,.8-1.1l-44.4-28.9a7.5,7.5,0,0,1-.7,1.2,11.1,11.1,0,0,1-15.4,3.3l-.5-.4L266.4,307.1l.6.4a11.1,11.1,0,0,1,3.2,15.4,7.6,7.6,0,0,1-.8,1.1l44.4,28.8a7.5,7.5,0,0,1,.7-1.2,11.1,11.1,0,0,1,15.4-3.2l1.1.8,76.6-118.8Zm-80.2,54.3a18.3,18.3,0,1,1,25.3-5.4A18.2,18.2,0,0,1,326.2,284.1Z"/><polygon class="cls-4" points="323.4 372.7 253.8 312.2 375.9 170.8 445.5 231.3 323.4 372.7"/><path class="cls-5" d="M423.8,242.7a11.2,11.2,0,0,1-1.1-15.7l1-1-40-34.7-.9,1.1a11.2,11.2,0,0,1-15.7,1.1l-.5-.5L274.4,299.9l.6.5a11.2,11.2,0,0,1,1.1,15.7l-1,.9,40,34.8.9-1.1a11,11,0,0,1,15.7-1.1l.9.9,92.3-107Zm-86.9,42.7a18.3,18.3,0,1,1,25.8-1.8A18.2,18.2,0,0,1,336.9,285.4Z"/><polygon class="cls-4" points="323.2 377.2 262.3 308 402.2 184.2 463.1 253.4 323.2 377.2"/><path class="cls-5" d="M440.1,261.8a11.1,11.1,0,0,1,1-15.7l1.1-.8-35-39.8a9.4,9.4,0,0,1-1,1,11.2,11.2,0,0,1-15.7-1,2.1,2.1,0,0,1-.4-.6L284.4,298.6c.2.1.3.3.5.5a11.2,11.2,0,0,1-1,15.7l-1.1.8,35,39.8a4.7,4.7,0,0,1,1-1,11.1,11.1,0,0,1,15.7,1,7.6,7.6,0,0,1,.8,1.1l105.8-93.7A4.7,4.7,0,0,1,440.1,261.8Zm-91.8,30.7a18.2,18.2,0,1,1,25.7,1.7A18.2,18.2,0,0,1,348.3,292.5Z"/><path class="cls-6" d="M189.5,288.8,17.9,217.1a6,6,0,0,1-3.3-7.8L57.4,107a6,6,0,0,1,7.8-3.2l171.6,71.7a6,6,0,0,1,3.2,7.8L197.3,285.6A5.9,5.9,0,0,1,189.5,288.8Z"/><rect class="cls-7" x="198.7" y="180.1" width="21.2" height="21.23" rx="5" transform="translate(-58.5 98.8) rotate(-23.4)"/><rect class="cls-7" x="33.9" y="200.4" width="20.9" height="8.67" transform="translate(82.4 -1.3) rotate(22.7)"/><rect class="cls-7" x="59.5" y="211.1" width="20.9" height="8.67" transform="translate(88.5 -10.3) rotate(22.7)"/><rect class="cls-7" x="85.2" y="221.8" width="20.9" height="8.67" transform="translate(94.6 -19.4) rotate(22.7)"/><rect class="cls-7" x="110.9" y="232.5" width="20.9" height="8.67" transform="translate(100.7 -28.5) rotate(22.7)"/><rect class="cls-7" x="136.5" y="243.3" width="20.9" height="8.67" transform="translate(106.8 -37.5) rotate(22.7)"/><rect class="cls-7" x="162.2" y="254" width="20.9" height="8.67" transform="translate(113 -46.6) rotate(22.7)"/><rect class="cls-7" x="49" y="154.1" width="45.5" height="33.95" rx="3.3" transform="translate(71.5 -14.4) rotate(22.7)"/><rect class="cls-7" x="63.3" y="139.7" width="99.7" height="5.06" transform="translate(63.6 -32.6) rotate(22.7)"/><path class="cls-5" d="M319,64.5V376a15.4,15.4,0,0,1-15.5,15.5H168.9A15.4,15.4,0,0,1,153.5,376V64.5a15.4,15.4,0,0,1,15.4-15.4h57.9c1.4,5.2,4.7,8.6,8.4,8.6h2.1c3.7,0,7-3.4,8.4-8.6h57.8A15.4,15.4,0,0,1,319,64.5Z"/><path class="cls-4" d="M319,113.7V60c0-6-6.9-10.9-15.5-10.9H245.7a9,9,0,0,1-8.4,6h-2.1a9,9,0,0,1-8.4-6H168.9c-8.5,0-15.4,4.9-15.4,10.9v53.7Z"/><rect class="cls-4" x="177.2" y="241" width="117.1" height="49.65" rx="9.6"/><path class="cls-8" d="M319,79V64.5a15.4,15.4,0,0,0-15.5-15.4H245.7c-1.4,5.2-4.7,8.6-8.4,8.6h-2.1c-3.7,0-7-3.4-8.4-8.6H168.9a15.4,15.4,0,0,0-15.4,15.4V79Z"/><path class="cls-8" d="M153.5,373.6V376a15.4,15.4,0,0,0,15.4,15.5H303.5A15.4,15.4,0,0,0,319,376v-2.4Z"/><path class="cls-9" d="M329.5,138.9V107.8h-2.8V68a24.6,24.6,0,0,0-24.5-24.6H170.3A24.6,24.6,0,0,0,145.7,68V384.5A24.6,24.6,0,0,0,170.3,409H302.2a24.5,24.5,0,0,0,24.5-24.5V165.4h2.8V147.1h-2.8v-8.2ZM319,367a24.5,24.5,0,0,1-24.5,24.5H178A24.5,24.5,0,0,1,153.5,367V73.6A24.5,24.5,0,0,1,178,49.1h48.8c1.4,5.2,4.7,8.6,8.4,8.6h2.1c3.7,0,7-3.4,8.4-8.6h48.8A24.5,24.5,0,0,1,319,73.6Z"/><path class="cls-6" d="M300.2,46.8H172.3a23.7,23.7,0,0,0-23.7,23.7V382a23.7,23.7,0,0,0,23.7,23.7H300.2A23.7,23.7,0,0,0,323.9,382V70.5A23.7,23.7,0,0,0,300.2,46.8Zm18.8,321a23.7,23.7,0,0,1-23.7,23.7H177.1a23.7,23.7,0,0,1-23.6-23.7V72.7a23.6,23.6,0,0,1,23.6-23.6h49.7c1.4,5.2,4.7,8.6,8.4,8.6h2.1c3.7,0,7-3.4,8.4-8.6h49.6A23.7,23.7,0,0,1,319,72.7Z"/><path class="cls-10" d="M238,50.2a2.3,2.3,0,0,0-2.3-2.3,2.4,2.4,0,0,0-2.3,2.3,2.3,2.3,0,0,0,2.3,2.3A2.3,2.3,0,0,0,238,50.2Z"/><path class="cls-11" d="M168.2,59.1c0,2.3-2.6,3.1-2.7,4.9h2.6v.8h-3.4v-.6c0-2.5,2.6-3,2.6-5.2s-.2-1.2-.9-1.2-.9.4-.9,1.1v.7h-.8v-.6c0-1.2.5-2,1.7-2S168.2,57.9,168.2,59.1Z"/><path class="cls-11" d="M172.4,59v.2a1.5,1.5,0,0,1-.9,1.6,1.7,1.7,0,0,1,.9,1.6V63c0,1.2-.5,2-1.7,2s-1.8-.8-1.8-2v-.5h.8v.6c0,.7.3,1.1.9,1.1s.9-.4.9-1.2v-.6c0-.7-.3-1.1-.9-1.1h-.5v-.8h.5c.6,0,.9-.4.9-1.1v-.3c0-.8-.2-1.2-.9-1.2s-.9.4-.9,1.1v.4h-.8V59a1.7,1.7,0,0,1,1.8-1.9C171.9,57.1,172.4,57.9,172.4,59Z"/><path class="cls-11" d="M174.1,59.6v1.1h-.8V59.6Zm0,4.2v1.1h-.8V63.8Z"/><path class="cls-11" d="M175.8,60.3a1.4,1.4,0,0,1,1.2-.6c1,0,1.4.7,1.4,1.8V63c0,1.2-.5,2-1.7,2s-1.8-.8-1.8-2v-.5h.8v.6c0,.7.3,1.1.9,1.1s1-.4,1-1.1V61.6c0-.7-.3-1.1-1-1.1s-.7.2-.8.8v.2H175l.2-4.3h3V58h-2.3Z"/><path class="cls-11" d="M182.7,59v.2h-.8V59c0-.7-.3-1.1-.9-1.1s-.9.4-.9,1.2v1.8a1.2,1.2,0,0,1,1.2-.9c1,0,1.4.7,1.4,1.9V63c0,1.2-.6,2-1.7,2s-1.8-.8-1.8-2V59.1c0-1.2.5-2,1.8-2S182.7,57.9,182.7,59Zm-2.6,2.9v1.2c0,.7.2,1.1.9,1.1s.9-.4.9-1.1V61.9c0-.7-.3-1.1-.9-1.1S180.1,61.2,180.1,61.9Z"/><rect class="cls-11" x="265" y="59.4" width="2.2" height="5.46"/><rect class="cls-11" x="267.9" y="58.3" width="2.2" height="6.55"/><rect class="cls-11" x="270.8" y="57.5" width="2.2" height="7.33"/><rect class="cls-11" x="273.7" y="56.2" width="2.2" height="8.68"/><path class="cls-11" d="M302.9,64.7H289.8v-8h13.1ZM290.6,64h11.6V57.4H290.6Z"/><rect class="cls-11" x="291.6" y="58.2" width="6.9" height="4.97"/><rect class="cls-11" x="302.5" y="59.7" width="1.6" height="1.89"/><path class="cls-11" d="M285,62.9h-.2c-2.7-1.6-4.5-.1-4.5-.1a.5.5,0,0,1-.7-.7c.1-.1,2.4-2,5.7-.1a.5.5,0,0,1,.1.7C285.4,62.9,285.2,62.9,285,62.9Z"/><path class="cls-11" d="M286,61.3h-.2c-3.9-2.3-6.5,0-6.5,0a.5.5,0,0,1-.7-.1.5.5,0,0,1,0-.7c.1,0,3.2-2.7,7.7,0a.5.5,0,0,1,.1.7Z"/><path class="cls-11" d="M286.9,59.4c-.1,0-.2,0-.2-.1-4.9-2.9-8.2-.1-8.3,0a.6.6,0,0,1-.7-.1.5.5,0,0,1,0-.7c.1,0,3.9-3.3,9.5,0a.5.5,0,0,1,.1.7A.5.5,0,0,1,286.9,59.4Z"/><path class="cls-11" d="M283.5,63.8a1.2,1.2,0,1,1-2.4,0,1.2,1.2,0,1,1,2.4,0Z"/><circle class="cls-7" cx="113.4" cy="433.7" r="49.7" transform="translate(-273.4 207.2) rotate(-45)"/><circle class="cls-7" cx="113.4" cy="433.7" r="41.7" transform="translate(-95.8 37.2) rotate(-13.2)"/><circle class="cls-7" cx="351.9" cy="433.7" r="49.7" transform="translate(-189.8 569.6) rotate(-65)"/><circle class="cls-7" cx="351.9" cy="433.7" r="41.7" transform="translate(-92.9 95.9) rotate(-13.7)"/><line class="cls-12" x1="477.5" y1="362.8" x2="477.5" y2="360.1"/><rect class="cls-7" x="396.3" y="356.9" width="83.5" height="6.1"/><line class="cls-12" x1="400" y1="363.6" x2="400" y2="359.8"/><line class="cls-12" x1="402.6" y1="357.2" x2="402.6" y2="361"/><line class="cls-12" x1="474.4" y1="357.5" x2="474.4" y2="361.1"/><line class="cls-12" x1="470.5" y1="357.5" x2="470.5" y2="361"/><line class="cls-12" x1="460.8" y1="357.4" x2="460.8" y2="361.7"/><line class="cls-12" x1="408.8" y1="357.8" x2="408.8" y2="359.8"/><line class="cls-12" x1="410.3" y1="362.4" x2="410.3" y2="358.9"/><line class="cls-12" x1="421.1" y1="357.4" x2="421.1" y2="361.7"/><line class="cls-12" x1="440" y1="357.8" x2="440" y2="360.8"/><line class="cls-12" x1="483.5" y1="368.8" x2="483.5" y2="366.1"/><rect class="cls-7" x="402.4" y="362.9" width="83.5" height="6.1"/><line class="cls-12" x1="406.1" y1="369.6" x2="406.1" y2="365.8"/><line class="cls-12" x1="408.6" y1="363.2" x2="408.6" y2="367"/><line class="cls-12" x1="480.5" y1="363.5" x2="480.5" y2="367.1"/><line class="cls-12" x1="476.5" y1="363.5" x2="476.5" y2="367"/><line class="cls-12" x1="466.8" y1="363.4" x2="466.8" y2="367.7"/><line class="cls-12" x1="414.9" y1="363.8" x2="414.9" y2="365.8"/><line class="cls-12" x1="416.4" y1="368.4" x2="416.4" y2="364.9"/><line class="cls-12" x1="427.1" y1="363.4" x2="427.1" y2="367.7"/><line class="cls-12" x1="446.1" y1="363.8" x2="446.1" y2="366.8"/><line class="cls-12" x1="481.4" y1="374.8" x2="481.4" y2="372.1"/><rect class="cls-7" x="400.3" y="368.9" width="83.5" height="6.1"/><line class="cls-12" x1="404" y1="375.6" x2="404" y2="371.8"/><line class="cls-12" x1="406.5" y1="369.2" x2="406.5" y2="373"/><line class="cls-12" x1="478.4" y1="369.5" x2="478.4" y2="373.1"/><line class="cls-12" x1="474.4" y1="369.5" x2="474.4" y2="373"/><line class="cls-12" x1="464.7" y1="369.3" x2="464.7" y2="373.7"/><line class="cls-12" x1="412.7" y1="369.8" x2="412.7" y2="371.8"/><line class="cls-12" x1="414.3" y1="374.3" x2="414.3" y2="370.9"/><line class="cls-12" x1="425" y1="369.3" x2="425" y2="373.7"/><line class="cls-12" x1="444" y1="369.8" x2="444" y2="372.8"/><line class="cls-12" x1="483.5" y1="380.8" x2="483.5" y2="378.1"/><rect class="cls-7" x="402.4" y="374.9" width="83.5" height="6.1"/><line class="cls-12" x1="406.1" y1="381.6" x2="406.1" y2="377.8"/><line class="cls-12" x1="408.7" y1="375.2" x2="408.7" y2="379"/><line class="cls-12" x1="480.5" y1="375.5" x2="480.5" y2="379.1"/><line class="cls-12" x1="476.6" y1="375.5" x2="476.6" y2="379"/><line class="cls-12" x1="466.9" y1="375.3" x2="466.9" y2="379.7"/><line class="cls-12" x1="414.9" y1="375.8" x2="414.9" y2="377.8"/><line class="cls-12" x1="416.4" y1="380.3" x2="416.4" y2="376.9"/><line class="cls-12" x1="427.1" y1="375.3" x2="427.1" y2="379.7"/><line class="cls-12" x1="446.1" y1="375.8" x2="446.1" y2="378.8"/><line class="cls-12" x1="477.5" y1="386.8" x2="477.5" y2="384.1"/><rect class="cls-7" x="396.3" y="380.9" width="83.5" height="6.1"/><line class="cls-12" x1="400" y1="387.6" x2="400" y2="383.8"/><line class="cls-12" x1="402.6" y1="381.2" x2="402.6" y2="385"/><line class="cls-12" x1="474.4" y1="381.5" x2="474.4" y2="385.1"/><line class="cls-12" x1="470.5" y1="381.5" x2="470.5" y2="385"/><line class="cls-12" x1="460.8" y1="381.3" x2="460.8" y2="385.7"/><line class="cls-12" x1="408.8" y1="381.8" x2="408.8" y2="383.8"/><line class="cls-12" x1="410.3" y1="386.3" x2="410.3" y2="382.9"/><line class="cls-12" x1="421.1" y1="381.3" x2="421.1" y2="385.7"/><line class="cls-12" x1="440" y1="381.8" x2="440" y2="384.8"/><line class="cls-12" x1="477.5" y1="392.8" x2="477.5" y2="390.1"/><rect class="cls-7" x="396.3" y="386.9" width="83.5" height="6.1"/><line class="cls-12" x1="400" y1="393.6" x2="400" y2="389.8"/><line class="cls-12" x1="402.6" y1="387.2" x2="402.6" y2="391"/><line class="cls-12" x1="474.4" y1="387.5" x2="474.4" y2="391.1"/><line class="cls-12" x1="470.5" y1="387.5" x2="470.5" y2="391"/><line class="cls-12" x1="460.8" y1="387.3" x2="460.8" y2="391.7"/><line class="cls-12" x1="408.8" y1="387.8" x2="408.8" y2="389.8"/><line class="cls-12" x1="410.3" y1="392.3" x2="410.3" y2="388.9"/><line class="cls-12" x1="421.1" y1="387.3" x2="421.1" y2="391.7"/><line class="cls-12" x1="440" y1="387.8" x2="440" y2="390.8"/><line class="cls-12" x1="477.5" y1="398.8" x2="477.5" y2="396.1"/><rect class="cls-7" x="396.3" y="392.9" width="83.5" height="6.1"/><line class="cls-12" x1="400" y1="399.5" x2="400" y2="395.8"/><line class="cls-12" x1="402.6" y1="393.2" x2="402.6" y2="397"/><line class="cls-12" x1="474.4" y1="393.5" x2="474.4" y2="397.1"/><line class="cls-12" x1="470.5" y1="393.5" x2="470.5" y2="397"/><line class="cls-12" x1="460.8" y1="393.3" x2="460.8" y2="397.7"/><line class="cls-12" x1="408.8" y1="393.8" x2="408.8" y2="395.8"/><line class="cls-12" x1="410.3" y1="398.3" x2="410.3" y2="394.8"/><line class="cls-12" x1="421.1" y1="393.3" x2="421.1" y2="397.7"/><line class="cls-12" x1="440" y1="393.8" x2="440" y2="396.8"/><line class="cls-12" x1="484" y1="404.8" x2="484" y2="402.1"/><rect class="cls-7" x="402.9" y="398.9" width="83.5" height="6.1"/><line class="cls-12" x1="406.6" y1="405.5" x2="406.6" y2="401.8"/><line class="cls-12" x1="409.1" y1="399.2" x2="409.1" y2="403"/><line class="cls-12" x1="481" y1="399.5" x2="481" y2="403.1"/><line class="cls-12" x1="477" y1="399.5" x2="477" y2="403"/><line class="cls-12" x1="467.3" y1="399.3" x2="467.3" y2="403.7"/><line class="cls-12" x1="415.4" y1="399.8" x2="415.4" y2="401.8"/><line class="cls-12" x1="416.9" y1="404.3" x2="416.9" y2="400.8"/><line class="cls-12" x1="427.6" y1="399.3" x2="427.6" y2="403.7"/><line class="cls-12" x1="446.6" y1="399.8" x2="446.6" y2="402.8"/><line class="cls-12" x1="486.3" y1="410.8" x2="486.3" y2="408.1"/><rect class="cls-7" x="405.2" y="404.9" width="83.5" height="6.1"/><line class="cls-12" x1="408.9" y1="411.5" x2="408.9" y2="407.8"/><line class="cls-12" x1="411.4" y1="405.2" x2="411.4" y2="409"/><line class="cls-12" x1="483.3" y1="405.5" x2="483.3" y2="409.1"/><line class="cls-12" x1="479.3" y1="405.5" x2="479.3" y2="409"/><line class="cls-12" x1="469.6" y1="405.3" x2="469.6" y2="409.7"/><line class="cls-12" x1="417.6" y1="405.8" x2="417.6" y2="407.8"/><line class="cls-12" x1="419.2" y1="410.3" x2="419.2" y2="406.8"/><line class="cls-12" x1="429.9" y1="405.3" x2="429.9" y2="409.7"/><line class="cls-12" x1="448.9" y1="405.8" x2="448.9" y2="408.8"/><line class="cls-12" x1="483.5" y1="416.8" x2="483.5" y2="414.1"/><rect class="cls-7" x="402.4" y="410.9" width="83.5" height="6.1"/><line class="cls-12" x1="406.1" y1="417.5" x2="406.1" y2="413.7"/><line class="cls-12" x1="408.7" y1="411.2" x2="408.7" y2="415"/><line class="cls-12" x1="480.5" y1="411.5" x2="480.5" y2="415.1"/><line class="cls-12" x1="476.6" y1="411.5" x2="476.6" y2="415"/><line class="cls-12" x1="466.9" y1="411.3" x2="466.9" y2="415.7"/><line class="cls-12" x1="414.9" y1="411.8" x2="414.9" y2="413.7"/><line class="cls-12" x1="416.4" y1="416.3" x2="416.4" y2="412.8"/><line class="cls-12" x1="427.2" y1="411.3" x2="427.2" y2="415.7"/><line class="cls-12" x1="446.1" y1="411.8" x2="446.1" y2="414.8"/><line class="cls-12" x1="477.5" y1="422.8" x2="477.5" y2="420"/><rect class="cls-7" x="396.3" y="416.9" width="83.5" height="6.1"/><line class="cls-12" x1="400" y1="423.5" x2="400" y2="419.7"/><line class="cls-12" x1="402.6" y1="417.2" x2="402.6" y2="421"/><line class="cls-12" x1="474.4" y1="417.5" x2="474.4" y2="421.1"/><line class="cls-12" x1="470.5" y1="417.5" x2="470.5" y2="421"/><line class="cls-12" x1="460.8" y1="417.3" x2="460.8" y2="421.7"/><line class="cls-12" x1="408.8" y1="417.8" x2="408.8" y2="419.7"/><line class="cls-12" x1="410.3" y1="422.3" x2="410.3" y2="418.8"/><line class="cls-12" x1="421.1" y1="417.3" x2="421.1" y2="421.7"/><line class="cls-12" x1="440" y1="417.8" x2="440" y2="420.8"/><line class="cls-12" x1="475.5" y1="428.8" x2="475.5" y2="426"/><rect class="cls-7" x="394.3" y="422.9" width="83.5" height="6.1"/><line class="cls-12" x1="398" y1="429.5" x2="398" y2="425.7"/><line class="cls-12" x1="400.6" y1="423.2" x2="400.6" y2="427"/><line class="cls-12" x1="472.4" y1="423.5" x2="472.4" y2="427.1"/><line class="cls-12" x1="468.5" y1="423.5" x2="468.5" y2="427"/><line class="cls-12" x1="458.8" y1="423.3" x2="458.8" y2="427.7"/><line class="cls-12" x1="406.8" y1="423.8" x2="406.8" y2="425.7"/><line class="cls-12" x1="408.3" y1="428.3" x2="408.3" y2="424.8"/><line class="cls-12" x1="419.1" y1="423.3" x2="419.1" y2="427.7"/><line class="cls-12" x1="438" y1="423.8" x2="438" y2="426.8"/><line class="cls-12" x1="475.1" y1="434.8" x2="475.1" y2="432"/><rect class="cls-7" x="393.9" y="428.9" width="83.5" height="6.1"/><line class="cls-12" x1="397.6" y1="435.5" x2="397.6" y2="431.7"/><line class="cls-12" x1="400.2" y1="429.2" x2="400.2" y2="433"/><line class="cls-12" x1="472" y1="429.5" x2="472" y2="433.1"/><line class="cls-12" x1="468.1" y1="429.5" x2="468.1" y2="433"/><line class="cls-12" x1="458.4" y1="429.3" x2="458.4" y2="433.7"/><line class="cls-12" x1="406.4" y1="429.8" x2="406.4" y2="431.7"/><line class="cls-12" x1="407.9" y1="434.3" x2="407.9" y2="430.8"/><line class="cls-12" x1="418.7" y1="429.3" x2="418.7" y2="433.7"/><line class="cls-12" x1="437.6" y1="429.8" x2="437.6" y2="432.8"/><line class="cls-12" x1="475.3" y1="440.8" x2="475.3" y2="438"/><rect class="cls-7" x="394.1" y="434.9" width="83.5" height="6.1"/><line class="cls-12" x1="397.8" y1="441.5" x2="397.8" y2="437.7"/><line class="cls-12" x1="400.4" y1="435.2" x2="400.4" y2="438.9"/><line class="cls-12" x1="472.2" y1="435.5" x2="472.2" y2="439.1"/><line class="cls-12" x1="468.3" y1="435.5" x2="468.3" y2="438.9"/><line class="cls-12" x1="458.6" y1="435.3" x2="458.6" y2="439.7"/><line class="cls-12" x1="406.6" y1="435.8" x2="406.6" y2="437.7"/><line class="cls-12" x1="408.1" y1="440.3" x2="408.1" y2="436.8"/><line class="cls-12" x1="418.9" y1="435.3" x2="418.9" y2="439.7"/><line class="cls-12" x1="437.8" y1="435.8" x2="437.8" y2="438.8"/><line class="cls-12" x1="474" y1="446.8" x2="474" y2="444"/><rect class="cls-7" x="392.9" y="440.9" width="83.5" height="6.1"/><line class="cls-12" x1="396.6" y1="447.5" x2="396.6" y2="443.7"/><line class="cls-12" x1="399.2" y1="441.2" x2="399.2" y2="444.9"/><line class="cls-12" x1="471" y1="441.5" x2="471" y2="445.1"/><line class="cls-12" x1="467.1" y1="441.5" x2="467.1" y2="444.9"/><line class="cls-12" x1="457.4" y1="441.3" x2="457.4" y2="445.7"/><line class="cls-12" x1="405.4" y1="441.8" x2="405.4" y2="443.7"/><line class="cls-12" x1="406.9" y1="446.3" x2="406.9" y2="442.8"/><line class="cls-12" x1="417.7" y1="441.3" x2="417.7" y2="445.7"/><line class="cls-12" x1="436.6" y1="441.8" x2="436.6" y2="444.8"/><line class="cls-12" x1="474.3" y1="452.8" x2="474.3" y2="450"/><rect class="cls-7" x="393.1" y="446.9" width="83.5" height="6.1"/><line class="cls-12" x1="396.8" y1="453.5" x2="396.8" y2="449.7"/><line class="cls-12" x1="399.4" y1="447.2" x2="399.4" y2="450.9"/><line class="cls-12" x1="471.2" y1="447.5" x2="471.2" y2="451.1"/><line class="cls-12" x1="467.3" y1="447.5" x2="467.3" y2="450.9"/><line class="cls-12" x1="457.6" y1="447.3" x2="457.6" y2="451.7"/><line class="cls-12" x1="405.6" y1="447.8" x2="405.6" y2="449.7"/><line class="cls-12" x1="407.1" y1="452.3" x2="407.1" y2="448.8"/><line class="cls-12" x1="417.9" y1="447.3" x2="417.9" y2="451.7"/><line class="cls-12" x1="436.8" y1="447.8" x2="436.8" y2="450.8"/><line class="cls-12" x1="475.1" y1="458.8" x2="475.1" y2="456"/><rect class="cls-7" x="393.9" y="452.9" width="83.5" height="6.1"/><line class="cls-12" x1="397.6" y1="459.5" x2="397.6" y2="455.7"/><line class="cls-12" x1="400.2" y1="453.1" x2="400.2" y2="456.9"/><line class="cls-12" x1="472" y1="453.5" x2="472" y2="457.1"/><line class="cls-12" x1="468.1" y1="453.5" x2="468.1" y2="456.9"/><line class="cls-12" x1="458.4" y1="453.3" x2="458.4" y2="457.7"/><line class="cls-12" x1="406.4" y1="453.8" x2="406.4" y2="455.7"/><line class="cls-12" x1="407.9" y1="458.3" x2="407.9" y2="454.8"/><line class="cls-12" x1="418.7" y1="453.3" x2="418.7" y2="457.7"/><line class="cls-12" x1="437.6" y1="453.8" x2="437.6" y2="456.8"/><line class="cls-12" x1="475.3" y1="464.8" x2="475.3" y2="462"/><rect class="cls-7" x="394.1" y="458.9" width="83.5" height="6.1"/><line class="cls-12" x1="397.8" y1="465.5" x2="397.8" y2="461.7"/><line class="cls-12" x1="400.4" y1="459.1" x2="400.4" y2="462.9"/><line class="cls-12" x1="472.2" y1="459.4" x2="472.2" y2="463.1"/><line class="cls-12" x1="468.3" y1="459.4" x2="468.3" y2="462.9"/><line class="cls-12" x1="458.6" y1="459.3" x2="458.6" y2="463.7"/><line class="cls-12" x1="406.6" y1="459.8" x2="406.6" y2="461.7"/><line class="cls-12" x1="408.1" y1="464.3" x2="408.1" y2="460.8"/><line class="cls-12" x1="418.9" y1="459.3" x2="418.9" y2="463.7"/><line class="cls-12" x1="437.8" y1="459.8" x2="437.8" y2="462.8"/><line class="cls-12" x1="477.5" y1="470.7" x2="477.5" y2="468"/><rect class="cls-7" x="396.3" y="464.9" width="83.5" height="6.1"/><line class="cls-12" x1="400" y1="471.5" x2="400" y2="467.7"/><line class="cls-12" x1="402.6" y1="465.1" x2="402.6" y2="468.9"/><line class="cls-12" x1="474.4" y1="465.4" x2="474.4" y2="469.1"/><line class="cls-12" x1="470.5" y1="465.4" x2="470.5" y2="468.9"/><line class="cls-12" x1="460.8" y1="465.3" x2="460.8" y2="469.7"/><line class="cls-12" x1="408.8" y1="465.7" x2="408.8" y2="467.7"/><line class="cls-12" x1="410.3" y1="470.3" x2="410.3" y2="466.8"/><line class="cls-12" x1="421.1" y1="465.3" x2="421.1" y2="469.7"/><line class="cls-12" x1="440" y1="465.7" x2="440" y2="468.8"/><line class="cls-12" x1="477.5" y1="476.7" x2="477.5" y2="474"/><rect class="cls-7" x="396.3" y="470.9" width="83.5" height="6.09"/><line class="cls-12" x1="400" y1="477.5" x2="400" y2="473.7"/><line class="cls-12" x1="402.6" y1="471.1" x2="402.6" y2="474.9"/><line class="cls-12" x1="474.4" y1="471.4" x2="474.4" y2="475.1"/><line class="cls-12" x1="470.5" y1="471.4" x2="470.5" y2="474.9"/><line class="cls-12" x1="460.8" y1="471.3" x2="460.8" y2="475.7"/><line class="cls-12" x1="408.8" y1="471.7" x2="408.8" y2="473.7"/><line class="cls-12" x1="410.3" y1="476.3" x2="410.3" y2="472.8"/><line class="cls-12" x1="421.1" y1="471.3" x2="421.1" y2="475.7"/><line class="cls-12" x1="440" y1="471.7" x2="440" y2="474.8"/><line class="cls-12" x1="477.5" y1="482.7" x2="477.5" y2="480"/><rect class="cls-7" x="396.3" y="476.9" width="83.5" height="6.09"/><line class="cls-12" x1="400" y1="483.5" x2="400" y2="479.7"/><line class="cls-12" x1="402.6" y1="477.1" x2="402.6" y2="480.9"/><line class="cls-12" x1="474.4" y1="477.4" x2="474.4" y2="481.1"/><line class="cls-12" x1="470.5" y1="477.4" x2="470.5" y2="480.9"/><line class="cls-12" x1="460.8" y1="477.3" x2="460.8" y2="481.7"/><line class="cls-12" x1="408.8" y1="477.7" x2="408.8" y2="479.7"/><line class="cls-12" x1="410.3" y1="482.3" x2="410.3" y2="478.8"/><line class="cls-12" x1="421.1" y1="477.3" x2="421.1" y2="481.7"/><line class="cls-12" x1="440" y1="477.7" x2="440" y2="480.8"/><path class="cls-13" d="M187,94.4h-.4a.8.8,0,0,0-.2.4v2.8h1.1V95.5h2.9v10.7h-2.9v-1.7h-1.1v2.3a.8.8,0,0,0,.2.4h4.7a.8.8,0,0,0,.2-.4V94.9a.8.8,0,0,0-.2-.4H187Z"/><path class="cls-13" d="M171.7,96.9a1.8,1.8,0,0,0-1.7,1.7v1.1h1.1V98.6a.6.6,0,0,1,.6-.6h14.7a.6.6,0,0,1,.6.6v1.1h1.1V98.6a1.8,1.8,0,0,0-1.7-1.7Zm-1.5,3.7h-.4a.4.4,0,0,0-.2.4v4a.4.4,0,0,0,.2.4h9.8v-1.1h-8.9v-2.8h16.7v2.8h-4.5v1.1h5.5a.6.6,0,0,0,.1-.4v-4a.6.6,0,0,0-.1-.4H170.2Zm2.6-15.3a4,4,0,0,0-3.9,4v5.3H170V89.3a2.8,2.8,0,0,1,2.8-2.8h12.5a2.8,2.8,0,0,1,2.8,2.8v3.9h1.1V89.3a4,4,0,0,0-3.9-4Z"/><path class="cls-14" d="M178.5,90.1h-.3l-.2.3a.4.4,0,0,0-.1.3l.2.3,1.1,1.1h.6l.2-.2c.1,0,.1-.1.1-.2s.1-.1.1-.2v-.4l-1.1-1.1h-.4Z"/><path class="cls-14" d="M179.6,90.1l-.4.2-1.1,1.1v.4c0,.1,0,.2.1.2s0,.2.1.2l.2.2h.6l1.1-1.1.2-.3a.4.4,0,0,0-.1-.3l-.2-.3Zm4,0h-.4l-.2.3v.3c0,.1.1.2.2.3l1.1,1.1h.2c0,.1.1.1.2.1h.2l.2-.2V92a.3.3,0,0,0,.1-.2.3.3,0,0,1-.1-.2v-.2L184,90.3h-.4Z"/><path class="cls-14" d="M184.7,90.1l-.4.2-1.1,1.1-.2.2V92c.1.1.1.2.2.2s.1.1.1.2h.5l.2-.2,1.1-1.1a.4.4,0,0,0,.1-.3.2.2,0,0,0,0-.3l-.2-.3Zm-11.3,0h-.3l-.2.3a.4.4,0,0,0-.1.3l.2.3,1.1,1.1h.6l.2-.2c.1,0,.1-.1.1-.2s.1-.1.1-.2v-.4l-1.1-1.1h-.4Z"/><path class="cls-14" d="M174.5,90.1l-.4.2L173,91.4v.4c0,.1,0,.2.1.2s0,.2.1.2l.2.2h.4l.2-.2,1.1-1.1.2-.3a.4.4,0,0,0-.1-.3l-.2-.3Z"/><path class="cls-13" d="M167.2,94.4h-.4a.8.8,0,0,0-.2.4v11.9a.8.8,0,0,0,.2.4h4.7a.8.8,0,0,0,.2-.4v-2.3h-1.1v1.7h-2.9V95.5h2.9v2.2h1.1V94.9a.8.8,0,0,0-.2-.4h-4.3Zm13.5,10.1v1.1h1.2v-1.1Z"/><path class="cls-13" d="M202.2,103.4h-1.8c-.2,0-.3-.1-.2-.3L204,92.4h-2.4a.3.3,0,0,1-.3-.3V90.8a.3.3,0,0,1,.3-.3h9.8a.3.3,0,0,1,.3.3v1.3a.3.3,0,0,1-.3.3H209l3.8,10.7c0,.2,0,.3-.2.3h-1.8c-.2,0-.3-.1-.3-.2l-.9-2.7h-6.2l-.9,2.7C202.5,103.3,202.4,103.4,202.2,103.4Zm12-8.9a10.6,10.6,0,0,1,3.7-.7,4.9,4.9,0,0,1,3,1,4.1,4.1,0,0,1,1.1,3v2a3.4,3.4,0,0,1-1.1,2.8,3.9,3.9,0,0,1-2.9,1,4.3,4.3,0,0,1-1.9-.4v3.4a.3.3,0,0,1-.3.3h-1.5a.3.3,0,0,1-.3-.3V94.8C214,94.6,214.1,94.5,214.2,94.5Zm3.7,7.3a1.8,1.8,0,0,0,2-2v-2a2.2,2.2,0,0,0-.5-1.6,2.1,2.1,0,0,0-1.6-.5l-1.7.2v5.4A3.5,3.5,0,0,0,217.9,101.8Zm13.8,1.6h-1.8c-.1,0-.3,0-.3-.1l-2.8-3.7-.8.7v2.8c0,.2-.1.3-.2.3h-1.5a.3.3,0,0,1-.3-.3V94.3c0-.2.1-.2.3-.2h1.5c.1,0,.2,0,.2.2v3.5l3.3-3.6c0-.1.1-.1.3-.1h2c.1.1,0,.2,0,.3l-3.4,3.7,3.7,5C232,103.3,232,103.4,231.7,103.4Zm8.9-3.4a3.3,3.3,0,0,1-1.1,2.7,4.5,4.5,0,0,1-3,.9,4.9,4.9,0,0,1-3-.9,3.7,3.7,0,0,1-1.1-2.7V97.6a3.4,3.4,0,0,1,1.1-2.7,4.4,4.4,0,0,1,3-1.1,4.1,4.1,0,0,1,3,1.1,3.1,3.1,0,0,1,1.1,2.7Zm-6.1,0c0,1.2.7,1.8,2,1.8a2.1,2.1,0,0,0,1.5-.5,1.4,1.4,0,0,0,.5-1.3V97.6a1.6,1.6,0,0,0-.5-1.4,2.1,2.1,0,0,0-1.5-.5,2.5,2.5,0,0,0-1.5.5,2,2,0,0,0-.5,1.4Zm10.4,3.4h-1.7c-.2,0-.2-.1-.2-.3V90.8c0-.2,0-.3.2-.3h2l.3.2,2.2,4.1,1.5,3.2h.1l1.5-3.2,2.2-4.1.3-.2h2c.1,0,.2.1.2.3v12.3c0,.2-.1.3-.2.3h-1.7c-.1,0-.2-.1-.2-.3V99.5c0-1.4,0-3.3.1-5.7h0l-1.7,3.4-1.6,3.1c0,.1-.1.2-.3.2h-1.3c-.2,0-.3-.1-.3-.2l-1.6-3.1L245,93.8h0c.1,2.4.1,4.3.1,5.7v3.6C245.1,103.3,245,103.4,244.9,103.4Zm20.9-5.9v1.9c0,.1-.1.2-.3.2H260v.5a1.7,1.7,0,0,0,.5,1.3,2,2,0,0,0,1.4.4,5.2,5.2,0,0,0,2.6-.8h.3l.8,1a.2.2,0,0,1-.1.4,5.9,5.9,0,0,1-3.7,1.2,4.5,4.5,0,0,1-2.8-.9,3.3,3.3,0,0,1-1.1-2.6V97.5a3.4,3.4,0,0,1,1.1-2.7,4,4,0,0,1,2.8-1,3.9,3.9,0,0,1,2.8,1A3.2,3.2,0,0,1,265.8,97.5Zm-2.1,0a2,2,0,0,0-.5-1.4,2.1,2.1,0,0,0-1.4-.4,1.6,1.6,0,0,0-1.8,1.8V98h3.7Zm6-2.5a4.6,4.6,0,0,1,2.1-.5,3.6,3.6,0,0,1,2.7,1,3.4,3.4,0,0,1,1.1,2.7v1.6a3.6,3.6,0,0,1-1.2,2.9,4.4,4.4,0,0,1-2.9.9,4.5,4.5,0,0,1-2.8-.9,3.5,3.5,0,0,1-1.1-2.9V94.3a3.1,3.1,0,0,1,1.1-2.6,5.3,5.3,0,0,1,2.5-1.2,15.1,15.1,0,0,0,2.8-.7.2.2,0,0,1,.3.1L275,91c.1.2,0,.3-.1.4l-2.9.9-.9.2-.7.4-.6.6a2.8,2.8,0,0,0-.1.9Zm1.8,6.8a2,2,0,0,0,1.4-.5,1.8,1.8,0,0,0,.6-1.5V98.2a1.7,1.7,0,0,0-1.9-1.9,3.6,3.6,0,0,0-1.9.4v3.1a1.7,1.7,0,0,0,.5,1.5A1.9,1.9,0,0,0,271.5,101.8Zm13.6-4.3v1.9c0,.1,0,.2-.2.2h-5.5v.5a1.7,1.7,0,0,0,.5,1.3,2,2,0,0,0,1.4.4,4.6,4.6,0,0,0,2.5-.8h.4l.7,1a.2.2,0,0,1,0,.4,6.1,6.1,0,0,1-3.7,1.2,4.5,4.5,0,0,1-2.8-.9,3,3,0,0,1-1.1-2.6V97.5a3.4,3.4,0,0,1,1.1-2.7,4,4,0,0,1,2.8-1,3.9,3.9,0,0,1,2.8,1A3.1,3.1,0,0,1,285.1,97.5Zm-2,0a2,2,0,0,0-.5-1.4,2.1,2.1,0,0,0-1.4-.4,1.6,1.6,0,0,0-1.8,1.8V98h3.7Zm6.6,2.8a4.5,4.5,0,0,1-1.1,2.5,3.2,3.2,0,0,1-2.2.7.3.3,0,0,1-.3-.3v-1.3q0-.2.3-.3a.9.9,0,0,0,.8-.4,3.2,3.2,0,0,0,.5-1.4,45.4,45.4,0,0,0,.5-5.5c0-.2.1-.2.2-.2h6.2c.2,0,.3,0,.3.2v8.8a.3.3,0,0,1-.3.3H293c-.2,0-.2-.1-.2-.3V95.9h-2.7A26.5,26.5,0,0,1,289.7,100.3Zm11.4,3.1h-3.7a.3.3,0,0,1-.3-.3V94.3c0-.2.1-.2.3-.2H299c.1,0,.2,0,.2.2v2.8h1.9a4.3,4.3,0,0,1,2.7.8,3.5,3.5,0,0,1,.1,4.8A4.7,4.7,0,0,1,301.1,103.4Zm-1.9-4.6v2.9h1.6c1.3,0,1.9-.5,1.9-1.4a1.2,1.2,0,0,0-.4-1.1,2.4,2.4,0,0,0-1.5-.4ZM206,92.4l-2,6.1h5l-2-6.1Z"/><path class="cls-10" d="M194.4,257.4h2.7l3.9,9.5-1.6,2.3Zm7.1,10.6a8,8,0,0,1-.8,1.6,3.1,3.1,0,0,1-1.1.9,3.2,3.2,0,0,1-1.4.3h-1.6v-2.3h1l.8-.2.6-.5.4-.9,3.4-9.5h2.6Z"/><path class="cls-10" d="M207.6,270.3a3.6,3.6,0,0,1-1.5-1.5,5.2,5.2,0,0,1-.5-2.3v-1.1a5.2,5.2,0,0,1,.5-2.3,4.3,4.3,0,0,1,1.5-1.5,5.2,5.2,0,0,1,2.3-.5l1.5.2,1.2.5a2.4,2.4,0,0,1,.9.8l-1.6,1.6-.8-.5-1-.2a2,2,0,0,0-1.4.5,1.8,1.8,0,0,0-.6,1.4v1.1a1.7,1.7,0,0,0,.6,1.4,1.6,1.6,0,0,0,1.4.5,1.6,1.6,0,0,0,1-.2l.8-.5,1.6,1.7a3.6,3.6,0,0,1-.9.8l-1.2.5h-1.5A4.1,4.1,0,0,1,207.6,270.3Z"/><path class="cls-10" d="M215.2,261.2h2.5v9.5h-2.5Zm1.4,0h5.8v2.4h-5.8Zm4.3,0h2.5v9.5h-2.5Z"/><path class="cls-10" d="M227.7,270.3a4,4,0,0,1-1.5-1.4,5.2,5.2,0,0,1-.5-2.3v-1.1a6,6,0,0,1,.5-2.4,4,4,0,0,1,1.4-1.5,5.6,5.6,0,0,1,2.3-.5,3.7,3.7,0,0,1,2.1.6,4.4,4.4,0,0,1,1.4,1.8,8.5,8.5,0,0,1,.4,2.9v.6h-6.5v-1.7h4.2v-.2a2.2,2.2,0,0,0-.5-1.3,1.5,1.5,0,0,0-1.1-.4,2,2,0,0,0-1.4.5,2.5,2.5,0,0,0-.5,1.5v1.2a2.1,2.1,0,0,0,.5,1.5,2,2,0,0,0,1.5.6l1-.2a1.9,1.9,0,0,0,.9-.5l1.7,1.4a6.2,6.2,0,0,1-1.7,1.1,5.8,5.8,0,0,1-1.9.3A4.3,4.3,0,0,1,227.7,270.3Z"/><path class="cls-10" d="M236,261.2h2.5v9.5H236Zm1.3,7.1h9.5v2.4h-9.5Zm3.4-7.1h2.5v9.5h-2.5Zm4.6,0h2.5v9.5h-2.5Z"/><path class="cls-10" d="M250.4,261.2h2.5v9.5h-2.5Zm1.3,3.7h5.8v2.3h-5.8Zm4.4-3.7h2.5v9.5h-2.5Z"/><path class="cls-10" d="M262.8,270.4a3.2,3.2,0,0,1-1.4-1.4,4.3,4.3,0,0,1-.5-2.3v-1.5a3.8,3.8,0,0,1,.5-2.2,2.7,2.7,0,0,1,1.4-1.4,4.8,4.8,0,0,1,2.2-.5,5.1,5.1,0,0,1,2.2.5,3.2,3.2,0,0,1,1.4,1.4,4.8,4.8,0,0,1,.5,2.2v1.6a5.1,5.1,0,0,1-.5,2.2,3.8,3.8,0,0,1-1.4,1.4,5.1,5.1,0,0,1-2.2.4A4.8,4.8,0,0,1,262.8,270.4Zm3.3-2.4a1.7,1.7,0,0,0,.5-1.2v-1.6a1.9,1.9,0,0,0-.5-1.3,1.6,1.6,0,0,0-1.1-.4,2.1,2.1,0,0,0-1.2.4,1.8,1.8,0,0,0-.4,1.3v1.6a1.4,1.4,0,0,0,1.6,1.6A1.2,1.2,0,0,0,266.1,268Z"/><path class="cls-10" d="M270.9,257.4h2.5v9.4h-2.5Zm0,10.8h2.5v2.5h-2.5Z"/><path class="cls-15" d="M374.6,415.5a14.2,14.2,0,0,0-5.9-6,17.5,17.5,0,0,0-8.7-2.1H339a.6.6,0,0,0-.6.6v38.2a.5.5,0,0,1-.5.5h-9.3a.6.6,0,0,0-.6.6v5.6a.6.6,0,0,0,.6.5h9.3a.6.6,0,0,1,.5.6v8.5a.6.6,0,0,0,.6.5h5.5a.6.6,0,0,0,.6-.5V454a.6.6,0,0,1,.6-.6H355a.5.5,0,0,0,.5-.5v-5.6a.6.6,0,0,0-.5-.6h-9.3c-.4,0-.6-.2-.6-.5V442a.6.6,0,0,1,.6-.6H360a17.5,17.5,0,0,0,8.7-2.1,14.2,14.2,0,0,0,5.9-6,17.9,17.9,0,0,0,2.1-8.8A18.7,18.7,0,0,0,374.6,415.5Zm-5.8,14.6a8.9,8.9,0,0,1-3.5,3.7,9.3,9.3,0,0,1-5.1,1.4H345.7a.6.6,0,0,1-.6-.6V414.2c0-.3.2-.5.6-.5h14.5a9.2,9.2,0,0,1,8.6,5.1,12.6,12.6,0,0,1,1.2,5.7A12.8,12.8,0,0,1,368.8,430.1Z"/><path class="cls-15" d="M120.4,406.1a13.9,13.9,0,0,0-8.2-1.7,17.8,17.8,0,0,0-8.5,3l-12.4,8.3-2.1,1.4L86.3,419a.6.6,0,0,0-.2.8l21.2,31.8c.1.3.1.7-.2.8l-7.8,5.2a.6.6,0,0,0-.1.8l3.1,4.6a.6.6,0,0,0,.8.2l7.7-5.2a.5.5,0,0,1,.8.2l4.7,7c.1.3.5.3.8.2l4.6-3.1a.6.6,0,0,0,.1-.8l-4.7-7a.6.6,0,0,1,.2-.8l7.8-5.1a.6.6,0,0,0,.1-.8l-3.1-4.7a.6.6,0,0,0-.8-.1l-7.7,5.1a.6.6,0,0,1-.8-.1l-2.3-3.5a.5.5,0,0,1,.2-.8l11.9-7.9a18.2,18.2,0,0,0,6.1-6.6,14.6,14.6,0,0,0,1.6-8.2,18.2,18.2,0,0,0-3.2-8.6A19.1,19.1,0,0,0,120.4,406.1Zm3.2,15.4a8.7,8.7,0,0,1-.8,5,9.9,9.9,0,0,1-3.5,3.9l-12.1,8.1a.5.5,0,0,1-.8-.2L95.1,421.4a.6.6,0,0,1,.2-.8l12.1-8.1a10,10,0,0,1,5-1.7,9.1,9.1,0,0,1,5,1.3,12.9,12.9,0,0,1,4.1,4A12.2,12.2,0,0,1,123.6,421.5Z"/><rect class="cls-6" x="184.8" y="307.7" width="32.8" height="84.82"/><path class="cls-8" d="M294.2,321.1v-1a12.4,12.4,0,0,0-12.4-12.4h-97a12.4,12.4,0,0,1,10.8,12.3v21.6h.2V468.2a15,15,0,0,0,15,14.9h83.4v-162Z"/><path class="cls-6" d="M228.5,460.9v9.8a12.4,12.4,0,0,1-9.5,12.1v.3h42.9V460.9Z"/><path class="cls-8" d="M235.2,449.1v21.6A12.4,12.4,0,0,1,224.4,483h85.9a12.3,12.3,0,0,0,12.4-12.4V449.1Z"/><line class="cls-12" x1="214.9" y1="324.6" x2="279.6" y2="324.6"/><line class="cls-12" x1="214.9" y1="336.3" x2="279.6" y2="336.3"/><line class="cls-12" x1="214.9" y1="346.3" x2="279.6" y2="346.3"/><line class="cls-12" x1="214.9" y1="416" x2="279.6" y2="416"/><line class="cls-12" x1="214.9" y1="433.1" x2="279.6" y2="433.1"/><line class="cls-12" x1="214.9" y1="356.7" x2="253.5" y2="356.7"/><line class="cls-12" x1="214.9" y1="366" x2="253.5" y2="366"/><line class="cls-12" x1="214.9" y1="375.3" x2="253.5" y2="375.3"/><line class="cls-12" x1="214.9" y1="384.5" x2="253.5" y2="384.5"/><line class="cls-12" x1="214.9" y1="393.8" x2="253.5" y2="393.8"/><line class="cls-12" x1="214.9" y1="403.1" x2="253.5" y2="403.1"/><line class="cls-12" x1="20.8" y1="483.4" x2="482.6" y2="483.4"/><line class="cls-16" x1="161.6" y1="218.6" x2="315" y2="218.6"/><path class="cls-9" d="M192.8,200.4s.4-13.2,1.9-13.5,5.5.9,18.3.5,19.5-.2,20,.2,2.1,20.1,1.4,20.3-15.3-1.3-21.4-1.1-18.4,1.1-19.4.9S192.8,200.4,192.8,200.4Z"/><path class="cls-9" d="M274.2,200.4s-.5-13.2-2-13.5-5.5.9-18.3.5-19.5-.2-20,.2-.2,20.1.5,20.3,13.5-1.3,19.5-1.1,18.4,1.1,19.5.9S274.2,200.4,274.2,200.4Z"/><rect class="cls-9" x="192.9" y="220.9" width="83.5" height="5.38"/><rect class="cls-9" x="192.9" y="206.6" width="42.1" height="9.28"/><rect class="cls-9" x="234.9" y="206.6" width="41.2" height="9.28"/><rect class="cls-9" x="192.9" y="211.9" width="42.1" height="9.28"/><rect class="cls-9" x="234.9" y="211.9" width="41.2" height="9.28"/><path class="cls-6" d="M206.2,189.5s-3.9,3.2-7.7,3.3-5.3-.8-7.6.4,4,14.4,6.1,15.1,13.3-1.9,14.6-2.4-2.9-12-3.5-13.9S207.5,188.9,206.2,189.5Z"/><path class="cls-5" d="M212.4,193.7s-4.1-1.3-4.7-1,.8,7.3,1.2,9.2-.4,4.5.3,4.9a140.7,140.7,0,0,0,16.4.5c1.9-.2-2-10.4-2.3-13.3s-.1-2.6-1.5-2.1A37.2,37.2,0,0,1,212.4,193.7Z"/><path class="cls-6" d="M260.8,189.5s4,3.2,7.7,3.3,5.4-.8,7.6.4-4,14.4-6.1,15.1-13.3-1.9-14.6-2.4,2.9-12,3.5-13.9S259.5,188.9,260.8,189.5Z"/><path class="cls-5" d="M254.7,193.7s4-1.3,4.6-1-.8,7.3-1.1,9.2.3,4.5-.4,4.9a140.7,140.7,0,0,1-16.4.5c-1.8-.2,2-10.4,2.4-13.3s.1-2.6,1.5-2.1A36.3,36.3,0,0,0,254.7,193.7Z"/><path class="cls-9" d="M190,198.8h2.5a1.6,1.6,0,0,1,1.6,1.6v28.1a1.4,1.4,0,0,1-1.4,1.4h-3a1.4,1.4,0,0,1-1.4-1.4V200.4A1.6,1.6,0,0,1,190,198.8Z"/><path class="cls-9" d="M275.3,198.8h2.5a1.6,1.6,0,0,1,1.6,1.6v28.1a1.4,1.4,0,0,1-1.4,1.4h-3a1.4,1.4,0,0,1-1.4-1.4V200.4A1.6,1.6,0,0,1,275.3,198.8Z"/><path class="cls-5" d="M307.4,213.4c-.1-.8-3.5-2-3.5-2l-4.6.3-4.6-.3s-3.4,1.2-3.5,2-2,13.9-2,13.9a30.9,30.9,0,0,0,8.5,1.3h3.2a30.9,30.9,0,0,0,8.5-1.3S307.5,214.3,307.4,213.4Z"/><ellipse class="cls-5" cx="299.3" cy="210.5" rx="5.8" ry="2.2"/><path class="cls-5" d="M288.3,206.1l2,2.8c0,1.4,4,2.5,9,2.5s9-1.1,9-2.5l2-2.8Z"/><ellipse class="cls-5" cx="299.3" cy="206.1" rx="11" ry="2.4"/><polyline class="cls-16" points="299.3 205.6 300.8 189 287.5 177.2"/><path class="cls-5" d="M287.7,177.3a1.8,1.8,0,0,0,.8-1.4,1.5,1.5,0,0,0-1-1.9c-.7-.1-1.4.6-1.6,1.6a2.3,2.3,0,0,0,.5,1.5c-1.4.4-2.6,2.2-2.9,4.5a3.4,3.4,0,0,0-.1,1l5.8.8c.1-.3.1-.7.2-1C289.7,180,288.9,178,287.7,177.3Z"/><rect class="cls-5" x="295.6" y="203.9" width="7.4" height="1.61"/><path class="cls-11" d="M175.7,187.5h-.1a33.6,33.6,0,0,0-1.4,4.5,35.5,35.5,0,0,0-.8,4.7v1.2c0,.2-.1.4-.1.6v.6a3.7,3.7,0,0,1-.1,1.1v2.4c0,.4.1.8.1,1.2l.3,2.4h.1a4.9,4.9,0,0,1-.1-1.2v-6.5a1.3,1.3,0,0,1,.1-.6v-1.2c.2-1.5.4-3.1.7-4.7A25.4,25.4,0,0,1,175.7,187.5Z"/><path class="cls-11" d="M175.8,193.7h0a24.5,24.5,0,0,0-.8,2.9,18.1,18.1,0,0,0-.5,3.1c-.1,1.1-.3,2.1-.3,3.1s0,2.1.1,3.1h.1a30.3,30.3,0,0,0,.2-3.1c.1-1,.1-2,.2-3a29.1,29.1,0,0,1,.4-3.1C175.3,195.7,175.6,194.7,175.8,193.7Z"/><path class="cls-11" d="M179.3,195.8h-.1l-2.3,2-.9,1.3v.3l-.2.4v.3c0,.2-.1.3-.1.4a15.7,15.7,0,0,0-.5,3c0,1,0,2.1.1,3.1h.1l.2-3c.1-1,.2-2,.4-3s.1-.3.1-.4v-.7l.2-.3a5,5,0,0,1,.8-1.2,7.3,7.3,0,0,1,2.2-2.1h0Z"/><path class="cls-11" d="M177.6,199.7a2.8,2.8,0,0,0-1,1.2,5.2,5.2,0,0,0-.6,1.6c-.1.1-.1.2-.1.4v.4a1.9,1.9,0,0,0-.1.8v.8a1.9,1.9,0,0,0,.1.8h0c.1-.2.1-.5.2-.8s.1-.5.1-.8.1-.5.1-.8a1.7,1.7,0,0,1,.1-.7,4.3,4.3,0,0,1,.5-1.6,4.6,4.6,0,0,1,.8-1.3Z"/><path class="cls-11" d="M172.8,202.7c-.1-1.3-.3-2.6-.5-4s-.5-2.6-.7-3.9-.5-2.6-.8-3.9h-.1c.3,1.3.5,2.6.7,3.9s.4,2.7.5,4,.3,2.6.5,4l.5,3.9h0v-2A13.4,13.4,0,0,0,172.8,202.7Z"/><path class="cls-11" d="M172,202.7l-.3-1.6-.2-.8c0-.2-.1-.5-.1-.7a28.3,28.3,0,0,0-1.1-3.1v-.3l-.2-.4-.4-.7-.9-1.3h-.1a4.2,4.2,0,0,1,.9,1.4l.3.7.2.3v.4a17.1,17.1,0,0,1,.9,3,11,11,0,0,1,.3,1.6l.2.8c0,.2.1.5.1.8l.3,1.5a4.5,4.5,0,0,0,.3,1.6h0v-1.6C172.1,203.8,172.1,203.2,172,202.7Z"/><path class="cls-11" d="M170.9,202.8a18,18,0,0,0-.8-2.1l-1.1-1.9h0l.9,2c.2.7.5,1.4.7,2.1s.3,1.4.5,2.1l.6,2.1h0a5.5,5.5,0,0,0-.2-2.2A16.6,16.6,0,0,0,170.9,202.8Z"/><path class="cls-11" d="M170.9,205.1l-.6-1.2-.9-1.1-.5-.4-.6-.3h-.1l1.1.8.7,1.1.5,1.2a1.4,1.4,0,0,0,.2.6l.3.7h0v-.6C171,205.5,170.9,205.3,170.9,205.1Z"/><path class="cls-1" d="M170.9,192.8a3.9,3.9,0,0,1-2.7-2.9c-.5-2.4,1.2-1.3-.3-5s-1.1-4.6-.6-5.7.8-.7,1.2.7,2.1,3.6,2.7,7.7S170.9,192.8,170.9,192.8Z"/><path class="cls-1" d="M175.3,188.8s-1.5-.5-1.6-3.3,1.1-2.2,1.3-5.6.4-5.8,1-5.9,2.2,1.7,2.8,5.5-.7,6.4-1.9,7.5A16.2,16.2,0,0,0,175.3,188.8Z"/><path class="cls-1" d="M170.2,196.1a10.1,10.1,0,0,0-1.1-3c-.6-1-2.1-1.8-3-3.6s-2.1-2.8-2-.2a5.3,5.3,0,0,0,2.7,4.9C168.2,195.1,170.2,196.1,170.2,196.1Z"/><path class="cls-1" d="M169.5,199.5a19,19,0,0,0-3.3-4.4c-1.9-1.9-3.5-2.9-2.9-1.9s1.2.9,2.1,2.5.7,3,2.1,3.9S169.5,199.5,169.5,199.5Z"/><path class="cls-1" d="M169.4,202.9a3.5,3.5,0,0,0-2.1-2.5c-1.9-1-3.7-.6-3.4-.1a5.8,5.8,0,0,0,2.6,1.9A11.9,11.9,0,0,0,169.4,202.9Z"/><path class="cls-1" d="M175.1,196.2a4.2,4.2,0,0,1-.3-3.3c.4-2.3,1.4-1.7,2.5-2.9s.9-1.3,2.1-2.6,2.1-1.9,2.5-1.4-.2,2.1-.9,3-1.7,1.4-2.2,2.5-.3,2.9-1.6,3.7A5.4,5.4,0,0,1,175.1,196.2Z"/><path class="cls-1" d="M177.9,196.8l3.5-4c1.5-1.7,2-3,2.1-1.8s.5,2-.7,3.4S177.9,196.8,177.9,196.8Z"/><path class="cls-1" d="M176.9,200.5s-.1-.9,3.1-3,4.6-2.4,4.2-1.6-1.7,1.7-3.2,3.2A6.2,6.2,0,0,1,176.9,200.5Z"/><path class="cls-16" d="M171.1,192.5s-.8-4-1.6-6.9-1.3-4.6-1.3-4.6"/><path class="cls-16" d="M175.1,188.8a56.3,56.3,0,0,0,1.8-7,14.7,14.7,0,0,0-.2-5.8"/><path class="cls-16" d="M170,196a30.8,30.8,0,0,0-2.1-3c-1.2-1.4-2.2-2.2-2.7-3.6"/><path class="cls-16" d="M175.1,196.2a11.6,11.6,0,0,1,1.6-4.1c1-1.4,3.2-3.6,4-5"/><path class="cls-16" d="M169.2,202.8l-3.2-1.9"/><path class="cls-6" d="M180,214.1c-.1-3.4-3.9-5.7-3.9-5.7h-5.8s-3.7,2.3-3.9,5.7,4.3,15.9,4.3,15.9h5.1S180.2,217.5,180,214.1Z"/><polygon class="cls-6" points="176.9 205.1 169.5 205.1 170.3 208.4 176 208.4 176.9 205.1"/><path class="cls-17" d="M363.6,269.7a6.1,6.1,0,0,0-3-.1,7.7,7.7,0,0,0-2.7,1.6l-3.7,3.7-.7.6-.8.9c-.1,0-.1.2-.1.3l9.4,9.6c.1,0,.1.2,0,.2l-2.3,2.3a.2.2,0,0,0,0,.3l1.3,1.4a.2.2,0,0,0,.3,0l2.4-2.3h.2l2.1,2.1h.3l1.4-1.3a.2.2,0,0,0,0-.3l-2.1-2.1a.2.2,0,0,1,0-.3L368,284v-.3l-1.4-1.4h-.3l-2.3,2.3h-.3l-1-1a.2.2,0,0,1,0-.3l3.6-3.5a6.5,6.5,0,0,0,1.7-2.7,7.1,7.1,0,0,0,0-2.9,7.5,7.5,0,0,0-1.7-2.8A6.5,6.5,0,0,0,363.6,269.7Zm2.1,5.1a3.7,3.7,0,0,1,.1,1.8,3.6,3.6,0,0,1-1,1.5l-3.7,3.6c0,.1-.2.1-.2,0l-5-5.1a.2.2,0,0,1,0-.3l3.6-3.6a6.5,6.5,0,0,1,1.6-.9,3.7,3.7,0,0,1,1.8.1,4.8,4.8,0,0,1,1.7,1.2A4.5,4.5,0,0,1,365.7,274.8Z"/></g></svg>