<svg width="62" height="62" viewBox="0 0 62 62" fill="none" xmlns="http://www.w3.org/2000/svg">
<path fill-rule="evenodd" clip-rule="evenodd" d="M6.56623 52.7851C4.49381 52.7851 2.81824 51.1536 2.81824 49.0812V20.1556C2.81824 19.4059 3.03871 18.6563 3.43555 18.0831L3.47965 17.9949L7.35992 11.1604L7.40401 11.1162C7.97724 10.1903 8.90321 9.573 10.182 9.39658H38.3139C39.6368 9.3525 40.8272 9.88159 41.5327 11.0722L45.3249 18.039L45.3689 18.0831C45.8099 18.7004 46.0304 19.4059 46.0304 20.1556V26.8993C45.3568 26.8697 44.6489 26.8135 43.9138 26.7237V20.1556V19.8469L43.8257 19.6264L43.5611 19.1854L43.473 19.0091L42.9438 18.6563C42.7674 18.5682 42.5469 18.524 42.2824 18.524H30.0242V33.3837C30.0242 33.9569 29.5392 34.4419 28.966 34.4419H20.544C19.9708 34.4419 19.4858 33.9569 19.4858 33.3837V18.524H6.56623C6.34576 18.524 6.12529 18.5682 5.94891 18.6563L5.37569 19.0091L5.24341 19.1854L5.19931 19.2737L5.02294 19.5382L4.89065 20.1556V49.0812C4.89065 49.9631 5.64025 50.7126 6.52214 50.7126H40.2542C41.0645 51.4552 41.9687 52.1337 42.9754 52.7229C42.7508 52.7638 42.5192 52.7851 42.2824 52.7851H6.56623ZM8.63865 48.6844C8.06543 48.6844 7.58039 48.1993 7.58039 47.6261C7.58039 47.0528 8.06543 46.5678 8.63865 46.5678H17.6338C18.207 46.5678 18.6921 47.0528 18.6921 47.6261C18.6921 48.1993 18.207 48.6844 17.6338 48.6844H8.63865ZM10.1378 45.9506C9.56459 45.9506 9.07959 45.4655 9.07959 44.8922V43.2166L8.90321 43.3049L8.72683 43.4371L8.41817 43.5253L8.32999 43.6135C8.10951 43.6135 7.84495 43.5695 7.66858 43.3931C7.22764 43.0403 7.13945 42.3789 7.4922 41.9379L9.34415 39.601C9.74101 39.0718 10.5347 39.0718 10.9757 39.601L12.7394 41.7616C13.0921 42.2026 13.048 42.8639 12.563 43.2166C12.2984 43.3931 12.0339 43.4371 11.7693 43.4371L11.5047 43.2608H11.4166L11.3284 43.1726L11.152 43.0844V44.8922C11.152 45.4655 10.711 45.9506 10.1378 45.9506ZM15.8701 45.9506C15.2969 45.9506 14.8118 45.4655 14.8118 44.8922V43.2166L14.6795 43.3049L14.5032 43.4371L14.1945 43.5253L14.0622 43.6135C13.8417 43.6135 13.5772 43.5253 13.4008 43.349C12.9598 42.9963 12.8716 42.3348 13.2245 41.8939L15.0764 39.5569C15.4732 39.0278 16.311 39.0278 16.7078 39.5569L18.4716 41.7175C18.8244 42.1584 18.7802 42.8198 18.2952 43.1726C18.0747 43.3931 17.8102 43.4371 17.5457 43.4371L17.2811 43.2608H17.1928L17.1047 43.1726L16.9283 43.0844V44.8922C16.9283 45.4655 16.4874 45.9506 15.8701 45.9506ZM22.7046 32.3696L27.9078 26.6814L27.9518 26.6374V23.1099L21.955 29.5917L21.6464 29.8562H21.6023V32.3696H22.7046ZM27.9518 32.3696V29.7239L25.5707 32.3696H27.9518ZM21.6023 26.946L27.6431 20.3319L27.9078 20.1556V18.5682H26.0999L21.6023 23.5067V26.946ZM21.6023 20.4201L23.3219 18.5682H21.6023V20.4201ZM19.7503 16.4516L20.544 11.5131H10.226L9.34415 11.9981L9.12368 12.2627L6.7867 16.4516H19.7503ZM23.3661 16.4516L23.4101 16.3634L27.1581 12.2627L27.0699 11.5131H25.9235V11.5572L22.0432 15.7461L21.955 15.8343L21.8668 16.4516H23.3661ZM27.7754 16.4516L27.555 14.9084L26.1881 16.4516H27.7754ZM42.1059 16.4516L39.725 12.1304C39.5045 11.6895 39.1076 11.469 38.358 11.5131H29.1865L29.8919 16.4516H42.1059ZM22.5724 12.0863L23.1014 11.5131H22.6606L22.5724 12.0863ZM57.2495 35.9889C56.2514 35.0344 54.99 33.7596 53.8609 32.4757C53.1642 31.6836 52.4919 30.8587 51.9585 30.0842C51.8122 29.8717 51.6627 29.6441 51.5202 29.406C49.3968 29.7649 46.0803 29.9669 42.2864 29.3357C41.5804 30.5056 40.672 31.9036 39.722 33.1642C39.076 34.0215 38.3767 34.8608 37.6805 35.529C37.3986 35.7996 37.0613 36.0982 36.6803 36.3634C36.844 38.5886 37.4871 41.6041 38.9576 44.4058C40.6315 47.5952 43.3258 50.4279 47.577 51.6361C50.1965 51.2148 56.3288 47.9628 57.2495 35.9889ZM47.4395 53.5456C51.0404 53.2325 58.4304 49.1304 59.1819 35.2274C57.2744 33.4667 53.4969 29.6433 52.7204 27.6234C52.6683 27.4879 52.6297 27.3606 52.6061 27.2425C52.1865 27.3684 51.5599 27.5078 50.7662 27.6227C48.5985 27.9365 45.1841 28.0677 41.3334 27.2425C39.9243 29.7476 36.6364 34.8516 34.7576 35.2274C34.7576 40.2374 37.294 50.9153 47.4395 53.5456ZM52.7843 38.0498C52.7843 37.8925 52.7215 37.7352 52.6082 37.622L51.7527 36.7665C51.6395 36.6533 51.4822 36.5903 51.325 36.5903C51.1677 36.5903 51.0104 36.6533 50.8972 36.7665L46.7705 40.8994L44.9211 39.0437C44.8079 38.9305 44.6507 38.8675 44.4933 38.8675C44.3361 38.8675 44.1788 38.9305 44.0656 39.0437L43.2101 39.8992C43.0968 40.0125 43.034 40.1697 43.034 40.327C43.034 40.4842 43.0968 40.6415 43.2101 40.7547L45.4873 43.0319L46.3428 43.8875C46.456 44.0007 46.6133 44.0636 46.7705 44.0636C46.9279 44.0636 47.0851 44.0007 47.1983 43.8875L48.0538 43.0319L52.6082 38.4775C52.7215 38.3643 52.7843 38.207 52.7843 38.0498Z" fill="#4675CE"/>
</svg>
