<svg id="Слой_1" data-name="Слой 1" xmlns="http://www.w3.org/2000/svg" viewBox="0 0 238.4 43.5"><defs><style>.cls-1{fill:#dcaf86;}.cls-2{fill:#b79371;}.cls-3,.cls-4{fill:#fff;}.cls-4{fill-rule:evenodd;}</style></defs><path class="cls-1" d="M12.9,1.3H36.1a7.5,7.5,0,0,1,7.4,7.3V20.7A7.5,7.5,0,0,1,36.1,28H12.9a7.3,7.3,0,0,1-7.3-7.3V8.6a7.3,7.3,0,0,1,7.3-7.3Z" transform="translate(0 0)"/><path class="cls-1" d="M1.1,42.4H8.9V18.9H1.1Zm39,0h7.8V18.9H40.1Z" transform="translate(0 0)"/><path class="cls-2" d="M42.1,39V31.2H7V39Z" transform="translate(0 0)"/><path class="cls-1" d="M7.8,30.5V26.2A2.2,2.2,0,0,1,10,24H39a2.2,2.2,0,0,1,2.2,2.2h0v4.4Z" transform="translate(0 0)"/><path class="cls-3" d="M40.1,17.8a1.2,1.2,0,0,0-.8.4.9.9,0,0,0-.3.7v5.6h2.2V20.1h5.6V41.2H41.2V37.9H39v4.5a1.2,1.2,0,0,0,1.1,1.1h7.8A1.2,1.2,0,0,0,49,42.4V18.9a.9.9,0,0,0-.3-.7,1.2,1.2,0,0,0-.8-.4Z" transform="translate(0 0)"/><path class="cls-3" d="M10,22.8a3.5,3.5,0,0,0-3.3,3.4v2.2H8.9V26.2A1.1,1.1,0,0,1,10,25.1H39a1.1,1.1,0,0,1,1.1,1.1v2.2h2.3V26.2A3.5,3.5,0,0,0,39,22.8ZM7,30.1a1,1,0,0,0-1.1.9v8a1,1,0,0,0,.9,1.1H25.6V37.9H8.1V32.3H41v5.6H32.2v2.2h9.9a1,1,0,0,0,1.1-.9v-8a1,1,0,0,0-.9-1.1H7ZM12.3,0A7.8,7.8,0,0,0,4.5,7.8V18.4H6.7V7.8a5.6,5.6,0,0,1,5.6-5.6H36.8a5.4,5.4,0,0,1,5.5,5.3v8.1h2.3V7.8A7.8,7.8,0,0,0,36.8,0Z" transform="translate(0 0)"/><path class="cls-4" d="M23.4,9.5l-.6.2a.7.7,0,0,0-.4.5,1.3,1.3,0,0,0-.1.6l.3.6,2.2,2.2.4.3H26l.4-.3.3-.3v-.5a.6.6,0,0,0-.1-.4l-.2-.4L24.2,9.8l-.4-.2Z" transform="translate(0 0)"/><path class="cls-4" d="M25.6,9.5a1.1,1.1,0,0,0-.8.3L22.6,12l-.2.4a.6.6,0,0,0-.1.4.9.9,0,0,0,.1.5l.2.3.4.3h.8l.4-.3,2.2-2.2a.9.9,0,0,0,.3-.6.7.7,0,0,0-.1-.6.7.7,0,0,0-.4-.5A.7.7,0,0,0,25.6,9.5Zm7.8,0-.6.2a1,1,0,0,0-.4.5,1.3,1.3,0,0,0-.1.6l.3.6,2.2,2.2.4.3h.9l.3-.3.3-.3c0-.2.1-.3.1-.5s-.1-.3-.1-.4l-.3-.4L34.2,9.8l-.4-.2Z" transform="translate(0 0)"/><path class="cls-4" d="M35.6,9.5a1.1,1.1,0,0,0-.8.3L32.6,12l-.2.4a.6.6,0,0,0-.1.4.9.9,0,0,0,.1.5l.2.3.4.3h.8l.4-.3,2.2-2.2a.9.9,0,0,0,.3-.6.6.6,0,0,0,0-.6l-.5-.5C36.1,9.5,35.8,9.5,35.6,9.5Zm-22.3,0-.6.2a1,1,0,0,0-.4.5.6.6,0,0,0,0,.6.9.9,0,0,0,.3.6l2.2,2.2.3.3H16l.4-.3.2-.3a.9.9,0,0,0,.1-.5.6.6,0,0,0-.1-.4c-.1-.1-.1-.3-.2-.4L14.1,9.8l-.3-.2Z" transform="translate(0 0)"/><path class="cls-4" d="M15.5,9.5a.9.9,0,0,0-.7.3L12.6,12l-.3.4c0,.1-.1.3-.1.4a4.3,4.3,0,0,1,.1.5l.3.3.3.3h.9l.4-.3,2.2-2.2.3-.6a1.3,1.3,0,0,0-.1-.6,1,1,0,0,0-.4-.5A.8.8,0,0,0,15.5,9.5Z" transform="translate(0 0)"/><path class="cls-3" d="M1.1,17.8a1.2,1.2,0,0,0-.8.4.9.9,0,0,0-.3.7V42.4a.9.9,0,0,0,.3.7.9.9,0,0,0,.8.4H8.9a.9.9,0,0,0,.8-.4.9.9,0,0,0,.3-.7V37.9H7.8v3.3H2.2V20.1H7.8v4.4H10V18.9a.9.9,0,0,0-.3-.7,1.2,1.2,0,0,0-.8-.4ZM27.9,37.9v2.2h2.2V37.9Z" transform="translate(0 0)"/><path class="cls-3" d="M61.5,33.6h-3c-.4,0-.5-.1-.4-.5l6.4-18.5H60.4c-.3,0-.4-.1-.4-.4V11.8c0-.3.1-.4.4-.4h17c.3,0,.4.1.4.4v2.4c0,.3-.1.4-.4.4H73.3l6.4,18.5c.1.4,0,.5-.3.5H76.3c-.3,0-.5-.1-.5-.3l-1.6-4.7H63.6L62,33.3C62,33.5,61.8,33.6,61.5,33.6ZM82.2,18.3a16.8,16.8,0,0,1,6.3-1.2,7.6,7.6,0,0,1,5.2,1.7,6.8,6.8,0,0,1,2,5.2v3.4a6.2,6.2,0,0,1-2,4.8A6.8,6.8,0,0,1,88.8,34a7.5,7.5,0,0,1-3.3-.7v5.8a.5.5,0,0,1-.5.5H82.3c-.3,0-.4-.2-.4-.5V18.8C81.9,18.5,82,18.3,82.2,18.3Zm6.3,12.5c2.3,0,3.5-1.1,3.5-3.4V23.9a3.7,3.7,0,0,0-.9-2.8,3.8,3.8,0,0,0-2.7-.8,9.2,9.2,0,0,0-2.9.4V30A6.1,6.1,0,0,0,88.5,30.8Zm23.9,2.8h-3.2l-.5-.2L103.8,27l-1.2,1.3v4.9c0,.3-.2.4-.5.4H99.5c-.3,0-.5-.1-.5-.4V18a.5.5,0,0,1,.5-.5h2.6a.5.5,0,0,1,.5.5v6l5.5-6.2a.7.7,0,0,1,.6-.3h3.1c.2,0,.4.1.4.2a.8.8,0,0,1-.1.4l-5.9,6.3,6.5,8.7C112.9,33.4,112.8,33.6,112.4,33.6Zm15.3-5.9a5.8,5.8,0,0,1-1.9,4.6,7.6,7.6,0,0,1-5.2,1.7,7.3,7.3,0,0,1-5.1-1.7,5.7,5.7,0,0,1-2-4.6V23.5a5.8,5.8,0,0,1,2-4.6,7.3,7.3,0,0,1,5.1-1.8,7.1,7.1,0,0,1,5.2,1.8,5.8,5.8,0,0,1,1.9,4.6Zm-10.5,0c0,2.1,1.1,3.1,3.4,3.1a3.5,3.5,0,0,0,2.6-.8,2.8,2.8,0,0,0,.9-2.3V23.5a2.8,2.8,0,0,0-.9-2.3,3.5,3.5,0,0,0-2.6-.8,3.3,3.3,0,0,0-2.5.8,2.8,2.8,0,0,0-.9,2.3ZM135,33.6h-2.8c-.3,0-.5-.1-.5-.4V11.8c0-.3.2-.4.5-.4h3.4a.5.5,0,0,1,.5.3l3.8,7.1,2.6,5.5h.1c1-2.2,1.9-4,2.7-5.5l3.7-7.1a.7.7,0,0,1,.6-.3h3.3c.3,0,.5.1.5.4V33.2c0,.3-.2.4-.5.4h-2.8c-.3,0-.4-.1-.4-.4V26.9c0-2.4.1-5.7.2-9.8h-.1c-.6,1.3-1.5,3.3-2.8,5.8l-2.7,5.3a.5.5,0,0,1-.5.3h-2.4a.5.5,0,0,1-.5-.3l-2.8-5.3-2.8-5.8h-.1c.2,4.1.3,7.4.3,9.8v6.3C135.5,33.5,135.3,33.6,135,33.6Zm36-10.1v3.2c0,.3-.2.4-.5.4h-9.4V28a2.7,2.7,0,0,0,.9,2.1,3.4,3.4,0,0,0,2.4.7,7.7,7.7,0,0,0,4.4-1.4c.2-.2.4-.1.6.1l1.3,1.7a.5.5,0,0,1-.1.7h0a9.9,9.9,0,0,1-6.4,2.1,7,7,0,0,1-4.8-1.6,5.3,5.3,0,0,1-2-4.5V23.5a5.9,5.9,0,0,1,2-4.8,7.8,7.8,0,0,1,4.9-1.6,7.7,7.7,0,0,1,4.8,1.6A6.1,6.1,0,0,1,171,23.5Zm-3.5,0a3,3,0,0,0-.9-2.4,4,4,0,0,0-2.3-.8c-2.2,0-3.2,1.1-3.2,3.2v.8h6.4Zm10.2-4.4a7.6,7.6,0,0,1,3.6-.8,7,7,0,0,1,4.8,1.6,6.1,6.1,0,0,1,1.9,4.8v2.7a6.3,6.3,0,0,1-2,5,7.5,7.5,0,0,1-5,1.6,6.7,6.7,0,0,1-4.9-1.7,6,6,0,0,1-2-4.9V18a5.5,5.5,0,0,1,1.9-4.5,9.5,9.5,0,0,1,4.5-2.2,24.7,24.7,0,0,0,4.7-1.1c.3-.1.5-.1.6.1l1.1,2c.2.3.1.5-.1.6a21.6,21.6,0,0,1-5.1,1.6l-1.4.4-1.3.6a3.1,3.1,0,0,0-.9,1.1,2.6,2.6,0,0,0-.4,1.5Zm3.2,11.7a4.1,4.1,0,0,0,2.4-.8,3,3,0,0,0,1-2.5V24.7q0-3.3-3.3-3.3a7.5,7.5,0,0,0-3.3.7v5.3a3.1,3.1,0,0,0,.9,2.6A4,4,0,0,0,180.9,30.8Zm23.5-7.3v3.2c0,.3-.1.4-.5.4h-9.4V28a2.7,2.7,0,0,0,.9,2.1,3.4,3.4,0,0,0,2.4.7,7.7,7.7,0,0,0,4.4-1.4c.2-.2.4-.1.6.1l1.3,1.7a.5.5,0,0,1-.1.7h0a10.2,10.2,0,0,1-6.3,2.1,7.2,7.2,0,0,1-4.9-1.6,5.3,5.3,0,0,1-2-4.5V23.5a5.9,5.9,0,0,1,2-4.8,8.4,8.4,0,0,1,4.9-1.6,7.7,7.7,0,0,1,4.8,1.6A6.1,6.1,0,0,1,204.4,23.5Zm-3.5,0a3,3,0,0,0-.9-2.4,4,4,0,0,0-2.3-.8c-2.2,0-3.2,1.1-3.2,3.2v.8h6.4Zm11.3,4.8a8.3,8.3,0,0,1-1.8,4.2,5.8,5.8,0,0,1-3.8,1.3.5.5,0,0,1-.5-.5V31.1a.5.5,0,0,1,.5-.5,1.8,1.8,0,0,0,1.4-.8,7.3,7.3,0,0,0,.8-2.5,74.5,74.5,0,0,0,.8-9.4c.1-.2.2-.4.5-.4h10.6a.4.4,0,0,1,.4.4V33.2c0,.3-.1.4-.4.4H218c-.3,0-.5-.1-.5-.4V20.7H213A47.8,47.8,0,0,1,212.2,28.3ZM232,33.6h-6.5c-.3,0-.4-.1-.4-.4V17.9a.4.4,0,0,1,.4-.4h2.7c.2,0,.5.2.5.4v4.8H232a6.9,6.9,0,0,1,4.6,1.5,4.9,4.9,0,0,1,1.8,4,4.9,4.9,0,0,1-1.7,4.1A7.8,7.8,0,0,1,232,33.6Zm-3.3-7.9v4.9h2.6c2.3,0,3.4-.8,3.4-2.4a2,2,0,0,0-.8-1.9,4,4,0,0,0-2.6-.6ZM68,14.6,64.6,25.2h8.6L69.8,14.6Z" transform="translate(0 0)"/></svg>