<svg width="239" height="44" viewBox="0 0 239 44" fill="none" xmlns="http://www.w3.org/2000/svg">
<path d="M12.9299 1.27295H36.1076C40.1842 1.27295 43.4666 4.55483 43.4666 8.63176V20.6641C43.4666 24.7411 40.1842 28.0229 36.1076 28.0229H12.9299C8.85318 28.0229 5.5708 24.7411 5.5708 20.6641V8.63176C5.5708 4.55483 8.85318 1.27295 12.9299 1.27295Z" fill="#FFC825"/>
<path d="M1.1123 42.3555H8.91439V18.9492H1.1123V42.3555ZM40.1227 42.3555H47.9248V18.9492H40.1227V42.3555Z" fill="#FFC825"/>
<path d="M42.0732 39.0118V31.2097H6.96387V39.0118H42.0732Z" fill="#DBB74D"/>
<path d="M7.80957 30.476C7.80957 30.476 7.80957 27.6216 7.80957 26.1943C7.80979 24.9631 8.80757 23.9651 10.0387 23.9651H39.0179C40.2491 23.9651 41.2473 24.9631 41.2471 26.1943C41.2462 27.6657 41.2482 30.6088 41.2482 30.6088L7.80957 30.476Z" fill="#FFC825"/>
<path d="M40.1248 17.8333C39.8292 17.8333 39.5458 17.9508 39.3368 18.1598C39.1278 18.3688 39.0103 18.6522 39.0103 18.9478V23.4062V24.5208H41.2394V23.4062V20.0624H46.8123V41.2395H41.2394V39.0103V37.8958H39.0103V39.0103V42.3541C39.0103 42.6497 39.1278 42.9331 39.3368 43.1421C39.5458 43.3512 39.8292 43.4686 40.1248 43.4687H47.9269C48.2225 43.4686 48.5059 43.3512 48.715 43.1421C48.924 42.9331 49.0415 42.6497 49.0415 42.3541V18.9478C49.0415 18.6522 48.924 18.3688 48.715 18.1598C48.5059 17.9508 48.2225 17.8333 47.9269 17.8333H40.1248Z" fill="white"/>
<path d="M10.0314 22.849C8.19788 22.849 6.68784 24.3594 6.68762 26.1927V28.4219H8.91679V26.1927C8.91679 25.5636 9.40252 25.0781 10.0314 25.0781H39.0105C39.6394 25.0781 40.1251 25.5641 40.1251 26.1927V28.4219H42.3543V26.1927C42.3545 24.359 40.844 22.849 39.0105 22.849H10.0314ZM6.96627 30.0938C6.67067 30.0938 6.38724 30.2113 6.17822 30.4203C5.9692 30.6293 5.85171 30.9127 5.85168 31.2083V39.0104C5.85171 39.306 5.9692 39.5894 6.17822 39.7985C6.38724 40.0075 6.67067 40.125 6.96627 40.125H24.521H25.6355V37.8958H24.521H8.08085V32.3229H40.9611V37.8958H33.2983H32.1837V40.125H33.2983H42.0756C42.3712 40.125 42.6547 40.0075 42.8637 39.7985C43.0727 39.5894 43.1902 39.306 43.1902 39.0104V31.2083C43.1902 30.9127 43.0727 30.6293 42.8637 30.4203C42.6547 30.2113 42.3712 30.0938 42.0756 30.0938H6.96627ZM12.2605 0C7.96382 0 4.4541 3.50536 4.4541 7.80208V18.3906H6.68762V7.80208C6.68762 4.71201 9.17047 2.23379 12.2605 2.23379H36.7814C39.8712 2.23379 42.3502 4.71201 42.3499 7.80208V15.6042H44.5835V7.80208C44.5837 3.50536 41.0779 0 36.7814 0H12.2605Z" fill="white"/>
<path fill-rule="evenodd" clip-rule="evenodd" d="M23.3931 9.48707C23.172 9.48799 22.9558 9.55474 22.7727 9.67864C22.5896 9.80253 22.4476 9.97799 22.3645 10.1829C22.2814 10.3877 22.2617 10.6127 22.3068 10.8291C22.3519 11.0456 22.4601 11.2438 22.6181 11.3984L24.8211 13.6058C24.9239 13.7125 25.0465 13.7978 25.1825 13.8564C25.3186 13.9151 25.4654 13.9459 25.6135 13.9473C25.7617 13.9487 25.9085 13.9206 26.0457 13.8646C26.1828 13.8085 26.3077 13.7258 26.4125 13.621C26.5173 13.5163 26.6002 13.3917 26.6563 13.2545C26.7123 13.1174 26.7404 12.9705 26.739 12.8224C26.7376 12.6742 26.7062 12.5277 26.6476 12.3916C26.5889 12.2556 26.504 12.1325 26.3972 12.0297L24.1942 9.82259C24.0899 9.71594 23.965 9.63119 23.8274 9.5736C23.6898 9.51601 23.5423 9.4865 23.3931 9.48707Z" fill="white"/>
<path fill-rule="evenodd" clip-rule="evenodd" d="M25.5875 9.48699C25.2982 9.49502 25.0235 9.6155 24.8212 9.82251L22.6182 12.0296C22.5115 12.1324 22.4265 12.2555 22.3678 12.3915C22.3092 12.5276 22.2778 12.6741 22.2764 12.8223C22.275 12.9705 22.3031 13.1173 22.3591 13.2544C22.4152 13.3916 22.4982 13.5162 22.603 13.621C22.7077 13.7257 22.8326 13.8085 22.9698 13.8645C23.1069 13.9205 23.2537 13.9486 23.4019 13.9472C23.55 13.9458 23.6969 13.915 23.8329 13.8563C23.969 13.7977 24.0915 13.7125 24.1943 13.6057L26.3973 11.3983C26.5576 11.2416 26.6667 11.0404 26.7108 10.8206C26.7549 10.6009 26.7319 10.3728 26.6444 10.1665C26.557 9.96009 26.4095 9.78479 26.221 9.66359C26.0325 9.5424 25.8116 9.48085 25.5875 9.48699ZM33.4114 9.48699C33.1903 9.48796 32.974 9.55465 32.7909 9.67856C32.6079 9.80247 32.4658 9.97819 32.3828 10.1831C32.2997 10.3879 32.28 10.6129 32.3251 10.8293C32.3702 11.0458 32.4784 11.2437 32.6364 11.3983L34.8438 13.6057C34.9465 13.7125 35.0691 13.7977 35.2051 13.8563C35.3412 13.915 35.488 13.9458 35.6362 13.9472C35.7843 13.9486 35.9311 13.9205 36.0683 13.8645C36.2055 13.8085 36.3303 13.7257 36.4351 13.621C36.5399 13.5162 36.6229 13.3916 36.6789 13.2544C36.735 13.1173 36.763 12.9705 36.7616 12.8223C36.7602 12.6741 36.7288 12.5276 36.6702 12.3915C36.6116 12.2555 36.5266 12.1324 36.4199 12.0296L34.2125 9.82251C34.1082 9.71586 33.9833 9.63111 33.8457 9.57352C33.708 9.51593 33.5605 9.48642 33.4114 9.48699Z" fill="white"/>
<path fill-rule="evenodd" clip-rule="evenodd" d="M35.6098 9.48699C35.3205 9.49502 35.0458 9.6155 34.8436 9.82251L32.6362 12.0296C32.5288 12.1323 32.4428 12.2553 32.3836 12.3915C32.3245 12.5278 32.2939 12.6744 32.2922 12.8228C32.2905 12.9713 32.3178 13.1186 32.3738 13.2561C32.4299 13.3936 32.5138 13.5187 32.6187 13.6237C32.7237 13.7287 32.8481 13.8114 32.9856 13.8675C33.1231 13.9236 33.2703 13.9516 33.4188 13.95C33.5672 13.9483 33.7136 13.9171 33.8498 13.858C33.986 13.7989 34.1096 13.713 34.2123 13.6057L36.4197 11.3983C36.5799 11.2416 36.6891 11.0404 36.7331 10.8206C36.7772 10.6009 36.7542 10.3728 36.6667 10.1665C36.5793 9.96009 36.4319 9.78479 36.2433 9.66359C36.0548 9.5424 35.8339 9.48085 35.6098 9.48699ZM13.3486 9.48699C13.1276 9.48796 12.9113 9.55465 12.7282 9.67856C12.5451 9.80247 12.4031 9.97819 12.3201 10.1831C12.237 10.3879 12.2173 10.6129 12.2624 10.8293C12.3075 11.0458 12.4157 11.2437 12.5737 11.3983L14.7811 13.6057C14.8838 13.7125 15.0064 13.7977 15.1424 13.8563C15.2785 13.915 15.4253 13.9458 15.5735 13.9472C15.7216 13.9486 15.8684 13.9205 16.0056 13.8645C16.1427 13.8085 16.2676 13.7257 16.3724 13.621C16.4772 13.5162 16.5601 13.3916 16.6162 13.2544C16.6723 13.1173 16.7003 12.9705 16.6989 12.8223C16.6975 12.6741 16.6661 12.5276 16.6075 12.3915C16.5489 12.2555 16.4639 12.1324 16.3572 12.0296L14.1498 9.82251C14.0454 9.71586 13.9206 9.63111 13.7829 9.57352C13.6453 9.51593 13.4978 9.48642 13.3486 9.48699Z" fill="white"/>
<path fill-rule="evenodd" clip-rule="evenodd" d="M15.5477 9.48699C15.2584 9.49502 14.9837 9.6155 14.7814 9.82251L12.574 12.0296C12.4667 12.1323 12.3806 12.2553 12.3215 12.3915C12.2624 12.5278 12.2317 12.6744 12.2301 12.8228C12.2284 12.9713 12.2556 13.1186 12.3117 13.2561C12.3677 13.3936 12.4516 13.5187 12.5566 13.6237C12.6616 13.7287 12.7859 13.8114 12.9234 13.8675C13.0609 13.9236 13.2081 13.9516 13.3566 13.95C13.5051 13.9483 13.6514 13.9171 13.7876 13.858C13.9238 13.7989 14.0475 13.713 14.1501 13.6057L16.3575 11.3983C16.5178 11.2416 16.6269 11.0404 16.671 10.8206C16.715 10.6009 16.692 10.3728 16.6046 10.1665C16.5171 9.96009 16.3697 9.78479 16.1812 9.66359C15.9926 9.5424 15.7717 9.48085 15.5477 9.48699Z" fill="white"/>
<path d="M1.11458 17.8333C0.818986 17.8333 0.535557 17.9508 0.326538 18.1598C0.11752 18.3688 2.95552e-05 18.6522 0 18.9478V42.3541C2.95552e-05 42.6497 0.11752 42.9331 0.326538 43.1421C0.535557 43.3512 0.818986 43.4686 1.11458 43.4687H8.91667C9.21226 43.4686 9.49569 43.3512 9.70471 43.1421C9.91373 42.9331 10.0312 42.6497 10.0312 42.3541V39.0103V37.8958H7.80208V39.0103V41.2395H2.22917V20.0624H7.80208V23.4062V24.5208H10.0312V23.4062V18.9478C10.0312 18.6522 9.91373 18.3688 9.70471 18.1598C9.49569 17.9508 9.21226 17.8333 8.91667 17.8333H1.11458ZM27.8602 37.8958V40.1249H30.0894V37.8958H27.8602Z" fill="white"/>
<path d="M61.5105 33.6361H58.4574C58.1067 33.6361 57.9624 33.4539 58.0839 33.1063L64.5466 14.6345H60.4482C60.1377 14.6345 59.9807 14.4888 59.9807 14.1979V11.8309C59.9807 11.5196 60.1369 11.3637 60.4482 11.3637C66.085 11.3637 71.7213 11.3637 77.358 11.3637C77.6701 11.3637 77.8252 11.5203 77.8252 11.8309V14.1979C77.8252 14.488 77.6693 14.6345 77.358 14.6345H73.2662L79.729 33.1063C79.8326 33.4597 79.7081 33.6361 79.355 33.6361H76.3019C76.0115 33.6361 75.8348 33.5119 75.7721 33.2625L74.2461 28.5589H63.5667L62.0403 33.2625C61.9603 33.5112 61.7793 33.6361 61.5105 33.6361ZM82.2206 18.2526C84.1305 17.5051 86.2273 17.1316 88.5112 17.1316C90.6698 17.1316 92.4035 17.7023 93.711 18.8443C95.0192 19.9863 95.6731 21.6882 95.6731 23.9512V27.3767C95.6731 29.3907 95.0293 30.9995 93.7423 32.2037C92.4553 33.4075 90.8052 34.0096 88.7912 34.0096C87.6496 34.0096 86.549 33.7815 85.4902 33.3248V39.0856C85.4902 39.3969 85.3344 39.5528 85.0231 39.5528H82.3451C82.0338 39.5528 81.8783 39.3969 81.8783 39.0856V18.7511C81.8783 18.5017 81.9924 18.3358 82.2206 18.2526ZM88.4799 30.8336C90.8257 30.8336 91.9986 29.6912 91.9986 27.4081V23.9207C91.9986 22.6329 91.6977 21.7095 91.096 21.1487C90.4939 20.5884 89.601 20.3076 88.4176 20.3076C87.1716 20.3076 86.196 20.453 85.4902 20.7438V29.9615C86.3414 30.5428 87.3375 30.8336 88.4799 30.8336ZM112.395 33.6361H109.25C108.98 33.6361 108.794 33.5425 108.69 33.3561L103.832 26.9718L102.555 28.342V33.1689C102.555 33.4802 102.399 33.6361 102.088 33.6361H99.5031C99.1918 33.6361 99.0364 33.4802 99.0364 33.1689V17.9727C99.0364 17.6613 99.1918 17.5051 99.5031 17.5051H102.088C102.399 17.5051 102.555 17.6613 102.555 17.9727V23.9822L108.129 17.7542C108.253 17.5883 108.44 17.5051 108.69 17.5051H111.835C112.042 17.5051 112.172 17.5569 112.224 17.6613C112.276 17.765 112.24 17.8996 112.115 18.0655L106.23 24.4497L112.707 33.0757C112.935 33.4493 112.831 33.6361 112.395 33.6361ZM127.747 27.7194C127.747 29.6502 127.104 31.1812 125.817 32.3124C124.529 33.4443 122.806 34.0096 120.648 34.0096C118.488 34.0096 116.765 33.4443 115.478 32.3124C114.191 31.1812 113.547 29.6502 113.547 27.7194V23.5467C113.547 21.5954 114.191 20.0381 115.478 18.8752C116.765 17.7132 118.488 17.1316 120.648 17.1316C122.806 17.1316 124.529 17.7132 125.817 18.8752C127.104 20.0381 127.747 21.5954 127.747 23.5467V27.7194ZM117.191 27.7194C117.191 29.7539 118.343 30.7713 120.648 30.7713C121.769 30.7713 122.625 30.5118 123.216 29.9925C123.808 29.4735 124.104 28.7155 124.104 27.7194V23.5467C124.104 22.5293 123.803 21.7454 123.201 21.1951C122.599 20.6456 121.748 20.3703 120.648 20.3703C119.527 20.3703 118.67 20.6402 118.078 21.18C117.487 21.7195 117.191 22.5088 117.191 23.5467V27.7194ZM135.002 33.6361H132.169C131.878 33.6361 131.733 33.4802 131.733 33.1689V11.8375C131.733 11.5261 131.878 11.3707 132.169 11.3707H135.563C135.812 11.3707 135.978 11.4852 136.061 11.7133L139.86 18.7824C140.649 20.2558 141.531 22.0834 142.507 24.2629H142.631C143.607 22.0834 144.49 20.2558 145.278 18.7824L149.046 11.7133C149.171 11.4852 149.347 11.3707 149.576 11.3707H152.939C153.25 11.3707 153.406 11.5261 153.406 11.8375V33.1689C153.406 33.4802 153.25 33.6361 152.939 33.6361H150.105C149.814 33.6361 149.669 33.4802 149.669 33.1689V26.9096C149.669 24.4601 149.752 21.2005 149.918 17.1316L149.825 17.1002C149.202 18.4499 148.268 20.3703 147.022 22.8611L144.282 28.1865C144.178 28.4151 144.002 28.5291 143.752 28.5291H141.386C141.137 28.5291 140.961 28.4151 140.857 28.1865L138.116 22.8611C136.871 20.3703 135.937 18.4499 135.314 17.1002L135.221 17.1316C135.387 21.2005 135.469 24.4601 135.469 26.9096V33.1689C135.469 33.4802 135.314 33.6361 135.002 33.6361ZM171.001 23.5158V26.6605C171.001 26.9514 170.844 27.0968 170.533 27.0968H161.067V27.968C161.067 28.9027 161.363 29.6135 161.954 30.1015C162.546 30.5895 163.35 30.8336 164.368 30.8336C165.883 30.8336 167.347 30.3556 168.758 29.4012C169.007 29.2345 169.215 29.2658 169.381 29.494L170.658 31.2071C170.866 31.4357 170.835 31.6534 170.564 31.8611C168.758 33.2934 166.651 34.0096 164.243 34.0096C162.333 34.0096 160.719 33.4853 159.401 32.4373C158.082 31.3885 157.423 29.8892 157.423 27.9375V23.5158C157.423 21.3769 158.088 19.7786 159.417 18.7198C160.745 17.6613 162.364 17.1316 164.274 17.1316C166.163 17.1316 167.757 17.6613 169.054 18.7198C170.352 19.7786 171.001 21.3769 171.001 23.5158ZM167.482 23.4845C167.482 22.4044 167.181 21.6054 166.578 21.0865C165.976 20.5671 165.208 20.3076 164.274 20.3076C162.136 20.3076 161.067 21.3664 161.067 23.4845V24.2935H167.482V23.4845ZM177.726 19.0624C178.806 18.5434 180.01 18.284 181.339 18.284C183.311 18.284 184.909 18.8393 186.134 19.9499C187.359 21.0606 187.971 22.6329 187.971 24.6674V27.439C187.971 29.6189 187.302 31.2589 185.963 32.3591C184.624 33.4593 182.958 34.0096 180.965 34.0096C179.035 34.0096 177.41 33.4543 176.092 32.3437C174.773 31.233 174.114 29.5876 174.114 27.4081V18.0036C174.114 16.0936 174.742 14.5885 175.998 13.4883C177.254 12.3877 178.744 11.6716 180.467 11.3398C182.938 10.9035 184.505 10.5191 185.169 10.1873C185.46 10.0624 185.667 10.115 185.792 10.3432L186.944 12.3046C187.069 12.5954 187.016 12.8031 186.788 12.928C186.062 13.3429 184.38 13.8515 181.743 14.4532C181.162 14.5986 180.674 14.744 180.28 14.8894C179.886 15.0348 179.47 15.2425 179.035 15.512C178.598 15.7823 178.271 16.1354 178.053 16.5712C177.835 17.007 177.726 17.526 177.726 18.1281V19.0624ZM180.934 30.7713C181.909 30.7713 182.714 30.501 183.347 29.9615C183.98 29.4217 184.297 28.5914 184.297 27.4703V24.7297C184.297 22.4875 183.197 21.3664 180.996 21.3664C179.771 21.3664 178.681 21.6159 177.726 22.114V27.439C177.726 28.581 178.028 29.4217 178.63 29.9615C179.232 30.501 180 30.7713 180.934 30.7713ZM204.413 23.5158V26.6605C204.413 26.9514 204.257 27.0968 203.946 27.0968H194.479V27.968C194.479 28.9027 194.776 29.6135 195.367 30.1015C195.959 30.5895 196.763 30.8336 197.78 30.8336C199.296 30.8336 200.759 30.3556 202.171 29.4012C202.42 29.2345 202.628 29.2658 202.794 29.494L204.071 31.2071C204.279 31.4357 204.247 31.6534 203.977 31.8611C202.171 33.2934 200.064 34.0096 197.656 34.0096C195.746 34.0096 194.132 33.4853 192.813 32.4373C191.495 31.3885 190.836 29.8892 190.836 27.9375V23.5158C190.836 21.3769 191.501 19.7786 192.829 18.7198C194.158 17.6613 195.777 17.1316 197.687 17.1316C199.576 17.1316 201.17 17.6613 202.467 18.7198C203.765 19.7786 204.413 21.3769 204.413 23.5158ZM200.895 23.4845C200.895 22.4044 200.593 21.6054 199.991 21.0865C199.39 20.5671 198.622 20.3076 197.687 20.3076C195.549 20.3076 194.479 21.3664 194.479 23.4845V24.2935H200.895V23.4845ZM212.229 28.342C211.835 30.3146 211.233 31.6998 210.423 32.4995C209.613 33.2989 208.326 33.7297 206.562 33.7919C206.271 33.7919 206.126 33.6361 206.126 33.3248V31.0513C206.126 30.7814 206.271 30.6155 206.562 30.5528C207.164 30.5118 207.636 30.2628 207.978 29.8057C208.321 29.349 208.606 28.5291 208.835 27.3454C209.188 25.2904 209.448 22.1557 209.613 17.9413C209.655 17.6505 209.81 17.5051 210.081 17.5051H220.668C220.979 17.5051 221.136 17.6505 221.136 17.9413V33.1689C221.136 33.4802 220.979 33.6361 220.668 33.6361H217.99C217.679 33.6361 217.523 33.4802 217.523 33.1689V20.6816H212.977C212.873 23.6504 212.624 26.2038 212.229 28.342ZM231.972 33.6361H225.526C225.214 33.6361 225.059 33.4802 225.059 33.1689V17.9413C225.059 17.6505 225.214 17.5051 225.526 17.5051H228.204C228.515 17.5051 228.671 17.6505 228.671 17.9413V22.737H231.972C233.882 22.737 235.423 23.225 236.596 24.2007C237.769 25.1763 238.356 26.526 238.356 28.2488C238.356 30.0961 237.79 31.4562 236.658 32.3282C235.527 33.1999 233.965 33.6361 231.972 33.6361ZM228.671 25.6953V30.6464H231.349C233.591 30.6464 234.712 29.8266 234.712 28.1865C234.733 27.3357 234.463 26.7069 233.903 26.3028C233.342 25.8979 232.491 25.6953 231.349 25.6953H228.671ZM68.0464 14.6345L64.6255 25.1628H73.1869L69.7668 14.6345H68.0464Z" fill="white"/>
</svg>
