<svg width="22" height="24" viewBox="0 0 22 24" fill="none" xmlns="http://www.w3.org/2000/svg">
<path d="M8.14523 19.1351C3.10497 20.6351 3.10497 16.6351 1.08887 16.1351M15.2016 22.1351V18.2351C15.3024 17.2351 14.8992 16.3351 14.2943 15.6351C17.4193 15.2351 20.7459 14.1351 20.7459 8.63512C20.7459 7.23512 20.2418 5.93512 19.2338 4.83512C19.7378 3.63512 19.637 2.23512 19.133 1.03512C19.133 1.03512 17.9233 0.635117 15.2016 2.53512C12.8831 1.93512 10.4637 1.93512 8.14523 2.53512C5.42349 0.835117 4.21383 1.13512 4.21383 1.13512C3.7098 2.33512 3.609 3.73512 4.11302 4.93512C3.10497 5.93512 2.60094 7.33512 2.60094 8.73512C2.60094 14.1351 5.92751 15.3351 9.05247 15.7351C8.34684 16.4351 8.04442 17.3351 8.14523 18.3351V22.1351" stroke="#4675CE" stroke-width="2" stroke-linecap="round" stroke-linejoin="round"/>
</svg>
