<svg width="25" height="25" viewBox="0 0 25 25" fill="none" xmlns="http://www.w3.org/2000/svg">
<path d="M23.1487 0H9.32954C8.34465 0 7.54346 0.80125 7.54346 1.78609V5.97815H9.17389V1.78609C9.17389 1.70027 9.24373 1.63043 9.32954 1.63043H23.1487C23.2345 1.63043 23.3043 1.70027 23.3043 1.78609V15.6052C23.3043 15.6911 23.2345 15.7609 23.1487 15.7609H19.0873V17.3914H23.1487C24.1335 17.3914 24.9348 16.5901 24.9348 15.6052V1.78609C24.9347 0.80125 24.1335 0 23.1487 0Z" fill="white"/>
<path d="M15.6706 7.60864H1.85157C0.86668 7.60864 0.0654297 8.40989 0.0654297 9.39478V23.2139C0.065484 24.1988 0.86668 25.0001 1.85157 25.0001H15.6707C16.6556 25.0001 17.4568 24.1988 17.4568 23.214V9.39478C17.4569 8.40989 16.6555 7.60864 15.6706 7.60864ZM15.6708 23.3696H1.85157C1.7657 23.3696 1.69586 23.2998 1.69586 23.214V9.39478C1.69586 9.30891 1.7657 9.23908 1.85157 9.23908H15.6707C15.7566 9.23908 15.8264 9.30891 15.8264 9.39478V23.214H15.8265C15.8265 23.2998 15.7566 23.3696 15.6708 23.3696Z" fill="white"/>
</svg>
