<svg width="239" height="44" viewBox="0 0 239 44" fill="none" xmlns="http://www.w3.org/2000/svg">
<path d="M12.9299 1.27295H36.1076C40.1843 1.27295 43.4666 4.55483 43.4666 8.63176V20.6641C43.4666 24.7411 40.1843 28.023 36.1076 28.023H12.9299C8.85318 28.023 5.5708 24.7411 5.5708 20.6641V8.63176C5.5708 4.55483 8.85318 1.27295 12.9299 1.27295Z" fill="#DCAF86"/>
<path d="M1.11243 42.3555H8.91451V18.9492H1.11243V42.3555ZM40.1228 42.3555H47.9249V18.9492H40.1228V42.3555Z" fill="#DCAF86"/>
<path d="M42.0734 39.0118V31.2097H6.96399V39.0118H42.0734Z" fill="#B79371"/>
<path d="M7.80969 30.476C7.80969 30.476 7.80969 27.6216 7.80969 26.1943C7.80992 24.9631 8.80769 23.9651 10.0389 23.9651H39.018C40.2492 23.9651 41.2474 24.9631 41.2472 26.1943C41.2463 27.6657 41.2483 30.6088 41.2483 30.6088L7.80969 30.476Z" fill="#DCAF86"/>
<path d="M40.125 17.8333C39.8294 17.8333 39.5459 17.9508 39.3369 18.1598C39.1279 18.3688 39.0104 18.6522 39.0104 18.9478V23.4062V24.5208H41.2395V23.4062V20.0624H46.8125V41.2395H41.2395V39.0103V37.8958H39.0104V39.0103V42.3541C39.0104 42.6497 39.1279 42.9331 39.3369 43.1421C39.5459 43.3511 39.8294 43.4686 40.125 43.4687H47.927C48.2226 43.4686 48.5061 43.3511 48.7151 43.1421C48.9241 42.9331 49.0416 42.6497 49.0416 42.3541V18.9478C49.0416 18.6522 48.9241 18.3688 48.7151 18.1598C48.5061 17.9508 48.2226 17.8333 47.927 17.8333H40.125Z" fill="#484848"/>
<path d="M10.0313 22.849C8.19776 22.849 6.68772 24.3594 6.6875 26.1927V28.4219H8.91667V26.1927C8.91667 25.5636 9.4024 25.0781 10.0313 25.0781H39.0104C39.6393 25.0781 40.125 25.5641 40.125 26.1927V28.4219H42.3542V26.1927C42.3544 24.359 40.8439 22.849 39.0104 22.849H10.0313ZM6.96615 30.0938C6.67055 30.0938 6.38712 30.2113 6.1781 30.4203C5.96908 30.6293 5.85159 30.9127 5.85156 31.2083V39.0104C5.85159 39.306 5.96908 39.5894 6.1781 39.7985C6.38712 40.0075 6.67055 40.125 6.96615 40.125H24.5208H25.6354V37.8958H24.5208H8.08073V32.3229H40.9609V37.8958H33.2982H32.1836V40.125H33.2982H42.0755C42.3711 40.125 42.6545 40.0075 42.8636 39.7985C43.0726 39.5894 43.1901 39.306 43.1901 39.0104V31.2083C43.1901 30.9127 43.0726 30.6293 42.8636 30.4203C42.6545 30.2113 42.3711 30.0938 42.0755 30.0938H6.96615ZM12.2604 0C7.9637 0 4.45398 3.50536 4.45398 7.80208V18.3906H6.6875V7.80208C6.6875 4.71201 9.17035 2.23379 12.2604 2.23379H36.7813C39.8711 2.23379 42.35 4.71201 42.3498 7.80208V15.6042H44.5833V7.80208C44.5836 3.50536 41.0777 0 36.7813 0H12.2604Z" fill="#484848"/>
<path fill-rule="evenodd" clip-rule="evenodd" d="M23.3928 9.48707C23.1718 9.48799 22.9555 9.55474 22.7724 9.67864C22.5893 9.80253 22.4473 9.97799 22.3642 10.1829C22.2812 10.3877 22.2615 10.6127 22.3066 10.8291C22.3517 11.0456 22.4599 11.2438 22.6179 11.3984L24.8209 13.6058C24.9237 13.7125 25.0462 13.7978 25.1823 13.8564C25.3183 13.9151 25.4651 13.9459 25.6133 13.9473C25.7615 13.9487 25.9083 13.9206 26.0454 13.8646C26.1826 13.8085 26.3075 13.7258 26.4122 13.621C26.517 13.5163 26.6 13.3917 26.656 13.2545C26.7121 13.1174 26.7402 12.9705 26.7388 12.8224C26.7374 12.6742 26.706 12.5277 26.6473 12.3916C26.5887 12.2556 26.5037 12.1325 26.397 12.0297L24.1939 9.82259C24.0896 9.71594 23.9648 9.63119 23.8271 9.5736C23.6895 9.51601 23.542 9.4865 23.3928 9.48707V9.48707Z" fill="#484848"/>
<path fill-rule="evenodd" clip-rule="evenodd" d="M25.5875 9.48699C25.2982 9.49502 25.0235 9.6155 24.8212 9.82251L22.6182 12.0296C22.5115 12.1324 22.4265 12.2555 22.3678 12.3915C22.3092 12.5276 22.2778 12.6741 22.2764 12.8223C22.275 12.9705 22.3031 13.1173 22.3591 13.2544C22.4152 13.3916 22.4982 13.5162 22.603 13.621C22.7077 13.7257 22.8326 13.8085 22.9698 13.8645C23.1069 13.9205 23.2537 13.9486 23.4019 13.9472C23.55 13.9458 23.6969 13.915 23.8329 13.8563C23.969 13.7977 24.0915 13.7125 24.1943 13.6057L26.3973 11.3983C26.5576 11.2416 26.6667 11.0404 26.7108 10.8206C26.7549 10.6009 26.7319 10.3728 26.6444 10.1665C26.557 9.96009 26.4095 9.78479 26.221 9.66359C26.0325 9.5424 25.8116 9.48085 25.5875 9.48699ZM33.4114 9.48699C33.1903 9.48796 32.974 9.55465 32.7909 9.67856C32.6079 9.80247 32.4658 9.97819 32.3828 10.1831C32.2997 10.3879 32.28 10.6129 32.3251 10.8293C32.3702 11.0458 32.4784 11.2437 32.6364 11.3983L34.8438 13.6057C34.9465 13.7125 35.0691 13.7977 35.2051 13.8563C35.3412 13.915 35.488 13.9458 35.6362 13.9472C35.7843 13.9486 35.9311 13.9205 36.0683 13.8645C36.2055 13.8085 36.3303 13.7257 36.4351 13.621C36.5399 13.5162 36.6229 13.3916 36.6789 13.2544C36.735 13.1173 36.763 12.9705 36.7616 12.8223C36.7602 12.6741 36.7288 12.5276 36.6702 12.3915C36.6116 12.2555 36.5266 12.1324 36.4199 12.0296L34.2125 9.82251C34.1082 9.71586 33.9833 9.63111 33.8457 9.57352C33.708 9.51593 33.5605 9.48642 33.4114 9.48699Z" fill="#484848"/>
<path fill-rule="evenodd" clip-rule="evenodd" d="M35.6097 9.48699C35.3204 9.49502 35.0457 9.6155 34.8434 9.82251L32.636 12.0296C32.5287 12.1323 32.4426 12.2553 32.3835 12.3915C32.3244 12.5278 32.2938 12.6744 32.2921 12.8228C32.2904 12.9713 32.3177 13.1186 32.3737 13.2561C32.4298 13.3936 32.5136 13.5187 32.6186 13.6237C32.7236 13.7287 32.8479 13.8114 32.9854 13.8675C33.1229 13.9236 33.2702 13.9516 33.4186 13.95C33.5671 13.9483 33.7135 13.9171 33.8497 13.858C33.9859 13.7989 34.1095 13.713 34.2121 13.6057L36.4195 11.3983C36.5798 11.2416 36.6889 11.0404 36.733 10.8206C36.7771 10.6009 36.7541 10.3728 36.6666 10.1665C36.5792 9.96009 36.4317 9.78479 36.2432 9.66359C36.0547 9.5424 35.8338 9.48085 35.6097 9.48699V9.48699ZM13.3485 9.48699C13.1275 9.48796 12.9112 9.55465 12.7281 9.67856C12.545 9.80247 12.403 9.97819 12.3199 10.1831C12.2369 10.3879 12.2171 10.6129 12.2622 10.8293C12.3073 11.0458 12.4156 11.2437 12.5735 11.3983L14.7809 13.6057C14.8837 13.7125 15.0062 13.7977 15.1423 13.8563C15.2784 13.915 15.4252 13.9458 15.5733 13.9472C15.7215 13.9486 15.8683 13.9205 16.0055 13.8645C16.1426 13.8085 16.2675 13.7257 16.3723 13.621C16.477 13.5162 16.56 13.3916 16.6161 13.2544C16.6721 13.1173 16.7002 12.9705 16.6988 12.8223C16.6974 12.6741 16.666 12.5276 16.6074 12.3915C16.5487 12.2555 16.4638 12.1324 16.357 12.0296L14.1496 9.82251C14.0453 9.71586 13.9204 9.63111 13.7828 9.57352C13.6452 9.51593 13.4977 9.48642 13.3485 9.48699Z" fill="#484848"/>
<path fill-rule="evenodd" clip-rule="evenodd" d="M15.5476 9.48699C15.2583 9.49502 14.9835 9.6155 14.7813 9.82251L12.5739 12.0296C12.4666 12.1323 12.3805 12.2553 12.3214 12.3915C12.2622 12.5278 12.2316 12.6744 12.2299 12.8228C12.2283 12.9713 12.2555 13.1186 12.3116 13.2561C12.3676 13.3936 12.4515 13.5187 12.5565 13.6237C12.6615 13.7287 12.7858 13.8114 12.9233 13.8675C13.0608 13.9236 13.208 13.9516 13.3565 13.95C13.505 13.9483 13.6513 13.9171 13.7875 13.858C13.9237 13.7989 14.0474 13.713 14.15 13.6057L16.3574 11.3983C16.5176 11.2416 16.6268 11.0404 16.6708 10.8206C16.7149 10.6009 16.6919 10.3728 16.6045 10.1665C16.517 9.96009 16.3696 9.78479 16.181 9.66359C15.9925 9.5424 15.7716 9.48085 15.5476 9.48699V9.48699Z" fill="#484848"/>
<path d="M1.11458 17.8333C0.818986 17.8333 0.535557 17.9508 0.326538 18.1598C0.11752 18.3688 2.95552e-05 18.6522 0 18.9478V42.3541C2.95552e-05 42.6497 0.11752 42.9331 0.326538 43.1421C0.535557 43.3511 0.818986 43.4686 1.11458 43.4687H8.91667C9.21226 43.4686 9.49569 43.3511 9.70471 43.1421C9.91373 42.9331 10.0312 42.6497 10.0312 42.3541V39.0103V37.8958H7.80208V39.0103V41.2395H2.22917V20.0624H7.80208V23.4062V24.5208H10.0312V23.4062V18.9478C10.0312 18.6522 9.91373 18.3688 9.70471 18.1598C9.49569 17.9508 9.21226 17.8333 8.91667 17.8333H1.11458ZM27.8602 37.8958V40.1249H30.0894V37.8958H27.8602Z" fill="#484848"/>
<path d="M61.2102 33.6361H58.1571C57.8064 33.6361 57.6621 33.4539 57.7836 33.1063L64.2463 14.6345H60.1479C59.8374 14.6345 59.6804 14.4888 59.6804 14.1979V11.8309C59.6804 11.5196 59.8366 11.3637 60.1479 11.3637C65.7847 11.3637 71.421 11.3637 77.0577 11.3637C77.3698 11.3637 77.5249 11.5203 77.5249 11.8309V14.1979C77.5249 14.488 77.369 14.6345 77.0577 14.6345H72.9659L79.4287 33.1063C79.5323 33.4597 79.4078 33.6361 79.0547 33.6361H76.0016C75.7112 33.6361 75.5345 33.5119 75.4718 33.2625L73.9459 28.5589H63.2664L61.74 33.2625C61.66 33.5112 61.479 33.6361 61.2102 33.6361ZM81.9203 18.2526C83.8302 17.5051 85.927 17.1316 88.2109 17.1316C90.3695 17.1316 92.1032 17.7023 93.4107 18.8443C94.7189 19.9863 95.3728 21.6882 95.3728 23.9512V27.3767C95.3728 29.3907 94.729 30.9995 93.442 32.2037C92.155 33.4075 90.5049 34.0096 88.4909 34.0096C87.3493 34.0096 86.2487 33.7815 85.1899 33.3248V39.0856C85.1899 39.3969 85.0341 39.5528 84.7228 39.5528H82.0448C81.7335 39.5528 81.578 39.3969 81.578 39.0856V18.7511C81.578 18.5017 81.6921 18.3358 81.9203 18.2526ZM88.1796 30.8336C90.5254 30.8336 91.6983 29.6912 91.6983 27.4081V23.9207C91.6983 22.6329 91.3974 21.7095 90.7957 21.1487C90.1936 20.5884 89.3007 20.3076 88.1173 20.3076C86.8713 20.3076 85.8957 20.453 85.1899 20.7438V29.9615C86.0411 30.5428 87.0372 30.8336 88.1796 30.8336ZM112.095 33.6361H108.95C108.68 33.6361 108.493 33.5425 108.389 33.3561L103.532 26.9718L102.255 28.342V33.1689C102.255 33.4802 102.099 33.6361 101.787 33.6361H99.2028C98.8915 33.6361 98.7361 33.4802 98.7361 33.1689V17.9727C98.7361 17.6613 98.8915 17.5051 99.2028 17.5051H101.787C102.099 17.5051 102.255 17.6613 102.255 17.9727V23.9822L107.829 17.7542C107.953 17.5883 108.14 17.5051 108.389 17.5051H111.535C111.742 17.5051 111.872 17.5569 111.924 17.6613C111.976 17.765 111.94 17.8996 111.815 18.0655L105.929 24.4497L112.406 33.0757C112.635 33.4493 112.531 33.6361 112.095 33.6361ZM127.447 27.7194C127.447 29.6502 126.804 31.1812 125.517 32.3124C124.229 33.4443 122.506 34.0096 120.348 34.0096C118.188 34.0096 116.465 33.4443 115.178 32.3124C113.891 31.1812 113.247 29.6502 113.247 27.7194V23.5467C113.247 21.5954 113.891 20.0381 115.178 18.8752C116.465 17.7132 118.188 17.1316 120.348 17.1316C122.506 17.1316 124.229 17.7132 125.517 18.8752C126.804 20.0381 127.447 21.5954 127.447 23.5467V27.7194ZM116.891 27.7194C116.891 29.7539 118.043 30.7713 120.348 30.7713C121.469 30.7713 122.325 30.5118 122.916 29.9925C123.508 29.4735 123.804 28.7155 123.804 27.7194V23.5467C123.804 22.5293 123.503 21.7454 122.901 21.1951C122.299 20.6456 121.447 20.3703 120.348 20.3703C119.226 20.3703 118.37 20.6402 117.778 21.18C117.187 21.7195 116.891 22.5088 116.891 23.5467V27.7194ZM134.702 33.6361H131.868C131.578 33.6361 131.432 33.4802 131.432 33.1689V11.8375C131.432 11.5261 131.578 11.3707 131.868 11.3707H135.263C135.512 11.3707 135.678 11.4852 135.761 11.7133L139.56 18.7824C140.349 20.2558 141.231 22.0834 142.207 24.2629H142.331C143.307 22.0834 144.19 20.2558 144.978 18.7824L148.746 11.7133C148.871 11.4852 149.047 11.3707 149.276 11.3707H152.639C152.95 11.3707 153.106 11.5261 153.106 11.8375V33.1689C153.106 33.4802 152.95 33.6361 152.639 33.6361H149.805C149.514 33.6361 149.369 33.4802 149.369 33.1689V26.9096C149.369 24.4601 149.452 21.2005 149.618 17.1316L149.525 17.1002C148.902 18.4499 147.968 20.3703 146.722 22.8611L143.982 28.1865C143.878 28.4151 143.702 28.5291 143.452 28.5291H141.086C140.836 28.5291 140.66 28.4151 140.556 28.1865L137.816 22.8611C136.571 20.3703 135.637 18.4499 135.013 17.1002L134.92 17.1316C135.086 21.2005 135.169 24.4601 135.169 26.9096V33.1689C135.169 33.4802 135.013 33.6361 134.702 33.6361ZM170.7 23.5158V26.6605C170.7 26.9514 170.544 27.0968 170.233 27.0968H160.766V27.968C160.766 28.9027 161.062 29.6135 161.654 30.1015C162.246 30.5895 163.05 30.8336 164.067 30.8336C165.583 30.8336 167.046 30.3556 168.458 29.4012C168.707 29.2345 168.915 29.2658 169.081 29.494L170.358 31.2071C170.565 31.4357 170.534 31.6534 170.264 31.8611C168.458 33.2934 166.351 34.0096 163.942 34.0096C162.033 34.0096 160.419 33.4853 159.1 32.4373C157.782 31.3885 157.123 29.8892 157.123 27.9375V23.5158C157.123 21.3769 157.788 19.7786 159.116 18.7198C160.444 17.6613 162.064 17.1316 163.974 17.1316C165.863 17.1316 167.457 17.6613 168.754 18.7198C170.052 19.7786 170.7 21.3769 170.7 23.5158ZM167.182 23.4845C167.182 22.4044 166.88 21.6054 166.278 21.0865C165.676 20.5671 164.908 20.3076 163.974 20.3076C161.836 20.3076 160.766 21.3664 160.766 23.4845V24.2935H167.182V23.4845ZM177.426 19.0624C178.506 18.5434 179.71 18.284 181.038 18.284C183.011 18.284 184.609 18.8393 185.834 19.9499C187.059 21.0606 187.671 22.6329 187.671 24.6674V27.439C187.671 29.6189 187.001 31.2589 185.663 32.3591C184.324 33.4593 182.658 34.0096 180.665 34.0096C178.734 34.0096 177.109 33.4543 175.791 32.3437C174.473 31.233 173.814 29.5876 173.814 27.4081V18.0036C173.814 16.0936 174.442 14.5885 175.698 13.4883C176.954 12.3877 178.443 11.6716 180.167 11.3398C182.637 10.9035 184.204 10.5191 184.869 10.1873C185.159 10.0624 185.367 10.115 185.491 10.3432L186.644 12.3046C186.769 12.5954 186.716 12.8031 186.488 12.928C185.762 13.3429 184.079 13.8515 181.443 14.4532C180.862 14.5986 180.374 14.744 179.979 14.8894C179.585 15.0348 179.17 15.2425 178.734 15.512C178.298 15.7823 177.971 16.1354 177.753 16.5712C177.535 17.007 177.426 17.526 177.426 18.1281V19.0624ZM180.633 30.7713C181.609 30.7713 182.413 30.501 183.047 29.9615C183.68 29.4217 183.997 28.5914 183.997 27.4703V24.7297C183.997 22.4875 182.897 21.3664 180.696 21.3664C179.471 21.3664 178.381 21.6159 177.426 22.114V27.439C177.426 28.581 177.727 29.4217 178.329 29.9615C178.931 30.501 179.699 30.7713 180.633 30.7713ZM204.113 23.5158V26.6605C204.113 26.9514 203.957 27.0968 203.646 27.0968H194.179V27.968C194.179 28.9027 194.475 29.6135 195.067 30.1015C195.659 30.5895 196.463 30.8336 197.48 30.8336C198.996 30.8336 200.459 30.3556 201.871 29.4012C202.12 29.2345 202.328 29.2658 202.493 29.494L203.77 31.2071C203.978 31.4357 203.947 31.6534 203.677 31.8611C201.871 33.2934 199.764 34.0096 197.355 34.0096C195.446 34.0096 193.831 33.4853 192.513 32.4373C191.195 31.3885 190.536 29.8892 190.536 27.9375V23.5158C190.536 21.3769 191.2 19.7786 192.529 18.7198C193.857 17.6613 195.477 17.1316 197.387 17.1316C199.276 17.1316 200.869 17.6613 202.167 18.7198C203.465 19.7786 204.113 21.3769 204.113 23.5158ZM200.594 23.4845C200.594 22.4044 200.293 21.6054 199.691 21.0865C199.089 20.5671 198.321 20.3076 197.387 20.3076C195.248 20.3076 194.179 21.3664 194.179 23.4845V24.2935H200.594V23.4845ZM211.929 28.342C211.534 30.3146 210.933 31.6998 210.123 32.4995C209.313 33.2989 208.026 33.7297 206.262 33.7919C205.971 33.7919 205.826 33.6361 205.826 33.3248V31.0513C205.826 30.7814 205.971 30.6155 206.262 30.5528C206.864 30.5118 207.336 30.2628 207.678 29.8057C208.021 29.349 208.306 28.5291 208.534 27.3454C208.887 25.2904 209.147 22.1557 209.313 17.9413C209.355 17.6505 209.51 17.5051 209.78 17.5051H220.368C220.679 17.5051 220.835 17.6505 220.835 17.9413V33.1689C220.835 33.4802 220.679 33.6361 220.368 33.6361H217.69C217.378 33.6361 217.223 33.4802 217.223 33.1689V20.6816H212.676C212.573 23.6504 212.323 26.2038 211.929 28.342ZM231.672 33.6361H225.225C224.914 33.6361 224.758 33.4802 224.758 33.1689V17.9413C224.758 17.6505 224.914 17.5051 225.225 17.5051H227.904C228.215 17.5051 228.371 17.6505 228.371 17.9413V22.737H231.672C233.581 22.737 235.123 23.225 236.296 24.2007C237.469 25.1763 238.055 26.526 238.055 28.2488C238.055 30.0961 237.489 31.4562 236.358 32.3282C235.227 33.1999 233.664 33.6361 231.672 33.6361ZM228.371 25.6953V30.6464H231.048C233.291 30.6464 234.412 29.8266 234.412 28.1865C234.433 27.3357 234.163 26.7069 233.603 26.3028C233.042 25.8979 232.191 25.6953 231.048 25.6953H228.371ZM67.7461 14.6345L64.3252 25.1628H72.8866L69.4666 14.6345H67.7461Z" fill="black"/>
</svg>
